<svg width="22" height="22" viewBox="0 0 22 22" fill="none" xmlns="http://www.w3.org/2000/svg">
<path d="M8.23813 4.60851V4.60851C7.38778 4.60851 6.9626 4.60851 6.60684 4.66486C4.6485 4.97503 3.11261 6.51092 2.80244 8.46926C2.74609 8.82502 2.74609 9.25019 2.74609 10.1005V11.9312C2.74609 14.4944 2.74609 15.776 3.24492 16.755C3.68371 17.6162 4.38385 18.3163 5.24501 18.7551C6.22402 19.2539 7.50562 19.2539 10.0688 19.2539H11.8995C14.4627 19.2539 15.7443 19.2539 16.7233 18.7551C17.5844 18.3163 18.2846 17.6162 18.7234 16.755C19.2222 15.776 19.2222 14.4944 19.2222 11.9312V10.1005C19.2222 9.25019 19.2222 8.82502 19.1659 8.46926C18.8557 6.51092 17.3198 4.97503 15.3615 4.66486C15.0057 4.60851 14.5805 4.60851 13.7302 4.60851V4.60851M8.23813 4.60851V5.98152M8.23813 4.60851V2.77783M8.23813 4.60851H13.7302M13.7302 4.60851V2.77783M13.7302 4.60851V5.98152M10.9842 15.5926V9.18521M6.86512 15.5926V9.18521M15.1032 15.5926V9.18521" stroke="#1C1D1D" stroke-width="1.37301" stroke-linecap="round" stroke-linejoin="round"/>
</svg>
