<svg width="22" height="22" viewBox="0 0 22 22" fill="none" xmlns="http://www.w3.org/2000/svg">
<path d="M7.32279 16.4987V13.7526M10.9842 11.922V16.4987M14.6455 16.4987V10.0913M5.94978 10.5489L7.29039 8.9849C8.16076 7.96947 9.50469 7.49232 10.8205 7.73156V7.73156C12.6428 8.06289 14.5117 7.47909 15.8213 6.16942L16.0185 5.97224M9.33654 19.2447H12.6318C15.3776 19.2447 16.7505 19.2447 17.7129 18.5454C18.0238 18.3196 18.2971 18.0462 18.523 17.7354C19.2222 16.773 19.2222 15.4 19.2222 12.6542V9.359C19.2222 6.61318 19.2222 5.24027 18.523 4.27782C18.2971 3.96699 18.0238 3.69364 17.7129 3.46781C16.7505 2.76855 15.3776 2.76855 12.6318 2.76855H9.33654C6.59072 2.76855 5.2178 2.76855 4.25536 3.46781C3.94453 3.69364 3.67118 3.96699 3.44535 4.27782C2.74609 5.24027 2.74609 6.61318 2.74609 9.359V12.6542C2.74609 15.4 2.74609 16.773 3.44535 17.7354C3.67118 18.0462 3.94453 18.3196 4.25536 18.5454C5.2178 19.2447 6.59072 19.2447 9.33654 19.2447Z" stroke="#1C1D1D" stroke-width="1.37301" stroke-linecap="round" stroke-linejoin="round"/>
</svg>
