<svg width="34" height="34" viewBox="0 0 34 34" fill="none" xmlns="http://www.w3.org/2000/svg">
<circle cx="17.0986" cy="16.5986" r="16.5986" fill="black"/>
<path d="M16.9669 14.4785C15.3176 14.4785 13.9238 15.8722 13.9238 17.5216C13.9238 19.1709 15.3176 20.5647 16.9669 20.5647C18.6163 20.5647 20.01 19.1709 20.01 17.5216C20.01 15.8722 18.6163 14.4785 16.9669 14.4785Z" fill="white"/>
<path d="M25.0817 10.42H22.4586L19.7127 7.67416C19.5225 7.48392 19.2646 7.37701 18.9956 7.37695H14.9381C14.6691 7.37701 14.4112 7.48392 14.221 7.67416L11.4751 10.42H8.85196C7.73312 10.42 6.82324 11.3299 6.82324 12.4488V23.6067C6.82324 24.7256 7.73312 25.6354 8.85196 25.6354H25.0817C26.2006 25.6354 27.1105 24.7256 27.1105 23.6067V12.4488C27.1105 11.3299 26.2006 10.42 25.0817 10.42ZM16.9669 22.5924C14.2179 22.5924 11.895 20.2695 11.895 17.5206C11.895 14.7716 14.2179 12.4488 16.9669 12.4488C19.7158 12.4488 22.0387 14.7716 22.0387 17.5206C22.0387 20.2695 19.7158 22.5924 16.9669 22.5924Z" fill="white"/>
</svg>
