<svg width="12" height="13" viewBox="0 0 12 13" fill="none" xmlns="http://www.w3.org/2000/svg">
<path d="M6 0.386841C9.3138 0.386841 12 3.07304 12 6.38684C12 9.70064 9.3138 12.3868 6 12.3868C2.6862 12.3868 0 9.70064 0 6.38684C0 3.07304 2.6862 0.386841 6 0.386841ZM6 2.78684C5.84087 2.78684 5.68826 2.85006 5.57574 2.96258C5.46321 3.0751 5.4 3.22771 5.4 3.38684V6.38684C5.40003 6.54596 5.46327 6.69855 5.5758 6.81104L7.3758 8.61104C7.48896 8.72034 7.64052 8.78081 7.79784 8.77945C7.95516 8.77808 8.10565 8.71498 8.21689 8.60373C8.32814 8.49249 8.39124 8.342 8.3926 8.18468C8.39397 8.02736 8.3335 7.8758 8.2242 7.76264L6.6 6.13844V3.38684C6.6 3.22771 6.53679 3.0751 6.42426 2.96258C6.31174 2.85006 6.15913 2.78684 6 2.78684Z" fill="#FF702D"/>
</svg>
