<svg width="17" height="20" viewBox="0 0 17 20" fill="none" xmlns="http://www.w3.org/2000/svg">
<path fill-rule="evenodd" clip-rule="evenodd" d="M12.75 2.896V3.11039C13.9768 3.22258 15.1987 3.38389 16.4126 3.59395C16.5042 3.60982 16.5918 3.64359 16.6705 3.69334C16.7491 3.74308 16.8171 3.80782 16.8707 3.88385C16.9243 3.95989 16.9623 4.04573 16.9827 4.13649C17.0032 4.22724 17.0055 4.32113 16.9896 4.41278C16.9737 4.50444 16.94 4.59207 16.8902 4.67067C16.8405 4.74927 16.7757 4.81731 16.6997 4.87089C16.6237 4.92448 16.5378 4.96256 16.4471 4.98297C16.3563 5.00338 16.2624 5.00571 16.1708 4.98984L15.9734 4.95678L15.0242 17.3007C14.9695 18.0124 14.6482 18.6772 14.1244 19.1622C13.6007 19.6473 12.9132 19.9167 12.1994 19.9168H4.80156C4.08774 19.9167 3.40025 19.6473 2.87653 19.1622C2.3528 18.6772 2.03145 18.0124 1.97673 17.3007L1.02662 4.95678L0.829228 4.98984C0.737573 5.00571 0.643688 5.00338 0.552935 4.98297C0.462181 4.96256 0.376335 4.92448 0.3003 4.87089C0.146738 4.76268 0.0424568 4.59789 0.010395 4.41278C-0.0216667 4.22767 0.021118 4.03741 0.129337 3.88385C0.237556 3.73029 0.402344 3.62601 0.587451 3.59395C1.80131 3.38364 3.02316 3.22233 4.25001 3.11039V2.896C4.25001 1.41889 5.39562 0.157114 6.90956 0.108947C7.9699 0.0750125 9.03106 0.0750125 10.0914 0.108947C11.6053 0.157114 12.75 1.41889 12.75 2.896ZM6.9549 1.52467C7.98502 1.49172 9.01594 1.49172 10.0461 1.52467C10.7572 1.54734 11.3333 2.14611 11.3333 2.896V3.00272C9.44619 2.88811 7.55382 2.88811 5.66667 3.00272V2.896C5.66667 2.14611 6.24184 1.54734 6.9549 1.52467ZM6.61962 7.13939C6.61602 7.04637 6.59414 6.95497 6.55522 6.87041C6.5163 6.78585 6.4611 6.70978 6.39278 6.64655C6.32447 6.58331 6.24436 6.53416 6.15705 6.50188C6.06973 6.46961 5.97691 6.45485 5.88389 6.45845C5.79087 6.46204 5.69947 6.48393 5.61491 6.52285C5.53035 6.56177 5.45428 6.61696 5.39105 6.68528C5.32782 6.7536 5.27866 6.8337 5.24639 6.92102C5.21411 7.00833 5.19935 7.10115 5.20295 7.19417L5.53067 15.6942C5.53794 15.8819 5.61948 16.0591 5.75737 16.1867C5.82564 16.2499 5.90569 16.299 5.99295 16.3312C6.08021 16.3635 6.17296 16.3782 6.26592 16.3746C6.35888 16.371 6.45022 16.3492 6.53472 16.3103C6.61923 16.2714 6.69525 16.2162 6.75843 16.1479C6.82162 16.0797 6.87074 15.9996 6.90299 15.9124C6.93524 15.8251 6.94999 15.7323 6.94639 15.6394L6.61962 7.13939ZM11.7952 7.19417C11.8021 7.09936 11.7899 7.00413 11.7592 6.91415C11.7286 6.82417 11.6801 6.74128 11.6167 6.67042C11.5534 6.59956 11.4764 6.54218 11.3904 6.50169C11.3044 6.46121 11.2111 6.43845 11.1161 6.43477C11.0211 6.43109 10.9264 6.44657 10.8375 6.48028C10.7486 6.514 10.6674 6.56526 10.5988 6.63101C10.5301 6.69676 10.4754 6.77565 10.4379 6.86299C10.4004 6.95033 10.3808 7.04433 10.3804 7.13939L10.0527 15.6394C10.0454 15.8273 10.1131 16.0103 10.2408 16.1483C10.3685 16.2863 10.5458 16.3678 10.7336 16.3751C10.9215 16.3824 11.1045 16.3147 11.2425 16.187C11.3805 16.0593 11.4621 15.882 11.4693 15.6942L11.7952 7.19417Z" fill="black"/>
</svg>
