<svg width="18" height="19" viewBox="0 0 18 19" fill="none" xmlns="http://www.w3.org/2000/svg">
<path fill-rule="evenodd" clip-rule="evenodd" d="M15.5625 15.5C15.5625 16.0468 15.345 16.5717 14.9587 16.9587C14.5717 17.345 14.0468 17.5625 13.5 17.5625H4.5C3.95325 17.5625 3.42825 17.345 3.04125 16.9587C2.655 16.5717 2.4375 16.0468 2.4375 15.5V3.5C2.4375 2.95325 2.655 2.42825 3.04125 2.04125C3.42825 1.655 3.95325 1.4375 4.5 1.4375H10.9395C11.2875 1.4375 11.6213 1.5755 11.8673 1.82225L15.1777 5.13275C15.4245 5.37875 15.5625 5.7125 15.5625 6.0605V15.5ZM14.4375 15.5V6.0605C14.4375 6.011 14.418 5.963 14.3827 5.92775L11.0722 2.61725C11.037 2.582 10.989 2.5625 10.9395 2.5625H4.5C4.251 2.5625 4.01325 2.6615 3.837 2.837C3.6615 3.01325 3.5625 3.251 3.5625 3.5V15.5C3.5625 15.749 3.6615 15.9868 3.837 16.163C4.01325 16.3385 4.251 16.4375 4.5 16.4375H13.5C13.749 16.4375 13.9868 16.3385 14.163 16.163C14.3385 15.9868 14.4375 15.749 14.4375 15.5Z" fill="black"/>
<path fill-rule="evenodd" clip-rule="evenodd" d="M10.6875 2.375C10.6875 2.0645 10.9395 1.8125 11.25 1.8125C11.5605 1.8125 11.8125 2.0645 11.8125 2.375V5C11.8125 5.1035 11.8965 5.1875 12 5.1875H14.625C14.9355 5.1875 15.1875 5.4395 15.1875 5.75C15.1875 6.0605 14.9355 6.3125 14.625 6.3125H12C11.2747 6.3125 10.6875 5.72525 10.6875 5V2.375Z" fill="black"/>
<path fill-rule="evenodd" clip-rule="evenodd" d="M6 8.9375C5.6895 8.9375 5.4375 8.6855 5.4375 8.375C5.4375 8.0645 5.6895 7.8125 6 7.8125H12C12.3105 7.8125 12.5625 8.0645 12.5625 8.375C12.5625 8.6855 12.3105 8.9375 12 8.9375H6Z" fill="black"/>
<path fill-rule="evenodd" clip-rule="evenodd" d="M6 11.5625C5.6895 11.5625 5.4375 11.3105 5.4375 11C5.4375 10.6895 5.6895 10.4375 6 10.4375H12C12.3105 10.4375 12.5625 10.6895 12.5625 11C12.5625 11.3105 12.3105 11.5625 12 11.5625H6Z" fill="black"/>
<path fill-rule="evenodd" clip-rule="evenodd" d="M6 14.1875C5.6895 14.1875 5.4375 13.9355 5.4375 13.625C5.4375 13.3145 5.6895 13.0625 6 13.0625H9.375C9.6855 13.0625 9.9375 13.3145 9.9375 13.625C9.9375 13.9355 9.6855 14.1875 9.375 14.1875H6Z" fill="black"/>
</svg>
