<svg width="14" height="14" viewBox="0 0 14 14" fill="none" xmlns="http://www.w3.org/2000/svg">
<path d="M12.6763 1.3234C12.3892 1.03629 11.9997 0.875 11.5937 0.875C11.1876 0.875 10.7981 1.03629 10.511 1.3234L9.83607 1.99832L12.0014 4.16365L12.6763 3.48874C12.9634 3.20158 13.1247 2.81214 13.1247 2.40607C13.1247 2 12.9634 1.61056 12.6763 1.3234ZM11.3825 4.78257L9.21715 2.61724L4.31715 7.51724C3.95715 7.87706 3.69251 8.32094 3.54715 8.80873L3.08049 10.375C3.05796 10.4506 3.05628 10.5308 3.07562 10.6073C3.09497 10.6838 3.13463 10.7536 3.1904 10.8093C3.24616 10.8651 3.31597 10.9048 3.39243 10.9241C3.46889 10.9434 3.54916 10.9418 3.62474 10.9192L5.19099 10.4526C5.67879 10.3072 6.12266 10.0426 6.48249 9.68257L11.3825 4.78257Z" fill="black"/>
<path d="M3.0625 3.0625C2.59837 3.0625 2.15325 3.24687 1.82506 3.57506C1.49687 3.90325 1.3125 4.34837 1.3125 4.8125V10.9375C1.3125 11.4016 1.49687 11.8467 1.82506 12.1749C2.15325 12.5031 2.59837 12.6875 3.0625 12.6875H9.1875C9.65163 12.6875 10.0967 12.5031 10.4249 12.1749C10.7531 11.8467 10.9375 11.4016 10.9375 10.9375V7.875C10.9375 7.75897 10.8914 7.64769 10.8094 7.56564C10.7273 7.48359 10.616 7.4375 10.5 7.4375C10.384 7.4375 10.2727 7.48359 10.1906 7.56564C10.1086 7.64769 10.0625 7.75897 10.0625 7.875V10.9375C10.0625 11.1696 9.97031 11.3921 9.80622 11.5562C9.64212 11.7203 9.41956 11.8125 9.1875 11.8125H3.0625C2.83044 11.8125 2.60788 11.7203 2.44378 11.5562C2.27969 11.3921 2.1875 11.1696 2.1875 10.9375V4.8125C2.1875 4.58044 2.27969 4.35788 2.44378 4.19378C2.60788 4.02969 2.83044 3.9375 3.0625 3.9375H6.125C6.24103 3.9375 6.35231 3.89141 6.43436 3.80936C6.51641 3.72731 6.5625 3.61603 6.5625 3.5C6.5625 3.38397 6.51641 3.27269 6.43436 3.19064C6.35231 3.10859 6.24103 3.0625 6.125 3.0625H3.0625Z" fill="black"/>
</svg>
