<svg width="18" height="18" viewBox="0 0 18 18" fill="none" xmlns="http://www.w3.org/2000/svg">
<g clip-path="url(#clip0_28_776)">
<path d="M18 3.91574C18 3.00238 17.2569 2.25928 16.3435 2.25928H1.65646C0.743276 2.25931 0.000316407 3.00206 0 3.91602V3.9163V14.0835C0 15.0083 0.750659 15.7405 1.65703 15.7405H16.3429C17.2677 15.7405 18 14.9899 18 14.0835V3.9163C18 3.91623 18 3.91616 18 3.91609C18 3.91599 18 3.91588 18 3.91574ZM1.65646 3.314H16.3435C16.6753 3.314 16.9453 3.58397 16.9453 3.91662C16.9453 4.09339 16.8575 4.25746 16.7101 4.35562L9.33416 9.27315C9.1312 9.40847 8.86887 9.4085 8.66587 9.27315C8.66587 9.27315 1.28971 4.35551 1.28985 4.35562C1.28989 4.35565 1.28975 4.35555 1.28971 4.35551C1.14255 4.25746 1.05469 4.09339 1.05469 3.91574C1.05469 3.58394 1.32466 3.314 1.65646 3.314ZM16.343 14.6858H1.65703C1.3287 14.6858 1.05469 14.4204 1.05469 14.0835V5.46645L8.0808 10.1507C8.36001 10.3368 8.68001 10.4299 9 10.4299C9.32003 10.4299 9.64006 10.3368 9.91923 10.1507L16.9453 5.46645V14.0835C16.9453 14.4118 16.6798 14.6858 16.343 14.6858Z" fill="black"/>
</g>
<defs>
<clipPath id="clip0_28_776">
<rect width="18" height="18" fill="white"/>
</clipPath>
</defs>
</svg>
