<svg width="18" height="18" viewBox="0 0 18 18" fill="none" xmlns="http://www.w3.org/2000/svg">
<path d="M12.5888 6.36478C12.5478 6.33552 12.5011 6.31519 12.4518 6.30511C12.4024 6.29503 12.3515 6.29542 12.3023 6.30627C12.2531 6.31711 12.2067 6.33815 12.1661 6.36805C12.1256 6.39794 12.0918 6.43601 12.0668 6.4798C12.0188 6.56476 11.9713 6.64516 11.9243 6.721C11.9162 6.51094 11.9011 6.29764 11.8793 6.0793C11.3362 1.43854 7.164 0.555284 7.12134 0.547004C7.05699 0.534159 6.99036 0.539146 6.92864 0.561423C6.86692 0.583701 6.81246 0.622423 6.77116 0.673405C6.72985 0.724386 6.70326 0.785688 6.69426 0.850684C6.68527 0.915681 6.69421 0.9819 6.72012 1.04218C7.2 2.15998 6.31386 4.50592 4.34916 7.31986L4.31154 7.36792C4.30398 7.37548 4.29678 7.3834 4.28976 7.39168C3.49531 8.33637 3.00386 9.49845 2.87944 10.7265C2.75502 11.9545 3.00341 13.1916 3.59224 14.2764C4.18107 15.3612 5.08302 16.2435 6.18056 16.8083C7.27809 17.3731 8.52031 17.5942 9.74531 17.4427C10.9703 17.2913 12.1213 16.7743 13.0482 15.9593C13.9752 15.1442 14.6351 14.0688 14.942 12.8732C15.2489 11.6777 15.1886 10.4174 14.7688 9.25663C14.3491 8.09586 13.5894 7.08845 12.5888 6.36568V6.36478ZM9 16.74C7.56422 16.7384 6.18771 16.1673 5.17246 15.152C4.15721 14.1368 3.58614 12.7603 3.58452 11.3245C3.5768 10.0603 4.01866 8.83451 4.8312 7.86598L4.8555 7.84186C4.87097 7.82643 4.88501 7.80962 4.89744 7.79164L4.93938 7.73134C6.05826 6.12934 7.75674 3.33934 7.55064 1.42432C8.61012 1.81798 10.7941 3.00238 11.1631 6.15688C11.2211 6.71113 11.2271 7.26958 11.1811 7.82494C11.1747 7.8992 11.1915 7.9736 11.2293 8.03787C11.267 8.10215 11.3237 8.15313 11.3917 8.18379C11.4596 8.21444 11.5354 8.22326 11.6085 8.20902C11.6817 8.19479 11.7486 8.1582 11.8001 8.1043C12.0544 7.82098 12.2822 7.51496 12.4807 7.19008C13.3324 7.90306 13.9437 8.86112 14.2316 9.93391C14.5195 11.0067 14.4699 12.1421 14.0895 13.1857C13.7092 14.2293 13.0165 15.1304 12.1059 15.7663C11.1952 16.4023 10.1107 16.7423 9 16.74Z" fill="black"/>
<path d="M8.62537 14.3662C7.97878 14.3655 7.35887 14.1083 6.90166 13.6511C6.44444 13.1939 6.18727 12.574 6.18655 11.9274C6.18655 11.8319 6.14862 11.7403 6.08111 11.6728C6.0136 11.6053 5.92203 11.5674 5.82655 11.5674C5.73107 11.5674 5.63951 11.6053 5.57199 11.6728C5.50448 11.7403 5.46655 11.8319 5.46655 11.9274C5.46751 12.7649 5.80061 13.5678 6.3928 14.16C6.98499 14.7521 7.78789 15.0853 8.62537 15.0862C8.72085 15.0862 8.81242 15.0483 8.87993 14.9808C8.94744 14.9132 8.98537 14.8217 8.98537 14.7262C8.98537 14.6307 8.94744 14.5392 8.87993 14.4716C8.81242 14.4041 8.72085 14.3662 8.62537 14.3662Z" fill="black"/>
</svg>
