<svg width="18" height="18" viewBox="0 0 18 18" fill="none" xmlns="http://www.w3.org/2000/svg">
<path fill-rule="evenodd" clip-rule="evenodd" d="M5.0625 1.6875C5.21168 1.6875 5.35476 1.74676 5.46025 1.85225C5.56574 1.95774 5.625 2.10082 5.625 2.25V3.375H12.375V2.25C12.375 2.10082 12.4343 1.95774 12.5398 1.85225C12.6452 1.74676 12.7883 1.6875 12.9375 1.6875C13.0867 1.6875 13.2298 1.74676 13.3352 1.85225C13.4407 1.95774 13.5 2.10082 13.5 2.25V3.375H14.0625C14.6592 3.375 15.2315 3.61205 15.6535 4.03401C16.0754 4.45597 16.3125 5.02826 16.3125 5.625V14.0625C16.3125 14.6592 16.0754 15.2315 15.6535 15.6535C15.2315 16.0754 14.6592 16.3125 14.0625 16.3125H3.9375C3.34076 16.3125 2.76847 16.0754 2.34651 15.6535C1.92455 15.2315 1.6875 14.6592 1.6875 14.0625V5.625C1.6875 5.02826 1.92455 4.45597 2.34651 4.03401C2.76847 3.61205 3.34076 3.375 3.9375 3.375H4.5V2.25C4.5 2.10082 4.55926 1.95774 4.66475 1.85225C4.77024 1.74676 4.91332 1.6875 5.0625 1.6875ZM15.1875 8.4375C15.1875 8.13913 15.069 7.85298 14.858 7.642C14.647 7.43103 14.3609 7.3125 14.0625 7.3125H3.9375C3.63913 7.3125 3.35298 7.43103 3.142 7.642C2.93103 7.85298 2.8125 8.13913 2.8125 8.4375V14.0625C2.8125 14.3609 2.93103 14.647 3.142 14.858C3.35298 15.069 3.63913 15.1875 3.9375 15.1875H14.0625C14.3609 15.1875 14.647 15.069 14.858 14.858C15.069 14.647 15.1875 14.3609 15.1875 14.0625V8.4375Z" fill="#1E293B"/>
</svg>
