<svg width="18" height="18" viewBox="0 0 18 18" fill="none" xmlns="http://www.w3.org/2000/svg">
<path d="M12.2737 16.8748H5.72623C4.98579 16.9023 4.26441 16.6365 3.71882 16.1352C3.17324 15.6339 2.84754 14.9375 2.81248 14.1973V10.6873C2.81248 10.5382 2.87175 10.3951 2.97723 10.2896C3.08272 10.1841 3.2258 10.1248 3.37498 10.1248C3.52417 10.1248 3.66724 10.1841 3.77273 10.2896C3.87822 10.3951 3.93748 10.5382 3.93748 10.6873V14.1973C3.97205 14.6392 4.17904 15.0496 4.51373 15.3401C4.84842 15.6306 5.28395 15.7778 5.72623 15.7498H12.2737C12.716 15.7778 13.1515 15.6306 13.4862 15.3401C13.8209 15.0496 14.0279 14.6392 14.0625 14.1973V10.6873C14.0625 10.5382 14.1217 10.3951 14.2272 10.2896C14.3327 10.1841 14.4758 10.1248 14.625 10.1248C14.7742 10.1248 14.9172 10.1841 15.0227 10.2896C15.1282 10.3951 15.1875 10.5382 15.1875 10.6873V14.1973C15.1524 14.9375 14.8267 15.6339 14.2811 16.1352C13.7356 16.6365 13.0142 16.9023 12.2737 16.8748ZM16.7119 9.39922C16.7646 9.34693 16.8064 9.28471 16.835 9.21617C16.8635 9.14762 16.8782 9.0741 16.8782 8.99984C16.8782 8.92559 16.8635 8.85207 16.835 8.78352C16.8064 8.71497 16.7646 8.65276 16.7119 8.60047L9.39936 1.28797C9.34706 1.23525 9.28485 1.1934 9.21631 1.16484C9.14776 1.13628 9.07424 1.12158 8.99998 1.12158C8.92573 1.12158 8.8522 1.13628 8.78366 1.16484C8.71511 1.1934 8.6529 1.23525 8.60061 1.28797L1.28811 8.60047C1.18219 8.70639 1.12268 8.85005 1.12268 8.99984C1.12268 9.14964 1.18219 9.2933 1.28811 9.39922C1.39403 9.50514 1.53769 9.56464 1.68748 9.56464C1.83728 9.56464 1.98094 9.50514 2.08686 9.39922L8.99998 2.48047L15.9131 9.39922C15.9654 9.45194 16.0276 9.49379 16.0962 9.52235C16.1647 9.5509 16.2382 9.56561 16.3125 9.56561C16.3867 9.56561 16.4603 9.5509 16.5288 9.52235C16.5974 9.49379 16.6596 9.45194 16.7119 9.39922Z" fill="black"/>
</svg>
