<svg width="22" height="24" viewBox="0 0 22 24" fill="none" xmlns="http://www.w3.org/2000/svg">
<path fill-rule="evenodd" clip-rule="evenodd" d="M0.601562 2.4C0.601562 1.07452 1.67607 0 3.00156 0H16.1329L21.4016 5.26862V21.6C21.4016 22.9254 20.327 24 19.0016 24H3.00156C1.67607 24 0.601562 22.9254 0.601562 21.6V2.4ZM4.60156 9.6H2.20156V17.6H3.80156V14.4H4.60156C5.92705 14.4 7.00156 13.3255 7.00156 12C7.00156 10.6745 5.92705 9.6 4.60156 9.6ZM11.0016 9.6H8.60156V17.6H11.0016C12.3271 17.6 13.4016 16.5254 13.4016 15.2V12C13.4016 10.6745 12.3271 9.6 11.0016 9.6ZM15.0016 17.6V9.6H19.8016V11.2H16.6016V12.8H18.2016V14.4H16.6016V17.6H15.0016Z" fill="#EF4444"/>
</svg>
