<svg width="18" height="18" viewBox="0 0 18 18" fill="none" xmlns="http://www.w3.org/2000/svg">
<path d="M10.4963 9.20831C11.1789 8.87069 11.7272 8.31214 12.0522 7.62344C12.3772 6.93473 12.4597 6.15635 12.2864 5.41481C12.113 4.67326 11.694 4.01215 11.0973 3.5389C10.5007 3.06566 9.76154 2.80811 9 2.80811C8.23846 2.80811 7.49931 3.06566 6.90267 3.5389C6.30602 4.01215 5.88697 4.67326 5.71361 5.41481C5.54025 6.15635 5.62278 6.93473 5.94778 7.62344C6.27277 8.31214 6.82114 8.87069 7.50375 9.20831C6.31792 9.53553 5.27204 10.2425 4.52633 11.2208C3.78062 12.1992 3.3762 13.395 3.375 14.6252V15.1877C3.375 15.3369 3.43426 15.4799 3.53975 15.5854C3.64524 15.6909 3.78832 15.7502 3.9375 15.7502H14.0625C14.2117 15.7502 14.3548 15.6909 14.4602 15.5854C14.5657 15.4799 14.625 15.3369 14.625 15.1877V14.6252C14.6238 13.395 14.2194 12.1992 13.4737 11.2208C12.728 10.2425 11.6821 9.53553 10.4963 9.20831ZM6.75 6.18768C6.75 5.74268 6.88196 5.30766 7.12919 4.93765C7.37643 4.56764 7.72783 4.27925 8.13896 4.10896C8.5501 3.93866 9.0025 3.8941 9.43895 3.98092C9.87541 4.06773 10.2763 4.28203 10.591 4.59669C10.9057 4.91136 11.12 5.31227 11.2068 5.74873C11.2936 6.18519 11.249 6.63759 11.0787 7.04872C10.9084 7.45986 10.62 7.81126 10.25 8.05849C9.88002 8.30572 9.44501 8.43768 9 8.43768C8.40326 8.43768 7.83097 8.20063 7.40901 7.77868C6.98705 7.35672 6.75 6.78442 6.75 6.18768ZM4.5 14.6252C4.5 13.4317 4.97411 12.2871 5.81802 11.4432C6.66193 10.5993 7.80653 10.1252 9 10.1252C10.1935 10.1252 11.3381 10.5993 12.182 11.4432C13.0259 12.2871 13.5 13.4317 13.5 14.6252H4.5Z" fill="black"/>
</svg>
