<svg width="665" height="419" viewBox="0 0 665 419" fill="none" xmlns="http://www.w3.org/2000/svg">
<g opacity="0.9">
<path d="M444.851 403.348C443.956 400.419 441.904 397.679 438.988 396.739C436.074 395.801 432.377 397.222 431.468 400.147C428.786 397.908 424.676 399.686 422.522 402.436C419.037 406.884 421.73 414.166 422.312 414.64C422.941 415.149 424.643 415.059 424.643 415.059L450.723 414.916C450.723 414.916 455.506 414.567 457.715 413.687C462.156 411.915 465.179 404.27 462.32 400.434C460.371 397.82 456.525 397.265 453.42 398.258C450.313 399.249 447.299 401.192 444.854 403.347L444.851 403.348Z" fill="#979797"/>
<path d="M428.603 399.992C428.446 399.992 428.281 400.001 428.114 400.019C426.389 400.201 424.458 401.36 423.199 402.968C420.141 406.87 422.426 413.385 422.926 414.04C423.042 414.125 423.902 414.24 424.596 414.199L450.716 414.054C450.704 414.051 455.336 413.706 457.393 412.884C459.465 412.06 461.397 409.593 462.201 406.748C462.857 404.43 462.648 402.316 461.629 400.947C459.806 398.5 456.228 398.262 453.679 399.078C450.968 399.944 448.034 401.69 445.421 403.993C445.202 404.188 444.899 404.256 444.617 404.176C444.335 404.094 444.115 403.879 444.028 403.599C443.108 400.589 441.125 398.332 438.725 397.558C437.371 397.122 435.771 397.271 434.455 397.956C433.374 398.517 432.605 399.386 432.292 400.4C432.206 400.674 431.989 400.888 431.712 400.971C431.437 401.052 431.138 400.992 430.917 400.805C430.268 400.264 429.492 399.99 428.603 399.99V399.992ZM424.271 415.931C423.609 415.931 422.431 415.846 421.768 415.308C420.745 414.476 418.147 406.623 421.844 401.905C423.401 399.919 425.734 398.54 427.936 398.308C429.085 398.176 430.157 398.378 431.09 398.866C431.65 397.859 432.536 397.016 433.662 396.431C435.378 395.539 437.468 395.346 439.255 395.922C441.847 396.758 444.022 398.946 445.242 401.893C447.782 399.834 450.556 398.271 453.155 397.44C456.271 396.444 460.68 396.799 463.01 399.922C464.35 401.72 464.662 404.38 463.86 407.216C462.903 410.603 460.615 413.457 458.033 414.486C455.728 415.406 450.986 415.76 450.783 415.775L424.647 415.921C424.561 415.926 424.432 415.931 424.271 415.931Z" fill="#979797"/>
<path d="M417.425 402.361C416.679 403.814 416.359 405.39 416.537 407.017C416.626 407.834 417.919 407.842 417.827 407.017C417.674 405.612 417.894 404.272 418.541 403.012C418.92 402.274 417.806 401.62 417.425 402.361Z" fill="#979797"/>
<path d="M413.659 403.395C413.251 404.856 413.222 406.316 413.547 407.795C413.726 408.608 414.971 408.263 414.793 407.451C414.517 406.198 414.561 404.974 414.904 403.738C415.127 402.936 413.881 402.594 413.66 403.395H413.659Z" fill="#979797"/>
<path d="M420.903 400.775C421.733 400.775 421.735 399.482 420.903 399.482C420.071 399.482 420.07 400.775 420.903 400.775Z" fill="#979797"/>
<path d="M424.561 407.018C424.561 407.401 424.561 407.784 424.561 408.166C424.561 408.996 425.853 408.998 425.853 408.166C425.853 407.784 425.853 407.401 425.853 407.018C425.853 406.186 424.561 406.185 424.561 407.018Z" fill="#979797"/>
<path d="M446.376 409.027C446.376 409.219 446.376 409.409 446.376 409.6C446.376 410.433 447.668 410.434 447.668 409.6C447.668 409.409 447.668 409.219 447.668 409.027C447.668 408.197 446.376 408.194 446.376 409.027Z" fill="#979797"/>
<path d="M443.981 407.476C444.078 407.57 444.172 407.666 444.269 407.762C444.856 408.351 445.771 407.438 445.183 406.848C445.086 406.754 444.991 406.657 444.896 406.563C444.308 405.973 443.394 406.887 443.982 407.476H443.981Z" fill="#979797"/>
<path d="M76.9721 379.005H33.2506C32.3001 379.005 31.5277 378.235 31.5277 377.283C31.5277 376.331 32.2989 375.561 33.2506 375.561H76.9721C77.9226 375.561 78.6949 376.329 78.6949 377.283C78.6949 378.235 77.9238 379.005 76.9721 379.005Z" fill="#3E3E3E"/>
<path d="M461.957 227.377H460.709C460.709 226.344 459.868 225.503 458.835 225.503C457.804 225.503 456.964 226.344 456.964 227.377H455.716C455.716 225.655 457.116 224.255 458.835 224.255C460.558 224.255 461.957 225.655 461.957 227.377Z" fill="#FEFEFE"/>
<path d="M466.423 154.669H465.175C465.175 153.636 464.335 152.795 463.302 152.795C462.269 152.795 461.428 153.636 461.428 154.669H460.18C460.18 152.946 461.58 151.547 463.302 151.547C465.022 151.547 466.423 152.947 466.423 154.669Z" fill="#FEFEFE"/>
<path d="M256.691 403.88H306.342C304.429 396.652 303.13 386.203 302.871 380.205L259.821 380.338C260.228 388.355 259.737 395.649 256.691 403.879V403.88ZM310.986 407.325H251.563L252.571 404.933C256.468 395.689 256.87 387.774 256.277 378.734L256.157 376.904L306.257 376.751L306.269 378.464C306.312 384.308 307.893 397.581 310.272 405.079L310.985 407.322L310.986 407.325Z" fill="#3E3E3E"/>
<path d="M150.804 207.418C146.901 207.418 143.651 210.472 143.356 214.423C141.173 243.898 142.861 297.342 144.094 336.365C144.505 349.339 144.859 360.545 145.006 368.782C145.049 371.178 149.053 375.646 152.143 376.748C157.681 377.879 402.205 377.044 408.562 375.848C416.353 374.311 416.704 366.629 417.042 359.198C417.12 357.478 417.196 355.817 417.366 354.312C421.5 317.821 420.272 279.118 419.084 241.691C418.801 232.722 418.52 223.872 418.319 215.212C418.226 211.131 415.014 207.881 411.009 207.808L150.929 207.421C150.889 207.421 150.846 207.421 150.804 207.421V207.418ZM234.478 380.173C189.365 380.173 152.819 379.926 151.215 379.354C147.354 377.976 142.305 372.627 142.238 368.83C142.092 360.609 141.738 349.415 141.329 336.45C140.094 297.366 138.403 243.837 140.596 214.216C140.995 208.819 145.454 204.65 150.783 204.65C150.84 204.65 150.898 204.65 150.955 204.65L411.047 205.038C416.548 205.132 420.959 209.573 421.087 215.144C421.286 223.797 421.568 232.639 421.851 241.603C423.043 279.126 424.273 317.93 420.117 354.624C419.952 356.072 419.881 357.669 419.806 359.324C419.456 367.022 419.021 376.605 409.097 378.563C404.246 379.52 307.989 380.174 234.477 380.174L234.478 380.173Z" fill="#3E3E3E"/>
<path fill-rule="evenodd" clip-rule="evenodd" d="M403.771 213.99L158.715 213.668C154.308 213.601 150.607 216.624 150.277 220.573C147.531 253.371 151.273 321.806 151.828 349.347C151.881 352.032 156.264 356.057 159.42 357.054C163.135 358.228 396.014 357.341 401.706 356.349C411.927 354.564 410.187 344.095 411.045 337.396C415.894 299.514 412.915 258.338 411.95 221.286C411.846 217.274 408.237 214.057 403.77 213.99H403.771Z" fill="#979797"/>
<path d="M230.279 406.859C227.601 406.859 226.885 409.1 226.885 410.424C226.885 411.748 227.599 413.982 230.279 413.982H332.242C334.923 413.982 335.638 411.741 335.638 410.416C335.638 409.094 334.923 406.859 332.242 406.859H230.279ZM332.242 416.753H230.279C226.232 416.753 224.117 413.57 224.117 410.424C224.117 407.278 226.232 404.089 230.279 404.089H332.242C336.289 404.089 338.407 407.273 338.407 410.416C338.407 413.564 336.289 416.753 332.242 416.753Z" fill="#3E3E3E"/>
<path d="M159.269 370.525C163.85 370.525 163.857 363.41 159.269 363.41C154.691 363.41 154.683 370.525 159.269 370.525Z" fill="#3E3E3E"/>
<path d="M173.616 370.525C178.197 370.525 178.204 363.41 173.616 363.41C169.038 363.41 169.03 370.525 173.616 370.525Z" fill="#3E3E3E"/>
<path d="M187.963 370.525C192.544 370.525 192.55 363.41 187.963 363.41C183.386 363.41 183.377 370.525 187.963 370.525Z" fill="#3E3E3E"/>
<path d="M281.261 211.874C283.41 211.874 283.413 208.536 281.261 208.536C279.114 208.536 279.112 211.874 281.261 211.874Z" fill="#3E3E3E"/>
<path d="M568.824 409.989H533.688L547.202 365.606H555.311L568.824 409.989Z" fill="#979797"/>
<path d="M530.785 415.059H571.726V409.989H530.785V415.059Z" fill="#979797"/>
<path d="M537.067 398.895L533.688 409.99H568.824L565.445 398.895H537.067Z" fill="#3E3E3E"/>
<path d="M540.445 387.797H562.067L558.688 376.702H543.825L540.445 387.797Z" fill="#3E3E3E"/>
<path d="M583.313 363.001H591.887L587.057 382.069H578.483L583.314 363.001H583.313ZM604.617 382.069H596.04L600.87 363.001H609.447L604.617 382.069ZM622.175 382.069H613.601L618.432 363.001H627.007L622.177 382.069H622.175ZM644.541 363.001V363.103L639.736 382.069H631.161L635.993 363.001H644.542H644.541ZM583.191 414.774H590.987V384.587H631.006V414.774H638.802V384.587H647.059V360.484H640.474V358.257H629.115V360.484H593.661V358.257H582.301V360.484H575.072V384.587H583.193V414.774H583.191Z" fill="#979797"/>
<path d="M186.011 113.283C180.673 113.283 176.347 108.953 176.347 103.62C176.347 98.2833 180.673 93.9601 186.011 93.9601C191.347 93.9601 195.674 98.2845 195.674 103.62C195.674 108.953 191.346 113.283 186.011 113.283ZM199.731 119.68L202.068 117.343C202.542 116.872 202.542 116.102 202.068 115.628L200.032 113.596C199.563 113.122 199.439 112.261 199.761 111.676L201.418 107.651C201.605 107.006 202.308 106.484 202.974 106.484H205.853C206.522 106.484 207.065 105.939 207.065 105.276V101.965C207.065 101.294 206.522 100.756 205.853 100.756H202.974C202.308 100.756 201.604 100.233 201.418 99.5913L199.761 95.5681C199.44 94.9823 199.564 94.1191 200.032 93.6444L202.068 91.6131C202.542 91.1385 202.542 90.3697 202.068 89.9046L199.731 87.5577C199.258 87.0866 198.489 87.0866 198.019 87.5577L195.982 89.5926C195.509 90.066 194.649 90.188 194.066 89.8735L190.035 88.2129C189.396 88.0228 188.873 87.3269 188.873 86.655V83.776C188.873 83.1113 188.33 82.5625 187.663 82.5625H184.359C183.688 82.5625 183.145 83.1125 183.145 83.776V86.655C183.145 87.3257 182.621 88.0216 181.983 88.2129L177.953 89.8735C177.37 90.1892 176.505 90.066 176.036 89.5926L173.996 87.5625C173.528 87.0878 172.759 87.0878 172.291 87.5625L169.947 89.9046C169.473 90.3697 169.473 91.1385 169.947 91.6131L171.981 93.6444C172.452 94.1191 172.578 94.9823 172.257 95.5681L170.6 99.5913C170.412 100.232 169.708 100.756 169.044 100.756H166.162C165.496 100.756 164.952 101.294 164.952 101.965V105.276C164.952 105.939 165.497 106.484 166.162 106.484H169.044C169.709 106.484 170.412 107.006 170.6 107.651L172.257 111.676C172.578 112.265 172.453 113.121 171.981 113.596L169.947 115.628C169.473 116.102 169.473 116.871 169.947 117.343L172.291 119.68C172.76 120.157 173.529 120.157 173.996 119.68L176.036 117.647C176.505 117.176 177.369 117.053 177.956 117.374L181.983 119.032C182.623 119.216 183.145 119.919 183.145 120.585V123.471C183.145 124.133 183.688 124.68 184.359 124.68H187.663C188.33 124.68 188.873 124.133 188.873 123.471V120.585C188.873 119.919 189.397 119.217 190.035 119.032L194.066 117.374C194.648 117.052 195.509 117.175 195.982 117.647L198.019 119.68C198.489 120.157 199.258 120.157 199.731 119.68Z" fill="#979797"/>
<path d="M214.569 134.43C213.01 137.348 209.372 138.445 206.464 136.883C203.548 135.32 202.452 131.689 204.012 128.779C205.574 125.857 209.21 124.762 212.121 126.324C215.03 127.891 216.13 131.518 214.569 134.43ZM222.076 128.811L221.487 126.849C221.365 126.451 220.945 126.226 220.55 126.345L218.847 126.862C218.45 126.984 217.938 126.795 217.712 126.446L215.996 124.366C215.707 124.078 215.625 123.54 215.821 123.175L216.661 121.604C216.858 121.236 216.72 120.78 216.361 120.584L214.552 119.618C214.189 119.421 213.733 119.563 213.537 119.927L212.692 121.498C212.497 121.86 212.004 122.091 211.603 122.007L208.916 121.737C208.506 121.739 208.066 121.422 207.949 121.023L207.431 119.316C207.313 118.923 206.894 118.694 206.497 118.82L204.534 119.406C204.133 119.53 203.915 119.947 204.031 120.346L204.552 122.049C204.672 122.449 204.483 122.953 204.133 123.18L202.049 124.898C201.765 125.192 201.224 125.266 200.861 125.074L199.287 124.23C198.926 124.034 198.467 124.168 198.274 124.537L197.302 126.339C197.111 126.707 197.244 127.165 197.609 127.357L199.182 128.205C199.549 128.4 199.776 128.888 199.691 129.292L199.423 131.975C199.423 132.39 199.106 132.83 198.708 132.943L197.001 133.463C196.603 133.582 196.377 134.005 196.5 134.398L197.093 136.358C197.211 136.758 197.633 136.979 198.031 136.86L199.739 136.345C200.132 136.227 200.639 136.416 200.865 136.758L202.581 138.843C202.872 139.133 202.953 139.671 202.76 140.035L201.916 141.606C201.723 141.969 201.86 142.423 202.224 142.624L204.027 143.589C204.391 143.784 204.848 143.645 205.044 143.283L205.891 141.708C206.081 141.34 206.578 141.115 206.978 141.196L209.66 141.469C210.078 141.469 210.511 141.786 210.631 142.186L211.146 143.889C211.265 144.287 211.689 144.515 212.082 144.391L214.043 143.798C214.439 143.681 214.663 143.256 214.55 142.867L214.032 141.159C213.911 140.766 214.095 140.251 214.441 140.028L216.526 138.313C216.813 138.021 217.355 137.938 217.718 138.131L219.289 138.975C219.655 139.176 220.116 139.035 220.308 138.669L221.275 136.862C221.472 136.504 221.33 136.042 220.965 135.846L219.393 135.001C219.027 134.804 218.799 134.318 218.886 133.92L219.159 131.226C219.154 130.817 219.478 130.377 219.869 130.26L221.577 129.744C221.97 129.624 222.196 129.206 222.074 128.809L222.076 128.811Z" fill="#979797"/>
<path d="M319.862 166.639H265.728C264.777 166.639 264.007 165.869 264.007 164.917C264.007 163.965 264.777 163.195 265.728 163.195H319.862C320.811 163.195 321.584 163.965 321.584 164.917C321.584 165.869 320.811 166.639 319.862 166.639Z" fill="#3E3E3E"/>
<path d="M209.655 191.229H122.215C121.264 191.229 120.491 190.459 120.491 189.508C120.491 188.556 121.264 187.786 122.215 187.786H209.655C210.607 187.786 211.378 188.556 211.378 189.508C211.378 190.459 210.608 191.229 209.655 191.229Z" fill="#3E3E3E"/>
<path d="M628.904 237.79H541.465C540.513 237.79 539.743 237.02 539.743 236.067C539.743 235.116 540.513 234.346 541.465 234.346H628.904C629.856 234.346 630.627 235.116 630.627 236.067C630.627 237.019 629.857 237.79 628.904 237.79Z" fill="#3E3E3E"/>
<path d="M663.278 418.474H1.72165C0.771158 418.474 0 417.705 0 416.752C0 415.8 0.769963 415.029 1.72165 415.029H663.278C664.23 415.029 665 415.799 665 416.752C665 417.705 664.23 418.474 663.278 418.474Z" fill="#3E3E3E"/>
<path d="M420.612 168.663C415.23 168.663 410.848 164.284 410.848 158.899C410.848 153.515 415.232 149.133 420.615 149.133C425.998 149.133 430.379 153.514 430.379 158.899C430.379 164.284 425.997 168.663 420.612 168.663ZM420.61 145.011C416.902 145.011 413.415 146.455 410.793 149.078C406.319 153.551 405.431 160.481 408.629 165.929L408.858 166.314L394.797 180.375C394.779 180.396 394.114 181.038 394.105 181.974C394.098 182.68 394.455 183.399 395.165 184.109C395.921 184.864 396.712 185.247 397.517 185.247C398.482 185.247 399.166 184.688 399.171 184.684L413.197 170.65L413.586 170.881C415.708 172.127 418.139 172.785 420.615 172.785C424.325 172.785 427.81 171.341 430.434 168.721C435.848 163.305 435.848 154.493 430.434 149.077C427.811 146.455 424.321 145.01 420.61 145.01V145.011Z" fill="#979797"/>
<path d="M415.465 160.931H425.522V158.356H415.465V160.931Z" fill="#979797"/>
<path d="M162.709 415.283C161.757 415.283 160.985 414.513 160.985 413.562V280.929C160.985 279.98 161.757 279.206 162.709 279.206C163.658 279.206 164.431 279.978 164.431 280.929V413.562C164.431 414.513 163.658 415.283 162.709 415.283Z" fill="#3E3E3E"/>
<path d="M193.53 415.283C192.578 415.283 191.808 414.513 191.808 413.562V280.929C191.808 279.98 192.578 279.206 193.53 279.206C194.482 279.206 195.253 279.978 195.253 280.929V413.562C195.253 414.513 194.483 415.283 193.53 415.283Z" fill="#3E3E3E"/>
<path d="M193.53 291.716H162.709C161.757 291.716 160.985 290.943 160.985 289.994C160.985 289.042 161.757 288.272 162.709 288.272H193.53C194.482 288.272 195.253 289.042 195.253 289.994C195.253 290.943 194.483 291.716 193.53 291.716Z" fill="#3E3E3E"/>
<path d="M193.53 306.868H162.709C161.757 306.868 160.985 306.098 160.985 305.147C160.985 304.195 161.757 303.424 162.709 303.424H193.53C194.482 303.424 195.253 304.194 195.253 305.147C195.253 306.098 194.483 306.868 193.53 306.868Z" fill="#3E3E3E"/>
<path d="M193.53 322.021H162.709C161.757 322.021 160.985 321.251 160.985 320.299C160.985 319.347 161.757 318.576 162.709 318.576H193.53C194.482 318.576 195.253 319.346 195.253 320.299C195.253 321.251 194.483 322.021 193.53 322.021Z" fill="#3E3E3E"/>
<path d="M193.53 337.173H162.709C161.757 337.173 160.985 336.403 160.985 335.451C160.985 334.5 161.757 333.729 162.709 333.729H193.53C194.482 333.729 195.253 334.498 195.253 335.451C195.253 336.403 194.483 337.173 193.53 337.173Z" fill="#3E3E3E"/>
<path d="M193.53 352.326H162.709C161.757 352.326 160.985 351.556 160.985 350.605C160.985 349.653 161.757 348.882 162.709 348.882H193.53C194.482 348.882 195.253 349.652 195.253 350.605C195.253 351.556 194.483 352.326 193.53 352.326Z" fill="#3E3E3E"/>
<path d="M193.53 367.478H162.709C161.757 367.478 160.985 366.708 160.985 365.756C160.985 364.804 161.757 364.033 162.709 364.033H193.53C194.482 364.033 195.253 364.803 195.253 365.756C195.253 366.708 194.483 367.478 193.53 367.478Z" fill="#3E3E3E"/>
<path d="M193.53 382.63H162.709C161.757 382.63 160.985 381.86 160.985 380.908C160.985 379.957 161.757 379.186 162.709 379.186H193.53C194.482 379.186 195.253 379.956 195.253 380.908C195.253 381.86 194.483 382.63 193.53 382.63Z" fill="#3E3E3E"/>
<path d="M193.53 397.781H162.709C161.757 397.781 160.985 397.011 160.985 396.06C160.985 395.108 161.757 394.338 162.709 394.338H193.53C194.482 394.338 195.253 395.108 195.253 396.06C195.253 397.011 194.483 397.781 193.53 397.781Z" fill="#3E3E3E"/>
<path d="M120.731 287.364C119.781 287.364 119.009 286.592 119.009 285.643V278.936C119.009 277.985 119.781 277.215 120.731 277.215C121.682 277.215 122.452 277.985 122.452 278.936V285.643C122.452 286.592 121.682 287.364 120.731 287.364Z" fill="#3E3E3E"/>
<path d="M124.083 284.011H117.379C116.428 284.011 115.658 283.238 115.658 282.289C115.658 281.337 116.428 280.567 117.379 280.567H124.083C125.035 280.567 125.805 281.337 125.805 282.289C125.805 283.238 125.035 284.011 124.083 284.011Z" fill="#3E3E3E"/>
<path d="M275.604 47.5209C274.652 47.5209 273.882 46.7485 273.882 45.7968V39.0932C273.882 38.1415 274.652 37.3691 275.604 37.3691C276.555 37.3691 277.325 38.1415 277.325 39.0932V45.7968C277.325 46.7485 276.555 47.5209 275.604 47.5209Z" fill="#3E3E3E"/>
<path d="M278.956 44.1684H272.253C271.301 44.1684 270.531 43.396 270.531 42.4443C270.531 41.495 271.301 40.7227 272.253 40.7227H278.956C279.908 40.7227 280.678 41.495 280.678 42.4443C280.678 43.396 279.908 44.1684 278.956 44.1684Z" fill="#3E3E3E"/>
<path d="M329.893 394.682C329.738 394.682 329.578 394.661 329.42 394.615L322.972 392.775C322.057 392.512 321.526 391.562 321.79 390.646C322.05 389.731 323.005 389.211 323.916 389.462L330.364 391.302C331.279 391.564 331.809 392.516 331.547 393.431C331.333 394.187 330.642 394.681 329.893 394.681V394.682Z" fill="#3E3E3E"/>
<path d="M325.749 396.986C325.592 396.986 325.433 396.965 325.276 396.922C324.361 396.66 323.83 395.708 324.091 394.792L325.933 388.344C326.195 387.43 327.149 386.91 328.061 387.161C328.976 387.423 329.506 388.374 329.244 389.289L327.402 395.737C327.186 396.493 326.497 396.985 325.749 396.985V396.986Z" fill="#3E3E3E"/>
<path d="M296.019 192.151C295.862 192.151 295.704 192.13 295.545 192.084L289.098 190.243C288.184 189.982 287.654 189.027 287.915 188.114C288.178 187.199 289.127 186.669 290.044 186.931L296.492 188.774C297.405 189.033 297.935 189.987 297.674 190.901C297.458 191.657 296.769 192.151 296.019 192.151Z" fill="#3E3E3E"/>
<path d="M291.876 194.455C291.719 194.455 291.56 194.433 291.402 194.387C290.488 194.126 289.958 193.173 290.219 192.258L292.06 185.812C292.32 184.897 293.272 184.368 294.189 184.629C295.102 184.89 295.633 185.843 295.371 186.756L293.531 193.204C293.314 193.96 292.625 194.455 291.876 194.455Z" fill="#3E3E3E"/>
<path d="M315.425 128.685C315.425 141.899 304.715 152.609 291.501 152.609C278.289 152.609 267.578 141.899 267.578 128.685C267.578 115.473 278.289 104.763 291.501 104.763C304.715 104.763 315.425 115.473 315.425 128.685Z" fill="#979797"/>
<path d="M309.424 128.686C309.424 138.583 301.4 146.606 291.502 146.606C281.605 146.606 273.581 138.583 273.581 128.686C273.581 118.787 281.605 110.764 291.502 110.764C301.4 110.764 309.424 118.787 309.424 128.686Z" fill="#FEFEFE"/>
<path d="M291.502 111.458C282.001 111.458 274.273 119.186 274.273 128.685C274.273 138.186 282.001 145.914 291.502 145.914C301.002 145.914 308.73 138.186 308.73 128.685C308.73 119.185 301.002 111.458 291.502 111.458ZM291.502 147.301C281.237 147.301 272.887 138.95 272.887 128.685C272.887 118.421 281.239 110.071 291.502 110.071C301.766 110.071 310.116 118.422 310.116 128.685C310.116 138.95 301.765 147.301 291.502 147.301Z" fill="#3E3E3E"/>
<path d="M291.502 129.379C291.12 129.379 290.809 129.068 290.809 128.685V119.561C290.809 119.177 291.12 118.867 291.502 118.867C291.885 118.867 292.196 119.177 292.196 119.561V128.685C292.196 129.068 291.885 129.379 291.502 129.379Z" fill="#3E3E3E"/>
<path d="M302.193 129.378H291.502C291.12 129.378 290.809 129.067 290.809 128.685C290.809 128.302 291.12 127.991 291.502 127.991H302.193C302.576 127.991 302.887 128.302 302.887 128.685C302.887 129.067 302.576 129.378 302.193 129.378Z" fill="#3E3E3E"/>
<path d="M292.209 112.787C292.209 113.178 291.894 113.494 291.502 113.494C291.112 113.494 290.794 113.178 290.794 112.787C290.794 112.397 291.111 112.08 291.502 112.08C291.894 112.08 292.209 112.397 292.209 112.787Z" fill="#3E3E3E"/>
<path d="M303.243 117.944C302.967 118.221 302.519 118.221 302.244 117.944C301.967 117.669 301.967 117.219 302.244 116.944C302.52 116.667 302.968 116.667 303.243 116.944C303.521 117.219 303.521 117.669 303.243 117.944Z" fill="#3E3E3E"/>
<path d="M307.4 129.393C307.011 129.393 306.693 129.076 306.693 128.685C306.693 128.293 307.009 127.979 307.4 127.979C307.793 127.979 308.108 128.294 308.108 128.685C308.108 129.075 307.793 129.393 307.4 129.393Z" fill="#3E3E3E"/>
<path d="M302.244 140.427C301.967 140.152 301.967 139.702 302.244 139.426C302.52 139.15 302.968 139.15 303.243 139.426C303.521 139.703 303.521 140.152 303.243 140.427C302.967 140.703 302.519 140.703 302.244 140.427Z" fill="#3E3E3E"/>
<path d="M290.795 144.584C290.795 144.191 291.112 143.877 291.503 143.877C291.895 143.877 292.211 144.193 292.211 144.584C292.211 144.973 291.895 145.291 291.503 145.291C291.113 145.291 290.795 144.975 290.795 144.584Z" fill="#3E3E3E"/>
<path d="M279.76 139.426C280.037 139.15 280.484 139.15 280.76 139.426C281.037 139.703 281.037 140.152 280.76 140.427C280.483 140.703 280.036 140.703 279.76 140.427C279.485 140.152 279.485 139.702 279.76 139.426Z" fill="#3E3E3E"/>
<path d="M275.604 127.979C275.996 127.979 276.312 128.294 276.312 128.685C276.312 129.075 275.996 129.393 275.604 129.393C275.214 129.393 274.896 129.076 274.896 128.685C274.896 128.293 275.213 127.979 275.604 127.979Z" fill="#3E3E3E"/>
<path d="M280.761 116.944C281.038 117.219 281.038 117.669 280.761 117.944C280.484 118.221 280.037 118.221 279.761 117.944C279.486 117.669 279.486 117.219 279.761 116.944C280.038 116.667 280.485 116.667 280.761 116.944Z" fill="#3E3E3E"/>
<path d="M326.498 119.55H316.453C316.07 119.55 315.759 119.239 315.759 118.858C315.759 118.474 316.07 118.163 316.453 118.163H326.498C326.881 118.163 327.192 118.474 327.192 118.858C327.192 119.239 326.881 119.55 326.498 119.55Z" fill="#3E3E3E"/>
<path d="M326.498 139.208H316.453C316.07 139.208 315.759 138.897 315.759 138.514C315.759 138.13 316.07 137.821 316.453 137.821H326.498C326.881 137.821 327.192 138.13 327.192 138.514C327.192 138.897 326.881 139.208 326.498 139.208Z" fill="#3E3E3E"/>
<path d="M338.986 129.381H320.223C319.839 129.381 319.529 129.071 319.529 128.688C319.529 128.305 319.839 127.994 320.223 127.994H338.986C339.369 127.994 339.68 128.305 339.68 128.688C339.68 129.071 339.369 129.381 338.986 129.381Z" fill="#3E3E3E"/>
<path d="M360.628 398.894H371.724V387.798H360.628V398.894Z" fill="#FEFEFE"/>
<path d="M361.489 398.032H370.863V388.658H361.489V398.032ZM372.585 399.753H359.767V386.936H372.585V399.753Z" fill="#3E3E3E"/>
<path d="M385.768 390.237H375.722C375.34 390.237 375.029 389.926 375.029 389.542C375.029 389.158 375.34 388.85 375.722 388.85H385.768C386.151 388.85 386.46 389.158 386.46 389.542C386.46 389.926 386.151 390.237 385.768 390.237Z" fill="#3E3E3E"/>
<path d="M389.542 397.841H375.967C375.45 397.841 375.029 397.531 375.029 397.147C375.029 396.764 375.448 396.455 375.967 396.455H389.542C390.06 396.455 390.478 396.764 390.478 397.147C390.478 397.531 390.06 397.841 389.542 397.841Z" fill="#3E3E3E"/>
<path d="M394.485 393.823H375.722C375.34 393.823 375.029 393.515 375.029 393.131C375.029 392.747 375.34 392.437 375.722 392.437H394.485C394.868 392.437 395.178 392.747 395.178 393.131C395.178 393.515 394.868 393.823 394.485 393.823Z" fill="#3E3E3E"/>
<path d="M116.987 236.068H128.084V224.972H116.987V236.068Z" fill="#FEFEFE"/>
<path d="M117.848 235.208H127.222V225.834H117.848V235.208ZM128.943 236.929H116.125V224.111H128.943V236.929Z" fill="#3E3E3E"/>
<path d="M102.944 227.411H112.988C113.371 227.411 113.681 227.1 113.681 226.719C113.681 226.335 113.371 226.024 112.988 226.024H102.944C102.56 226.024 102.249 226.335 102.249 226.719C102.249 227.1 102.56 227.411 102.944 227.411Z" fill="#3E3E3E"/>
<path d="M99.1693 235.015H112.744C113.262 235.015 113.68 234.705 113.68 234.323C113.68 233.939 113.262 233.628 112.744 233.628H99.1693C98.6516 233.628 98.2332 233.939 98.2332 234.323C98.2332 234.705 98.6516 235.015 99.1693 235.015Z" fill="#3E3E3E"/>
<path d="M94.2269 231H112.989C113.373 231 113.683 230.69 113.683 230.308C113.683 229.924 113.373 229.614 112.989 229.614H94.2269C93.8431 229.614 93.5322 229.924 93.5322 230.308C93.5322 230.69 93.8431 231 94.2269 231Z" fill="#3E3E3E"/>
<path d="M455.39 414.773H458.835V266.666H455.39V414.773Z" fill="#3E3E3E"/>
<path d="M457.491 284.587H456.734C451.115 284.587 446.517 279.989 446.517 274.37V260.685C446.517 255.066 451.115 250.468 456.734 250.468H457.491C463.113 250.468 467.71 255.066 467.71 260.685V274.37C467.71 279.989 463.112 284.587 457.491 284.587Z" fill="#979797"/>
<path d="M470.983 274.677C472.193 274.871 473.405 275.066 474.616 275.262C475.43 275.392 475.781 274.147 474.961 274.017C473.749 273.821 472.538 273.627 471.325 273.433C470.513 273.301 470.163 274.547 470.983 274.678V274.677Z" fill="#3E3E3E"/>
<path d="M470.857 266.785C471.806 266.615 472.753 266.593 473.712 266.685C474.538 266.763 474.533 265.472 473.712 265.394C472.632 265.292 471.58 265.351 470.515 265.54C469.696 265.685 470.044 266.928 470.857 266.786V266.785Z" fill="#3E3E3E"/>
<path d="M470.463 259.595C471.391 259.227 472.321 258.857 473.25 258.489C474.014 258.187 473.681 256.937 472.907 257.243C471.979 257.613 471.049 257.981 470.12 258.349C469.356 258.652 469.69 259.901 470.463 259.595Z" fill="#3E3E3E"/>
<path d="M438.796 275.878C439.749 275.746 440.672 275.527 441.583 275.214C442.365 274.945 442.03 273.698 441.238 273.968C440.329 274.28 439.406 274.499 438.453 274.633C437.632 274.745 437.982 275.99 438.796 275.878Z" fill="#3E3E3E"/>
<path d="M437.118 266.698C438.316 266.731 439.471 266.908 440.624 267.234C441.425 267.46 441.767 266.213 440.966 265.988C439.707 265.633 438.425 265.441 437.118 265.406C436.288 265.383 436.288 266.674 437.118 266.698Z" fill="#3E3E3E"/>
<path d="M438.245 256.073C439.176 256.371 440.106 256.667 441.035 256.963C441.829 257.217 442.169 255.97 441.378 255.717C440.448 255.422 439.518 255.124 438.589 254.827C437.795 254.575 437.454 255.822 438.244 256.072L438.245 256.073Z" fill="#3E3E3E"/>
<path d="M449.078 416.781L451.372 396.985H462.565L465.149 416.495L449.078 416.781Z" fill="#3E3E3E"/>
<path d="M133.016 322.006C132.508 318.86 130.279 310.738 125.373 313.309C117.436 317.469 127.01 333.268 117.445 336.053C116.933 329.756 115.58 325.417 112.738 325.677C106.875 326.208 108.432 339.849 108.337 342.919C108.241 345.977 108.088 349.11 107.95 352.275C101.05 353.513 102.414 335.517 98.2176 333.027C91.6933 329.158 90.3064 337.781 90.4857 341.767C90.7918 348.545 92.6139 356.657 98.9816 360.257C101.083 361.444 104.784 362.784 107.666 362.542C107.635 367.964 107.867 373.35 108.763 378.493C108.772 378.548 108.864 378.548 108.874 378.493C108.875 378.49 108.875 378.485 108.875 378.481L112.74 378.689C112.738 378.712 112.737 378.737 112.737 378.761C112.7 380.461 115.355 380.464 115.378 378.761C115.425 375.49 117.436 359.427 117.676 345.818C120.763 346.278 124.644 344.841 126.865 343.211C133.452 338.379 134.225 329.49 133.014 322.008L133.016 322.006Z" fill="#979797"/>
<path d="M109.386 377.774L113.495 377.996L113.473 378.71C113.463 379.051 113.586 379.157 113.679 379.211C113.881 379.333 114.18 379.334 114.393 379.214C114.564 379.121 114.644 378.972 114.647 378.749C114.662 377.628 114.895 375.142 115.215 371.704C115.839 364.988 116.785 354.841 116.944 345.802L116.959 344.967L117.786 345.09C120.635 345.515 124.369 344.133 126.434 342.619C133.569 337.384 133.167 327.531 132.293 322.122C131.909 319.753 130.571 314.962 128.25 313.801C127.48 313.414 126.649 313.465 125.713 313.955C122.331 315.728 122.523 320.003 122.724 324.527C122.945 329.502 123.195 335.141 117.651 336.757L116.788 337.008L116.715 336.111C116.205 329.835 115.001 327.594 114.081 326.821C113.692 326.492 113.287 326.36 112.804 326.405C108.544 326.79 108.87 336.234 109.028 340.773C109.059 341.696 109.084 342.451 109.07 342.94C108.995 345.335 108.886 347.779 108.775 350.245L108.656 352.893L108.08 352.996C103.357 353.841 102.029 347.486 100.855 341.872C100.1 338.264 99.3176 334.53 97.8446 333.658C96.2461 332.711 94.9238 332.535 93.9159 333.14C91.7292 334.451 91.1015 339.108 91.2187 341.733C91.4996 347.954 93.1352 356.106 99.3439 359.616C101.486 360.827 104.988 362.024 107.604 361.81L108.403 361.743L108.398 362.543C108.365 368.596 108.679 373.456 109.384 377.771L109.386 377.774ZM114.036 380.77C113.647 380.77 113.258 380.671 112.922 380.467C112.509 380.219 112.22 379.84 112.088 379.386L109.239 379.233L108.201 379.268L108.043 378.618C107.281 374.25 106.928 369.367 106.932 363.305C103.76 363.303 100.281 361.832 98.623 360.896C91.8308 357.055 90.053 348.392 89.7553 341.801C89.6369 339.149 90.1952 333.664 93.1627 331.884C94.6679 330.983 96.4972 331.155 98.5931 332.399C100.622 333.601 101.394 337.296 102.291 341.574C103.502 347.365 104.593 351.539 107.248 351.601L107.311 350.179C107.422 347.72 107.532 345.285 107.605 342.896C107.621 342.427 107.596 341.707 107.564 340.824C107.379 335.456 107.034 325.457 112.674 324.948C113.545 324.865 114.337 325.12 115.028 325.702C116.6 327.026 117.607 330.086 118.093 335.041C121.655 333.452 121.471 329.324 121.261 324.595C121.049 319.813 120.829 314.868 125.035 312.662C126.401 311.948 127.704 311.888 128.91 312.492C132.415 314.246 133.617 321.113 133.743 321.891C134.671 327.628 135.068 338.106 127.304 343.803C125.141 345.391 121.492 346.785 118.399 346.623C118.198 355.509 117.289 365.299 116.679 371.84C116.373 375.119 116.132 377.707 116.118 378.771C116.106 379.519 115.739 380.147 115.11 380.497C114.781 380.68 114.411 380.77 114.041 380.77H114.036Z" fill="#979797"/>
<path d="M125.422 415.091H97.388C95.8911 415.091 94.6979 414.113 94.4157 412.658L88.0504 379.983L90.6903 379.467L97.0568 412.142C97.1046 412.398 97.3174 412.398 97.3868 412.398H125.421C125.492 412.398 125.703 412.398 125.751 412.145L132.066 379.468L134.707 379.977L128.392 412.655C128.111 414.111 126.918 415.089 125.42 415.089L125.422 415.091Z" fill="#3E3E3E"/>
<path d="M88.3351 369.47H134.87C135.662 369.47 136.312 370.345 136.312 371.419V378.493C136.312 379.567 135.662 380.444 134.87 380.444H88.3351C87.5436 380.444 86.8932 379.568 86.8932 378.493V371.419C86.8932 370.345 87.5424 369.47 88.3351 369.47Z" fill="#979797"/>
<path d="M88.335 370.201C88.0014 370.201 87.626 370.722 87.626 371.418V378.494C87.626 379.19 88.0014 379.71 88.335 379.71H134.868C135.204 379.71 135.579 379.19 135.579 378.494V371.418C135.579 370.722 135.203 370.201 134.868 370.201H88.335ZM134.868 381.175H88.335C87.1358 381.175 86.1614 379.971 86.1614 378.494V371.418C86.1614 369.939 87.1358 368.735 88.335 368.735H134.868C136.069 368.735 137.044 369.939 137.044 371.418V378.494C137.044 379.971 136.07 381.175 134.868 381.175Z" fill="#3E3E3E"/>
<path d="M88.3349 370.082C87.9427 370.082 87.5064 370.63 87.5064 371.419V378.493C87.5064 379.281 87.9427 379.831 88.3349 379.831H134.868C135.263 379.831 135.698 379.281 135.698 378.493V371.419C135.698 370.631 135.262 370.082 134.868 370.082H88.3349ZM134.868 381.056H88.3349C87.2027 381.056 86.2809 379.907 86.2809 378.493V371.419C86.2809 370.005 87.2027 368.856 88.3349 368.856H134.868C136.003 368.856 136.925 370.005 136.925 371.419V378.493C136.925 379.907 136.003 381.056 134.868 381.056Z" fill="#979797"/>
<path d="M88.4187 370.814C88.3518 370.886 88.2382 371.092 88.2382 371.42V378.494C88.2382 378.868 88.3888 379.085 88.4462 379.122L134.869 379.097C134.814 379.085 134.965 378.867 134.965 378.494V371.42C134.965 371.043 134.815 370.827 134.76 370.788L88.4199 370.814H88.4187ZM134.867 381.788H88.3338C86.7975 381.788 85.5481 380.31 85.5481 378.493V371.419C85.5481 369.6 86.7987 368.121 88.3338 368.121H134.867C136.405 368.121 137.655 369.6 137.655 371.419V378.493C137.655 380.31 136.405 381.788 134.867 381.788Z" fill="#3E3E3E"/>
<path d="M93.409 341.69C94.1753 341.788 94.9381 341.883 95.7045 341.982C96.5259 342.088 96.5199 340.794 95.7045 340.69C94.9381 340.593 94.1753 340.495 93.409 340.399C92.5876 340.295 92.5936 341.586 93.409 341.691V341.69Z" fill="#979797"/>
<path d="M96.7865 331.532C96.7865 331.915 96.7865 332.297 96.7865 332.68C96.7865 333.512 98.0789 333.513 98.0789 332.68C98.0789 332.297 98.0789 331.915 98.0789 331.532C98.0789 330.7 96.7865 330.7 96.7865 331.532Z" fill="#979797"/>
<path d="M101.253 343.374C101.814 343.062 102.374 342.751 102.934 342.439C103.661 342.034 103.011 340.918 102.284 341.324C101.722 341.636 101.164 341.948 100.603 342.26C99.8761 342.663 100.526 343.779 101.253 343.374Z" fill="#979797"/>
<path d="M94.6202 358.235C95.2957 357.764 95.97 357.291 96.6443 356.82C97.3198 356.349 96.6754 355.228 95.9915 355.706C95.3172 356.177 94.6429 356.649 93.9686 357.12C93.2931 357.594 93.9375 358.713 94.619 358.235H94.6202Z" fill="#979797"/>
<path d="M89.7792 347.13C90.2574 347.318 90.7368 347.507 91.2174 347.694C91.991 347.998 92.3282 346.75 91.5606 346.448C91.08 346.261 90.6005 346.072 90.1211 345.884C89.3476 345.58 89.0116 346.829 89.7792 347.13Z" fill="#979797"/>
<path d="M99.1551 353.125C99.4624 353.149 99.6441 353.295 99.8342 353.522C100.364 354.164 101.274 353.246 100.748 352.609C100.333 352.108 99.7948 351.88 99.1551 351.835C98.3254 351.775 98.329 353.068 99.1551 353.125Z" fill="#979797"/>
<path d="M101.987 359.203C101.847 360.107 101.948 360.88 102.303 361.721C102.626 362.483 103.74 361.825 103.418 361.068C103.209 360.575 103.151 360.074 103.232 359.548C103.359 358.735 102.114 358.383 101.986 359.205L101.987 359.203Z" fill="#979797"/>
<path d="M108.736 359.441C109.118 359.543 109.498 359.645 109.881 359.747C110.684 359.961 111.027 358.716 110.223 358.502C109.842 358.4 109.461 358.297 109.08 358.196C108.276 357.982 107.932 359.226 108.736 359.441Z" fill="#979797"/>
<path d="M112.859 346.745C112.792 347.479 113.068 348.149 113.633 348.623C114.264 349.157 115.182 348.248 114.546 347.71C114.216 347.433 114.113 347.168 114.151 346.745C114.228 345.918 112.934 345.924 112.859 346.745Z" fill="#979797"/>
<path d="M111.22 337.515C110.844 338.028 110.779 338.549 110.886 339.163C111.031 339.979 112.277 339.634 112.132 338.819C112.093 338.559 112.158 338.344 112.336 338.169C112.828 337.498 111.709 336.854 111.221 337.516L111.22 337.515Z" fill="#979797"/>
<path d="M118.312 341.291C118.312 341.672 118.312 342.056 118.312 342.438C118.312 343.27 119.604 343.27 119.604 342.438C119.604 342.056 119.604 341.672 119.604 341.291C119.604 340.458 118.312 340.457 118.312 341.291Z" fill="#979797"/>
<path d="M106.292 339.265C106.577 339.456 106.864 339.646 107.151 339.84C107.846 340.302 108.493 339.184 107.804 338.725C107.516 338.533 107.229 338.343 106.942 338.15C106.25 337.688 105.602 338.806 106.292 339.265Z" fill="#979797"/>
<path d="M108.452 328.549C108.701 328.84 108.825 329.14 108.854 329.523C108.918 330.346 110.211 330.352 110.146 329.523C110.09 328.781 109.847 328.199 109.365 327.636C108.824 327.004 107.914 327.919 108.452 328.549Z" fill="#979797"/>
<path d="M111.712 324.644C111.712 325.217 111.712 325.792 111.712 326.366C111.712 327.195 113.004 327.198 113.004 326.366C113.004 325.792 113.004 325.217 113.004 324.644C113.004 323.812 111.712 323.811 111.712 324.644Z" fill="#979797"/>
<path d="M119.698 332.232C119.884 332.428 120.07 332.624 120.257 332.82C120.831 333.423 121.743 332.511 121.171 331.907C120.983 331.711 120.796 331.515 120.611 331.319C120.036 330.716 119.125 331.629 119.698 332.232Z" fill="#979797"/>
<path d="M120.978 324.535C121.551 324.568 122.124 324.599 122.695 324.633C123.525 324.682 123.524 323.389 122.695 323.341C122.124 323.31 121.551 323.277 120.978 323.243C120.148 323.197 120.151 324.487 120.978 324.535Z" fill="#979797"/>
<path d="M122.807 314.193C123.19 314.577 123.573 314.958 123.955 315.342C124.545 315.93 125.458 315.017 124.869 314.429C124.487 314.045 124.103 313.663 123.721 313.28C123.134 312.691 122.218 313.605 122.807 314.193Z" fill="#979797"/>
<path d="M127.785 310.866C127.785 311.536 127.785 312.207 127.785 312.876C127.785 313.706 129.077 313.708 129.077 312.876C129.077 312.207 129.077 311.536 129.077 310.866C129.077 310.037 127.785 310.034 127.785 310.866Z" fill="#979797"/>
<path d="M130.125 322.953C130.314 322.664 130.504 322.377 130.695 322.088C131.153 321.392 130.036 320.744 129.579 321.437C129.39 321.724 129.2 322.014 129.01 322.301C128.552 322.996 129.67 323.645 130.125 322.953Z" fill="#979797"/>
<path d="M125.746 335.636C126.227 335.45 126.706 335.262 127.188 335.077C127.954 334.78 127.619 333.529 126.845 333.831C126.365 334.017 125.885 334.205 125.403 334.39C124.638 334.689 124.971 335.937 125.746 335.636Z" fill="#979797"/>
<path d="M131.463 333.835C131.942 333.737 132.419 333.638 132.897 333.539C133.711 333.37 133.366 332.125 132.554 332.293C132.076 332.392 131.598 332.49 131.12 332.589C130.307 332.759 130.652 334.004 131.463 333.835Z" fill="#979797"/>
<path d="M127.785 339.855C127.785 339.949 127.785 340.046 127.785 340.141C127.785 340.973 129.077 340.974 129.077 340.141C129.077 340.046 129.077 339.949 129.077 339.855C129.077 339.023 127.785 339.022 127.785 339.855Z" fill="#979797"/>
<path d="M116.693 359.633C116.98 359.442 117.268 359.249 117.555 359.059C118.242 358.601 117.597 357.48 116.902 357.944C116.615 358.136 116.328 358.327 116.04 358.518C115.353 358.976 115.998 360.095 116.693 359.634V359.633Z" fill="#979797"/>
<path d="M115.94 364.39C116.455 363.899 117.006 363.611 117.699 363.451C118.507 363.262 118.166 362.016 117.355 362.205C116.456 362.414 115.694 362.841 115.029 363.477C114.426 364.053 115.341 364.967 115.94 364.39Z" fill="#979797"/>
<path d="M110.621 365.168C110.716 365.359 110.816 365.549 110.911 365.739C111.288 366.482 112.405 365.828 112.027 365.089C111.929 364.898 111.832 364.706 111.735 364.517C111.358 363.775 110.244 364.429 110.621 365.168Z" fill="#979797"/>
<path d="M105.702 366.558C106.426 366.934 107.133 367.028 107.932 366.867C108.746 366.703 108.402 365.457 107.589 365.621C107.135 365.712 106.76 365.652 106.353 365.442C105.618 365.058 104.964 366.172 105.703 366.557L105.702 366.558Z" fill="#979797"/>
<path d="M116.38 354.307C117.238 354.2 118.098 354.092 118.959 353.984C119.772 353.881 119.783 352.588 118.959 352.692C118.098 352.8 117.238 352.908 116.38 353.016C115.567 353.118 115.556 354.412 116.38 354.307Z" fill="#979797"/>
<path d="M232.053 297.706C245.955 285.139 259.855 272.572 273.758 260.005C275.816 258.144 272.765 255.107 270.712 256.961C256.813 269.528 242.91 282.095 229.01 294.662C226.952 296.523 230.003 299.56 232.054 297.706H232.053Z" fill="white"/>
<path d="M279.184 316.938C293.087 304.372 306.987 291.805 320.889 279.236C322.948 277.374 319.897 274.337 317.844 276.192C303.944 288.758 290.042 301.328 276.142 313.894C274.083 315.756 277.134 318.793 279.186 316.938H279.184Z" fill="white"/>
<path d="M227.972 331.182C257.107 302.771 286.243 274.361 315.379 245.952C317.365 244.014 314.319 240.97 312.334 242.906C283.199 271.318 254.064 299.728 224.928 328.139C222.941 330.077 225.986 333.118 227.972 331.183V331.182Z" fill="white"/>
<path d="M359.692 186.435H361.565V66.1475H359.692V186.435Z" fill="#3E3E3E"/>
<path d="M368.264 186.435C368.264 190.653 364.845 194.07 360.629 194.07C356.414 194.07 352.994 190.653 352.994 186.435C352.994 182.219 356.414 178.801 360.629 178.801C364.845 178.801 368.264 182.218 368.264 186.435Z" fill="#3E3E3E"/>
<path d="M360.735 212.051C360.608 212.051 358.115 212.026 356.296 210.211C355.082 208.998 354.468 207.315 354.468 205.207C354.468 204.649 354.919 204.196 355.477 204.196C356.035 204.196 356.486 204.649 356.486 205.207C356.486 206.758 356.902 207.961 357.723 208.778C358.945 209.998 360.717 210.029 360.734 210.029C363.585 210.029 365.901 207.711 365.901 204.863C365.901 202.014 363.585 199.697 360.735 199.697C360.176 199.697 359.726 199.243 359.726 198.685V193.073C359.726 192.514 360.178 192.062 360.735 192.062C361.293 192.062 361.746 192.514 361.746 193.073V197.745C365.231 198.238 367.921 201.242 367.921 204.863C367.921 208.826 364.698 212.049 360.735 212.049C360.735 212.049 360.735 212.049 360.734 212.049L360.735 212.051Z" fill="#3E3E3E"/>
<path d="M320.638 216.752C320.251 216.685 319.932 216.377 319.872 215.966C319.795 215.454 320.149 214.979 320.662 214.902L361.991 208.814C362.504 208.737 362.979 209.092 363.054 209.603C363.131 210.116 362.777 210.591 362.264 210.668L320.935 216.755C320.833 216.772 320.734 216.769 320.638 216.752Z" fill="#3E3E3E"/>
<path d="M399.971 230.505C399.878 230.489 399.787 230.459 399.699 230.412L361.695 210.57C361.237 210.331 361.059 209.764 361.298 209.306C361.537 208.846 362.101 208.667 362.561 208.908L400.567 228.752C401.025 228.991 401.203 229.557 400.964 230.015C400.769 230.386 400.362 230.574 399.973 230.505H399.971Z" fill="#3E3E3E"/>
<path d="M396.871 309.847L295.652 292.259C290.349 291.337 286.796 286.29 287.718 280.987L297.845 222.706C298.767 217.403 303.814 213.851 309.117 214.773L410.335 232.361C415.638 233.283 419.191 238.329 418.269 243.63L408.141 301.912C407.219 307.214 402.173 310.768 396.871 309.846V309.847Z" fill="#FEFEFE"/>
<path d="M307.737 215.977C303.532 215.977 299.799 219.002 299.055 223.285L289.052 280.853C288.648 283.173 289.173 285.511 290.528 287.437C291.885 289.363 293.91 290.644 296.229 291.049L396.736 308.511C401.519 309.352 406.096 306.125 406.93 301.337L416.933 243.769C417.336 241.448 416.811 239.11 415.457 237.185C414.102 235.259 412.076 233.977 409.757 233.573L309.25 216.108C308.742 216.019 308.235 215.979 307.735 215.979L307.737 215.977ZM398.251 311.228C397.605 311.228 396.951 311.173 396.291 311.058L295.787 293.594C292.787 293.073 290.17 291.413 288.416 288.924C286.664 286.434 285.986 283.409 286.508 280.409L296.511 222.841C297.587 216.649 303.502 212.489 309.693 213.562L410.199 231.026C413.2 231.548 415.818 233.205 417.569 235.696C419.321 238.186 420 241.209 419.48 244.21L409.476 301.778C408.512 307.315 403.686 311.227 398.25 311.228H398.251Z" fill="#3E3E3E"/>
<path d="M396.113 303.535L298.497 286.574C295.107 285.985 292.839 282.761 293.428 279.374L302.675 226.153C303.265 222.766 306.488 220.496 309.878 221.084L407.494 238.046C410.881 238.635 413.152 241.859 412.562 245.248L403.314 298.467C402.726 301.857 399.501 304.126 396.114 303.537L396.113 303.535Z" fill="#979797"/>
<path d="M396.104 302.224C397.462 302.458 398.836 302.151 399.963 301.358C401.092 300.565 401.845 299.377 402.078 298.019L411.248 245.252C411.736 242.447 409.848 239.765 407.043 239.279L309.881 222.395C307.08 221.912 304.395 223.793 303.906 226.601L294.738 279.366C294.503 280.725 294.809 282.095 295.605 283.223C296.399 284.351 297.585 285.104 298.944 285.34L396.104 302.223V302.224ZM397.005 304.885C396.56 304.885 396.111 304.847 395.664 304.77L298.502 287.885C296.462 287.531 294.683 286.404 293.492 284.712C292.3 283.021 291.839 280.964 292.194 278.926L301.362 226.161C302.092 221.951 306.107 219.116 310.324 219.853L407.483 236.736C411.694 237.469 414.527 241.487 413.794 245.698L404.626 298.462C404.271 300.502 403.143 302.28 401.45 303.473C400.131 304.404 398.588 304.888 397.005 304.888V304.885Z" fill="#3E3E3E"/>
<path d="M344.195 72.4314H438.059V62.1016H344.195V72.4314Z" fill="#979797"/>
<path d="M491.552 272.572H516.55V3.21851H491.552V272.572ZM519.632 275.655H488.47V0.138672H519.632V275.655Z" fill="#3E3E3E"/>
<path d="M491.984 27.2559H516.118V3.12286H491.984V27.2559ZM519.242 30.3787H488.862V0H519.242V30.3787Z" fill="#3E3E3E"/>
<path d="M516.575 29.9223L489.319 2.66528L491.527 0.457031L518.783 27.7153L516.575 29.9223Z" fill="#3E3E3E"/>
<path d="M491.527 29.9223L489.319 27.7153L516.575 0.457031L518.783 2.66528L491.527 29.9223Z" fill="#3E3E3E"/>
<path d="M491.984 54.5127H516.118V30.3797H491.984V54.5127ZM519.242 57.6356H488.862V27.2568H519.242V57.6356Z" fill="#3E3E3E"/>
<path d="M516.575 57.1778L489.319 29.9219L491.527 27.7148L518.783 54.9707L516.575 57.1778Z" fill="#3E3E3E"/>
<path d="M491.527 57.1778L489.319 54.9707L516.575 27.7148L518.783 29.9219L491.527 57.1778Z" fill="#3E3E3E"/>
<path d="M491.984 81.7707H516.118V57.6365H491.984V81.7707ZM519.242 84.8924H488.862V54.5137H519.242V84.8924Z" fill="#3E3E3E"/>
<path d="M516.575 84.4348L489.319 57.1778L491.527 54.9707L518.783 82.2266L516.575 84.4348Z" fill="#3E3E3E"/>
<path d="M491.527 84.4348L489.319 82.2266L516.575 54.9707L518.783 57.1778L491.527 84.4348Z" fill="#3E3E3E"/>
<path d="M491.984 109.025H516.118V84.8912H491.984V109.025ZM519.242 112.149H488.862V81.7695H519.242V112.149Z" fill="#3E3E3E"/>
<path d="M516.575 111.693L489.319 84.4358L491.527 82.2275L518.783 109.483L516.575 111.693Z" fill="#3E3E3E"/>
<path d="M491.527 111.693L489.319 109.483L516.575 82.2275L518.783 84.4358L491.527 111.693Z" fill="#3E3E3E"/>
<path d="M491.984 136.282H516.118V112.149H491.984V136.282ZM519.242 139.406H488.862V109.026H519.242V139.406Z" fill="#3E3E3E"/>
<path d="M516.575 138.948L489.319 111.692L491.527 109.482L518.783 136.741L516.575 138.948Z" fill="#3E3E3E"/>
<path d="M491.527 138.948L489.319 136.741L516.575 109.482L518.783 111.692L491.527 138.948Z" fill="#3E3E3E"/>
<path d="M491.984 163.541H516.118V139.406H491.984V163.541ZM519.242 166.662H488.862V136.282H519.242V166.662Z" fill="#3E3E3E"/>
<path d="M516.575 166.206L489.319 138.947L491.527 136.74L518.783 163.996L516.575 166.206Z" fill="#3E3E3E"/>
<path d="M491.527 166.206L489.319 163.996L516.575 136.74L518.783 138.947L491.527 166.206Z" fill="#3E3E3E"/>
<path d="M491.984 190.796H516.118V166.662H491.984V190.796ZM519.242 193.92H488.862V163.54H519.242V193.92Z" fill="#3E3E3E"/>
<path d="M516.575 193.462L489.319 166.207L491.527 163.997L518.783 191.254L516.575 193.462Z" fill="#3E3E3E"/>
<path d="M491.527 193.462L489.319 191.254L516.575 163.997L518.783 166.207L491.527 193.462Z" fill="#3E3E3E"/>
<path d="M491.984 218.053H516.118V193.92H491.984V218.053ZM519.242 221.177H488.862V190.797H519.242V221.177Z" fill="#3E3E3E"/>
<path d="M516.575 220.718L489.319 193.462L491.527 191.254L518.783 218.511L516.575 220.718Z" fill="#3E3E3E"/>
<path d="M491.527 220.718L489.319 218.511L516.575 191.254L518.783 193.462L491.527 220.718Z" fill="#3E3E3E"/>
<path d="M491.984 245.309H516.118V221.176H491.984V245.309ZM519.242 248.433H488.862V218.053H519.242V248.433Z" fill="#3E3E3E"/>
<path d="M516.575 247.975L489.319 220.718L491.527 218.511L518.783 245.767L516.575 247.975Z" fill="#3E3E3E"/>
<path d="M491.527 247.975L489.319 245.767L516.575 218.511L518.783 220.718L491.527 247.975Z" fill="#3E3E3E"/>
<path d="M491.984 272.567H516.118V248.433H491.984V272.567ZM519.242 275.689H488.862V245.309H519.242V275.689Z" fill="#3E3E3E"/>
<path d="M516.575 275.232L489.319 247.975L491.527 245.767L518.783 273.022L516.575 275.232Z" fill="#3E3E3E"/>
<path d="M491.527 275.232L489.319 273.022L516.575 245.767L518.783 247.975L491.527 275.232Z" fill="#3E3E3E"/>
<path d="M546.221 54.1016H570.354V29.9674H546.221V54.1016ZM573.477 57.2256H543.097V26.8457H573.477V57.2256Z" fill="#3E3E3E"/>
<path d="M545.763 56.768L543.553 54.5586L570.81 27.3027L573.02 29.511L545.763 56.768Z" fill="#3E3E3E"/>
<path d="M570.81 56.768L543.553 29.511L545.763 27.3027L573.02 54.5586L570.81 56.768Z" fill="#3E3E3E"/>
<path d="M518.962 54.1016H543.096V29.9674H518.962V54.1016ZM546.22 57.2256H515.841V26.8457H546.22V57.2256Z" fill="#3E3E3E"/>
<path d="M518.506 56.768L516.297 54.5586L543.553 27.3027L545.763 29.511L518.506 56.768Z" fill="#3E3E3E"/>
<path d="M543.553 56.768L516.297 29.511L518.506 27.3027L545.763 54.5586L543.553 56.768Z" fill="#3E3E3E"/>
<path d="M491.706 54.1016H515.84V29.9674H491.706V54.1016ZM518.962 57.2256H488.582V26.8457H518.962V57.2256Z" fill="#3E3E3E"/>
<path d="M464.451 54.1016H488.584V29.9674H464.451V54.1016ZM491.707 57.2256H461.327V26.8457H491.707V57.2256Z" fill="#3E3E3E"/>
<path d="M463.993 56.768L461.786 54.5586L489.042 27.3027L491.249 29.511L463.993 56.768Z" fill="#3E3E3E"/>
<path d="M489.042 56.768L461.786 29.511L463.993 27.3027L491.249 54.5586L489.042 56.768Z" fill="#3E3E3E"/>
<path d="M437.192 54.1016H461.327V29.9674H437.192V54.1016ZM464.45 57.2256H434.071V26.8457H464.45V57.2256Z" fill="#3E3E3E"/>
<path d="M436.736 56.768L434.527 54.5586L461.786 27.3027L463.993 29.511L436.736 56.768Z" fill="#3E3E3E"/>
<path d="M461.786 56.768L434.527 29.511L436.736 27.3027L463.993 54.5586L461.786 56.768Z" fill="#3E3E3E"/>
<path d="M409.936 54.1016H434.071V29.9674H409.936V54.1016ZM437.192 57.2256H406.812V26.8457H437.192V57.2256Z" fill="#3E3E3E"/>
<path d="M408.376 57.226H381.118C380.487 57.226 379.918 56.8457 379.676 56.2611C379.433 55.6789 379.569 55.0057 380.014 54.5586L407.27 27.3027L409.479 29.511L384.885 54.1019H407.726L434.525 27.3027L436.733 29.511L409.477 56.7668C409.183 57.0586 408.786 57.2248 408.373 57.2248L408.376 57.226Z" fill="#3E3E3E"/>
<path d="M434.527 56.768L407.271 29.511L409.48 27.3027L436.736 54.5586L434.527 56.768Z" fill="#3E3E3E"/>
<path d="M491.68 302.911H516.489V278.777H491.68V302.911ZM519.699 306.033H488.471V275.654H519.699V306.033Z" fill="#3E3E3E"/>
<path d="M516.958 305.575L488.941 278.32L491.21 276.111L519.229 303.367L516.958 305.575Z" fill="#3E3E3E"/>
<path d="M491.21 305.575L488.941 303.367L516.958 276.111L519.229 278.32L491.21 305.575Z" fill="#3E3E3E"/>
<path d="M491.68 411.937H516.489V387.802H491.68V411.937ZM519.699 415.058H488.471V384.681H519.699V415.058Z" fill="#3E3E3E"/>
<path d="M516.958 414.603L488.941 387.346L491.21 385.138L519.229 412.394L516.958 414.603Z" fill="#3E3E3E"/>
<path d="M491.21 414.603L488.941 412.394L516.958 385.138L519.229 387.346L491.21 414.603Z" fill="#3E3E3E"/>
<path d="M491.68 327.586H516.489V303.452H491.68V327.586ZM519.699 330.708H488.471V300.328H519.699V330.708Z" fill="#3E3E3E"/>
<path d="M516.958 330.25L488.941 302.992L491.21 300.785L519.229 328.042L516.958 330.25Z" fill="#3E3E3E"/>
<path d="M491.21 330.25L488.941 328.042L516.958 300.785L519.229 302.992L491.21 330.25Z" fill="#3E3E3E"/>
<path d="M491.68 354.842H516.489V330.708H491.68V354.842ZM519.699 357.963H488.471V327.586H519.699V357.963Z" fill="#3E3E3E"/>
<path d="M516.958 357.507L488.941 330.251L491.21 328.043L519.229 355.299L516.958 357.507Z" fill="#3E3E3E"/>
<path d="M491.21 357.507L488.941 355.299L516.958 328.043L519.229 330.251L491.21 357.507Z" fill="#3E3E3E"/>
<path d="M491.68 382.097H516.489V357.963H491.68V382.097ZM519.699 385.218H488.471V354.841H519.699V385.218Z" fill="#3E3E3E"/>
<path d="M516.958 384.762L488.941 357.506L491.21 355.298L519.229 382.554L516.958 384.762Z" fill="#3E3E3E"/>
<path d="M491.21 384.762L488.941 382.554L516.958 355.298L519.229 357.506L491.21 384.762Z" fill="#3E3E3E"/>
<path d="M171.195 165.314C174.519 165.314 174.526 160.147 171.195 160.147C167.87 160.147 167.866 165.314 171.195 165.314Z" fill="#3E3E3E"/>
<path d="M451.326 111.356C454.649 111.356 454.656 106.189 451.326 106.189C448.001 106.189 447.996 111.356 451.326 111.356Z" fill="#3E3E3E"/>
<path d="M567.281 296.194C567.665 296.194 568.047 296.194 568.43 296.194C569.78 296.194 571.074 295.007 571.011 293.611C570.95 292.213 569.878 291.029 568.43 291.029C568.046 291.029 567.663 291.029 567.281 291.029C565.931 291.029 564.636 292.217 564.699 293.611C564.76 295.011 565.833 296.194 567.281 296.194Z" fill="#3E3E3E"/>
<path d="M69.0177 334.081C72.3415 334.081 72.3474 328.915 69.0177 328.915C65.6928 328.915 65.688 334.081 69.0177 334.081Z" fill="#3E3E3E"/>
<path d="M315.853 86.098C319.178 86.098 319.183 80.9307 315.853 80.9307C312.528 80.9307 312.523 86.098 315.853 86.098Z" fill="#3E3E3E"/>
<path d="M348.791 265.412C344.028 265.412 340.168 261.548 340.168 256.79C340.168 252.028 344.028 248.17 348.791 248.17C353.553 248.17 357.413 252.029 357.413 256.79C357.413 261.548 353.551 265.412 348.791 265.412ZM361.034 271.12L363.119 269.035C363.542 268.615 363.542 267.928 363.119 267.504L361.302 265.692C360.884 265.268 360.773 264.5 361.061 263.979L362.54 260.386C362.706 259.811 363.333 259.345 363.928 259.345H366.496C367.094 259.345 367.578 258.859 367.578 258.268V255.313C367.578 254.714 367.094 254.234 366.496 254.234H363.928C363.333 254.234 362.705 253.768 362.54 253.195L361.061 249.605C360.774 249.082 360.885 248.312 361.302 247.889L363.119 246.076C363.542 245.652 363.542 244.966 363.119 244.551L361.034 242.457C360.612 242.037 359.926 242.037 359.507 242.457L357.689 244.273C357.266 244.695 356.499 244.804 355.979 244.524L352.382 243.042C351.811 242.872 351.345 242.251 351.345 241.652V239.083C351.345 238.49 350.861 238 350.266 238H347.317C346.718 238 346.234 238.491 346.234 239.083V241.652C346.234 242.25 345.767 242.871 345.197 243.042L341.601 244.524C341.081 244.805 340.309 244.695 339.891 244.273L338.071 242.462C337.652 242.038 336.966 242.038 336.549 242.462L334.457 244.551C334.035 244.966 334.035 245.652 334.457 246.076L336.272 247.889C336.692 248.312 336.805 249.082 336.518 249.605L335.04 253.195C334.872 253.767 334.244 254.234 333.652 254.234H331.08C330.485 254.234 330 254.714 330 255.313V258.268C330 258.859 330.486 259.345 331.08 259.345H333.652C334.245 259.345 334.872 259.811 335.04 260.386L336.518 263.979C336.805 264.503 336.693 265.267 336.272 265.692L334.457 267.504C334.035 267.928 334.035 268.614 334.457 269.035L336.549 271.12C336.967 271.546 337.653 271.546 338.071 271.12L339.891 269.306C340.309 268.886 341.08 268.776 341.604 269.063L345.197 270.542C345.768 270.706 346.234 271.333 346.234 271.928V274.503C346.234 275.094 346.718 275.581 347.317 275.581H350.266C350.861 275.581 351.345 275.094 351.345 274.503V271.928C351.345 271.333 351.813 270.707 352.382 270.542L355.979 269.063C356.498 268.775 357.266 268.885 357.689 269.306L359.507 271.12C359.926 271.546 360.612 271.546 361.034 271.12Z" fill="white"/>
<path d="M374.274 284.283C372.883 286.886 369.636 287.865 367.042 286.471C364.44 285.076 363.461 281.836 364.854 279.24C366.248 276.632 369.492 275.655 372.09 277.05C374.685 278.447 375.667 281.684 374.274 284.283ZM380.972 279.269L380.446 277.518C380.338 277.163 379.963 276.962 379.611 277.068L378.091 277.53C377.737 277.639 377.28 277.47 377.078 277.158L375.548 275.302C375.289 275.045 375.216 274.565 375.391 274.24L376.141 272.838C376.317 272.509 376.193 272.103 375.873 271.928L374.259 271.066C373.934 270.89 373.528 271.017 373.353 271.341L372.599 272.743C372.425 273.066 371.985 273.272 371.627 273.197L369.23 272.956C368.864 272.958 368.471 272.676 368.367 272.319L367.905 270.796C367.799 270.445 367.426 270.241 367.072 270.353L365.32 270.876C364.961 270.987 364.767 271.359 364.871 271.715L365.336 273.235C365.442 273.592 365.274 274.041 364.961 274.244L363.102 275.777C362.849 276.039 362.366 276.105 362.042 275.934L360.637 275.181C360.315 275.006 359.906 275.125 359.734 275.455L358.866 277.062C358.696 277.391 358.814 277.8 359.141 277.971L360.544 278.728C360.871 278.902 361.074 279.337 360.998 279.697L360.759 282.091C360.759 282.462 360.476 282.854 360.121 282.956L358.598 283.42C358.242 283.525 358.041 283.903 358.151 284.254L358.68 286.002C358.785 286.36 359.162 286.557 359.517 286.451L361.041 285.991C361.392 285.886 361.844 286.055 362.046 286.36L363.577 288.22C363.837 288.479 363.908 288.959 363.737 289.284L362.983 290.686C362.812 291.009 362.933 291.415 363.259 291.594L364.867 292.455C365.192 292.629 365.599 292.505 365.774 292.182L366.531 290.777C366.7 290.448 367.143 290.247 367.5 290.32L369.893 290.563C370.267 290.563 370.653 290.846 370.76 291.203L371.219 292.722C371.326 293.078 371.704 293.282 372.055 293.171L373.804 292.641C374.157 292.537 374.358 292.158 374.257 291.81L373.795 290.287C373.687 289.936 373.851 289.476 374.16 289.278L376.02 287.747C376.276 287.486 376.759 287.413 377.084 287.585L378.486 288.338C378.812 288.517 379.224 288.391 379.395 288.065L380.258 286.453C380.434 286.133 380.307 285.721 379.981 285.546L378.578 284.792C378.252 284.616 378.048 284.182 378.126 283.827L378.369 281.424C378.365 281.059 378.654 280.666 379.003 280.562L380.528 280.101C380.877 279.994 381.079 279.621 380.97 279.266L380.972 279.269Z" fill="white"/>
</g>
</svg>
