<svg width="19" height="17" viewBox="0 0 19 17" fill="none" xmlns="http://www.w3.org/2000/svg">
<path fill-rule="evenodd" clip-rule="evenodd" d="M17.6538 0.751953H10.4615L10.0038 0.948106L9.15381 1.78503L8.30381 0.948106L7.84612 0.751953H0.653843L0 1.4058V14.4827L0.653843 15.1365H7.57151L8.69612 16.248H9.6115L10.7361 15.1365H17.6538L18.3076 14.4827V1.4058L17.6538 0.751953ZM8.49996 14.2473L8.26458 14.025L7.84612 13.8288H1.30769V2.05964H7.57151L8.5392 3.02733L8.49996 14.2473ZM16.9999 13.8288H10.4615L10.0038 14.025L9.82073 14.195V2.97502L10.7361 2.05964H16.9999V13.8288ZM6.53843 4.67501H2.61537V5.9827H6.53843V4.67501ZM6.53843 9.90576H2.61537V11.2134H6.53843V9.90576ZM2.61537 7.29039H6.53843V8.59807H2.61537V7.29039ZM15.6922 4.67501H11.7692V5.9827H15.6922V4.67501ZM11.7692 7.29039H15.6922V8.59807H11.7692V7.29039ZM11.7692 9.90576H15.6922V11.2134H11.7692V9.90576Z" fill="#FF702D"/>
</svg>
