<svg width="19" height="15" viewBox="0 0 19 15" fill="none" xmlns="http://www.w3.org/2000/svg">
<path d="M0.804688 13.0621L6.84635 5.81213L9.26302 7.42324L11.2769 6.21491L17.3186 13.4649" stroke="#FF702D" stroke-width="1.61111"/>
<mask id="path-2-inside-1_2228_5253" fill="white">
<path d="M0.661272 0.173096H17.8656C18.2316 0.173096 18.5273 0.467627 18.5273 0.832187V14.014C18.5273 14.3786 18.2316 14.6731 17.8656 14.6731H0.661272C0.295265 14.6731 -0.000434875 14.3786 -0.000434875 14.014V0.832187C-0.000434875 0.467627 0.295265 0.173096 0.661272 0.173096ZM1.4884 2.4552V13.1901H17.0385V2.4552L17.6092 2.01237L16.7966 0.972243L15.9115 1.65811H2.61331L1.72827 0.972243L0.915615 2.01237L1.4884 2.4552ZM2.61331 1.65605L9.26345 6.8052L15.9136 1.65605L16.7986 0.970184L17.6113 2.01031L17.0406 2.45314L9.97686 7.92359C9.77371 8.08079 9.5238 8.16612 9.26656 8.16612C9.00931 8.16612 8.7594 8.08079 8.55626 7.92359L1.4884 2.4552L0.917683 2.01237L1.73034 0.972243L2.61331 1.65605Z"/>
</mask>
<path d="M0.661272 0.173096H17.8656C18.2316 0.173096 18.5273 0.467627 18.5273 0.832187V14.014C18.5273 14.3786 18.2316 14.6731 17.8656 14.6731H0.661272C0.295265 14.6731 -0.000434875 14.3786 -0.000434875 14.014V0.832187C-0.000434875 0.467627 0.295265 0.173096 0.661272 0.173096ZM1.4884 2.4552V13.1901H17.0385V2.4552L17.6092 2.01237L16.7966 0.972243L15.9115 1.65811H2.61331L1.72827 0.972243L0.915615 2.01237L1.4884 2.4552ZM2.61331 1.65605L9.26345 6.8052L15.9136 1.65605L16.7986 0.970184L17.6113 2.01031L17.0406 2.45314L9.97686 7.92359C9.77371 8.08079 9.5238 8.16612 9.26656 8.16612C9.00931 8.16612 8.7594 8.08079 8.55626 7.92359L1.4884 2.4552L0.917683 2.01237L1.73034 0.972243L2.61331 1.65605Z" fill="#FF702D"/>
<path d="M1.4884 13.1901V14.8013H-0.122707V13.1901H1.4884ZM17.0385 13.1901H18.6496V14.8013H17.0385V13.1901ZM17.0385 2.4552H15.4274V1.66606L16.0509 1.18231L17.0385 2.4552ZM17.6092 2.01237L18.8788 1.02046L19.874 2.29429L18.5969 3.28526L17.6092 2.01237ZM16.7966 0.972243L15.8097 -0.301226L17.0781 -1.28423L18.0661 -0.0196716L16.7966 0.972243ZM15.9115 1.65811L16.8984 2.93158L16.4627 3.26922H15.9115V1.65811ZM2.61331 1.65811V3.26922H2.0621L1.62642 2.93158L2.61331 1.65811ZM1.72827 0.972243L0.458712 -0.0196709L1.44671 -1.28423L2.71516 -0.301227L1.72827 0.972243ZM0.915615 2.01237L-0.0697975 3.28699L-1.35094 2.29652L-0.353947 1.02046L0.915615 2.01237ZM2.61331 1.65605L1.62695 2.92993L1.62683 2.92984L2.61331 1.65605ZM9.26345 6.8052L10.2498 8.07908L9.26345 8.84281L8.2771 8.07908L9.26345 6.8052ZM15.9136 1.65605L16.9005 2.92952L16.9 2.92993L15.9136 1.65605ZM16.7986 0.970184L15.8117 -0.303286L17.0802 -1.28629L18.0682 -0.0217315L16.7986 0.970184ZM17.6113 2.01031L18.8809 1.0184L19.8761 2.29223L18.5989 3.2832L17.6113 2.01031ZM17.0406 2.45314L18.0282 3.72603L18.0271 3.72693L17.0406 2.45314ZM9.97686 7.92359L10.9633 9.19738L10.9628 9.19777L9.97686 7.92359ZM9.26656 8.16612V6.55501V8.16612ZM8.55626 7.92359L9.54214 6.64934L9.54223 6.64942L8.55626 7.92359ZM0.917683 2.01237L-0.0699596 3.28526L-1.34713 2.29429L-0.351877 1.02046L0.917683 2.01237ZM1.73034 0.972243L0.460779 -0.0196709L1.44846 -1.28382L2.71682 -0.301546L1.73034 0.972243ZM0.661272 -1.43802H17.8656V1.78421H0.661272V-1.43802ZM17.8656 -1.43802C19.1154 -1.43802 20.1385 -0.428175 20.1385 0.832187H16.9162C16.9162 1.36343 17.3479 1.78421 17.8656 1.78421V-1.43802ZM20.1385 0.832187V14.014H16.9162V0.832187H20.1385ZM20.1385 14.014C20.1385 15.2744 19.1154 16.2842 17.8656 16.2842V13.062C17.3479 13.062 16.9162 13.4828 16.9162 14.014H20.1385ZM17.8656 16.2842H0.661272V13.062H17.8656V16.2842ZM0.661272 16.2842C-0.588507 16.2842 -1.61155 15.2744 -1.61155 14.014H1.61068C1.61068 13.4828 1.17904 13.062 0.661272 13.062V16.2842ZM-1.61155 14.014V0.832187H1.61068V14.014H-1.61155ZM-1.61155 0.832187C-1.61155 -0.428174 -0.588507 -1.43802 0.661272 -1.43802V1.78421C1.17904 1.78421 1.61068 1.36343 1.61068 0.832187H-1.61155ZM3.09951 2.4552V13.1901H-0.122707V2.4552H3.09951ZM1.4884 11.579H17.0385V14.8013H1.4884V11.579ZM15.4274 13.1901V2.4552H18.6496V13.1901H15.4274ZM16.0509 1.18231L16.6216 0.739483L18.5969 3.28526L18.0261 3.72809L16.0509 1.18231ZM16.3397 3.00429L15.527 1.96416L18.0661 -0.0196716L18.8788 1.02046L16.3397 3.00429ZM17.7835 2.24571L16.8984 2.93158L14.9246 0.38464L15.8097 -0.301226L17.7835 2.24571ZM15.9115 3.26922H2.61331V0.0469989H15.9115V3.26922ZM1.62642 2.93158L0.741381 2.24571L2.71516 -0.301227L3.6002 0.38464L1.62642 2.93158ZM2.99783 1.96416L2.18518 3.00429L-0.353947 1.02046L0.458712 -0.0196709L2.99783 1.96416ZM1.90103 0.737757L2.47382 1.18058L0.502993 3.72981L-0.0697975 3.28699L1.90103 0.737757ZM3.59966 0.382166L10.2498 5.53131L8.2771 8.07908L1.62695 2.92993L3.59966 0.382166ZM8.2771 5.53131L14.9272 0.382166L16.9 2.92993L10.2498 8.07908L8.2771 5.53131ZM14.9267 0.382581L15.8117 -0.303286L17.7855 2.24365L16.9005 2.92952L14.9267 0.382581ZM18.0682 -0.0217315L18.8809 1.0184L16.3417 3.00223L15.5291 1.9621L18.0682 -0.0217315ZM18.5989 3.2832L18.0282 3.72603L16.0529 1.18025L16.6237 0.737425L18.5989 3.2832ZM18.0271 3.72693L10.9633 9.19738L8.99038 6.6498L16.0541 1.17935L18.0271 3.72693ZM10.9628 9.19777C10.477 9.57374 9.88013 9.77723 9.26656 9.77723V6.55501C9.16747 6.55501 9.07046 6.58783 8.99088 6.64942L10.9628 9.19777ZM9.26656 9.77723C8.65298 9.77723 8.05614 9.57374 7.57028 9.19777L9.54223 6.64942C9.46265 6.58783 9.36564 6.55501 9.26656 6.55501V9.77723ZM7.57037 9.19784L0.502518 3.72945L2.47429 1.18095L9.54214 6.64934L7.57037 9.19784ZM0.500761 3.72808L-0.0699596 3.28526L1.90532 0.739484L2.47605 1.18231L0.500761 3.72808ZM-0.351877 1.02046L0.460779 -0.0196709L2.9999 1.96416L2.18724 3.00429L-0.351877 1.02046ZM2.71682 -0.301546L3.59978 0.382261L1.62683 2.92984L0.743862 2.24603L2.71682 -0.301546Z" fill="#FF702D" mask="url(#path-2-inside-1_2228_5253)"/>
</svg>
