<svg width="16" height="17" viewBox="0 0 16 17" fill="none" xmlns="http://www.w3.org/2000/svg">
<path d="M13.6 2.1H12V1.3C12 1.08783 11.9157 0.884344 11.7657 0.734315C11.6157 0.584285 11.4122 0.5 11.2 0.5C10.9878 0.5 10.7843 0.584285 10.6343 0.734315C10.4843 0.884344 10.4 1.08783 10.4 1.3V2.1H5.6V1.3C5.6 1.08783 5.51571 0.884344 5.36569 0.734315C5.21566 0.584285 5.01217 0.5 4.8 0.5C4.58783 0.5 4.38434 0.584285 4.23431 0.734315C4.08429 0.884344 4 1.08783 4 1.3V2.1H2.4C1.76348 2.1 1.15303 2.35286 0.702944 2.80294C0.252856 3.25303 0 3.86348 0 4.5V14.1C0 14.7365 0.252856 15.347 0.702944 15.7971C1.15303 16.2471 1.76348 16.5 2.4 16.5H13.6C14.2365 16.5 14.847 16.2471 15.2971 15.7971C15.7471 15.347 16 14.7365 16 14.1V4.5C16 3.86348 15.7471 3.25303 15.2971 2.80294C14.847 2.35286 14.2365 2.1 13.6 2.1ZM14.4 14.1C14.4 14.3122 14.3157 14.5157 14.1657 14.6657C14.0157 14.8157 13.8122 14.9 13.6 14.9H2.4C2.18783 14.9 1.98434 14.8157 1.83431 14.6657C1.68429 14.5157 1.6 14.3122 1.6 14.1V8.5H14.4V14.1ZM14.4 6.9H1.6V4.5C1.6 4.28783 1.68429 4.08434 1.83431 3.93431C1.98434 3.78429 2.18783 3.7 2.4 3.7H4V4.5C4 4.71217 4.08429 4.91566 4.23431 5.06569C4.38434 5.21571 4.58783 5.3 4.8 5.3C5.01217 5.3 5.21566 5.21571 5.36569 5.06569C5.51571 4.91566 5.6 4.71217 5.6 4.5V3.7H10.4V4.5C10.4 4.71217 10.4843 4.91566 10.6343 5.06569C10.7843 5.21571 10.9878 5.3 11.2 5.3C11.4122 5.3 11.6157 5.21571 11.7657 5.06569C11.9157 4.91566 12 4.71217 12 4.5V3.7H13.6C13.8122 3.7 14.0157 3.78429 14.1657 3.93431C14.3157 4.08434 14.4 4.28783 14.4 4.5V6.9Z" fill="#FF702D"/>
</svg>
