<svg width="17" height="21" viewBox="0 0 17 21" fill="none" xmlns="http://www.w3.org/2000/svg">
<path d="M13.8792 15.3167L13.8791 15.3168L9.3297 20.0269L9.32963 20.027C9.20123 20.16 9.04981 20.2644 8.88456 20.3353C8.71936 20.4061 8.54299 20.4423 8.36536 20.4423C8.18774 20.4423 8.01137 20.4061 7.84616 20.3353C7.68091 20.2644 7.5295 20.16 7.4011 20.027L7.40103 20.0269L2.85161 15.3168L2.85154 15.3167C2.12553 14.5654 1.54864 13.6723 1.15471 12.6881C0.760763 11.7039 0.557748 10.6483 0.557692 9.58193C0.557636 8.51552 0.76054 7.45996 1.15438 6.47568C1.54821 5.49143 2.12501 4.59833 2.85093 3.84689C3.57682 3.0955 4.43754 2.50051 5.38344 2.09492C6.32928 1.68935 7.34234 1.48085 8.36494 1.48079C9.38754 1.48073 10.4006 1.68912 11.3465 2.09458C12.2924 2.50006 13.1532 3.09496 13.8792 3.84627L14.2802 3.45875L13.8792 3.84628C14.6053 4.59768 15.1822 5.49078 15.5761 6.47507C15.9701 7.45938 16.1731 8.515 16.1731 9.58149C16.1731 10.648 15.9701 11.7036 15.5761 12.6879C15.1822 13.6722 14.6053 14.5653 13.8792 15.3167ZM3.41358 14.6798L3.41369 14.6799L7.9644 19.3873L8.36536 19.8021L8.76633 19.3873L13.317 14.6799L13.3171 14.6798C13.9656 14.0087 14.4791 13.213 14.8292 12.3386C15.1792 11.4642 15.3591 10.5276 15.3591 9.58216C15.3591 8.63674 15.1792 7.70016 14.8292 6.82575C14.4791 5.95132 13.9656 5.15559 13.3171 4.48449C12.6686 3.81332 11.8977 3.27986 11.0479 2.91553C10.1981 2.55117 9.28646 2.36336 8.36536 2.36336C7.44427 2.36336 6.53267 2.55117 5.68279 2.91553C4.83296 3.27987 4.06206 3.81335 3.41358 4.48454C2.76515 5.1557 2.25175 5.95144 1.90181 6.82586C1.55189 7.70025 1.37201 8.63679 1.37201 9.58216C1.37201 10.5275 1.55189 11.4641 1.90181 12.3385C2.25175 13.2129 2.76515 14.0086 3.41358 14.6798ZM7.57357 11.5448L7.36279 12.0611L7.57357 11.5448C7.32521 11.4434 7.09762 11.2912 6.90468 11.096C6.71169 10.9008 6.55731 10.6665 6.45155 10.4065C6.34577 10.1465 6.29101 9.86661 6.29094 9.58337C6.29087 9.30014 6.3455 9.02018 6.45115 8.76011C6.55679 8.50007 6.71106 8.26576 6.90395 8.07043C7.0968 7.87514 7.32432 7.72277 7.57263 7.62125L7.36159 7.10504L7.57263 7.62125C7.8209 7.51976 8.08557 7.47086 8.35132 7.47695C8.87196 7.48886 9.37151 7.71121 9.74171 8.10285C10.1125 8.4951 10.3233 9.02585 10.3234 9.58231C10.3235 10.1388 10.113 10.6696 9.74242 11.0621C9.3724 11.4539 8.87295 11.6765 8.35231 11.6887C8.08657 11.6949 7.82188 11.6462 7.57357 11.5448Z" fill="#FF702D" stroke="#FF702D" stroke-width="1.11538"/>
</svg>
