<svg width="15" height="15" viewBox="0 0 15 15" fill="none" xmlns="http://www.w3.org/2000/svg">
<path d="M10.1059 10.9701L10.3465 11.0001L10.5179 10.8286L11.7643 9.5817C11.7646 9.58139 11.7649 9.58108 11.7652 9.58078C11.865 9.48259 11.991 9.41539 12.128 9.38726C12.2651 9.35913 12.4073 9.3713 12.5376 9.42228C12.538 9.42243 12.5384 9.42258 12.5388 9.42273L14.0554 10.0285C14.0558 10.0287 14.0562 10.0288 14.0566 10.029C14.1877 10.0825 14.3001 10.1735 14.3798 10.2907C14.4593 10.4077 14.5026 10.5455 14.5043 10.687V13.4704C14.5033 13.5662 14.483 13.6609 14.4447 13.7487C14.4062 13.8371 14.3502 13.9167 14.2801 13.9828C14.2101 14.0489 14.1273 14.1002 14.037 14.1334C13.9474 14.1664 13.8521 14.1811 13.7567 14.1766C8.58845 13.8541 5.52033 11.5163 3.67964 8.8596C1.82376 6.18102 1.19899 3.15033 0.999959 1.46082C0.989049 1.36102 0.999288 1.26003 1.03001 1.16444C1.06087 1.06841 1.11171 0.980031 1.17915 0.905096C1.2466 0.830162 1.32912 0.770377 1.4213 0.72966C1.51347 0.688944 1.61321 0.668217 1.71395 0.668836V0.668845H1.717H4.40844C4.5495 0.66939 4.68721 0.712074 4.8039 0.791455C4.92077 0.870957 5.01122 0.98364 5.06359 1.11503L5.06367 1.11525L5.67125 2.63758L5.67123 2.63759L5.67259 2.64092C5.72516 2.76992 5.73858 2.91157 5.71115 3.04817C5.68375 3.18463 5.61681 3.30998 5.51871 3.4086C5.51861 3.40869 5.51852 3.40878 5.51843 3.40887L4.27048 4.65732L4.09426 4.83362L4.13068 5.08022L4.62109 5.00778C4.13068 5.08022 4.13072 5.08047 4.13076 5.08073L4.13085 5.08136L4.13109 5.08294L4.13178 5.08745L4.13406 5.1017C4.13598 5.11349 4.13875 5.12983 4.14246 5.15043C4.14987 5.19163 4.16107 5.24993 4.17692 5.32309C4.20859 5.46929 4.25894 5.67541 4.33492 5.92317C4.48648 6.41744 4.74219 7.08451 5.16005 7.77405C6.0008 9.16139 7.50586 10.6457 10.1059 10.9701Z" fill="#FF702D" stroke="#FF702D" stroke-width="0.991453"/>
</svg>
