<svg width="20" height="21" viewBox="0 0 20 21" fill="none" xmlns="http://www.w3.org/2000/svg">
<path d="M17 19.4231V3.4231C17 2.89266 16.7893 2.38395 16.4142 2.00888C16.0391 1.63381 15.5304 1.4231 15 1.4231H5C4.46957 1.4231 3.96086 1.63381 3.58579 2.00888C3.21071 2.38395 3 2.89266 3 3.4231V19.4231M17 19.4231H19M17 19.4231H12M3 19.4231H1M3 19.4231H8M12 19.4231V14.4231C12 14.1579 11.8946 13.9035 11.7071 13.716C11.5196 13.5285 11.2652 13.4231 11 13.4231H9C8.73478 13.4231 8.48043 13.5285 8.29289 13.716C8.10536 13.9035 8 14.1579 8 14.4231V19.4231M12 19.4231H8M7 5.4231H8M7 9.4231H8M12 5.4231H13M12 9.4231H13" stroke="#FF702D" stroke-width="2" stroke-linecap="round" stroke-linejoin="round"/>
</svg>
