<svg width="21" height="14" viewBox="0 0 21 14" fill="none" xmlns="http://www.w3.org/2000/svg">
<path d="M1.23894 10.8032L10.1753 1.01932C10.2817 0.903194 10.3969 0.820743 10.5211 0.771969C10.6452 0.723194 10.7782 0.699195 10.92 0.699969C11.0618 0.699969 11.1948 0.723969 11.3189 0.771969C11.4431 0.819968 11.5583 0.90242 11.6647 1.01932L20.6277 10.8032C20.8759 11.0741 21 11.4129 21 11.8193C21 12.2258 20.867 12.5741 20.6011 12.8645C20.3351 13.1548 20.0248 13.3 19.6702 13.3C19.3156 13.3 19.0053 13.1548 18.7393 12.8645L10.92 4.329L3.10069 12.8645C2.85245 13.1354 2.54642 13.2709 2.18258 13.2709C1.81874 13.2709 1.5042 13.1258 1.23894 12.8354C0.972982 12.5451 0.84 12.2064 0.84 11.8193C0.84 11.4322 0.972982 11.0935 1.23894 10.8032Z" fill="#BDBDBD"/>
</svg>
