<svg width="11" height="12" viewBox="0 0 11 12" fill="none" xmlns="http://www.w3.org/2000/svg">
<path d="M1.64016 0.936595L5.50016 4.7966L9.34016 0.956595C9.42498 0.866313 9.52716 0.79409 9.64058 0.744258C9.75399 0.694425 9.87629 0.66801 10.0002 0.666595C10.2654 0.666595 10.5197 0.771952 10.7073 0.959489C10.8948 1.14702 11.0002 1.40138 11.0002 1.6666C11.0025 1.7892 10.9797 1.91098 10.9333 2.02448C10.8869 2.13797 10.8178 2.24078 10.7302 2.3266L6.84016 6.1666L10.7302 10.0566C10.895 10.2178 10.9916 10.4362 11.0002 10.6666C11.0002 10.9318 10.8948 11.1862 10.7073 11.3737C10.5197 11.5612 10.2654 11.6666 10.0002 11.6666C9.87272 11.6719 9.74557 11.6506 9.62678 11.6041C9.508 11.5576 9.40017 11.487 9.31016 11.3966L5.50016 7.5366L1.65016 11.3866C1.56567 11.4739 1.46473 11.5435 1.35316 11.5916C1.2416 11.6397 1.12163 11.6651 1.00016 11.6666C0.734946 11.6666 0.480592 11.5612 0.293056 11.3737C0.10552 11.1862 0.000162707 10.9318 0.000162707 10.6666C-0.00216879 10.544 0.0205781 10.4222 0.0670076 10.3087C0.113437 10.1952 0.18257 10.0924 0.270163 10.0066L4.16016 6.1666L0.270163 2.2766C0.105348 2.11535 0.00870232 1.89701 0.000162707 1.6666C0.000162707 1.40138 0.10552 1.14702 0.293056 0.959489C0.480592 0.771952 0.734946 0.666595 1.00016 0.666595C1.24016 0.669595 1.47016 0.766595 1.64016 0.936595Z" fill="#FF702D"/>
</svg>
