<svg width="21" height="20" viewBox="0 0 21 20" fill="none" xmlns="http://www.w3.org/2000/svg">
<path d="M0.839844 16.0672V19.4445C0.839844 19.7556 1.08426 20 1.39532 20H4.77264C4.91707 20 5.06149 19.9445 5.16148 19.8334L17.2932 7.71278L13.1271 3.54668L1.00649 15.6673C0.895392 15.7784 0.839844 15.9117 0.839844 16.0672ZM20.515 4.491C20.6179 4.38822 20.6996 4.26613 20.7554 4.13174C20.8111 3.99734 20.8398 3.85327 20.8398 3.70777C20.8398 3.56227 20.8111 3.4182 20.7554 3.2838C20.6996 3.1494 20.6179 3.02732 20.515 2.92454L17.9153 0.324894C17.8125 0.221904 17.6904 0.140195 17.556 0.0844457C17.4217 0.0286961 17.2776 0 17.1321 0C16.9866 0 16.8425 0.0286961 16.7081 0.0844457C16.5737 0.140195 16.4516 0.221904 16.3488 0.324894L14.3158 2.35795L18.4819 6.52405L20.515 4.491Z" fill="#FF702D"/>
</svg>
