<svg width="25" height="24" viewBox="0 0 25 24" fill="none" xmlns="http://www.w3.org/2000/svg">
<circle cx="12.8398" cy="12" r="12" fill="#FF702D"/>
<path d="M13.4104 6.1192L13.4104 10.8803L18.1468 10.8803C18.2548 10.8769 18.3624 10.8954 18.4631 10.9346C18.5637 10.9738 18.6555 11.0329 18.7327 11.1085C18.8963 11.272 18.9882 11.4939 18.9882 11.7252C18.9882 11.9565 18.8963 12.1783 18.7327 12.3419C18.6586 12.419 18.5694 12.48 18.4708 12.5214C18.3722 12.5628 18.2661 12.5835 18.1592 12.5824L13.3919 12.5516L13.3919 17.3497C13.3941 17.5508 13.3191 17.745 13.1822 17.8924C13.0187 18.056 12.7968 18.1478 12.5655 18.1478C12.3342 18.1478 12.1124 18.056 11.9488 17.8924C11.867 17.817 11.8017 17.7255 11.7571 17.6236C11.7125 17.5217 11.6896 17.4116 11.6898 17.3003L11.7206 12.5701L6.97188 12.5701C6.86595 12.5718 6.76072 12.5525 6.66228 12.5134C6.56384 12.4742 6.47413 12.4159 6.39833 12.3419C6.23476 12.1783 6.14287 11.9565 6.14287 11.7252C6.14287 11.4939 6.23476 11.272 6.39833 11.1085C6.4725 11.0314 6.56164 10.9703 6.66027 10.929C6.75889 10.8876 6.86493 10.8668 6.97188 10.8679L11.7391 10.8988L11.7391 6.1007C11.7369 5.89961 11.812 5.70535 11.9488 5.55798C12.1124 5.39442 12.3342 5.30253 12.5655 5.30253C12.7968 5.30253 13.0187 5.39442 13.1823 5.55798C13.3284 5.70785 13.4104 5.90951 13.4104 6.1192Z" fill="white"/>
</svg>
