<svg width="91" height="92" viewBox="0 0 91 92" fill="none" xmlns="http://www.w3.org/2000/svg">
<path d="M89.7477 45.9174C89.7477 70.5961 69.9266 90.5826 45.5 90.5826C21.0734 90.5826 1.25229 70.5961 1.25229 45.9174C1.25229 21.2388 21.0734 1.25229 45.5 1.25229C69.9266 1.25229 89.7477 21.2387 89.7477 45.9174Z" fill="white" stroke="#F0A437" stroke-width="2.50459"/>
<circle cx="45.9176" cy="45.9175" r="35.8991" fill="#F0A437"/>
<path d="M44.4162 23.4333C34.7318 24.0177 29.6391 29.5278 29.2217 39.4626H38.9896C39.0731 36.0397 41.0767 33.4516 44.5831 33.0342C48.0896 32.7002 51.429 33.5351 52.4309 35.8727C53.5162 38.4608 51.0951 41.4663 49.9263 42.7186C47.7556 45.0562 44.2492 46.8094 42.4125 49.314C40.6593 51.8186 40.3253 55.0746 40.1584 59.0819H48.7575C48.8409 56.4938 49.0079 54.0727 50.1767 52.4865C52.0969 49.8984 54.9354 48.7296 57.2731 46.6424C59.5272 44.7223 61.9483 42.3846 62.2822 38.7113C63.7015 27.9415 54.852 22.7654 44.4162 23.4333Z" fill="white"/>
<path d="M44.6668 73.4414C47.6639 73.4414 50.0934 71.0492 50.0934 68.0982C50.0934 65.1473 47.6639 62.7551 44.6668 62.7551C41.6698 62.7551 39.2402 65.1473 39.2402 68.0982C39.2402 71.0492 41.6698 73.4414 44.6668 73.4414Z" fill="white"/>
</svg>
