<svg width="17" height="19" viewBox="0 0 17 19" fill="none" xmlns="http://www.w3.org/2000/svg">
<path d="M7.27443 3.0165H9.86783C9.86783 2.67259 9.73122 2.34277 9.48804 2.09959C9.24486 1.85641 8.91504 1.7198 8.57113 1.7198C8.22723 1.7198 7.89741 1.85641 7.65423 2.09959C7.41105 2.34277 7.27443 2.67259 7.27443 3.0165ZM5.97773 3.0165C5.97773 2.32868 6.25096 1.66904 6.73732 1.18269C7.22368 0.696328 7.88332 0.423096 8.57113 0.423096C9.25894 0.423096 9.91859 0.696328 10.4049 1.18269C10.8913 1.66904 11.1645 2.32868 11.1645 3.0165H16.3513C16.5233 3.0165 16.6882 3.08481 16.8098 3.20639C16.9314 3.32798 16.9997 3.49289 16.9997 3.66485C16.9997 3.8368 16.9314 4.00171 16.8098 4.1233C16.6882 4.24489 16.5233 4.3132 16.3513 4.3132H15.62L14.0575 15.7734C13.9515 16.5501 13.5677 17.262 12.9772 17.7774C12.3867 18.2929 11.6294 18.5769 10.8455 18.5769H6.29672C5.51289 18.5769 4.7556 18.2929 4.16507 17.7774C3.57454 17.262 3.19077 16.5501 3.08479 15.7734L1.52227 4.3132H0.790928C0.618975 4.3132 0.454065 4.24489 0.332475 4.1233C0.210886 4.00171 0.142578 3.8368 0.142578 3.66485C0.142578 3.49289 0.210886 3.32798 0.332475 3.20639C0.454065 3.08481 0.618975 3.0165 0.790928 3.0165H5.97773ZM7.27443 7.55495C7.27443 7.383 7.20612 7.21809 7.08453 7.0965C6.96294 6.97491 6.79803 6.9066 6.62608 6.9066C6.45413 6.9066 6.28922 6.97491 6.16763 7.0965C6.04604 7.21809 5.97773 7.383 5.97773 7.55495V14.0385C5.97773 14.2104 6.04604 14.3753 6.16763 14.4969C6.28922 14.6185 6.45413 14.6868 6.62608 14.6868C6.79803 14.6868 6.96294 14.6185 7.08453 14.4969C7.20612 14.3753 7.27443 14.2104 7.27443 14.0385V7.55495ZM10.5162 6.9066C10.3442 6.9066 10.1793 6.97491 10.0577 7.0965C9.93614 7.21809 9.86783 7.383 9.86783 7.55495V14.0385C9.86783 14.2104 9.93614 14.3753 10.0577 14.4969C10.1793 14.6185 10.3442 14.6868 10.5162 14.6868C10.6881 14.6868 10.853 14.6185 10.9746 14.4969C11.0962 14.3753 11.1645 14.2104 11.1645 14.0385V7.55495C11.1645 7.383 11.0962 7.21809 10.9746 7.0965C10.853 6.97491 10.6881 6.9066 10.5162 6.9066Z" fill="#FF702D"/>
</svg>
