<svg width="96" height="31" viewBox="0 0 96 31" fill="none" xmlns="http://www.w3.org/2000/svg">
<path d="M3.34 30L0.46 0.912H15.58L13.42 22.56L22.108 22.08L19.372 30H3.34ZM26.6781 30L24.2781 0.912H42.2301L47.6541 15.168L53.0781 0.912H69.3981L66.9981 30H57.1581L55.4301 12.672L48.8061 30H41.0301L34.4061 12.672L32.9661 30H26.6781ZM92.1614 13.152C93.2174 13.792 94.0974 14.704 94.8014 15.888C95.5374 17.072 95.9054 18.656 95.9054 20.64C95.9054 22.592 95.2814 24.368 94.0334 25.968C91.7294 28.976 88.2254 30.48 83.5214 30.48C81.4734 30.48 79.4414 30.192 77.4254 29.616C75.4414 29.008 73.9694 28.4 73.0094 27.792L71.5694 26.928L73.6334 22.8C75.9374 23.92 78.0174 24.48 79.8734 24.48C81.7294 24.48 82.6574 23.888 82.6574 22.704C82.6574 22.032 82.2894 21.408 81.5534 20.832C80.8494 20.224 79.9694 19.648 78.9134 19.104C77.8894 18.56 76.8494 17.936 75.7934 17.232C74.7694 16.496 73.8894 15.488 73.1534 14.208C72.4494 12.896 72.0974 11.376 72.0974 9.648C72.0974 6.576 73.2654 4.24 75.6014 2.64C77.9694 1.04 80.8174 0.24 84.1454 0.24C86.1294 0.24 87.9854 0.48 89.7134 0.959999C91.4734 1.44 92.7214 1.92 93.4574 2.4L94.6094 3.12L92.7374 7.2C91.1054 6.496 89.4574 6.144 87.7934 6.144C86.1614 6.144 85.3454 6.768 85.3454 8.016C85.3454 8.688 85.6974 9.296 86.4014 9.84C87.1374 10.384 88.0174 10.912 89.0414 11.424C90.0974 11.904 91.1374 12.48 92.1614 13.152Z" fill="#FF702D"/>
</svg>
