<svg width="21" height="22" viewBox="0 0 21 22" fill="none" xmlns="http://www.w3.org/2000/svg">
<ellipse cx="10.75" cy="10.78" rx="10.25" ry="10.28" fill="#FF702D"/>
<path d="M15.1136 8.75L14.6989 10.3295H7.07955L7.48864 8.75H15.1136ZM11.1534 17.5L7.26705 12.875L7.27273 11.4545H9.19318C9.62121 11.4545 9.97917 11.375 10.267 11.2159C10.5549 11.0568 10.7708 10.8409 10.9148 10.5682C11.0587 10.2955 11.1326 9.98485 11.1364 9.63636C11.1326 9.11364 10.9792 8.6875 10.6761 8.35795C10.3769 8.02462 9.88258 7.85795 9.19318 7.85795H7.07955L7.54545 5.86364H9.19318C10.1591 5.86364 10.964 6.00947 11.608 6.30114C12.2557 6.58901 12.7405 7 13.0625 7.53409C13.3883 8.06818 13.553 8.70455 13.5568 9.44318C13.553 10.0985 13.4432 10.6705 13.2273 11.1591C13.0152 11.6477 12.6799 12.0549 12.2216 12.3807C11.767 12.7064 11.1742 12.9489 10.4432 13.108L10.3523 13.142L13.8295 17.3977V17.5H11.1534ZM15.125 5.86364L14.6989 7.46591H8.42614L8.85227 5.86364H15.125Z" fill="white"/>
</svg>
