<svg width="91" height="14" viewBox="0 0 91 14" fill="none" xmlns="http://www.w3.org/2000/svg">
<path d="M6.64779 0.0717392L8.9075 4.32318L13.2956 5.36446L10.3041 9.03328L10.7564 13.9283L6.64779 11.9443L2.53923 13.9283L2.99151 9.03328L0 5.36446L4.38808 4.32318L6.64779 0.0717392Z" fill="#FFA100"/>
<path d="M25.9434 0.0717392L28.2031 4.32318L32.5912 5.36446L29.5997 9.03328L30.0519 13.9283L25.9434 11.9443L21.8348 13.9283L22.2871 9.03328L19.2956 5.36446L23.6837 4.32318L25.9434 0.0717392Z" fill="#FFA100"/>
<path d="M45.239 0.0717392L47.4987 4.32318L51.8868 5.36446L48.8952 9.03328L49.3475 13.9283L45.239 11.9443L41.1304 13.9283L41.5827 9.03328L38.5912 5.36446L42.9793 4.32318L45.239 0.0717392Z" fill="#FFA100"/>
<path d="M64.5345 0.0717392L66.7942 4.32318L71.1823 5.36446L68.1908 9.03328L68.6431 13.9283L64.5345 11.9443L60.426 13.9283L60.8783 9.03328L57.8867 5.36446L62.2748 4.32318L64.5345 0.0717392Z" fill="#FFA100"/>
<path d="M83.8301 0.0717392L86.0898 4.32318L90.4779 5.36446L87.4864 9.03328L87.9387 13.9283L83.8301 11.9443L79.7216 13.9283L80.1738 9.03328L77.1823 5.36446L81.5704 4.32318L83.8301 0.0717392Z" fill="#FFA100"/>
</svg>
