<svg width="21" height="19" viewBox="0 0 21 19" fill="none" xmlns="http://www.w3.org/2000/svg">
<path d="M10.4074 5.56742H13.6111M7.20369 9.22878H13.6111M7.20369 12.8901H13.6111M8.94283 17.4668H11.8719C13.9313 17.4668 14.961 17.4668 15.6828 16.9424C15.9159 16.773 16.1209 16.568 16.2903 16.3349C16.8148 15.6131 16.8148 14.5834 16.8148 12.524V5.93356C16.8148 3.87419 16.8148 2.84451 16.2903 2.12267C16.1209 1.88955 15.9159 1.68454 15.6828 1.51517C14.961 0.990723 13.9313 0.990723 11.8719 0.990723H8.94283C6.88347 0.990723 5.85378 0.990723 5.13195 1.51517C4.89883 1.68454 4.69382 1.88955 4.52444 2.12267C4 2.84451 4 3.87419 4 5.93356V12.524C4 14.5834 4 15.6131 4.52444 16.3349C4.69382 16.568 4.89883 16.773 5.13195 16.9424C5.85378 17.4668 6.88347 17.4668 8.94283 17.4668Z" stroke="#1C1D1D" stroke-width="1.37301" stroke-linecap="round" stroke-linejoin="round"/>
</svg>
