<svg width="32" height="26" viewBox="0 0 32 26" fill="none" xmlns="http://www.w3.org/2000/svg">
<path d="M30.4023 5.21777V20.9678C30.4023 21.8629 30.0468 22.7213 29.4138 23.3543C28.7809 23.9872 27.9224 24.3428 27.0273 24.3428H4.52734C3.63224 24.3428 2.77379 23.9872 2.14086 23.3543C1.50792 22.7213 1.15234 21.8629 1.15234 20.9678V5.21777M30.4023 5.21777C30.4023 4.32267 30.0468 3.46422 29.4138 2.83129C28.7809 2.19835 27.9224 1.84277 27.0273 1.84277H4.52734C3.63224 1.84277 2.77379 2.19835 2.14086 2.83129C1.50792 3.46422 1.15234 4.32267 1.15234 5.21777M30.4023 5.21777V5.58227C30.4024 6.15849 30.2549 6.72513 29.974 7.22822C29.693 7.7313 29.288 8.15408 28.7973 8.45627L17.5473 15.3788C17.0152 15.7066 16.4024 15.8801 15.7773 15.8801C15.1523 15.8801 14.5395 15.7066 14.0073 15.3788L2.75734 8.45777C2.26673 8.15558 1.86165 7.7328 1.5807 7.22972C1.29975 6.72663 1.15228 6.15999 1.15234 5.58377V5.21777" stroke="black" stroke-width="2.25" stroke-linecap="round" stroke-linejoin="round"/>
</svg>
