<svg width="28" height="32" viewBox="0 0 28 32" fill="none" xmlns="http://www.w3.org/2000/svg">
<path d="M8.19727 9.34277V7.25477C8.19727 5.55227 9.46477 4.10777 11.1613 3.96677C11.7208 3.92177 12.2833 3.88127 12.8458 3.84677M19.4473 25.0928H22.8223C23.7174 25.0928 24.5758 24.7372 25.2088 24.1043C25.8417 23.4713 26.1973 22.6129 26.1973 21.7178V7.25477C26.1973 5.55227 24.9298 4.10777 23.2333 3.96677C22.6722 3.92025 22.1107 3.88024 21.5488 3.84677M21.5488 3.84677C21.3357 3.15782 20.9062 2.55517 20.3259 2.12708C19.7455 1.69899 19.0434 1.46794 18.3223 1.46777H16.0723C15.3511 1.46794 14.649 1.69899 14.0687 2.12708C13.4883 2.55517 13.0603 3.15782 12.8473 3.84677C12.7498 4.16177 12.6973 4.49627 12.6973 4.84277V5.96777H21.6973V4.84277C21.6973 4.49627 21.6463 4.16177 21.5488 3.84677ZM19.4473 26.2178V23.4053C19.4473 22.0626 18.9139 20.7749 17.9645 19.8255C17.0151 18.8761 15.7274 18.3428 14.3848 18.3428H12.1348C11.6872 18.3428 11.258 18.165 10.9415 17.8485C10.6251 17.532 10.4473 17.1028 10.4473 16.6553V14.4053C10.4473 13.0626 9.9139 11.7749 8.96449 10.8255C8.01509 9.87614 6.72742 9.34277 5.38477 9.34277H3.69727M5.94727 9.34277H3.13477C2.20327 9.34277 1.44727 10.0988 1.44727 11.0303V29.0303C1.44727 29.9618 2.20327 30.7178 3.13477 30.7178H17.7598C18.6913 30.7178 19.4473 29.9618 19.4473 29.0303V22.8428C19.4473 19.2624 18.0249 15.8286 15.4932 13.2968C12.9615 10.7651 9.52769 9.34277 5.94727 9.34277Z" stroke="black" stroke-width="2.25" stroke-linecap="round" stroke-linejoin="round"/>
</svg>
