<svg width="18" height="18" viewBox="0 0 18 18" fill="none" xmlns="http://www.w3.org/2000/svg">
<g clip-path="url(#clip0_1575_8059)">
<path d="M8.99953 4.50488C6.52115 4.50488 4.50488 6.52115 4.50488 8.99953C4.50488 11.4779 6.52115 13.4942 8.99953 13.4942C11.4779 13.4942 13.4942 11.4779 13.4942 8.99953C13.4942 6.52115 11.4779 4.50488 8.99953 4.50488ZM8.99953 12.4395C7.10274 12.4395 5.55957 10.8963 5.55957 8.99953C5.55957 7.10274 7.10274 5.55957 8.99953 5.55957C10.8963 5.55957 12.4395 7.10274 12.4395 8.99953C12.4395 10.8963 10.8963 12.4395 8.99953 12.4395Z" fill="black"/>
<path d="M5.98395 3.44078C6.0599 3.44078 6.13708 3.4243 6.21027 3.38942C6.67472 3.16832 7.1632 3.00545 7.66637 2.90341C7.99047 3.2867 8.47442 3.53087 9.01453 3.53087C9.53817 3.53087 10.0091 3.30139 10.3326 2.93816C10.8333 3.05338 11.3178 3.22916 11.7768 3.46262C11.8534 3.50162 11.935 3.52016 12.0154 3.52016C12.2076 3.52016 12.3928 3.41483 12.4858 3.2319C12.618 2.97235 12.5146 2.65485 12.2551 2.52274C11.7806 2.28131 11.2827 2.09276 10.7691 1.95941C10.7761 1.89569 10.78 1.83101 10.78 1.76537C10.78 0.791977 9.98806 0 9.01453 0C8.04114 0 7.24917 0.791977 7.24917 1.76537C7.24917 1.81535 7.25178 1.86465 7.2559 1.91354C6.73926 2.03343 6.23691 2.20853 5.75681 2.43718C5.49383 2.56256 5.38218 2.87718 5.50742 3.14003C5.59779 3.32996 5.78675 3.44078 5.98395 3.44078ZM9.01453 1.05469C9.40647 1.05469 9.72535 1.37343 9.72535 1.76537C9.72535 2.1573 9.40647 2.47618 9.01453 2.47618C8.6226 2.47618 8.30385 2.1573 8.30385 1.76537C8.30385 1.37343 8.6226 1.05469 9.01453 1.05469Z" fill="black"/>
<path d="M16.2343 7.24923C16.1843 7.24923 16.135 7.25184 16.0861 7.25596C15.9663 6.73946 15.7911 6.23725 15.5624 5.75687C15.4372 5.49389 15.1224 5.3821 14.8596 5.50748C14.5966 5.63259 14.485 5.94735 14.6102 6.2102C14.8313 6.67492 14.9942 7.1634 15.0962 7.66643C14.7129 7.99053 14.4688 8.47448 14.4688 9.01473C14.4688 9.53837 14.6982 10.0091 15.0615 10.3327C14.9462 10.8334 14.7705 11.3179 14.5369 11.7768C14.4048 12.0365 14.5082 12.3539 14.7677 12.486C14.8443 12.525 14.9261 12.5435 15.0065 12.5435C15.1985 12.5435 15.3838 12.4382 15.4769 12.2551C15.7183 11.7807 15.9067 11.2829 16.0402 10.7692C16.1039 10.7763 16.1686 10.7801 16.2341 10.7801C17.2076 10.7801 17.9996 9.98812 17.9996 9.01473C17.9996 8.0412 17.2076 7.24923 16.2343 7.24923ZM16.2343 9.72541C15.8423 9.72541 15.5234 9.40653 15.5234 9.01473C15.5234 8.62279 15.8423 8.30391 16.2343 8.30391C16.6261 8.30391 16.9449 8.62279 16.9449 9.01473C16.9449 9.40653 16.6262 9.72541 16.2343 9.72541Z" fill="black"/>
<path d="M11.7892 14.611C11.3247 14.8323 10.8363 14.9951 10.3331 15.0972C10.009 14.7138 9.52504 14.4697 8.98479 14.4697C8.46129 14.4697 7.99039 14.6991 7.66684 15.0623C7.16614 14.9471 6.68164 14.7713 6.22269 14.5378C5.96314 14.4057 5.64563 14.509 5.51352 14.7686C5.38141 15.0281 5.48482 15.3456 5.74437 15.4777C6.21871 15.7191 6.71666 15.9077 7.23027 16.041C7.22327 16.1048 7.21942 16.1694 7.21942 16.2351C7.21942 17.2085 8.0114 18.0005 8.98479 18.0005C9.95832 18.0005 10.7502 17.2085 10.7502 16.2351C10.7502 16.1851 10.7477 16.1359 10.7436 16.0871C11.2602 15.9672 11.7624 15.7919 12.2426 15.5633C12.5056 15.438 12.6173 15.1233 12.492 14.8604C12.3668 14.5974 12.0522 14.4857 11.7892 14.611ZM8.98479 16.9458C8.59299 16.9458 8.27411 16.627 8.27411 16.2351C8.27411 15.8432 8.59299 15.5243 8.98479 15.5243C9.37673 15.5243 9.69561 15.8432 9.69561 16.2351C9.69561 16.627 9.37673 16.9458 8.98479 16.9458Z" fill="black"/>
<path d="M3.53087 8.98487C3.53087 8.46123 3.30139 7.99033 2.93816 7.66678C3.05338 7.16608 3.22916 6.68158 3.46275 6.22263C3.59486 5.96308 3.49146 5.64557 3.2319 5.51346C2.97235 5.38149 2.65485 5.48476 2.52274 5.74431C2.28131 6.21878 2.0929 6.71674 1.95941 7.23035C1.89569 7.22335 1.83101 7.21936 1.7655 7.21936C0.791977 7.21936 0 8.01134 0 8.98487C0 9.95826 0.791977 10.7502 1.76537 10.7502C1.81535 10.7502 1.86465 10.7476 1.91354 10.7435C2.03329 11.2601 2.20853 11.7623 2.43718 12.2426C2.52768 12.4324 2.71664 12.5433 2.91371 12.5433C2.98965 12.5433 3.06697 12.5269 3.14003 12.492C3.40302 12.3667 3.51466 12.0521 3.38942 11.7891C3.16832 11.3247 3.00545 10.8362 2.90341 10.333C3.2867 10.0089 3.53087 9.52498 3.53087 8.98487ZM1.05469 8.98487C1.05469 8.59293 1.37343 8.27405 1.76537 8.27405C2.1573 8.27405 2.47618 8.59293 2.47618 8.98487C2.47618 9.37667 2.1573 9.69554 1.76537 9.69554C1.37343 9.69554 1.05469 9.3768 1.05469 8.98487Z" fill="black"/>
</g>
<defs>
<clipPath id="clip0_1575_8059">
<rect width="18" height="18" fill="white"/>
</clipPath>
</defs>
</svg>
