<svg width="18" height="18" viewBox="0 0 18 18" fill="none" xmlns="http://www.w3.org/2000/svg">
<path d="M13.2073 16.7007C12.9938 16.7009 12.7835 16.6487 12.5948 16.5489L9.08871 14.7061C9.06154 14.6916 9.03121 14.684 9.0004 14.684C8.96959 14.684 8.93926 14.6916 8.91209 14.7061L5.40659 16.5489C5.18935 16.6632 4.94446 16.7144 4.69962 16.6968C4.45478 16.6791 4.21977 16.5933 4.02117 16.449C3.82257 16.3047 3.66832 16.1078 3.57587 15.8804C3.48341 15.653 3.45645 15.4042 3.49802 15.1623L4.1674 11.2591C4.17254 11.2285 4.1701 11.1971 4.1603 11.1677C4.15049 11.1383 4.13361 11.1117 4.11115 11.0904L1.27727 8.32455C1.10133 8.15313 0.976905 7.93585 0.918109 7.69734C0.859313 7.45884 0.868493 7.20863 0.944609 6.97507C1.02072 6.74151 1.16073 6.53394 1.34877 6.37587C1.53681 6.21781 1.76536 6.11557 2.00852 6.08073L5.92521 5.51205C5.95569 5.50761 5.98463 5.49582 6.00952 5.47769C6.03442 5.45956 6.05452 5.43563 6.06809 5.40798L7.81915 1.8558C7.92761 1.63559 8.09556 1.45015 8.30398 1.32047C8.5124 1.1908 8.75296 1.12207 8.99843 1.12207C9.2439 1.12207 9.48446 1.1908 9.69288 1.32047C9.9013 1.45015 10.0693 1.63559 10.1777 1.8558L11.9299 5.40686C11.9436 5.43442 11.9637 5.45827 11.9886 5.47639C12.0135 5.4945 12.0423 5.50635 12.0728 5.51092L15.9928 6.08017C16.2359 6.1152 16.4643 6.21755 16.6522 6.37564C16.8401 6.53373 16.98 6.74125 17.0561 6.97473C17.1322 7.2082 17.1414 7.45831 17.0827 7.69676C17.0241 7.9352 16.8998 8.15247 16.7241 8.32398L13.8874 11.0881C13.865 11.1095 13.8482 11.1361 13.8384 11.1655C13.8286 11.1949 13.8261 11.2263 13.8311 11.2569L14.5005 15.16C14.5327 15.3486 14.5234 15.542 14.4733 15.7266C14.4232 15.9113 14.3335 16.0828 14.2103 16.2292C14.0872 16.3756 13.9336 16.4935 13.7603 16.5745C13.587 16.6556 13.3981 16.6979 13.2068 16.6985L13.2073 16.7007ZM9.0004 13.5586C9.21373 13.5586 9.42384 13.6107 9.6124 13.7105L13.1179 15.5527C13.1489 15.5704 13.1845 15.5785 13.2202 15.576C13.2558 15.5735 13.2899 15.5605 13.3181 15.5386C13.3476 15.5184 13.3705 15.49 13.384 15.4569C13.3975 15.4238 13.401 15.3875 13.3941 15.3524L12.7241 11.4487C12.6884 11.2386 12.7041 11.0229 12.7699 10.8202C12.8357 10.6175 12.9497 10.4338 13.1021 10.2849L15.9388 7.52017C15.9642 7.49537 15.982 7.46399 15.9905 7.42956C15.9989 7.39513 15.9976 7.35903 15.9866 7.32534C15.9756 7.29164 15.9554 7.26169 15.9282 7.23887C15.9011 7.21604 15.8682 7.20126 15.8331 7.19617L11.9136 6.62636C11.7026 6.5958 11.5022 6.51434 11.3297 6.38899C11.1572 6.26364 11.0178 6.09819 10.9236 5.90692L9.16915 2.3553C9.15344 2.32351 9.12915 2.29676 9.09903 2.27805C9.06892 2.25934 9.03417 2.24943 8.99871 2.24943C8.96326 2.24943 8.92851 2.25934 8.89839 2.27805C8.86827 2.29676 8.84399 2.32351 8.82827 2.3553L7.07721 5.9058C6.98293 6.09714 6.84347 6.26264 6.67088 6.38799C6.49829 6.51334 6.29777 6.59477 6.08665 6.62523L2.16771 7.19617C2.13256 7.20114 2.09951 7.21589 2.07233 7.23872C2.04515 7.26156 2.02492 7.29157 2.01396 7.32533C2.003 7.3591 2.00174 7.39526 2.01033 7.42971C2.01891 7.46416 2.037 7.4955 2.06252 7.52017L4.89865 10.2849C5.05106 10.4338 5.16507 10.6175 5.23091 10.8202C5.29674 11.0229 5.31244 11.2386 5.27665 11.4487L4.60671 15.3524C4.60063 15.3875 4.60452 15.4236 4.61794 15.4565C4.63135 15.4895 4.65375 15.5181 4.68259 15.5389C4.71143 15.5598 4.74555 15.5721 4.78106 15.5746C4.81657 15.577 4.85205 15.5694 4.88346 15.5527L8.3884 13.7099C8.57709 13.6105 8.78714 13.5586 9.0004 13.5586Z" fill="black"/>
</svg>
