<svg width="28" height="28" viewBox="0 0 28 28" fill="none" xmlns="http://www.w3.org/2000/svg">
<path d="M24.0002 8.99981H19.0001C18.4478 8.99981 18.0001 9.44753 18.0001 9.99984C18.0001 10.5522 18.4478 10.9999 19.0001 10.9999H24.0002C24.5525 10.9999 25.0002 11.4476 25.0002 11.9999V25C25.0002 25.5523 24.5525 26 24.0002 26H4.00002C3.44771 26 3 25.5523 3 25V11.9998C3 11.4475 3.44771 10.9998 4.00002 10.9998H9.00004C9.55235 10.9998 10.0001 10.5521 10.0001 9.99978C10.0001 9.44747 9.55235 8.99976 9.00004 8.99976H4.00002C2.34315 8.99976 1 10.3429 1 11.9998V24.9999C1 26.6568 2.34315 27.9999 4.00002 27.9999H24.0002C25.657 27.9999 27.0002 26.6568 27.0002 24.9999V11.9998C27.0002 10.343 25.657 8.99981 24.0002 8.99981Z" fill="#2293FD"/>
<path d="M19.7065 5.29283L14.7065 0.29281C14.316 -0.0976033 13.683 -0.0976033 13.2925 0.29281L8.29242 5.29283C7.90875 5.6901 7.91976 6.32315 8.31703 6.70682C8.70457 7.08112 9.31893 7.08112 9.70647 6.70682L12.9995 3.41377V20C12.9995 20.5523 13.4472 21 13.9996 21C14.5519 21 14.9996 20.5523 14.9996 20V3.41383L18.2926 6.70688C18.6899 7.09056 19.323 7.07954 19.7066 6.68227C20.0808 6.29473 20.0808 5.68037 19.7065 5.29283Z" fill="#2293FD"/>
</svg>
