<svg width="30" height="31" viewBox="0 0 30 31" fill="none" xmlns="http://www.w3.org/2000/svg">
<g clip-path="url(#clip0_2080_8195)">
<path d="M30 15.7029C30 19.6811 28.4196 23.4964 25.6066 26.3095C22.7936 29.1225 18.9782 30.7029 15 30.7029C11.0218 30.7029 7.20644 29.1225 4.3934 26.3095C1.58035 23.4964 0 19.6811 0 15.7029C0 11.7246 1.58035 7.90933 4.3934 5.09628C7.20644 2.28323 11.0218 0.702881 15 0.702881C18.9782 0.702881 22.7936 2.28323 25.6066 5.09628C28.4196 7.90933 30 11.7246 30 15.7029ZM22.5562 10.0216C22.4223 9.88817 22.2628 9.78308 22.0874 9.71266C21.9119 9.64224 21.724 9.60793 21.535 9.61178C21.3459 9.61563 21.1596 9.65756 20.9872 9.73507C20.8147 9.81258 20.6596 9.92407 20.5312 10.0629L14.0194 18.3598L10.095 14.4335C9.82842 14.1851 9.47583 14.0499 9.11152 14.0563C8.74721 14.0627 8.39961 14.2103 8.14196 14.468C7.88431 14.7256 7.73672 15.0732 7.7303 15.4375C7.72387 15.8018 7.8591 16.1544 8.1075 16.421L13.0687 21.3841C13.2024 21.5175 13.3616 21.6227 13.5367 21.6932C13.7119 21.7638 13.8995 21.7984 14.0883 21.7949C14.2771 21.7914 14.4633 21.7499 14.6357 21.6729C14.8081 21.5959 14.9633 21.4849 15.0919 21.3466L22.5769 11.9904C22.8321 11.7251 22.973 11.3703 22.9695 11.0022C22.966 10.6341 22.8183 10.282 22.5581 10.0216H22.5562Z" fill="#5DC983"/>
</g>
<defs>
<clipPath id="clip0_2080_8195">
<rect width="30" height="30" fill="white" transform="translate(0 0.702881)"/>
</clipPath>
</defs>
</svg>
