<svg width="24" height="24" viewBox="0 0 24 24" fill="none" xmlns="http://www.w3.org/2000/svg">
<path d="M1.722 22.2791C1.79166 22.3488 1.87437 22.4041 1.96542 22.4419C2.05647 22.4796 2.15406 22.4991 2.25263 22.4991C2.35119 22.4991 2.44878 22.4796 2.53983 22.4419C2.63088 22.4041 2.7136 22.3488 2.78325 22.2791L12.0008 13.0616L21.222 22.2791C21.3627 22.4198 21.5536 22.4989 21.7526 22.4989C21.9516 22.4989 22.1425 22.4198 22.2832 22.2791C22.424 22.1384 22.503 21.9475 22.503 21.7485C22.503 21.5494 22.424 21.3586 22.2832 21.2178L13.062 12.0003L22.2795 2.77909C22.4202 2.63836 22.4993 2.44749 22.4993 2.24846C22.4993 2.04944 22.4202 1.85857 22.2795 1.71784C22.1388 1.57711 21.9479 1.49805 21.7489 1.49805C21.5499 1.49805 21.359 1.57711 21.2183 1.71784L12.0008 10.9391L2.7795 1.72159C2.63602 1.59872 2.45147 1.53451 2.26271 1.54181C2.07395 1.5491 1.8949 1.62735 1.76133 1.76092C1.62776 1.89449 1.54951 2.07354 1.54222 2.2623C1.53493 2.45106 1.59913 2.63561 1.722 2.77909L10.9395 12.0003L1.722 21.2216C1.58231 21.3621 1.50391 21.5522 1.50391 21.7503C1.50391 21.9485 1.58231 22.1386 1.722 22.2791Z" fill="black"/>
</svg>
