<svg width="21" height="10" viewBox="0 0 21 10" fill="none" xmlns="http://www.w3.org/2000/svg">
<path fill-rule="evenodd" clip-rule="evenodd" d="M15.0915 9.28066C15.2358 9.42111 15.4313 9.5 15.6351 9.5C15.839 9.5 16.0345 9.42111 16.1787 9.28066L20.025 5.53066C20.1691 5.39004 20.25 5.19941 20.25 5.00066C20.25 4.80191 20.1691 4.61129 20.025 4.47066L16.1787 0.720661C16.1083 0.646973 16.0234 0.587872 15.929 0.54688C15.8347 0.505888 15.7328 0.483847 15.6295 0.48207C15.5262 0.480293 15.4236 0.498817 15.3278 0.536538C15.2321 0.574259 15.145 0.630404 15.072 0.701623C14.999 0.772842 14.9414 0.857676 14.9027 0.951064C14.864 1.04445 14.845 1.14448 14.8468 1.24518C14.8486 1.34589 14.8712 1.4452 14.9133 1.5372C14.9553 1.6292 15.0159 1.712 15.0915 1.78066L17.6249 4.25066L1.01926 4.25066C0.815238 4.25066 0.619574 4.32968 0.47531 4.47033C0.331047 4.61098 0.25 4.80175 0.25 5.00066C0.25 5.19957 0.331047 5.39034 0.47531 5.53099C0.619574 5.67164 0.815238 5.75066 1.01926 5.75066L17.6249 5.75066L15.0915 8.22066C14.9475 8.36129 14.8666 8.55191 14.8666 8.75066C14.8666 8.94941 14.9475 9.14004 15.0915 9.28066Z" fill="white"/>
</svg>
