<svg width="79" height="79" viewBox="0 0 79 79" fill="none" xmlns="http://www.w3.org/2000/svg">
<circle cx="39.5" cy="39.5" r="39.5" fill="white"/>
<path fill-rule="evenodd" clip-rule="evenodd" d="M51.9025 19C53.7952 19 55.3604 20.085 56.5065 21.225C57.6996 22.4075 58.7936 23.9975 59.766 25.75C61.7182 29.265 63.4174 33.8575 64.5411 38.395C65.6574 42.8975 66.275 47.6 65.8806 51.2975C65.4837 55.01 63.5861 59 59.3442 59C55.6829 59 52.7657 57.1 50.3794 55.1725L49.5087 54.45L48.2883 53.4125L47.1869 52.4925C44.6591 50.43 42.4142 49 39.4995 49C36.5848 49 34.3399 50.43 31.8122 52.4925L30.7108 53.4125L29.4903 54.45L28.6221 55.1725C26.2308 57.1 23.3137 59 19.6548 59C15.4105 59 13.5128 55.01 13.1184 51.2975C12.7265 47.5975 13.3417 42.8975 14.4579 38.395C15.5817 33.8575 17.2809 29.265 19.2331 25.7475C20.2055 23.9975 21.2994 22.4075 22.4926 21.2225C23.6386 20.085 25.2039 19 27.0966 19C28.3741 19 29.6218 19.3075 30.8497 19.675L32.3182 20.1275C32.563 20.2042 32.8069 20.2767 33.05 20.345C35.1957 20.965 37.391 21.5 39.4995 21.5C41.608 21.5 43.8033 20.965 45.9491 20.345L48.1444 19.6775C49.3797 19.31 50.6374 19 51.9025 19ZM51.9025 24C50.9524 24 49.9602 24.29 48.9977 24.6075L47.8616 24.985L47.3134 25.155C45.1181 25.785 42.3522 26.5 39.4995 26.5C36.6468 26.5 33.881 25.785 31.6857 25.155L31.1399 24.985L30.0013 24.6075C29.0389 24.2875 28.0466 24 27.0966 24C26.0597 24.195 25.1294 25.4625 24.4274 26.6375L24.0355 27.325L23.5642 28.19C21.8724 31.235 20.3146 35.39 19.2728 39.6075C18.2929 43.5475 17.8167 47.3225 17.9977 50.1325L18.0622 50.865L18.1119 51.305L18.1863 51.825C18.3574 52.8275 18.727 54 19.6548 54C21.669 54 23.3509 52.99 25.442 51.315L26.4417 50.495L28.3269 48.905L29.1803 48.205C31.8196 46.0975 35.1213 44 39.4995 44C43.8778 44 47.1794 46.1 49.8188 48.205L50.6746 48.905L52.5598 50.495L53.557 51.315C55.6482 52.99 57.3275 54 59.3442 54C60.1877 54 60.5697 53.0325 60.7607 52.1025L60.8549 51.5575L60.9467 50.765C61.2518 47.9 60.7805 43.8525 59.7287 39.6075C58.7712 35.7425 57.3821 31.9275 55.8541 28.9725L54.9635 27.3225L54.5716 26.64C53.8696 25.4625 52.9394 24.195 51.9025 24ZM30.8174 29C32.4622 29 34.0396 29.6585 35.2026 30.8306C36.3656 32.0027 37.0189 33.5924 37.0189 35.25C37.0189 36.9076 36.3656 38.4973 35.2026 39.6694C34.0396 40.8415 32.4622 41.5 30.8174 41.5C29.1727 41.5 27.5953 40.8415 26.4323 39.6694C25.2693 38.4973 24.616 36.9076 24.616 35.25C24.616 33.5924 25.2693 32.0027 26.4323 30.8306C27.5953 29.6585 29.1727 29 30.8174 29ZM48.1816 29C48.7892 29.0001 49.3756 29.2249 49.8296 29.6318C50.2837 30.0387 50.5737 30.5994 50.6448 31.2075L50.6622 31.5V32.75H51.9025C52.5347 32.7507 53.1428 32.9947 53.6026 33.4321C54.0623 33.8695 54.339 34.4674 54.376 35.1035C54.4131 35.7396 54.2078 36.3659 53.802 36.8546C53.3962 37.3432 52.8205 37.6572 52.1927 37.7325L51.9025 37.75H50.6622V39C50.6615 39.6372 50.4194 40.2501 49.9854 40.7134C49.5513 41.1768 48.9581 41.4556 48.327 41.4929C47.6958 41.5303 47.0743 41.3233 46.5895 40.9143C46.1046 40.5054 45.793 39.9252 45.7184 39.2925L45.701 39V37.75H44.4607C43.8284 37.7493 43.2203 37.5053 42.7606 37.0679C42.3008 36.6305 42.0242 36.0326 41.9871 35.3965C41.9501 34.7604 42.1554 34.1341 42.5612 33.6454C42.967 33.1568 43.5426 32.8428 44.1705 32.7675L44.4607 32.75H45.701V31.5C45.701 30.837 45.9623 30.2011 46.4275 29.7322C46.8927 29.2634 47.5237 29 48.1816 29ZM30.8174 34C30.4885 34 30.173 34.1317 29.9404 34.3661C29.7078 34.6005 29.5772 34.9185 29.5772 35.25C29.5772 35.5815 29.7078 35.8995 29.9404 36.1339C30.173 36.3683 30.4885 36.5 30.8174 36.5C31.1464 36.5 31.4619 36.3683 31.6945 36.1339C31.9271 35.8995 32.0577 35.5815 32.0577 35.25C32.0577 34.9185 31.9271 34.6005 31.6945 34.3661C31.4619 34.1317 31.1464 34 30.8174 34Z" fill="#E77246"/>
</svg>
