<svg width="79" height="79" viewBox="0 0 79 79" fill="none" xmlns="http://www.w3.org/2000/svg">
<circle cx="39.5" cy="39.5" r="39.5" fill="white"/>
<path d="M18 18H36.9V36.9H18V18ZM22.2 22.2V32.7H32.7V22.2H22.2ZM50.55 22.2C49.1576 22.2 47.8223 22.7531 46.8377 23.7377C45.8531 24.7223 45.3 26.0576 45.3 27.45C45.3 28.8424 45.8531 30.1777 46.8377 31.1623C47.8223 32.1469 49.1576 32.7 50.55 32.7C51.9424 32.7 53.2777 32.1469 54.2623 31.1623C55.2469 30.1777 55.8 28.8424 55.8 27.45C55.8 26.0576 55.2469 24.7223 54.2623 23.7377C53.2777 22.7531 51.9424 22.2 50.55 22.2ZM41.1 27.45C41.1 26.209 41.3444 24.9802 41.8193 23.8336C42.2942 22.6871 42.9903 21.6454 43.8678 20.7678C44.7454 19.8903 45.7871 19.1942 46.9336 18.7193C48.0802 18.2444 49.309 18 50.55 18C51.791 18 53.0198 18.2444 54.1664 18.7193C55.3129 19.1942 56.3546 19.8903 57.2322 20.7678C58.1097 21.6454 58.8058 22.6871 59.2807 23.8336C59.7556 24.9802 60 26.209 60 27.45C60 29.9563 59.0044 32.3599 57.2322 34.1322C55.4599 35.9044 53.0563 36.9 50.55 36.9C48.0437 36.9 45.6401 35.9044 43.8678 34.1322C42.0956 32.3599 41.1 29.9563 41.1 27.45ZM18 41.1H36.9V60H18V41.1ZM22.2 45.3V55.8H32.7V45.3H22.2ZM41.1 41.1H60V60H41.1V41.1ZM45.3 45.3V55.8H55.8V45.3H45.3Z" fill="#F8B554"/>
</svg>
