<svg width="18" height="18" viewBox="0 0 18 18" fill="none" xmlns="http://www.w3.org/2000/svg">
<path d="M12.2741 16.8753H5.7266C4.98616 16.9028 4.26477 16.637 3.71919 16.1357C3.17361 15.6343 2.8479 14.938 2.81285 14.1978V10.6878C2.81285 10.5386 2.87211 10.3956 2.9776 10.2901C3.08309 10.1846 3.22616 10.1253 3.37535 10.1253C3.52453 10.1253 3.66761 10.1846 3.7731 10.2901C3.87859 10.3956 3.93785 10.5386 3.93785 10.6878V14.1978C3.97242 14.6396 4.17941 15.0501 4.5141 15.3406C4.84878 15.6311 5.28431 15.7783 5.7266 15.7503H12.2741C12.7164 15.7783 13.1519 15.6311 13.4866 15.3406C13.8213 15.0501 14.0283 14.6396 14.0628 14.1978V10.6878C14.0628 10.5386 14.1221 10.3956 14.2276 10.2901C14.3331 10.1846 14.4762 10.1253 14.6253 10.1253C14.7745 10.1253 14.9176 10.1846 15.0231 10.2901C15.1286 10.3956 15.1878 10.5386 15.1878 10.6878V14.1978C15.1528 14.938 14.8271 15.6343 14.2815 16.1357C13.7359 16.637 13.0145 16.9028 12.2741 16.8753ZM16.7122 9.39971C16.7649 9.34741 16.8068 9.2852 16.8354 9.21666C16.8639 9.14811 16.8786 9.07459 16.8786 9.00033C16.8786 8.92607 16.8639 8.85255 16.8354 8.78401C16.8068 8.71546 16.7649 8.65325 16.7122 8.60096L9.39972 1.28846C9.34743 1.23573 9.28522 1.19389 9.21667 1.16533C9.14813 1.13677 9.0746 1.12207 9.00035 1.12207C8.92609 1.12207 8.85257 1.13677 8.78402 1.16533C8.71548 1.19389 8.65326 1.23573 8.60097 1.28846L1.28847 8.60096C1.18255 8.70688 1.12305 8.85054 1.12305 9.00033C1.12305 9.15013 1.18255 9.29379 1.28847 9.39971C1.39439 9.50563 1.53805 9.56513 1.68785 9.56513C1.83764 9.56513 1.9813 9.50563 2.08722 9.39971L9.00035 2.48096L15.9135 9.39971C15.9658 9.45243 16.028 9.49428 16.0965 9.52283C16.1651 9.55139 16.2386 9.56609 16.3128 9.56609C16.3871 9.56609 16.4606 9.55139 16.5292 9.52283C16.5977 9.49428 16.6599 9.45243 16.7122 9.39971Z" fill="black"/>
</svg>
