<svg width="14" height="14" viewBox="0 0 14 14" fill="none" xmlns="http://www.w3.org/2000/svg">
<path d="M12.6766 1.3234C12.3894 1.03629 12 0.875 11.5939 0.875C11.1878 0.875 10.7984 1.03629 10.5112 1.3234L9.83631 1.99832L12.0016 4.16365L12.6766 3.48874C12.9637 3.20158 13.125 2.81214 13.125 2.40607C13.125 2 12.9637 1.61056 12.6766 1.3234ZM11.3827 4.78257L9.2174 2.61724L4.3174 7.51724C3.95739 7.87706 3.69275 8.32094 3.5474 8.80873L3.08073 10.375C3.0582 10.4506 3.05652 10.5308 3.07587 10.6073C3.09522 10.6838 3.13487 10.7536 3.19064 10.8093C3.24641 10.8651 3.31622 10.9048 3.39267 10.9241C3.46913 10.9434 3.5494 10.9418 3.62498 10.9192L5.19123 10.4526C5.67903 10.3072 6.12291 10.0426 6.48273 9.68257L11.3827 4.78257Z" fill="black"/>
<path d="M3.0625 3.0625C2.59837 3.0625 2.15325 3.24687 1.82506 3.57506C1.49687 3.90325 1.3125 4.34837 1.3125 4.8125V10.9375C1.3125 11.4016 1.49687 11.8467 1.82506 12.1749C2.15325 12.5031 2.59837 12.6875 3.0625 12.6875H9.1875C9.65163 12.6875 10.0967 12.5031 10.4249 12.1749C10.7531 11.8467 10.9375 11.4016 10.9375 10.9375V7.875C10.9375 7.75897 10.8914 7.64769 10.8094 7.56564C10.7273 7.48359 10.616 7.4375 10.5 7.4375C10.384 7.4375 10.2727 7.48359 10.1906 7.56564C10.1086 7.64769 10.0625 7.75897 10.0625 7.875V10.9375C10.0625 11.1696 9.97031 11.3921 9.80622 11.5562C9.64212 11.7203 9.41956 11.8125 9.1875 11.8125H3.0625C2.83044 11.8125 2.60788 11.7203 2.44378 11.5562C2.27969 11.3921 2.1875 11.1696 2.1875 10.9375V4.8125C2.1875 4.58044 2.27969 4.35788 2.44378 4.19378C2.60788 4.02969 2.83044 3.9375 3.0625 3.9375H6.125C6.24103 3.9375 6.35231 3.89141 6.43436 3.80936C6.51641 3.72731 6.5625 3.61603 6.5625 3.5C6.5625 3.38397 6.51641 3.27269 6.43436 3.19064C6.35231 3.10859 6.24103 3.0625 6.125 3.0625H3.0625Z" fill="black"/>
</svg>
