<svg width="18" height="18" viewBox="0 0 18 18" fill="none" xmlns="http://www.w3.org/2000/svg">
<path d="M10.4963 9.20782C11.1789 8.87021 11.7272 8.31166 12.0522 7.62295C12.3772 6.93424 12.4597 6.15586 12.2864 5.41432C12.113 4.67278 11.694 4.01166 11.0973 3.53841C10.5007 3.06517 9.76154 2.80762 9 2.80762C8.23846 2.80762 7.49931 3.06517 6.90267 3.53841C6.30602 4.01166 5.88697 4.67278 5.71361 5.41432C5.54025 6.15586 5.62278 6.93424 5.94778 7.62295C6.27277 8.31166 6.82114 8.87021 7.50375 9.20782C6.31792 9.53504 5.27204 10.242 4.52633 11.2203C3.78062 12.1987 3.3762 13.3945 3.375 14.6247V15.1872C3.375 15.3364 3.43426 15.4795 3.53975 15.5849C3.64524 15.6904 3.78832 15.7497 3.9375 15.7497H14.0625C14.2117 15.7497 14.3548 15.6904 14.4602 15.5849C14.5657 15.4795 14.625 15.3364 14.625 15.1872V14.6247C14.6238 13.3945 14.2194 12.1987 13.4737 11.2203C12.728 10.242 11.6821 9.53504 10.4963 9.20782ZM6.75 6.1872C6.75 5.74219 6.88196 5.30717 7.12919 4.93716C7.37643 4.56715 7.72783 4.27876 8.13896 4.10847C8.5501 3.93817 9.0025 3.89361 9.43895 3.98043C9.87541 4.06725 10.2763 4.28154 10.591 4.59621C10.9057 4.91087 11.12 5.31179 11.2068 5.74824C11.2936 6.1847 11.249 6.6371 11.0787 7.04823C10.9084 7.45937 10.62 7.81077 10.25 8.058C9.88002 8.30524 9.44501 8.4372 9 8.4372C8.40326 8.4372 7.83097 8.20014 7.40901 7.77819C6.98705 7.35623 6.75 6.78393 6.75 6.1872ZM4.5 14.6247C4.5 13.4312 4.97411 12.2866 5.81802 11.4427C6.66193 10.5988 7.80653 10.1247 9 10.1247C10.1935 10.1247 11.3381 10.5988 12.182 11.4427C13.0259 12.2866 13.5 13.4312 13.5 14.6247H4.5Z" fill="black"/>
</svg>
