<svg width="15" height="17" viewBox="0 0 15 17" fill="none" xmlns="http://www.w3.org/2000/svg">
<path d="M11.9757 9.00877C11.9571 6.98741 13.6733 6.00401 13.7518 5.95823C12.7798 4.57658 11.2733 4.38781 10.7439 4.37275C9.47866 4.24293 8.25134 5.11093 7.60681 5.11093C6.94941 5.11093 5.95688 4.3853 4.88716 4.40662C3.5106 4.42732 2.22282 5.20438 1.51654 6.41105C0.0589374 8.87142 1.14603 12.487 2.54252 14.4758C3.24108 15.4498 4.05737 16.5373 5.1258 16.499C6.17108 16.457 6.56153 15.8493 7.82294 15.8493C9.07277 15.8493 9.43942 16.499 10.5291 16.4746C11.6509 16.457 12.3572 15.4962 13.0313 14.5134C13.8386 13.3971 14.1628 12.2976 14.1757 12.2412C14.1493 12.2324 11.997 11.4315 11.9757 9.00877Z" fill="white"/>
<path d="M9.91735 3.06448C10.4796 2.37899 10.8642 1.44639 10.7574 0.5C9.94373 0.535121 8.92611 1.04877 8.34011 1.71921C7.82165 2.31 7.35851 3.27835 7.47816 4.18899C8.39221 4.25547 9.33071 3.73932 9.91735 3.06448Z" fill="white"/>
</svg>
