<svg width="18" height="19" viewBox="0 0 18 19" fill="none" xmlns="http://www.w3.org/2000/svg">
<path fill-rule="evenodd" clip-rule="evenodd" d="M6.4815 0.375427C4.73495 0.910261 3.1823 1.98605 2.02609 3.46245C0.869886 4.93885 0.163817 6.74731 0 8.65188H4.13081C4.3716 5.75363 5.17095 2.9372 6.48021 0.37407L6.4815 0.375427ZM4.13081 10.3482H0C0.163476 12.2528 0.869243 14.0614 2.02522 15.5381C3.1812 17.0147 4.73371 18.0908 6.48021 18.626C5.17095 16.0628 4.3716 13.2464 4.13081 10.3482ZM8.55077 18.9883C6.98569 16.3789 6.02614 13.4192 5.74957 10.3482H12.2491C11.9726 13.4192 11.013 16.3789 9.44794 18.9883C9.14907 19.0039 8.84964 19.0039 8.55077 18.9883ZM11.5198 18.6246C13.2661 18.0895 14.8185 17.0136 15.9744 15.5373C17.1304 14.0609 17.8363 12.2526 18 10.3482H13.8692C13.6284 13.2464 12.829 16.0628 11.5198 18.626V18.6246ZM13.8692 8.65188H18C17.8365 6.74724 17.1308 4.93861 15.9748 3.46196C14.8188 1.98532 13.2663 0.90922 11.5198 0.37407C12.829 2.9372 13.6284 5.75363 13.8692 8.65188ZM8.55077 0.0117459C8.85007 -0.00391529 9.14993 -0.00391529 9.44923 0.0117459C11.0139 2.62127 11.973 5.58094 12.2491 8.65188H5.75086C6.03098 5.56195 6.99269 2.59958 8.55077 0.0117459Z" fill="black"/>
</svg>
