<svg width="21" height="20" viewBox="0 0 21 20" fill="none" xmlns="http://www.w3.org/2000/svg">
<g clip-path="url(#clip0_100_2191)">
<path fill-rule="evenodd" clip-rule="evenodd" d="M12.9116 15.6615C12.9116 15.8259 12.8463 15.9835 12.7301 16.0997C12.6139 16.216 12.4562 16.2813 12.2919 16.2813H2.37529C2.21091 16.2813 2.05326 16.216 1.93703 16.0997C1.8208 15.9835 1.7555 15.8259 1.7555 15.6615V4.50535C1.7555 4.34097 1.8208 4.18333 1.93703 4.0671C2.05326 3.95087 2.21091 3.88557 2.37529 3.88557H12.2919C12.4562 3.88557 12.6139 3.95087 12.7301 4.0671C12.8463 4.18333 12.9116 4.34097 12.9116 4.50535V6.98449C12.9116 7.14887 12.9769 7.30652 13.0932 7.42275C13.2094 7.53898 13.367 7.60428 13.5314 7.60428C13.6958 7.60428 13.8534 7.53898 13.9697 7.42275C14.0859 7.30652 14.1512 7.14887 14.1512 6.98449V4.50535C14.1512 4.01222 13.9553 3.53929 13.6066 3.19059C13.2579 2.84189 12.785 2.646 12.2919 2.646H2.37529C1.88215 2.646 1.40922 2.84189 1.06052 3.19059C0.711826 3.53929 0.51593 4.01222 0.51593 4.50535L0.51593 15.6615C0.51593 16.1546 0.711826 16.6276 1.06052 16.9763C1.40922 17.3249 1.88215 17.5208 2.37529 17.5208H12.2919C12.785 17.5208 13.2579 17.3249 13.6066 16.9763C13.9553 16.6276 14.1512 16.1546 14.1512 15.6615V13.1823C14.1512 13.018 14.0859 12.8603 13.9697 12.7441C13.8534 12.6279 13.6958 12.5626 13.5314 12.5626C13.367 12.5626 13.2094 12.6279 13.0932 12.7441C12.9769 12.8603 12.9116 13.018 12.9116 13.1823V15.6615Z" fill="#FF702D"/>
<path fill-rule="evenodd" clip-rule="evenodd" d="M20.1681 10.5222C20.2258 10.4647 20.2716 10.3963 20.3029 10.321C20.3341 10.2457 20.3502 10.1649 20.3502 10.0834C20.3502 10.0019 20.3341 9.92118 20.3029 9.84588C20.2716 9.77058 20.2258 9.70219 20.1681 9.64461L16.4494 5.9259C16.333 5.80952 16.1752 5.74414 16.0106 5.74414C15.846 5.74414 15.6882 5.80952 15.5718 5.9259C15.4554 6.04228 15.39 6.20012 15.39 6.36471C15.39 6.52929 15.4554 6.68714 15.5718 6.80352L18.2331 9.46364H7.33359C7.16921 9.46364 7.01157 9.52894 6.89534 9.64517C6.7791 9.7614 6.71381 9.91904 6.71381 10.0834C6.71381 10.2478 6.7791 10.4054 6.89534 10.5217C7.01157 10.6379 7.16921 10.7032 7.33359 10.7032H18.2331L15.5718 13.3633C15.4554 13.4797 15.39 13.6376 15.39 13.8021C15.39 13.9667 15.4554 14.1246 15.5718 14.2409C15.6882 14.3573 15.846 14.4227 16.0106 14.4227C16.1752 14.4227 16.333 14.3573 16.4494 14.2409L20.1681 10.5222Z" fill="#FF702D"/>
</g>
<defs>
<clipPath id="clip0_100_2191">
<rect width="19.8331" height="19.8331" fill="white" transform="translate(0.51593 0.16687)"/>
</clipPath>
</defs>
</svg>
