<svg width="20" height="20" viewBox="0 0 20 20" fill="none" xmlns="http://www.w3.org/2000/svg">
<rect width="20" height="20" rx="10" fill="black"/>
<g clip-path="url(#clip0_3474_1214)">
<path d="M10.5497 10.0049L12.886 7.66851C13.038 7.51654 13.038 7.27083 12.886 7.11886C12.734 6.96689 12.4883 6.96689 12.3363 7.11886L9.99997 9.45521L7.66369 7.11886C7.51164 6.96689 7.266 6.96689 7.11403 7.11886C6.96199 7.27083 6.96199 7.51654 7.11403 7.66851L9.45031 10.0049L7.11403 12.3412C6.96199 12.4932 6.96199 12.7389 7.11403 12.8909C7.18977 12.9667 7.28935 13.0048 7.38886 13.0048C7.48837 13.0048 7.58788 12.9667 7.66369 12.8909L9.99997 10.5545L12.3363 12.8909C12.4121 12.9667 12.5116 13.0048 12.6111 13.0048C12.7107 13.0048 12.8102 12.9667 12.886 12.8909C13.038 12.7389 13.038 12.4932 12.886 12.3412L10.5497 10.0049Z" fill="white"/>
</g>
<defs>
<clipPath id="clip0_3474_1214">
<rect width="6" height="6" fill="white" transform="translate(7 7)"/>
</clipPath>
</defs>
</svg>
