<svg width="21" height="22" viewBox="0 0 21 22" fill="none" xmlns="http://www.w3.org/2000/svg">
<ellipse cx="10.75" cy="10.6667" rx="10.25" ry="10.28" fill="#2A85FE"/>
<path d="M15.1136 8.63672L14.6989 10.2163H7.07955L7.48864 8.63672H15.1136ZM11.1534 17.3867L7.26705 12.7617L7.27273 11.3413H9.19318C9.62121 11.3413 9.97917 11.2617 10.267 11.1026C10.5549 10.9435 10.7708 10.7276 10.9148 10.4549C11.0587 10.1822 11.1326 9.87157 11.1364 9.52308C11.1326 9.00035 10.9792 8.57422 10.6761 8.24467C10.3769 7.91134 9.88258 7.74467 9.19318 7.74467H7.07955L7.54545 5.75035H9.19318C10.1591 5.75035 10.964 5.89619 11.608 6.18785C12.2557 6.47573 12.7405 6.88672 13.0625 7.42081C13.3883 7.9549 13.553 8.59126 13.5568 9.3299C13.553 9.9852 13.4432 10.5572 13.2273 11.0458C13.0152 11.5344 12.6799 11.9416 12.2216 12.2674C11.767 12.5932 11.1742 12.8356 10.4432 12.9947L10.3523 13.0288L13.8295 17.2844V17.3867H11.1534ZM15.125 5.75035L14.6989 7.35263H8.42614L8.85227 5.75035H15.125Z" fill="white"/>
</svg>
