<svg width="20" height="21" viewBox="0 0 20 21" fill="none" xmlns="http://www.w3.org/2000/svg">
<path d="M8 3.75H12C12 3.21957 11.7893 2.71086 11.4142 2.33579C11.0391 1.96071 10.5304 1.75 10 1.75C9.46957 1.75 8.96086 1.96071 8.58579 2.33579C8.21071 2.71086 8 3.21957 8 3.75ZM6.5 3.75C6.5 3.29037 6.59053 2.83525 6.76642 2.41061C6.94231 1.98597 7.20012 1.60013 7.52513 1.27513C7.85013 0.950121 8.23597 0.692313 8.66061 0.516422C9.08525 0.34053 9.54037 0.25 10 0.25C10.4596 0.25 10.9148 0.34053 11.3394 0.516422C11.764 0.692313 12.1499 0.950121 12.4749 1.27513C12.7999 1.60013 13.0577 1.98597 13.2336 2.41061C13.4095 2.83525 13.5 3.29037 13.5 3.75H19.25C19.4489 3.75 19.6397 3.82902 19.7803 3.96967C19.921 4.11032 20 4.30109 20 4.5C20 4.69891 19.921 4.88968 19.7803 5.03033C19.6397 5.17098 19.4489 5.25 19.25 5.25H17.93L16.76 17.361C16.6702 18.289 16.238 19.1502 15.5477 19.7768C14.8573 20.4034 13.9583 20.7504 13.026 20.75H6.974C6.04186 20.7501 5.1431 20.403 4.45295 19.7765C3.7628 19.1499 3.33073 18.2888 3.241 17.361L2.07 5.25H0.75C0.551088 5.25 0.360322 5.17098 0.21967 5.03033C0.0790175 4.88968 0 4.69891 0 4.5C0 4.30109 0.0790175 4.11032 0.21967 3.96967C0.360322 3.82902 0.551088 3.75 0.75 3.75H6.5ZM8.5 8.5C8.5 8.30109 8.42098 8.11032 8.28033 7.96967C8.13968 7.82902 7.94891 7.75 7.75 7.75C7.55109 7.75 7.36032 7.82902 7.21967 7.96967C7.07902 8.11032 7 8.30109 7 8.5V16C7 16.1989 7.07902 16.3897 7.21967 16.5303C7.36032 16.671 7.55109 16.75 7.75 16.75C7.94891 16.75 8.13968 16.671 8.28033 16.5303C8.42098 16.3897 8.5 16.1989 8.5 16V8.5ZM12.25 7.75C12.0511 7.75 11.8603 7.82902 11.7197 7.96967C11.579 8.11032 11.5 8.30109 11.5 8.5V16C11.5 16.1989 11.579 16.3897 11.7197 16.5303C11.8603 16.671 12.0511 16.75 12.25 16.75C12.4489 16.75 12.6397 16.671 12.7803 16.5303C12.921 16.3897 13 16.1989 13 16V8.5C13 8.30109 12.921 8.11032 12.7803 7.96967C12.6397 7.82902 12.4489 7.75 12.25 7.75Z" fill="black"/>
</svg>
