<svg width="20" height="21" viewBox="0 0 20 21" fill="none" xmlns="http://www.w3.org/2000/svg">
<path d="M19.2718 1.63461C18.8054 1.16824 18.1728 0.90625 17.5132 0.90625C16.8536 0.90625 16.221 1.16824 15.7546 1.63461L14.6583 2.73091L18.1755 6.24816L19.2718 5.15186C19.7382 4.68542 20.0002 4.05283 20.0002 3.39324C20.0002 2.73364 19.7382 2.10105 19.2718 1.63461ZM17.1702 7.25349L13.653 3.73624L5.69366 11.6955C5.10889 12.28 4.67902 13.001 4.44292 13.7934L3.68489 16.3375C3.64829 16.4603 3.64556 16.5907 3.67699 16.7149C3.70842 16.8391 3.77283 16.9524 3.86342 17.043C3.95401 17.1336 4.0674 17.198 4.19159 17.2295C4.31579 17.2609 4.44617 17.2582 4.56894 17.2216L7.11307 16.4635C7.90542 16.2274 8.62644 15.7976 9.21091 15.2128L17.1702 7.25349Z" fill="black"/>
<path d="M3.65511 4.45898C2.9012 4.45898 2.17817 4.75847 1.64508 5.29156C1.11199 5.82466 0.8125 6.54768 0.8125 7.30159V17.2507C0.8125 18.0046 1.11199 18.7276 1.64508 19.2607C2.17817 19.7938 2.9012 20.0933 3.65511 20.0933H13.6042C14.3581 20.0933 15.0812 19.7938 15.6143 19.2607C16.1473 18.7276 16.4468 18.0046 16.4468 17.2507V12.2761C16.4468 12.0877 16.372 11.9069 16.2387 11.7736C16.1054 11.6404 15.9247 11.5655 15.7362 11.5655C15.5477 11.5655 15.3669 11.6404 15.2337 11.7736C15.1004 11.9069 15.0255 12.0877 15.0255 12.2761V17.2507C15.0255 17.6277 14.8758 17.9892 14.6092 18.2557C14.3427 18.5223 13.9812 18.672 13.6042 18.672H3.65511C3.27815 18.672 2.91664 18.5223 2.65009 18.2557C2.38355 17.9892 2.2338 17.6277 2.2338 17.2507V7.30159C2.2338 6.92464 2.38355 6.56312 2.65009 6.29658C2.91664 6.03003 3.27815 5.88029 3.65511 5.88029H8.62967C8.81814 5.88029 8.9989 5.80542 9.13217 5.67214C9.26544 5.53887 9.34032 5.35811 9.34032 5.16964C9.34032 4.98116 9.26544 4.8004 9.13217 4.66713C8.9989 4.53386 8.81814 4.45898 8.62967 4.45898H3.65511Z" fill="black"/>
</svg>
