<svg width="16" height="21" viewBox="0 0 16 21" fill="none" xmlns="http://www.w3.org/2000/svg">
<path fill-rule="evenodd" clip-rule="evenodd" d="M3.70981 1.87525C2.79019 2.88573 2.28379 4.18603 2.28571 5.53194V8.84652H1.82857C0.822857 8.84652 0 9.64203 0 10.6143V18.3483C0 19.8067 1.23429 21 2.74286 21H13.2571C14.7657 21 16 19.8067 16 18.3483V10.6143C16 9.64203 15.1771 8.84652 14.1714 8.84652H4.57143V5.53194C4.57006 4.72424 4.8738 3.94385 5.42559 3.33738C5.97738 2.7309 6.73925 2.34008 7.56807 2.23832C8.39689 2.13657 9.23562 2.3309 9.9267 2.78479C10.6178 3.23868 11.1136 3.9209 11.3211 4.70329C11.3969 4.98709 11.5862 5.23016 11.8474 5.37904C12.1085 5.52791 12.4202 5.57039 12.7137 5.49714C13.0073 5.42388 13.2587 5.24089 13.4127 4.98841C13.5667 4.73594 13.6106 4.43466 13.5349 4.15086C13.1887 2.84721 12.3622 1.71056 11.2105 0.954369C10.0588 0.198178 8.66121 -0.125533 7.2801 0.0440283C5.89899 0.213589 4.62942 0.864756 3.70981 1.87525ZM7.99997 16.7569C9.0309 16.7569 9.86663 15.9489 9.86663 14.9522C9.86663 13.9556 9.0309 13.1476 7.99997 13.1476C6.96904 13.1476 6.1333 13.9556 6.1333 14.9522C6.1333 15.9489 6.96904 16.7569 7.99997 16.7569Z" fill="black"/>
</svg>
