<svg width="23" height="23" viewBox="0 0 23 23" fill="none" xmlns="http://www.w3.org/2000/svg">
<path d="M14.4085 0.713932C15.207 0.128765 16.3411 0.606273 16.4805 1.58637L16.9151 4.64076C16.9965 5.21234 17.4423 5.66336 18.0129 5.75134L21.062 6.22146C22.0404 6.37231 22.5047 7.51188 21.9102 8.30352L20.0578 10.7706C19.7111 11.2323 19.7074 11.8664 20.0487 12.3321L21.8723 14.8206C22.4575 15.6191 21.98 16.7532 20.9999 16.8926L17.9455 17.3272C17.3739 17.4086 16.9229 17.8544 16.8349 18.425L16.3648 21.4741C16.2139 22.4525 15.0744 22.9168 14.2827 22.3224L11.8156 20.4699C11.354 20.1232 10.7198 20.1195 10.2541 20.4608L7.76564 22.2844C6.96714 22.8696 5.83305 22.3921 5.6936 21.412L5.259 18.3576C5.17767 17.786 4.73187 17.335 4.16127 17.247L1.11215 16.7769C0.133744 16.626 -0.33053 15.4865 0.263892 14.6948L2.11637 12.2277C2.46303 11.7661 2.46672 11.1319 2.12545 10.6662L0.301822 8.17775C-0.283345 7.37925 0.194163 6.24516 1.17426 6.10571L4.22865 5.67111C4.80023 5.58978 5.25125 5.14398 5.33923 4.57338L5.80935 1.52426C5.9602 0.545853 7.09977 0.0815791 7.89141 0.676001L10.3585 2.52847C10.8202 2.87514 11.4543 2.87883 11.92 2.53756L14.4085 0.713932Z" fill="#CFECD9"/>
<path fill-rule="evenodd" clip-rule="evenodd" d="M15.6152 8.92823C15.8559 9.141 15.8784 9.50908 15.6656 9.75136L11.2005 14.7989C11.1489 14.8572 11.0862 14.9046 11.016 14.9382C10.9458 14.9719 10.8696 14.9911 10.7919 14.9948C10.7141 14.9985 10.6364 14.9866 10.5634 14.9597C10.4903 14.9329 10.4234 14.8917 10.3665 14.8385L7.45445 12.1206C7.34243 12.015 7.27675 11.8694 7.27179 11.7155C7.26682 11.5617 7.32297 11.4121 7.42795 11.2995C7.53294 11.187 7.67822 11.1205 7.83205 11.1148C7.98587 11.109 8.13573 11.1643 8.24886 11.2687L10.726 13.5751L14.7951 8.97792C14.8459 8.92053 14.9074 8.87371 14.9763 8.84015C15.0451 8.80658 15.1199 8.78693 15.1964 8.78231C15.2729 8.77769 15.3495 8.7882 15.4219 8.81324C15.4943 8.83828 15.561 8.87736 15.6183 8.92823H15.6152Z" fill="#598D6D"/>
</svg>
