<svg width="25" height="22" viewBox="0 0 16 16" fill="none" xmlns="http://www.w3.org/2000/svg">
<path d="M2 8.05C2 8.8 2.14167 9.52933 2.425 10.238C2.70834 10.9467 3.15 11.6007 3.75 12.2L4 12.45V11C4 10.7167 4.096 10.4793 4.288 10.288C4.48 10.0967 4.71734 10.0007 5 10C5.28267 9.99933 5.52034 10.0953 5.713 10.288C5.90567 10.4807 6.00134 10.718 6 11V15C6 15.2833 5.904 15.521 5.712 15.713C5.52 15.905 5.28267 16.0007 5 16H1C0.71667 16 0.479337 15.904 0.288004 15.712C0.0966702 15.52 0.000670115 15.2827 3.44827e-06 15C-0.000663218 14.7173 0.0953369 14.48 0.288004 14.288C0.48067 14.096 0.718003 14 1 14H2.75L2.35 13.65C1.48334 12.8833 0.875004 12.0083 0.525004 11.025C0.175004 10.0417 3.44827e-06 9.05 3.44827e-06 8.05C3.44827e-06 6.48333 0.400003 5.06233 1.2 3.787C2 2.51167 3.075 1.53267 4.425 0.85C4.65834 0.716667 4.90434 0.708333 5.163 0.825C5.42167 0.941666 5.59234 1.13333 5.675 1.4C5.75834 1.65 5.75434 1.9 5.663 2.15C5.57167 2.4 5.409 2.59167 5.175 2.725C4.20834 3.25833 3.43767 3.996 2.863 4.938C2.28834 5.88 2.00067 6.91733 2 8.05ZM14 7.95C14 7.2 13.8583 6.471 13.575 5.763C13.2917 5.055 12.85 4.40067 12.25 3.8L12 3.55V5C12 5.28333 11.904 5.521 11.712 5.713C11.52 5.905 11.2827 6.00067 11 6C10.7173 5.99933 10.48 5.90333 10.288 5.712C10.096 5.52067 10 5.28333 10 5V1C10 0.716667 10.096 0.479333 10.288 0.288C10.48 0.0966668 10.7173 0.000666667 11 0H15C15.2833 0 15.521 0.0960001 15.713 0.288C15.905 0.48 16.0007 0.717333 16 1C15.9993 1.28267 15.9033 1.52033 15.712 1.713C15.5207 1.90567 15.2833 2.00133 15 2H13.25L13.65 2.35C14.4667 3.16667 15.0627 4.05433 15.438 5.013C15.8133 5.97167 16.0007 6.95067 16 7.95C16 9.51667 15.6 10.9377 14.8 12.213C14 13.4883 12.925 14.4673 11.575 15.15C11.3417 15.2833 11.096 15.2917 10.838 15.175C10.58 15.0583 10.409 14.8667 10.325 14.6C10.2417 14.35 10.246 14.1 10.338 13.85C10.43 13.6 10.5923 13.4083 10.825 13.275C11.7917 12.7417 12.5627 12.0043 13.138 11.063C13.7133 10.1217 14.0007 9.084 14 7.95Z" fill="black"/>
</svg>
