<svg width="16" height="17" viewBox="0 0 16 17" fill="none" style="border-color: black" xmlns="http://www.w3.org/2000/svg">
<path d="M4.12823 3.99851C5.73711 2.34366 6.54155 1.51624 7.52235 1.35806C7.83874 1.30703 8.16126 1.30703 8.47765 1.35806C9.45845 1.51624 10.2629 2.34366 11.8718 3.99851L13.4718 5.64422C14.1414 6.33295 14.4762 6.67732 14.6844 7.09474C14.7533 7.23284 14.8115 7.37606 14.8583 7.52311C15 7.96758 15 8.44787 15 9.40845V13.6828C15 14.9714 13.9553 16.0161 12.6667 16.0161V16.0161C11.378 16.0161 10.3333 14.9714 10.3333 13.6828V12.7494C10.3333 11.4608 9.28866 10.4161 8 10.4161V10.4161C6.71134 10.4161 5.66667 11.4608 5.66667 12.7494V13.6828C5.66667 14.9714 4.622 16.0161 3.33333 16.0161V16.0161C2.04467 16.0161 1 14.9714 1 13.6828V9.40845C1 8.44787 1 7.96758 1.14165 7.52311C1.18852 7.37606 1.24666 7.23284 1.31557 7.09474C1.52383 6.67732 1.85863 6.33295 2.52823 5.64422L4.12823 3.99851Z" stroke="white" stroke-width="1.5" stroke-linejoin="round"/>
</svg>
