<?xml version="1.0" encoding="utf-8"?>
<!-- Generator: Adobe Illustrator 27.5.0, SVG Export Plug-In . SVG Version: 6.00 Build 0)  -->
<svg version="1.1" xmlns="http://www.w3.org/2000/svg" xmlns:xlink="http://www.w3.org/1999/xlink" x="0px" y="0px"
	 viewBox="0 0 3710 3710" style="enable-background:new 0 0 3710 3710;" xml:space="preserve">
<g id="Background">
	<g>
		<g>
			<rect style="fill:#FFFFFF;" width="3710" height="3710"/>
		</g>
	</g>
</g>
<g id="Illustration">
	<g>
		<linearGradient id="SVGID_1_" gradientUnits="userSpaceOnUse" x1="3576.4949" y1="4010.6118" x2="1139.3494" y2="983.83">
			<stop  offset="0" style="stop-color:#DAE3FE"/>
			<stop  offset="1" style="stop-color:#E9EFFD"/>
		</linearGradient>
		<path style="fill:url(#SVGID_1_);" d="M2913.545,2811.736c-56.393,58.649-109.751,96.471-151.908,126.353
			c-495.551,351.257-1081.92,248.867-1206.54,223.863c-184.024-36.924-539.74-108.296-796.915-407.066
			c-389.085-452.015-328.499-1164.151-26.698-1634.242c55.204-85.988,346.808-563.239,939.492-639.775
			c358.686-46.319,776.799,47.101,1079.585,297.703C3386.135,1304.606,3340.889,2367.291,2913.545,2811.736z"/>
		<g>
			<g>
				<g>
					<path style="fill:#91B3FA;" d="M2109.986,688.368c-0.721,0.174-1.501,0.124-2.235-0.196c-1.788-0.779-2.607-2.86-1.828-4.651
						c1.894-4.342,3.893-8.702,5.944-12.957c0.844-1.761,2.958-2.494,4.714-1.65c1.758,0.847,2.496,2.958,1.649,4.716
						c-2.01,4.174-3.972,8.455-5.829,12.716C2111.94,687.401,2111.026,688.118,2109.986,688.368z"/>
					<path style="fill:#91B3FA;" d="M2787.246,680.74c-1.605,0.387-3.31-0.398-4.031-1.953c-4.008-8.668-8.412-17.287-13.09-25.609
						c-0.957-1.704-0.352-3.854,1.35-4.81c1.692-0.979,3.854-0.354,4.809,1.346c4.77,8.488,9.26,17.271,13.345,26.108
						c0.819,1.772,0.045,3.871-1.726,4.688C2787.689,680.611,2787.468,680.686,2787.246,680.74z M2748.344,615.325
						c-1.335,0.322-2.791-0.155-3.663-1.325c-5.687-7.639-11.766-15.169-18.068-22.38c-1.284-1.472-1.133-3.701,0.336-4.985
						c1.464-1.293,3.701-1.133,4.984,0.332c6.423,7.352,12.62,15.027,18.417,22.814c1.165,1.565,0.839,3.779-0.725,4.943
						C2749.23,615.019,2748.793,615.216,2748.344,615.325z M2696.895,559.227c-1.088,0.262-2.28,0.006-3.179-0.795
						c-7.148-6.365-14.621-12.512-22.208-18.275c-1.554-1.18-1.856-3.396-0.676-4.95c1.176-1.55,3.391-1.86,4.948-0.678
						c7.735,5.875,15.349,12.142,22.633,18.626c1.456,1.296,1.586,3.528,0.289,4.987
						C2698.206,558.702,2697.571,559.064,2696.895,559.227z M2139.028,634.443c-0.91,0.219-1.908,0.076-2.756-0.475
						c-1.633-1.065-2.096-3.253-1.032-4.886c5.305-8.144,11.006-16.192,16.945-23.921c1.186-1.545,3.402-1.838,4.954-0.647
						c1.546,1.189,1.836,3.408,0.647,4.954c-5.827,7.581-11.42,15.479-16.624,23.467
						C2140.648,633.722,2139.875,634.239,2139.028,634.443z M2635.18,514.703c-0.849,0.204-1.774,0.097-2.59-0.373
						c-8.266-4.758-16.832-9.244-25.455-13.334c-1.763-0.838-2.513-2.943-1.676-4.705c0.837-1.767,2.946-2.512,4.705-1.68
						c8.792,4.173,17.523,8.747,25.951,13.597c1.691,0.973,2.273,3.132,1.3,4.821
						C2636.912,513.906,2636.089,514.484,2635.18,514.703z M2186.875,575.234c-1.152,0.278-2.415-0.029-3.319-0.925
						c-1.385-1.373-1.393-3.61-0.02-4.995c6.873-6.932,14.083-13.661,21.429-20.005c1.475-1.281,3.708-1.113,4.981,0.365
						c1.277,1.477,1.113,3.706-0.365,4.981c-7.208,6.225-14.283,12.83-21.029,19.632
						C2188.074,574.771,2187.49,575.086,2186.875,575.234z M2565.667,483.789c-0.614,0.148-1.275,0.133-1.92-0.077
						c-9.044-2.952-18.35-5.589-27.661-7.838c-1.895-0.455-3.06-2.364-2.604-4.262c0.461-1.896,2.369-3.061,4.264-2.603
						c9.488,2.288,18.974,4.978,28.194,7.987c1.855,0.607,2.867,2.599,2.262,4.455
						C2567.805,482.66,2566.82,483.511,2565.667,483.789z M2245.692,526.92c-1.404,0.338-2.93-0.21-3.772-1.483
						c-1.077-1.628-0.631-3.818,0.995-4.899c8.123-5.374,16.555-10.492,25.067-15.207c1.699-0.945,3.854-0.329,4.801,1.377
						c0.945,1.706,0.329,3.856-1.378,4.803c-8.347,4.626-16.62,9.646-24.59,14.919
						C2246.46,526.664,2246.081,526.826,2245.692,526.92z M2491.287,467.747c-0.387,0.093-0.795,0.124-1.215,0.076
						c-9.486-1.043-19.136-1.731-28.685-2.038c-1.95-0.062-3.48-1.691-3.418-3.644c0.063-1.949,1.694-3.477,3.645-3.415
						c9.731,0.31,19.567,1.01,29.234,2.076c1.939,0.214,3.336,1.957,3.122,3.896
						C2493.803,466.222,2492.694,467.408,2491.287,467.747z M2415.195,467.159c-0.163,0.039-0.329,0.068-0.501,0.085
						c-9.493,0.892-19.084,2.181-28.507,3.82c-1.922,0.336-3.751-0.952-4.087-2.876c-0.332-1.925,1.019-3.709,2.875-4.085
						c9.605-1.672,19.382-2.98,29.057-3.895c1.942-0.18,3.665,1.243,3.848,3.186
						C2418.047,465.166,2416.875,466.754,2415.195,467.159z M2313.152,491.682c-1.682,0.405-3.449-0.479-4.106-2.133
						c-0.719-1.811,0.167-3.865,1.98-4.586c9.049-3.592,18.352-6.869,27.651-9.737c1.901-0.526,3.842,0.469,4.418,2.335
						c0.574,1.863-0.47,3.839-2.334,4.415c-9.124,2.816-18.251,6.029-27.127,9.555
						C2313.475,491.593,2313.314,491.642,2313.152,491.682z"/>
					<path style="fill:#91B3FA;" d="M2808.298,738.423c-1.848,0.445-3.728-0.656-4.233-2.504c-1.222-4.471-2.549-8.984-3.944-13.417
						c-0.587-1.86,0.447-3.844,2.309-4.431c1.865-0.528,3.845,0.45,4.43,2.311c1.421,4.515,2.775,9.118,4.02,13.675
						c0.514,1.881-0.594,3.823-2.476,4.34C2808.368,738.406,2808.333,738.414,2808.298,738.423z"/>
				</g>
				<g>
					<path style="fill:#91B3FA;" d="M2769.969,1025.418c-0.862,0.208-1.803,0.094-2.626-0.393c-1.678-0.994-2.234-3.163-1.24-4.839
						c2.381-4.023,4.699-8.119,6.892-12.178c0.928-1.707,3.073-2.348,4.787-1.426c1.716,0.928,2.355,3.073,1.427,4.79
						c-2.237,4.133-4.6,8.308-7.027,12.409C2771.675,1024.638,2770.864,1025.203,2769.969,1025.418z"/>
					<path style="fill:#91B3FA;" d="M2537.608,1197.413l-3.114,0.736c-1.902,0.437-3.798-0.749-4.236-2.648
						c-0.435-1.889,0.734-3.775,2.615-4.228c0.01-0.002,0.022-0.005,0.034-0.008l3.047-0.72c8.111-1.954,16.271-4.218,24.254-6.73
						c1.881-0.535,3.845,0.451,4.43,2.311c0.585,1.86-0.449,3.844-2.309,4.431
						C2554.191,1193.113,2545.875,1195.422,2537.608,1197.413z M2488.761,1205.785c-0.153,0.037-0.309,0.064-0.469,0.081
						c-9.517,0.984-19.2,1.613-28.78,1.87c-1.95,0.051-3.573-1.488-3.624-3.438c-0.052-1.953,1.491-3.56,3.437-3.628
						c9.399-0.249,18.903-0.864,28.24-1.832c1.94-0.201,3.677,1.212,3.877,3.15
						C2491.626,1203.768,2490.454,1205.377,2488.761,1205.785z M2605.4,1173.936c-1.608,0.387-3.316-0.401-4.033-1.959
						c-0.816-1.773-0.039-3.873,1.734-4.686c8.548-3.926,17.038-8.235,25.239-12.8c1.706-0.961,3.853-0.339,4.805,1.365
						c0.95,1.705,0.337,3.854-1.367,4.804c-8.357,4.657-17.013,9.048-25.728,13.053
						C2605.838,1173.809,2605.619,1173.883,2605.4,1173.936z M2413.868,1205.994c-0.374,0.09-0.769,0.122-1.173,0.081
						c-9.55-0.936-19.162-2.253-28.572-3.914c-1.92-0.339-3.203-2.174-2.863-4.093c0.336-1.919,2.169-3.212,4.091-2.866
						c9.231,1.63,18.664,2.923,28.035,3.845c1.94,0.189,3.361,1.919,3.17,3.86
						C2416.406,1204.442,2415.29,1205.651,2413.868,1205.994z M2669.933,1135.907c-1.342,0.323-2.807-0.161-3.675-1.343
						c-1.155-1.57-0.818-3.78,0.754-4.936c7.539-5.542,14.987-11.473,22.137-17.635c1.476-1.275,3.709-1.107,4.983,0.371
						c1.273,1.478,1.106,3.708-0.372,4.983c-7.288,6.276-14.879,12.324-22.563,17.972
						C2670.806,1135.608,2670.375,1135.801,2669.933,1135.907z M2340.456,1191.22c-0.597,0.144-1.238,0.135-1.867-0.061
						c-9.138-2.823-18.288-6.044-27.197-9.571c-1.814-0.716-2.702-2.769-1.984-4.582c0.717-1.819,2.767-2.699,4.585-1.985
						c8.741,3.458,17.718,6.618,26.682,9.391c1.865,0.576,2.907,2.553,2.333,4.416
						C2342.625,1190.062,2341.628,1190.937,2340.456,1191.22z M2725.51,1085.688c-1.098,0.265-2.302,0.001-3.202-0.815
						c-1.445-1.309-1.557-3.546-0.248-4.99c6.311-6.967,12.432-14.264,18.192-21.684c1.199-1.541,3.413-1.819,4.957-0.623
						c1.541,1.194,1.82,3.415,0.625,4.956c-5.87,7.56-12.106,14.995-18.536,22.093
						C2726.803,1085.17,2726.176,1085.527,2725.51,1085.688z M2271.539,1161.972c-0.825,0.199-1.726,0.104-2.529-0.342
						c-8.367-4.602-16.679-9.607-24.708-14.873c-1.631-1.069-2.085-3.259-1.017-4.89c1.067-1.634,3.259-2.091,4.891-1.018
						c7.876,5.167,16.033,10.075,24.24,14.595c1.71,0.94,2.331,3.086,1.392,4.795
						C2273.309,1161.148,2272.471,1161.747,2271.539,1161.972z M2209.937,1119.405c-1.062,0.256-2.226,0.018-3.121-0.745
						c-5.732-4.882-11.408-10.015-16.867-15.261c-1.47-1.413-2.927-2.836-4.368-4.263c-1.385-1.376-1.394-3.613-0.018-4.995
						c1.372-1.388,3.612-1.392,4.994-0.021c1.414,1.405,2.843,2.799,4.285,4.183c5.36,5.149,10.929,10.187,16.555,14.981
						c1.486,1.264,1.663,3.492,0.399,4.978C2211.292,1118.851,2210.636,1119.236,2209.937,1119.405z M2158.031,1065.404
						c-1.303,0.314-2.726-0.131-3.609-1.253c-5.912-7.535-11.604-15.396-16.918-23.367c-1.081-1.624-0.643-3.819,0.981-4.899
						c1.622-1.083,3.816-0.643,4.898,0.977c5.213,7.821,10.798,15.534,16.599,22.926c1.203,1.534,0.935,3.756-0.599,4.959
						C2158.972,1065.071,2158.51,1065.289,2158.031,1065.404z M2118.006,1002.097c-1.564,0.377-3.239-0.358-3.986-1.86
						c-4.266-8.567-8.252-17.418-11.848-26.305c-0.73-1.808,0.142-3.866,1.95-4.6c1.795-0.699,3.868,0.143,4.6,1.95
						c3.527,8.72,7.438,17.404,11.621,25.806c0.87,1.746,0.158,3.869-1.588,4.736
						C2118.513,1001.947,2118.262,1002.036,2118.006,1002.097z"/>
					<path style="fill:#91B3FA;" d="M2091.567,931.874c-1.861,0.448-3.749-0.672-4.24-2.531c-1.204-4.55-2.342-9.207-3.384-13.849
						c-0.425-1.906,0.909-3.718,2.673-4.221c1.904-0.427,3.795,0.771,4.221,2.673c1.021,4.555,2.138,9.126,3.318,13.589
						c0.501,1.888-0.623,3.819-2.509,4.32C2091.62,931.861,2091.594,931.867,2091.567,931.874z"/>
				</g>
				<g>
					<path style="fill:#91B3FA;" d="M2165.679,860.257c-0.022,1.9,1.163,3.606,2.952,4.247l51.042,18.277
						c5.482,24.719,14.945,48.741,28.42,71.042l-24.303,48.424c-0.853,1.698-0.533,3.751,0.794,5.11l45.437,46.524
						c1.329,1.359,3.373,1.726,5.09,0.915l48.985-23.152c21.978,13.996,45.768,24.025,70.35,30.089l17.067,51.459
						c0.599,1.803,2.275,3.029,4.175,3.052l65.026,0.768c1.901,0.022,3.606-1.163,4.246-2.952l18.278-51.041
						c24.718-5.482,48.74-14.946,71.041-28.42l48.425,24.303c1.698,0.852,3.75,0.534,5.11-0.794l46.524-45.438
						c1.36-1.328,1.728-3.372,0.915-5.09l-23.153-48.985c13.998-21.977,24.026-45.768,30.09-70.35l51.46-17.067
						c1.803-0.598,3.029-2.275,3.051-4.175l0.769-65.026c0.023-1.901-1.163-3.606-2.953-4.246l-51.042-18.278
						c-5.481-24.718-14.945-48.74-28.419-71.042l24.304-48.425c0.852-1.698,0.533-3.75-0.794-5.109l-45.438-46.525
						c-1.327-1.359-3.372-1.727-5.09-0.915l-48.985,23.153c-21.977-13.998-45.768-24.026-70.351-30.09l-17.067-51.458
						c-0.597-1.804-2.276-3.03-4.176-3.052l-65.026-0.768c-1.9-0.022-3.606,1.163-4.247,2.952l-18.278,51.041
						c-24.718,5.482-48.74,14.946-71.041,28.42l-48.426-24.304c-1.697-0.852-3.75-0.533-5.109,0.795l-46.524,45.437
						c-1.359,1.327-1.727,3.371-0.916,5.09l23.153,48.985c-13.997,21.977-24.025,45.768-30.09,70.349l-51.459,17.068
						c-1.804,0.598-3.029,2.275-3.052,4.175L2165.679,860.257z"/>
					<g>
						<path style="fill:#BDD0FB;" d="M2466.341,892.407c-0.02,0.005-0.039,0.009-0.059,0.014
							c-16.375,3.927-33.298,1.244-47.655-7.556s-24.427-22.665-28.354-39.038c-3.929-16.376-1.245-33.302,7.556-47.656
							c18.166-29.64,57.061-38.968,86.694-20.8c14.356,8.801,24.427,22.665,28.354,39.038c3.929,16.376,1.246,33.302-7.556,47.657
							C2496.532,878.402,2482.69,888.468,2466.341,892.407z M2439.291,780.13c-13.602,3.277-25.115,11.65-32.428,23.577
							c-7.323,11.944-9.555,26.022-6.285,39.644c3.267,13.622,11.646,25.158,23.587,32.479c11.944,7.32,26.023,9.553,39.646,6.285
							c0.015-0.004,0.033-0.008,0.048-0.012c13.603-3.277,25.115-11.649,32.428-23.577c7.322-11.944,9.555-26.022,6.286-39.644
							c-3.268-13.622-11.646-25.158-23.588-32.479c-11.943-7.32-26.023-9.552-39.646-6.285
							C2439.324,780.122,2439.306,780.127,2439.291,780.13z"/>
					</g>
					<g>
						<path style="fill:#BDD0FB;" d="M2491.199,988.626c-53.795,12.963-112.904-1.886-154.296-44.266
							c-8.085-8.279-15.283-17.402-21.387-27.116l8.971-5.638c5.708,9.078,12.437,17.609,19.996,25.35
							c45.892,46.987,115.102,57.777,171.657,31.897c0.106-0.047,0.211-0.097,0.317-0.144c0.11-0.051,0.214-0.098,0.324-0.149
							c15.197-7.035,29.463-16.724,42.109-29.075c28.973-28.294,45.194-66.18,45.673-106.675
							c0.151-12.835-1.284-25.444-4.216-37.604c-6.32-26.211-19.595-50.334-38.923-70.126c-58.414-59.81-154.6-60.947-214.407-2.533
							c-19.666,19.207-33.735,43.333-40.684,69.767l-10.248-2.697c7.435-28.286,22.488-54.1,43.527-74.653
							c63.991-62.487,166.896-61.279,229.393,2.713c20.681,21.175,34.883,46.985,41.644,75.027
							c3.136,13.012,4.672,26.501,4.509,40.23c-0.51,43.327-17.864,83.863-48.863,114.136
							C2544.686,968.175,2518.63,982.018,2491.199,988.626z"/>
					</g>
				</g>
			</g>
			<g>
				<g>
					<path style="fill:#91B3FA;" d="M2747.833,786.943c-0.823,0.198-1.714,0.142-2.551-0.224c-2.042-0.89-2.977-3.266-2.087-5.307
						c2.174-4.993,4.537-9.974,7.026-14.803c1.018-1.979,3.448-2.755,5.431-1.738c1.979,1.018,2.758,3.452,1.738,5.432
						c-2.406,4.676-4.695,9.497-6.801,14.327C2750.064,785.838,2749.022,786.656,2747.833,786.943z"/>
					<path style="fill:#91B3FA;" d="M3192.615,755.72c-1.652,0.398-3.441-0.281-4.379-1.806
						c-5.781-9.392-12.265-18.489-19.274-27.039c-1.412-1.726-1.161-4.266,0.563-5.678c1.719-1.407,4.265-1.157,5.676,0.561
						c7.238,8.83,13.934,18.225,19.905,27.924c1.168,1.898,0.578,4.382-1.321,5.549
						C3193.412,755.463,3193.017,755.623,3192.615,755.72z M3133.94,689.863c-1.16,0.279-2.434,0.044-3.445-0.754
						c-8.685-6.857-17.899-13.174-27.382-18.778c-1.918-1.134-2.554-3.606-1.42-5.525c1.132-1.918,3.609-2.551,5.524-1.42
						c9.792,5.784,19.307,12.308,28.275,19.389c1.749,1.381,2.048,3.918,0.668,5.665
						C3135.577,689.182,3134.788,689.659,3133.94,689.863z M2785.011,726.703c-1.198,0.289-2.511,0.026-3.53-0.823
						c-1.71-1.423-1.943-3.969-0.517-5.677c3.887-4.668,8.011-9.275,12.26-13.702c3.671-3.826,7.5-7.572,11.379-11.14
						c1.642-1.518,4.192-1.403,5.699,0.24c1.509,1.638,1.402,4.188-0.238,5.697c-3.758,3.458-7.466,7.086-11.021,10.791
						c-4.118,4.29-8.116,8.757-11.882,13.274C2786.585,726.056,2785.825,726.507,2785.011,726.703z M3056.195,648.267
						c-0.699,0.168-1.452,0.152-2.186-0.085c-10.491-3.404-21.322-6.135-32.195-8.105c-2.191-0.4-3.644-2.497-3.247-4.691
						c0.396-2.198,2.494-3.64,4.689-3.249c11.226,2.04,22.411,4.855,33.243,8.372c2.119,0.689,3.278,2.962,2.591,5.08
						C3058.641,646.973,3057.514,647.949,3056.195,648.267z M2852.373,669.758c-1.691,0.407-3.517-0.319-4.432-1.898
						c-1.117-1.927-0.462-4.398,1.467-5.515c9.857-5.709,20.208-10.807,30.765-15.15c2.051-0.854,4.416,0.135,5.265,2.196
						c0.847,2.061-0.137,4.417-2.196,5.265c-10.224,4.205-20.247,9.14-29.791,14.672
						C2853.106,669.525,2852.742,669.669,2852.373,669.758z M2968.849,636.156c-0.256,0.062-0.521,0.101-0.796,0.111
						c-11.046,0.42-22.158,1.586-33.029,3.468c-2.196,0.379-4.282-1.091-4.663-3.288c-0.378-2.19,1.149-4.203,3.287-4.661
						c11.222-1.942,22.696-3.146,34.1-3.58c2.227-0.083,4.098,1.65,4.184,3.878C2972.005,634.034,2970.68,635.715,2968.849,636.156z
						"/>
					<path style="fill:#91B3FA;" d="M3220.849,820.852c-2.11,0.508-4.256-0.749-4.833-2.859c-1.393-5.089-2.963-10.188-4.674-15.161
						c-0.724-2.106,0.396-4.402,2.503-5.124c2.127-0.833,4.4,0.395,5.126,2.501c1.765,5.133,3.389,10.402,4.826,15.659
						c0.588,2.147-0.679,4.365-2.827,4.955C3220.929,820.832,3220.889,820.842,3220.849,820.852z"/>
				</g>
				<g>
					<path style="fill:#91B3FA;" d="M3191.469,1020.852c-1.019,0.245-2.132,0.096-3.09-0.508c-1.885-1.182-2.455-3.671-1.271-5.56
						c2.806-4.464,5.497-9.075,7.999-13.701c1.055-1.96,3.51-2.685,5.467-1.625c1.959,1.059,2.688,3.505,1.629,5.466
						c-2.585,4.775-5.366,9.537-8.263,14.153C3193.358,1020.004,3192.458,1020.614,3191.469,1020.852z"/>
					<path style="fill:#91B3FA;" d="M3056.864,1126.254c-2.024,0.488-4.116-0.653-4.773-2.667c-0.695-2.118,0.46-4.397,2.578-5.09
						c10.321-3.374,20.513-7.482,30.297-12.201c2.019-0.985,4.419-0.12,5.385,1.879c0.968,2.008,0.126,4.418-1.88,5.388
						c-10.105,4.874-20.634,9.115-31.294,12.603C3057.073,1126.199,3056.967,1126.229,3056.864,1126.254z M3004.169,1137.449
						c-0.176,0.042-0.355,0.073-0.539,0.093c-11.158,1.144-22.497,1.559-33.703,1.232c-2.226-0.064-3.978-1.923-3.913-4.15
						c0.067-2.228,1.933-3.978,4.15-3.912c10.852,0.319,21.835-0.087,32.642-1.195c2.217-0.226,4.197,1.383,4.425,3.601
						C3007.44,1135.15,3006.101,1136.984,3004.169,1137.449z M3133.385,1085.342c-1.486,0.358-3.113-0.149-4.119-1.431
						c-1.376-1.751-1.072-4.288,0.682-5.662c8.524-6.693,16.706-14.036,24.321-21.822c1.548-1.604,4.108-1.625,5.703-0.065
						c1.593,1.557,1.622,4.11,0.063,5.701c-7.858,8.039-16.306,15.62-25.106,22.529
						C3134.458,1084.962,3133.93,1085.211,3133.385,1085.342z M2917.613,1131.367c-0.609,0.147-1.261,0.154-1.912-0.005
						c-10.902-2.705-21.71-6.158-32.125-10.27c-2.073-0.817-3.089-3.161-2.272-5.234c0.82-2.069,3.161-3.091,5.233-2.269
						c10.083,3.98,20.549,7.326,31.105,9.94c2.161,0.537,3.48,2.727,2.943,4.886
						C2920.212,1129.927,2919.03,1131.026,2917.613,1131.367z M2838.313,1096.189c-1.061,0.255-2.221,0.082-3.197-0.575
						c-9.277-6.237-18.253-13.174-26.681-20.62c-1.668-1.474-1.826-4.025-0.35-5.693c1.478-1.669,4.023-1.824,5.693-0.35
						c8.163,7.21,16.856,13.932,25.84,19.972c1.849,1.24,2.339,3.747,1.097,5.594
						C2840.127,1095.392,2839.259,1095.962,2838.313,1096.189z M2775.673,1036.146c-1.531,0.369-3.203-0.18-4.195-1.53
						c-6.654-9.044-12.759-18.614-18.145-28.441c-1.071-1.954-0.354-4.404,1.6-5.474c1.953-1.082,4.406-0.352,5.475,1.598
						c5.214,9.516,11.124,18.78,17.567,27.535c1.32,1.797,0.935,4.32-0.858,5.64
						C2776.669,1035.801,2776.178,1036.024,2775.673,1036.146z"/>
					<path style="fill:#91B3FA;" d="M2737.113,958.208c-2.079,0.501-4.206-0.717-4.813-2.791c-1.527-5.227-2.903-10.564-4.092-15.86
						c-0.482-2.153,0.852-4.289,2.989-4.804c0.021-0.005,0.042-0.01,0.063-0.015c2.174-0.487,4.332,0.881,4.819,3.052
						c1.151,5.132,2.484,10.304,3.964,15.364c0.625,2.139-0.602,4.379-2.74,5.003
						C2737.242,958.177,2737.177,958.192,2737.113,958.208z"/>
				</g>
				<g>
					<path style="fill:#91B3FA;" d="M2785.174,901.781c-0.015,1.287,0.788,2.442,1.999,2.876l34.574,12.381
						c3.713,16.744,10.124,33.016,19.25,48.122l-16.462,32.801c-0.578,1.15-0.361,2.541,0.538,3.462l30.778,31.514
						c0.9,0.921,2.285,1.169,3.448,0.62l33.181-15.683c14.887,9.481,31.001,16.274,47.653,20.382l11.561,34.857
						c0.405,1.222,1.54,2.052,2.828,2.067l44.046,0.52c1.288,0.015,2.443-0.788,2.877-2l12.381-34.574
						c16.743-3.714,33.015-10.124,48.121-19.251l32.801,16.462c1.151,0.578,2.54,0.361,3.462-0.538l31.514-30.778
						c0.921-0.899,1.17-2.284,0.62-3.448l-15.683-33.181c9.482-14.887,16.275-31.002,20.382-47.653l34.857-11.56
						c1.221-0.405,2.051-1.541,2.067-2.829l0.52-44.046c0.016-1.288-0.788-2.443-2-2.877l-34.574-12.381
						c-3.713-16.744-10.124-33.015-19.25-48.122l16.463-32.801c0.577-1.15,0.361-2.54-0.538-3.461l-30.779-31.514
						c-0.899-0.921-2.284-1.17-3.448-0.619l-33.181,15.683c-14.886-9.482-31.002-16.274-47.653-20.382l-11.561-34.856
						c-0.404-1.222-1.541-2.053-2.828-2.068l-44.047-0.52c-1.287-0.015-2.442,0.787-2.876,1.999l-12.381,34.574
						c-16.743,3.714-33.015,10.124-48.121,19.251l-32.802-16.463c-1.149-0.577-2.54-0.361-3.461,0.539l-31.514,30.778
						c-0.921,0.899-1.17,2.284-0.62,3.448l15.683,33.181c-9.481,14.887-16.274,31.002-20.382,47.652l-34.857,11.561
						c-1.222,0.405-2.052,1.541-2.068,2.828L2785.174,901.781z"/>
					<g>
						<path style="fill:#BDD0FB;" d="M2989.409,925.95c-0.014,0.003-0.027,0.007-0.042,0.01
							c-11.729,2.817-23.854,0.893-34.139-5.413c-10.286-6.306-17.501-16.24-20.314-27.968c-2.814-11.732-0.894-23.859,5.412-34.141
							c13.014-21.229,40.877-27.917,62.108-14.901c10.286,6.305,17.501,16.24,20.314,27.968c2.814,11.732,0.892,23.859-5.414,34.141
							C3011.038,915.918,3001.123,923.128,2989.409,925.95z M2971.093,849.913c-8.223,1.981-15.692,7.086-20.452,14.849
							c-4.616,7.53-6.022,16.405-3.962,24.992c2.062,8.591,7.342,15.863,14.872,20.479c7.53,4.616,16.407,6.022,24.994,3.962
							c0.01-0.002,0.021-0.005,0.031-0.007c8.575-2.066,15.834-7.344,20.444-14.863c4.615-7.529,6.024-16.405,3.964-24.992
							c-2.061-8.591-7.342-15.863-14.872-20.479C2988.333,849.082,2979.334,847.927,2971.093,849.913z"/>
					</g>
					<g>
						<path style="fill:#BDD0FB;" d="M3006.252,991.124c-37.255,8.979-78.192-1.303-106.856-30.654
							c-4.963-5.08-9.439-10.618-13.337-16.493c-0.501-0.754-0.992-1.515-1.473-2.282l10.243-6.438
							c3.772,5.999,8.22,11.637,13.222,16.76l0,0c5.545,5.677,11.606,10.554,18.033,14.633c0.019,0.012,0.035,0.02,0.054,0.031
							c0.03,0.021,0.065,0.041,0.096,0.062c28.648,18.096,64.608,20.331,95.064,6.471c7.89-3.582,15.41-8.238,22.338-13.974
							c0.223-0.183,0.443-0.366,0.663-0.553c0.178-0.152,0.358-0.305,0.536-0.457c0.457-0.39,0.909-0.782,1.362-1.183
							c1.222-1.085,2.425-2.201,3.605-3.357c19.156-18.705,29.881-43.755,30.197-70.529c0.099-8.484-0.85-16.82-2.788-24.857
							c-4.177-17.331-12.954-33.282-25.732-46.365c-18.71-19.157-43.756-29.88-70.53-30.196
							c-26.772-0.32-52.068,9.809-71.222,28.523c-13.002,12.694-22.303,28.641-26.898,46.119l-11.701-3.08
							c5.151-19.594,15.575-37.472,30.144-51.699c21.467-20.968,49.816-32.319,79.819-31.963
							c30.006,0.356,58.076,12.372,79.043,33.842c14.322,14.664,24.158,32.539,28.841,51.96c2.172,9.006,3.235,18.348,3.122,27.859
							c-0.354,30.005-12.372,58.076-33.839,79.044C3043.292,976.962,3025.25,986.547,3006.252,991.124z"/>
					</g>
				</g>
			</g>
		</g>
		<g>
			<path style="fill:#91B3FA;" d="M511.266,478.35c-2.963-12.614,14.781-20.998,25.646-12.187
				c110.334,89.469,375.434,357.391,309.366,825.604c-82.892,587.442,58.822,801.795,235.221,932.546
				c0,0-242.254-61.488-394.67-278.994C312.615,1411.289,563.952,702.628,511.266,478.35z"/>
			<path style="fill:#FFFFFF;" d="M595.231,661.832c13.803,65.397,26.105,130.994,35.612,196.886
				c9.906,65.837,17.496,131.904,22.69,198.079c4.9,66.187,8.361,132.444,8.558,198.729c0.542,66.281-2.214,132.508-5.25,198.992
				c-2.605,66.461-5.666,133.401-0.8,200.815c4.784,67.276,18.946,135.141,47.048,198.759c7.025,15.855,14.412,31.662,22.804,46.935
				c8.068,15.414,16.927,30.524,26.097,45.49c18.516,29.861,39.359,58.711,62.587,86.095
				c46.623,54.674,102.853,103.174,164.797,144.221c6.52,4.32,15.86,3.258,20.864-2.372c4.913-5.528,3.815-13.406-2.399-17.779
				l-0.044-0.031c-14.739-10.352-29.323-20.837-43.315-31.847c-7.1-5.41-13.906-11.08-20.833-16.637
				c-6.675-5.777-13.612-11.332-20.073-17.281c-26.303-23.411-50.671-48.389-72.778-74.798
				c-44.468-52.574-80.067-111.159-107.037-171.893c-13.092-30.508-23.558-61.796-31.199-93.671
				c-7.614-31.883-12.402-64.321-15.051-97.019c-5.304-65.433-2.908-131.711-0.857-198.183c1.952-66.49,3.384-133.317,1.629-200.091
				c-0.773-33.385-2.24-66.754-4.399-100.083c-0.968-16.669-2.31-33.319-3.617-49.969c-1.492-16.639-3.09-33.268-4.845-49.883
				c-7.162-66.451-16.669-132.681-28.586-198.559c-12.282-65.828-26.583-131.353-43.784-196.291
				c-0.492-1.857-2.632-3.017-4.782-2.592C596.181,658.266,594.855,660.031,595.231,661.832z"/>
		</g>
		<g>
			<g>
				<path style="fill:#BDD0FB;" d="M777.225,1811.638c-13.528,14.354-37.319,10.226-45.457-7.741
					c-44.905-99.136-146.52-390.91,21.301-727.049c141.718-283.854,191.589-451.239,208.963-528.795
					c3.674-16.4,26.149-18.577,32.932-3.201C1069.809,714.497,1267.431,1291.533,777.225,1811.638z"/>
				<path style="fill:#FFFFFF;" d="M752.652,1801.177c-0.481,0.086-0.976,0.127-1.484,0.119c-4.252-0.065-7.647-3.565-7.582-7.817
					c0.074-4.821,9.456-486.687,188.676-890.268c1.726-3.883,6.275-5.636,10.165-3.913c3.887,1.728,5.638,6.276,3.913,10.165
					c-177.917,400.644-187.281,879.464-187.355,884.252C758.929,1797.461,756.207,1800.54,752.652,1801.177z"/>
			</g>
		</g>
		<g>
			<g>
				
					<linearGradient id="SVGID_00000036931870098279280250000003541360091687376825_" gradientUnits="userSpaceOnUse" x1="2170.4714" y1="2321.4749" x2="2607.3064" y2="1834.9987">
					<stop  offset="0" style="stop-color:#09005D"/>
					<stop  offset="1" style="stop-color:#1A0F91"/>
				</linearGradient>
				<polygon style="fill:url(#SVGID_00000036931870098279280250000003541360091687376825_);" points="1670.802,2287.1 
					1613.924,2797.213 2273.815,2797.213 2187.864,2287.1 				"/>
				
					<linearGradient id="SVGID_00000118396171842869033610000000372435863845963416_" gradientUnits="userSpaceOnUse" x1="1762.0222" y1="587.1188" x2="1897.7051" y2="1983.6675">
					<stop  offset="0" style="stop-color:#09005D"/>
					<stop  offset="1" style="stop-color:#1A0F91"/>
				</linearGradient>
				<path style="fill:url(#SVGID_00000118396171842869033610000000372435863845963416_);" d="M522.535,993.831v1202.184
					c0,98.896,78.808,179.769,177.67,182.318c439.096,11.322,1974.842,38.777,2392.833,32.616
					c71.841-1.059,130.04-58.549,132.113-130.369c8.06-279.284,21.15-950.867-27.293-1262.657
					c-10.202-65.66-65.624-114.758-132.038-116.883c-367.907-11.769-1995.899-49.142-2413.693-39.759
					C580.072,862.899,522.535,921.758,522.535,993.831z"/>
				<path style="fill:#7D97F4;" d="M597.969,987.979v1142.157c0,57.741,46.35,104.789,104.084,105.653l2330.851,28.797
					c57.239,0.855,104.158-45.196,104.372-102.441l3.899-1131.953c0.153-40.932-32.457-74.469-73.377-75.466l-2386.359-48.21
					C635.671,905.402,597.969,942.199,597.969,987.979z"/>
				<path style="fill:#7D97F4;" d="M3154.825,2311.91c-0.023,0-0.043,0-0.043,0l-2556.875-43.564
					c-2.068-0.037-3.717-1.743-3.682-3.811c0.034-2.068,1.72-3.698,3.809-3.684l2556.853,43.564
					c2.068,0.037,3.717,1.743,3.682,3.811C3158.534,2310.272,3156.863,2311.91,3154.825,2311.91z"/>
				
					<linearGradient id="SVGID_00000031914991147413871090000013785109683653281971_" gradientUnits="userSpaceOnUse" x1="2639.1809" y1="1939.2009" x2="2278.4609" y2="2405.8203">
					<stop  offset="0" style="stop-color:#09005D"/>
					<stop  offset="1" style="stop-color:#1A0F91"/>
				</linearGradient>
				<path style="fill:url(#SVGID_00000031914991147413871090000013785109683653281971_);" d="M2415.956,2901.582H1450.16
					c-26.238,0-45.941-18.679-40.868-38.742l12.393-49.011c3.727-14.739,19.942-25.561,39.202-26.161l931.062-29.053
					c20.121-0.628,37.938,10.053,42.322,25.371l22.341,78.064C2462.415,2882.331,2442.617,2901.582,2415.956,2901.582z"/>
			</g>
			<g style="opacity:0.56;">
				<path style="opacity:0.53;fill:#FFFFFF;" d="M1821.807,1195.773l-224.691-1.46c-4.336-0.028-7.826-3.479-7.794-7.705
					l0.228-30.26c0.032-4.222,3.567-7.62,7.899-7.592l224.691,1.46c4.336,0.028,7.826,3.479,7.794,7.705l-0.228,30.26
					C1829.674,1192.403,1826.139,1195.802,1821.807,1195.773z"/>
				<path style="opacity:0.53;fill:#FFFFFF;" d="M2341.471,1199.151l-449.803-2.923c-6.892-0.045-12.441-5.53-12.391-12.248
					l0.16-21.239c0.051-6.712,5.671-12.114,12.557-12.069l449.803,2.923c6.892,0.045,12.441,5.53,12.391,12.249l-0.16,21.239
					C2353.978,1193.793,2348.357,1199.195,2341.471,1199.151z"/>
				<path style="opacity:0.53;fill:#FFFFFF;" d="M1823.134,1275.932l-224.691-1.46c-4.336-0.028-7.826-3.479-7.794-7.705
					l0.228-30.26c0.032-4.222,3.567-7.62,7.899-7.592l224.691,1.46c4.336,0.028,7.826,3.479,7.794,7.705l-0.228,30.26
					C1831.001,1272.562,1827.466,1275.96,1823.134,1275.932z"/>
				<path style="opacity:0.53;fill:#FFFFFF;" d="M2729.548,1281.823l-670.535-4.358c-6.892-0.045-12.441-5.53-12.391-12.248
					l0.16-21.239c0.051-6.712,5.671-12.114,12.557-12.069l670.535,4.357c6.893,0.045,12.441,5.53,12.391,12.249l-0.16,21.239
					C2742.054,1276.465,2736.434,1281.867,2729.548,1281.823z"/>
				<path style="opacity:0.53;fill:#FFFFFF;" d="M1822.354,1355.96l-224.691-1.46c-4.336-0.028-7.826-3.479-7.794-7.705l0.228-30.26
					c0.032-4.222,3.567-7.62,7.899-7.592l224.691,1.46c4.336,0.028,7.826,3.479,7.794,7.705l-0.228,30.26
					C1830.221,1352.59,1826.686,1355.989,1822.354,1355.96z"/>
				<path style="opacity:0.53;fill:#FFFFFF;" d="M3024.829,1363.775l-881.313-5.727c-6.892-0.045-12.441-5.53-12.391-12.249
					l0.16-21.239c0.051-6.712,5.671-12.114,12.557-12.07l881.313,5.727c6.893,0.045,12.441,5.53,12.391,12.248l-0.16,21.239
					C3037.336,1358.417,3031.715,1363.82,3024.829,1363.775z"/>
				<path style="opacity:0.53;fill:#FFFFFF;" d="M1823.681,1436.119l-224.691-1.46c-4.336-0.028-7.826-3.479-7.794-7.705
					l0.228-30.26c0.032-4.222,3.567-7.62,7.899-7.592l224.691,1.46c4.336,0.028,7.826,3.479,7.794,7.705l-0.228,30.26
					C1831.548,1432.749,1828.013,1436.147,1823.681,1436.119z"/>
				<path style="opacity:0.53;fill:#FFFFFF;" d="M3028.988,1443.952l-881.313-5.727c-6.893-0.045-12.441-5.53-12.391-12.249
					l0.16-21.239c0.051-6.712,5.671-12.114,12.557-12.07l881.313,5.727c6.893,0.045,12.441,5.53,12.391,12.248l-0.16,21.239
					C3041.494,1438.594,3035.874,1443.997,3028.988,1443.952z"/>
				<path style="opacity:0.53;fill:#FFFFFF;" d="M1822.325,1519.277l-224.691-1.46c-4.336-0.028-7.826-3.479-7.794-7.705
					l0.228-30.26c0.032-4.222,3.567-7.62,7.899-7.592l224.691,1.46c4.336,0.028,7.826,3.479,7.794,7.705l-0.228,30.26
					C1830.192,1515.906,1826.656,1519.305,1822.325,1519.277z"/>
				<path style="opacity:0.53;fill:#FFFFFF;" d="M3026.563,1527.103l-881.313-5.727c-6.892-0.045-12.441-5.53-12.39-12.249
					l0.16-21.239c0.051-6.712,5.671-12.114,12.557-12.07l881.313,5.727c6.892,0.045,12.441,5.53,12.39,12.248l-0.16,21.239
					C3039.069,1521.745,3033.448,1527.147,3026.563,1527.103z"/>
				<path style="opacity:0.53;fill:#FFFFFF;" d="M1823.651,1599.435l-224.691-1.46c-4.336-0.028-7.826-3.479-7.794-7.705
					l0.228-30.26c0.032-4.222,3.567-7.62,7.899-7.592l224.691,1.46c4.336,0.028,7.826,3.479,7.794,7.705l-0.228,30.26
					C1831.518,1596.065,1827.983,1599.463,1823.651,1599.435z"/>
				<path style="opacity:0.53;fill:#FFFFFF;" d="M2418.913,1603.304l-530.291-3.446c-6.893-0.045-12.441-5.53-12.391-12.249
					l0.16-21.239c0.051-6.712,5.671-12.114,12.557-12.07l530.291,3.446c6.892,0.045,12.441,5.53,12.39,12.249l-0.16,21.239
					C2431.419,1597.946,2425.799,1603.348,2418.913,1603.304z"/>
				<path style="opacity:0.53;fill:#FFFFFF;" d="M1822.872,1679.464l-224.691-1.46c-4.336-0.028-7.826-3.479-7.794-7.705
					l0.228-30.26c0.032-4.222,3.567-7.62,7.899-7.592l224.691,1.46c4.336,0.028,7.826,3.479,7.794,7.705l-0.228,30.26
					C1830.739,1676.094,1827.203,1679.492,1822.872,1679.464z"/>
				<path style="opacity:0.53;fill:#FFFFFF;" d="M2680.436,1685.037l-667.283-4.336c-6.892-0.045-12.441-5.53-12.391-12.249
					l0.16-21.239c0.051-6.712,5.671-12.114,12.557-12.069l667.284,4.336c6.893,0.045,12.441,5.53,12.391,12.249l-0.16,21.239
					C2692.943,1679.679,2687.322,1685.081,2680.436,1685.037z"/>
				<path style="opacity:0.53;fill:#FFFFFF;" d="M1824.199,1759.622l-224.691-1.46c-4.336-0.028-7.826-3.479-7.794-7.705
					l0.228-30.26c0.032-4.222,3.567-7.62,7.899-7.592l224.691,1.46c4.336,0.028,7.826,3.479,7.794,7.705l-0.228,30.26
					C1832.066,1756.252,1828.53,1759.65,1824.199,1759.622z"/>
				<path style="opacity:0.53;fill:#FFFFFF;" d="M3030.725,1767.463l-912.095-5.927c-6.892-0.045-12.441-5.53-12.391-12.248
					l0.16-21.239c0.051-6.712,5.671-12.114,12.557-12.069l912.095,5.927c6.893,0.045,12.441,5.53,12.391,12.249l-0.16,21.239
					C3043.231,1762.105,3037.61,1767.508,3030.725,1767.463z"/>
				<path style="opacity:0.53;fill:#FFFFFF;" d="M1818.171,1998.765l-224.691-1.46c-4.336-0.028-7.826-3.479-7.794-7.705
					l0.228-30.26c0.032-4.222,3.567-7.62,7.899-7.592l224.691,1.46c4.336,0.028,7.826,3.479,7.794,7.705l-0.228,30.26
					C1826.038,1995.395,1822.502,1998.793,1818.171,1998.765z"/>
				<path style="opacity:0.53;fill:#FFFFFF;" d="M2413.432,2002.633l-530.291-3.446c-6.892-0.045-12.441-5.53-12.391-12.248
					l0.16-21.239c0.051-6.712,5.671-12.114,12.557-12.069l530.291,3.446c6.892,0.045,12.441,5.53,12.39,12.248l-0.16,21.239
					C2425.938,1997.276,2420.318,2002.678,2413.432,2002.633z"/>
				<path style="opacity:0.53;fill:#FFFFFF;" d="M1817.391,2078.793l-224.691-1.46c-4.336-0.028-7.826-3.479-7.794-7.705
					l0.228-30.26c0.032-4.222,3.567-7.62,7.899-7.592l224.691,1.46c4.336,0.028,7.826,3.479,7.794,7.705l-0.228,30.26
					C1825.258,2075.423,1821.722,2078.821,1817.391,2078.793z"/>
				<path style="opacity:0.53;fill:#FFFFFF;" d="M2674.583,2084.364l-667.284-4.336c-6.892-0.045-12.441-5.53-12.391-12.249
					l0.16-21.239c0.051-6.712,5.671-12.114,12.557-12.069l667.284,4.336c6.892,0.045,12.441,5.53,12.39,12.249l-0.16,21.239
					C2687.089,2079.006,2681.469,2084.408,2674.583,2084.364z"/>
				<path style="opacity:0.53;fill:#FFFFFF;" d="M1818.718,2158.952l-224.691-1.46c-4.336-0.028-7.826-3.479-7.794-7.705
					l0.228-30.26c0.032-4.222,3.567-7.62,7.899-7.592l224.691,1.46c4.336,0.028,7.826,3.479,7.794,7.705l-0.228,30.26
					C1826.585,2155.582,1823.049,2158.98,1818.718,2158.952z"/>
				<path style="opacity:0.53;fill:#FFFFFF;" d="M3024.872,2166.79l-912.095-5.927c-6.892-0.045-12.441-5.53-12.39-12.248
					l0.16-21.239c0.051-6.712,5.671-12.114,12.557-12.069l912.095,5.927c6.892,0.045,12.441,5.53,12.39,12.249l-0.16,21.239
					C3037.378,2161.433,3031.757,2166.835,3024.872,2166.79z"/>
				<path style="opacity:0.53;fill:#FFFFFF;" d="M1820.774,1841.116l-224.691-1.46c-4.336-0.028-7.826-3.479-7.794-7.705
					l0.228-30.26c0.032-4.222,3.567-7.62,7.899-7.592l224.691,1.46c4.336,0.028,7.826,3.479,7.794,7.705l-0.229,30.26
					C1828.641,1837.746,1825.105,1841.144,1820.774,1841.116z"/>
				<path style="opacity:0.53;fill:#FFFFFF;" d="M3022.945,1848.928l-912.095-5.927c-6.892-0.045-12.441-5.53-12.391-12.248
					l0.16-21.239c0.051-6.712,5.671-12.114,12.557-12.07l912.095,5.927c6.893,0.045,12.441,5.53,12.391,12.248l-0.16,21.239
					C3035.451,1843.571,3029.831,1848.973,3022.945,1848.928z"/>
				<path style="opacity:0.53;fill:#FFFFFF;" d="M1822.1,1921.275l-224.691-1.46c-4.336-0.028-7.826-3.479-7.794-7.705l0.228-30.26
					c0.032-4.222,3.567-7.62,7.899-7.592l224.691,1.46c4.336,0.028,7.826,3.479,7.794,7.705l-0.228,30.26
					C1829.967,1917.904,1826.432,1921.303,1822.1,1921.275z"/>
				<path style="opacity:0.53;fill:#FFFFFF;" d="M3027.266,1929.106l-912.095-5.927c-6.892-0.045-12.441-5.53-12.391-12.249
					l0.16-21.239c0.051-6.712,5.671-12.114,12.557-12.07l912.095,5.927c6.893,0.045,12.441,5.53,12.391,12.248l-0.16,21.239
					C3039.772,1923.749,3034.152,1929.151,3027.266,1929.106z"/>
				<path style="opacity:0.35;fill:#FFFFFF;" d="M1484.039,1642.479H718.36c-29.861,0-54.069-10.415-54.069-23.264v-484.138
					c0-13.02,24.834-23.505,55.089-23.26l768.697,6.24c29.516,0.24,53.129,10.621,53.049,23.323l-3.018,477.897
					C1538.027,1632.102,1513.843,1642.479,1484.039,1642.479z"/>
				<path style="opacity:0.35;fill:#FFFFFF;" d="M1480.736,2206.175H715.057c-29.861,0-54.069-10.416-54.069-23.264v-484.138
					c0-13.02,24.834-23.505,55.089-23.26l768.697,6.24c29.516,0.24,53.129,10.621,53.049,23.323l-3.018,477.897
					C1534.724,2195.798,1510.54,2206.175,1480.736,2206.175z"/>
			</g>
			
				<linearGradient id="SVGID_00000033366092085175081000000011323354614100579730_" gradientUnits="userSpaceOnUse" x1="1948.5662" y1="365.0944" x2="1799.6442" y2="1616.0343">
				<stop  offset="0" style="stop-color:#4F52FF"/>
				<stop  offset="1" style="stop-color:#4042E2"/>
			</linearGradient>
			<path style="fill:url(#SVGID_00000033366092085175081000000011323354614100579730_);" d="M3141.022,1074.373l0.152-44.194
				c0.154-40.931-32.457-74.463-73.376-75.459L681.506,906.513c-45.767-1.114-83.402,35.685-83.402,81.465v86.394H3141.022z"/>
			<circle style="fill:#7D97F4;" cx="717.24" cy="994.948" r="39.712"/>
			<circle style="fill:#7D97F4;" cx="958.817" cy="994.946" r="39.712"/>
			<circle style="fill:#7D97F4;" cx="836.375" cy="994.948" r="39.712"/>
		</g>
		<g>
			<path style="fill:#7D97F4;" d="M946.411,3206.774c-3.702,0-6.703-1.863-6.703-4.161v-497.384c0-2.298,3.001-4.161,6.703-4.161
				c3.703,0,6.703,1.863,6.703,4.161v497.384C953.114,3204.911,950.114,3206.774,946.411,3206.774z"/>
			<path style="fill:#7D97F4;" d="M738.28,3206.774c-3.702,0-6.703-1.863-6.703-4.161v-497.384c0-2.298,3.001-4.161,6.703-4.161
				c3.702,0,6.702,1.863,6.702,4.161v497.384C744.982,3204.911,741.982,3206.774,738.28,3206.774z"/>
			<path style="fill:#7D97F4;" d="M502.059,3206.939c-1.448,3.409,0.141,7.344,3.547,8.792c0.857,0.364,1.744,0.536,2.619,0.536
				c2.607,0,5.087-1.532,6.171-4.082l217.287-511.114c-4.66-0.216-9.32-0.725-13.981-1.381L502.059,3206.939z"/>
			<path style="fill:#7D97F4;" d="M713.778,3206.939c-1.448,3.409,0.141,7.344,3.547,8.792c0.856,0.364,1.744,0.536,2.619,0.536
				c2.606,0,5.087-1.532,6.171-4.082l219.132-515.455c-4.723-0.33-9.463-0.604-14.215-0.826L713.778,3206.939z"/>
			<path style="fill:#7D97F4;" d="M970.302,2711.722H520.073c-4.627,0-8.378-3.751-8.378-8.378l0,0c0-4.627,3.751-8.378,8.378-8.378
				h450.228c4.627,0,8.378,3.751,8.378,8.378l0,0C978.68,2707.971,974.929,2711.722,970.302,2711.722z"/>
			<rect x="665.382" y="2833.129" style="fill:#7D97F4;" width="212.345" height="13.405"/>
			<path style="fill:#7D97F4;" d="M821.509,2979.166H609.163c-3.702,0-6.703-3-6.703-6.703s3.001-6.703,6.703-6.703h212.346
				c3.702,0,6.703,3.001,6.703,6.703S825.211,2979.166,821.509,2979.166z"/>
			<path style="fill:#7D97F4;" d="M764.176,3108.478H551.831c-3.702,0-6.703-3-6.703-6.702c0-3.702,3.001-6.703,6.703-6.703h212.345
				c3.703,0,6.703,3,6.703,6.703C770.878,3105.477,767.878,3108.478,764.176,3108.478z"/>
		</g>
		<g>
			<g>
				<g>
					
						<linearGradient id="SVGID_00000053523941141238395850000000945010379088563113_" gradientUnits="userSpaceOnUse" x1="-284.3779" y1="3351.5374" x2="-282.042" y2="3599.1445" gradientTransform="matrix(-1 0 0 1 2142.803 0)">
						<stop  offset="0" style="stop-color:#09005D"/>
						<stop  offset="1" style="stop-color:#1A0F91"/>
					</linearGradient>
					<path style="fill:url(#SVGID_00000053523941141238395850000000945010379088563113_);" d="M2502.305,3059.517
						c0,0,2.904,16.126,4.051,35.27c0.489,8.157-5.556,15.245-13.69,16.034c-28.323,2.747-92.795,7.82-133.961,1.879
						c-5.766-0.832-8.057-7.916-3.794-11.887c16.975-15.815,57.968-46.576,125.44-53.301L2502.305,3059.517z"/>
					
						<linearGradient id="SVGID_00000066499587351310888510000013243275516720338864_" gradientUnits="userSpaceOnUse" x1="-344.0634" y1="3075.0225" x2="-356.911" y2="2974.5789" gradientTransform="matrix(-1 0 0 1 2142.803 0)">
						<stop  offset="0" style="stop-color:#FEBBBA"/>
						<stop  offset="1" style="stop-color:#FF928E"/>
					</linearGradient>
					<path style="fill:url(#SVGID_00000066499587351310888510000013243275516720338864_);" d="M2516.385,3023.166l-14.32,35.1
						c-1.963,4.81-6.842,7.8-12.009,7.26c-3.507-0.366-7.659-1.04-11.698-2.266c-8.082-2.453-12.639-11.02-10.22-19.111
						l10.808-36.152L2516.385,3023.166z"/>
					
						<linearGradient id="SVGID_00000011747212737787441480000004562294069627164052_" gradientUnits="userSpaceOnUse" x1="-618.9114" y1="3354.6919" x2="-616.5755" y2="3602.2979" gradientTransform="matrix(-1 0 0 1 2142.803 0)">
						<stop  offset="0" style="stop-color:#09005D"/>
						<stop  offset="1" style="stop-color:#1A0F91"/>
					</linearGradient>
					<path style="fill:url(#SVGID_00000011747212737787441480000004562294069627164052_);" d="M2761.213,3087.472
						c0,0-28.675,23.992-39.848,54.769c-3.073,8.465,3.422,17.382,12.427,17.382h59.01c8.637,0,15.259-7.77,13.754-16.275
						C2802.797,3122.096,2791.958,3087.561,2761.213,3087.472z"/>
					
						<linearGradient id="SVGID_00000150103163279296607920000015247091514303377849_" gradientUnits="userSpaceOnUse" x1="-624.8638" y1="3109.4478" x2="-637.3834" y2="3011.5676" gradientTransform="matrix(-1 0 0 1 2142.803 0)">
						<stop  offset="0" style="stop-color:#FEBBBA"/>
						<stop  offset="1" style="stop-color:#FF928E"/>
					</linearGradient>
					<path style="fill:url(#SVGID_00000150103163279296607920000015247091514303377849_);" d="M2796.736,3056.247
						c0,0-5.792,25.637-10.244,42.581c-0.808,3.075-4.09,4.762-7.084,3.692c-8.931-3.193-16.197-4.605-21.48-3.896
						c-2.442,0.327-4.574-1.704-4.606-4.168l-0.555-42.583L2796.736,3056.247z"/>
					
						<linearGradient id="SVGID_00000113346849466231408040000000028042967102932127_" gradientUnits="userSpaceOnUse" x1="-712.3546" y1="2737.5195" x2="-327.0032" y2="2737.5195" gradientTransform="matrix(-1 0 0 1 2142.803 0)">
						<stop  offset="0" style="stop-color:#09005D"/>
						<stop  offset="1" style="stop-color:#1A0F91"/>
					</linearGradient>
					<path style="fill:url(#SVGID_00000113346849466231408040000000028042967102932127_);" d="M2644.227,2479.356l-174.421,532.112
						c0,0,33.455,21.91,49.394,20.997l207.171-427.639c0,0,36.254,263.496,18.687,452.667l59.34,4.527
						c0,0,96.488-483.426,23.405-649.002L2644.227,2479.356z"/>
					
						<linearGradient id="SVGID_00000150099668993742281360000001309508101530758330_" gradientUnits="userSpaceOnUse" x1="-632.4249" y1="2678.3982" x2="-618.4092" y2="2650.3672" gradientTransform="matrix(-1 0 0 1 2142.803 0)">
						<stop  offset="0" style="stop-color:#4F52FF"/>
						<stop  offset="1" style="stop-color:#4042E2"/>
					</linearGradient>
					<path style="fill:url(#SVGID_00000150099668993742281360000001309508101530758330_);" d="M2725.251,2600.23
						c0.069,0,0.142-0.005,0.213-0.013c0.925-0.117,1.581-0.962,1.464-1.887l-6.768-53.725c-0.115-0.924-0.952-1.569-1.887-1.465
						c-0.925,0.117-1.581,0.961-1.464,1.887l6.768,53.725C2723.684,2599.606,2724.411,2600.23,2725.251,2600.23z"/>
				</g>
				
					<linearGradient id="SVGID_00000129911115874583903650000015798736951755851680_" gradientUnits="userSpaceOnUse" x1="2976.7092" y1="1754.5616" x2="2884.0471" y2="1906.7924">
					<stop  offset="0" style="stop-color:#FF928E"/>
					<stop  offset="1" style="stop-color:#FE7062"/>
				</linearGradient>
				<path style="fill:url(#SVGID_00000129911115874583903650000015798736951755851680_);" d="M2611.526,2011.124
					c0,0,141.314,12.549,121.324,113.238c0,0,78.115,147.003,114.635,320.171c1.189,5.635-2.587,11.131-8.263,12.103
					l-235.334,40.294c-6.492,1.112-12.753-2.937-14.403-9.313l-56.229-217.315l-21.911,101.038l-69.622-18.141l58.61-296.896
					C2500.333,2056.303,2508.51,2012.986,2611.526,2011.124z"/>
				
					<linearGradient id="SVGID_00000174589939495295668860000016463278760461992895_" gradientUnits="userSpaceOnUse" x1="2712.8818" y1="1993.0646" x2="2650.0037" y2="2065.8706">
					<stop  offset="0" style="stop-color:#E1473D"/>
					<stop  offset="1" style="stop-color:#E9605A"/>
				</linearGradient>
				<path style="fill:url(#SVGID_00000174589939495295668860000016463278760461992895_);" d="M2532.06,2260.582
					c0.123,0,0.248-0.012,0.375-0.04c0.945-0.207,1.545-1.139,1.34-2.085l-19.617-90.074c-0.207-0.945-1.127-1.54-2.085-1.34
					c-0.944,0.207-1.545,1.139-1.34,2.085l19.617,90.074C2530.529,2260.022,2531.253,2260.582,2532.06,2260.582z"/>
				
					<linearGradient id="SVGID_00000178182338009061184400000012034304201533953177_" gradientUnits="userSpaceOnUse" x1="-530.2399" y1="2466.584" x2="-354.7718" y2="2466.584" gradientTransform="matrix(-1 0 0 1 2142.803 0)">
					<stop  offset="0" style="stop-color:#FEBBBA"/>
					<stop  offset="1" style="stop-color:#FF928E"/>
				</linearGradient>
				<path style="fill:url(#SVGID_00000178182338009061184400000012034304201533953177_);" d="M2546.264,2528.618
					c7.414-4.076,16.092-5.205,24.301-3.161l16.373,4.075c3.481,0.867,6.929-1.529,7.329-5.094l16.944-150.813
					c21.187,10.061,51.751,8.859,61.831,8.122l-38.998,177.797h-136.47L2546.264,2528.618z"/>
				
					<linearGradient id="SVGID_00000134950303434215897530000001805769881282625158_" gradientUnits="userSpaceOnUse" x1="-368.5418" y1="2246.6243" x2="-40.8628" y2="2246.6243" gradientTransform="matrix(-1 0 0 1 2142.803 0)">
					<stop  offset="0" style="stop-color:#FEBBBA"/>
					<stop  offset="1" style="stop-color:#FF928E"/>
				</linearGradient>
				<path style="fill:url(#SVGID_00000134950303434215897530000001805769881282625158_);" d="M2183.666,2201.486l4.125-13.708
					c2.374-7.889,8.205-14.271,15.849-17.344l74.604-30.001c0,0,1.126-9.568-15.763-16.07
					c-16.889-6.501-12.941-25.417-12.941-25.417s23.074,10.526,56.852,27.219c19.319,9.547,30.157,26.403,35.904,39.091
					l169.048,206.084l-19.847,13.637c-26.098,17.932-61.994,9.123-76.826-18.854l-91.579-175.61
					C2277.114,2204.324,2230.587,2206.966,2183.666,2201.486z"/>
				<g>
					
						<linearGradient id="SVGID_00000145030307352659621710000016568242202607569041_" gradientUnits="userSpaceOnUse" x1="-486.5116" y1="2062.8403" x2="-372.4716" y2="1945.8384" gradientTransform="matrix(-1 0 0 1 2142.803 0)">
						<stop  offset="0" style="stop-color:#FEBBBA"/>
						<stop  offset="1" style="stop-color:#FF928E"/>
					</linearGradient>
					<path style="fill:url(#SVGID_00000145030307352659621710000016568242202607569041_);" d="M2565.746,1914.986l43.464,121.645
						c0,0-38.487,30.089-66.573,19.915l-21.903-69.73C2520.734,1986.816,2537.462,1901.592,2565.746,1914.986z"/>
					<g>
						
							<linearGradient id="SVGID_00000042733863963963900710000001273089793101136269_" gradientUnits="userSpaceOnUse" x1="-321.1252" y1="1872.1206" x2="-463.3046" y2="2060.2124" gradientTransform="matrix(-1 0 0 1 2142.803 0)">
							<stop  offset="0" style="stop-color:#FEBBBA"/>
							<stop  offset="1" style="stop-color:#FF928E"/>
						</linearGradient>
						<path style="fill:url(#SVGID_00000042733863963963900710000001273089793101136269_);" d="M2436.027,1871.298
							c0,1.875,41.868,118.523,41.868,118.523l66.096-25.322l-23.257-116.454
							C2520.734,1848.046,2436.027,1839.917,2436.027,1871.298z"/>
						
							<linearGradient id="SVGID_00000071538748173522693950000009174148210295249333_" gradientUnits="userSpaceOnUse" x1="-429.7097" y1="1917.4928" x2="-259.8742" y2="1917.4928" gradientTransform="matrix(-1 0 0 1 2142.803 0)">
							<stop  offset="0" style="stop-color:#09005D"/>
							<stop  offset="1" style="stop-color:#1A0F91"/>
						</linearGradient>
						<path style="fill:url(#SVGID_00000071538748173522693950000009174148210295249333_);" d="M2509.14,1876.417l17.043,60.345
							c0.219,0.774,0.331,1.553,0.332,2.358c0.007,4.922-1.212,21.857-18.463,19.554c-15.653-2.09-29.969-3.765-39.073,0.523
							c-4.088,1.925-6.043,6.629-4.516,10.881c3.807,10.597,12.827,34.319,23.808,53.732c2.228,3.94,7.115,5.472,11.235,3.598
							c12.414-5.648,38.262-18.292,56.673-33.335c2.494-2.038,3.693-5.244,3.099-8.411c-2.896-15.437-11.525-62.388-11.906-75.843
							c-0.358-12.629,13.814-22.271,20.052-25.895c2.046-1.188,3.501-3.145,4.055-5.445c1.958-8.129,3.62-26.526-19.846-30.58
							c-4.911-0.849-8.113-5.549-7.116-10.433c1.985-9.721,1.35-24.028-17.111-29.297c-18.764-5.356-30.572,5.939-36.577,14.6
							c-2.428,3.502-6.972,4.638-10.863,2.899c-2.215-0.99-4.891-1.033-7.767,1.391c-3.875,3.266-9.773,2.272-12.622-1.92
							c-5.471-8.054-15.411-16.093-32.24-10.648c-29.861,9.662-28.434,44.091-17.488,62.808
							c10.946,18.717,42.726,6.401,57.771-6.002c11.438-9.43,28.855-3.789,36.547-0.543
							C2506.606,1871.784,2508.421,1873.871,2509.14,1876.417z"/>
						
							<linearGradient id="SVGID_00000096740469879864868880000008204224794447047359_" gradientUnits="userSpaceOnUse" x1="-529.3617" y1="2021.0736" x2="-415.323" y2="1904.073" gradientTransform="matrix(-1 0 0 1 2142.803 0)">
							<stop  offset="0" style="stop-color:#FEBBBA"/>
							<stop  offset="1" style="stop-color:#FF928E"/>
						</linearGradient>
						<path style="fill:url(#SVGID_00000096740469879864868880000008204224794447047359_);" d="M2553.36,1931.852
							c0,0-17.674-33.432-5.987-43.93c11.687-10.499,31.487-8.78,30.954,17.363
							C2577.664,1937.804,2553.36,1931.852,2553.36,1931.852z"/>
					</g>
				</g>
				
					<linearGradient id="SVGID_00000066487289689104943310000000588033944554373805_" gradientUnits="userSpaceOnUse" x1="2833.3079" y1="1954.7169" x2="2773.7395" y2="2058.9617">
					<stop  offset="0" style="stop-color:#E1473D"/>
					<stop  offset="1" style="stop-color:#E9605A"/>
				</linearGradient>
				<path style="fill:url(#SVGID_00000066487289689104943310000000588033944554373805_);" d="M2659.33,2384.01
					c9.644,0,16.529-0.732,17.273-0.814l1.254-0.141l51.456-239.909c0.204-0.946-0.398-1.878-1.344-2.08
					c-0.956-0.21-1.877,0.401-2.08,1.345l-50.923,237.42c-7.657,0.673-48.551,3.388-70.139-11.906l44.575-208.434l-9.304-17.533
					c-0.453-0.855-1.514-1.18-2.369-0.727c-0.856,0.455-1.181,1.515-0.727,2.37l8.708,16.407l-44.781,209.392l0.895,0.673
					C2617.422,2381.791,2642.548,2384.01,2659.33,2384.01z"/>
			</g>
			<g>
				<path style="fill:#7D97F4;" d="M2592.744,3180.167c1.336,0,2.694-0.292,4-0.904c5.141-2.414,7.516-8.919,5.304-14.531
					l-212.526-539.247c-2.21-5.61-8.167-8.2-13.314-5.79c-5.141,2.414-7.516,8.92-5.304,14.531l212.526,539.248
					C2585.08,3177.659,2588.817,3180.167,2592.744,3180.167z"/>
				<path style="fill:#7D97F4;" d="M2353.324,3180.167c3.927,0,7.665-2.506,9.314-6.693l212.526-539.248
					c2.212-5.611-0.164-12.117-5.304-14.531c-5.138-2.414-11.1,0.177-13.314,5.79l-212.525,539.247
					c-2.212,5.611,0.163,12.117,5.303,14.531C2350.629,3179.875,2351.989,3180.167,2353.324,3180.167z"/>
				<path style="fill:#7D97F4;" d="M1688.109,3180.167c1.336,0,2.693-0.292,3.999-0.904c5.141-2.414,7.516-8.919,5.304-14.531
					l-212.526-539.247c-2.212-5.61-8.165-8.2-13.313-5.79c-5.141,2.414-7.516,8.92-5.304,14.531l212.526,539.248
					C1680.444,3177.659,1684.182,3180.167,1688.109,3180.167z"/>
				<path style="fill:#7D97F4;" d="M1448.691,3180.167c3.927,0,7.664-2.506,9.313-6.693l212.526-539.248
					c2.212-5.611-0.163-12.117-5.304-14.531c-5.137-2.414-11.1,0.177-13.313,5.79l-212.526,539.247
					c-2.212,5.611,0.163,12.117,5.304,14.531C1445.996,3179.875,1447.355,3180.167,1448.691,3180.167z"/>
			</g>
			<g>
				<rect x="1805.503" y="2816.788" style="fill:#7D97F4;" width="25.127" height="271.741"/>
				<path style="fill:#7D97F4;" d="M1708.025,3093.768h220.082v-7.292c0-5.007-4.059-9.065-9.065-9.065h-201.951
					c-5.007,0-9.065,4.059-9.065,9.065V3093.768z"/>
				<path style="fill:#7D97F4;" d="M1675.363,2807.357c0,14.862,12.16,27.022,27.022,27.022h222.666
					c14.862,0,27.022-12.16,27.022-27.022v-24.434c0-14.862-12.16-27.022-27.022-27.022h-222.666
					c-14.862,0-27.022,12.16-27.022,27.022V2807.357z"/>
			</g>
			<g>
				
					<linearGradient id="SVGID_00000103257139731950117240000004085603987379194528_" gradientUnits="userSpaceOnUse" x1="2378.3018" y1="2550.1619" x2="1901.7539" y2="2956.1104">
					<stop  offset="0" style="stop-color:#FEBBBA"/>
					<stop  offset="1" style="stop-color:#FF928E"/>
				</linearGradient>
				<path style="fill:url(#SVGID_00000103257139731950117240000004085603987379194528_);" d="M2003.571,2635.6
					c0,0,37.339,5.789,79.319,33.852c6.607,4.417,10.231,12.115,9.236,20c-5.027,39.818-25.695,168.698-93.85,294.574
					c-3.594,6.637-4.626,14.364-3.041,21.744l11.841,55.104l21.959,20.59h-56.56l-37.659-101.912l16.103-5.092
					c12.486-3.948,21.052-15.432,21.278-28.525l1.89-109.323c-1.612-48.706,29.865-82.312,29.865-82.312l-90.329-4.395
					L2003.571,2635.6z"/>
				
					<linearGradient id="SVGID_00000109718489145501490040000002407080677513001914_" gradientUnits="userSpaceOnUse" x1="159.8335" y1="2974.9509" x2="133.5545" y2="3377.8953" gradientTransform="matrix(-1 0 0 1 2142.803 0)">
					<stop  offset="0" style="stop-color:#4F52FF"/>
					<stop  offset="1" style="stop-color:#4042E2"/>
				</linearGradient>
				<path style="fill:url(#SVGID_00000109718489145501490040000002407080677513001914_);" d="M2051.12,3091.404
					c5.151,6.742-55.439,15.638-86.052,0.893c0,0-42.435-73.831-42.435-111.844c0,0,3.368-7.75,28.285-5.993
					c0,0,14.248,87.419,29.293,97.211c15.045,9.793,42.092,0.991,42.092,0.991S2043.52,3081.458,2051.12,3091.404z"/>
				
					<linearGradient id="SVGID_00000070798025563307593440000012872650342830271384_" gradientUnits="userSpaceOnUse" x1="2097.2891" y1="2868.2781" x2="2443.6685" y2="3066.8394">
					<stop  offset="0" style="stop-color:#FEBBBA"/>
					<stop  offset="1" style="stop-color:#FF928E"/>
				</linearGradient>
				<path style="fill:url(#SVGID_00000070798025563307593440000012872650342830271384_);" d="M1925.051,2755.901
					c0.48-0.832,97.252-11.636,97.252-11.636s-3.167,29.424,6.731,69.928c9.897,40.504,151.98,215.991,151.98,215.991
					l-14.898,47.227c46.062,16.045,91.372,18.611,135.957,8.178l-92.327-55.405c0,0-86.408-294.46-139.334-346.991l-97.002-33.56
					L1925.051,2755.901z"/>
				
					<linearGradient id="SVGID_00000176727145861314931040000016855500211784149379_" gradientUnits="userSpaceOnUse" x1="2060.4246" y1="2239.6375" x2="2029.5371" y2="2305.8245">
					<stop  offset="0" style="stop-color:#E1473D"/>
					<stop  offset="1" style="stop-color:#E9605A"/>
				</linearGradient>
				<path style="fill:url(#SVGID_00000176727145861314931040000016855500211784149379_);" d="M1708.025,2584.564
					c0,0-55.755,82.929-60.33,120.757c-4.575,37.828,15.273,53.199,73.774,55.734c58.501,2.534,214.675,2.495,214.675,2.495
					l133.293-113.916c0,0-97.138-34.662-122.392-44.462C1921.789,2595.371,1708.025,2584.564,1708.025,2584.564z"/>
				
					<linearGradient id="SVGID_00000122692383799832853450000007081572648971851959_" gradientUnits="userSpaceOnUse" x1="-93.7561" y1="2958.4128" x2="-120.0351" y2="3361.3567" gradientTransform="matrix(-1 0 0 1 2142.803 0)">
					<stop  offset="0" style="stop-color:#4F52FF"/>
					<stop  offset="1" style="stop-color:#4042E2"/>
				</linearGradient>
				<path style="fill:url(#SVGID_00000122692383799832853450000007081572648971851959_);" d="M2171.746,3061.507
					c0,0-16.039,15.535-5.205,32.82c0,0,127.057,22.521,161.554,12.302c0,0-7.163-16.349-46.007-34.958l2.866,2.2
					c3.627,2.784,1.5,8.584-3.066,8.324C2256.292,3080.736,2203.319,3076.047,2171.746,3061.507z"/>
			</g>
			<g>
				
					<linearGradient id="SVGID_00000068642931753262833470000016359473265668342195_" gradientUnits="userSpaceOnUse" x1="1864.8317" y1="2193.3596" x2="2132.8901" y2="1921.9921">
					<stop  offset="0" style="stop-color:#E1473D"/>
					<stop  offset="1" style="stop-color:#E9605A"/>
				</linearGradient>
				<path style="fill:url(#SVGID_00000068642931753262833470000016359473265668342195_);" d="M1820.701,2118.698
					c-8.425,2.628-38.793,13.527-34.872,33.058c0.52,2.591-1.922,4.783-4.474,4.096c-13.084-3.522-41.991-7.962-59.909,14.49
					c-15.82,19.824-3.998,38.53,5.642,48.799c2.328,2.48,0.371,6.506-3.003,6.08c-24.057-3.037-76.329-3.765-84.882,45.203
					c-7.975,45.665,23.808,58.541,42.658,62.172c3.189,0.615,3.935,4.806,1.192,6.546c-9.404,5.966-20.299,18.293-15.897,42.622
					c6.901,38.132,81.662,35.011,90.399,34.514c0.553-0.032,1.077-0.192,1.558-0.466l119.747-68.294
					c0.933-0.532,1.58-1.454,1.764-2.513l24.175-139.617c0.196-1.129-0.158-2.284-0.953-3.11l-79.501-82.631
					C1823.401,2118.665,1822.002,2118.293,1820.701,2118.698z"/>
				
					<linearGradient id="SVGID_00000068647875320286234810000011759101427644413831_" gradientUnits="userSpaceOnUse" x1="259.377" y1="2324.3257" x2="459.7126" y2="2760.3496" gradientTransform="matrix(-1 0 0 1 2142.803 0)">
					<stop  offset="0" style="stop-color:#FF928E"/>
					<stop  offset="1" style="stop-color:#FE7062"/>
				</linearGradient>
				<path style="fill:url(#SVGID_00000068647875320286234810000011759101427644413831_);" d="M1858.808,2573.587
					c0,0,64.927-61.824,96.886-102.771c17.276-22.135,22.701-51.274,14.712-78.192c-14.591-49.159-40.523-100.074-42.887-107.998
					c-3.625-12.146-76.424-11.64-76.424-11.64s-143.255,92.974-199.541,250.465l63.212,19.679c0,0,37.404-62.752,74.361-102.649
					c0,0-63.949,84.479-66.202,119.063L1858.808,2573.587z"/>
				
					<linearGradient id="SVGID_00000007422527232839279600000001958575457237707700_" gradientUnits="userSpaceOnUse" x1="264.2054" y1="2353.2837" x2="245.3474" y2="2232.2788" gradientTransform="matrix(-1 0 0 1 2142.803 0)">
					<stop  offset="0" style="stop-color:#FEBBBA"/>
					<stop  offset="1" style="stop-color:#FF928E"/>
				</linearGradient>
				<path style="fill:url(#SVGID_00000007422527232839279600000001958575457237707700_);" d="M1936.323,2216.742
					c-0.76,2.525-19.761,65.516-21.247,66.824c-1.487,1.307-41.67,3.469-60.585-9.458l32.089-67.175L1936.323,2216.742z"/>
				<g>
					
						<linearGradient id="SVGID_00000101094281188447115850000007672562435155155858_" gradientUnits="userSpaceOnUse" x1="182.6976" y1="2125.2383" x2="349.2757" y2="2238.3855" gradientTransform="matrix(-1 0 0 1 2142.803 0)">
						<stop  offset="0" style="stop-color:#FEBBBA"/>
						<stop  offset="1" style="stop-color:#FF928E"/>
					</linearGradient>
					<path style="fill:url(#SVGID_00000101094281188447115850000007672562435155155858_);" d="M1905.111,2084.437
						c0,0,34.302,14.485,57.626,64.053s5.906,72.455-15.972,75.597c-21.878,3.142-54.597,2.664-89.205-29.357
						C1822.952,2162.709,1860.519,2067.267,1905.111,2084.437z"/>
					
						<linearGradient id="SVGID_00000103242184598176414670000010507598302839264443_" gradientUnits="userSpaceOnUse" x1="1828.1178" y1="2157.0935" x2="2096.176" y2="1885.7258">
						<stop  offset="0" style="stop-color:#E1473D"/>
						<stop  offset="1" style="stop-color:#E9605A"/>
					</linearGradient>
					<path style="fill:url(#SVGID_00000103242184598176414670000010507598302839264443_);" d="M1880.824,2168.266
						c0,0-25.88-72.521,38.416-73.377l15.129,10.574c0,0,23.592-40.208-15.129-59.401s-84.037-3.339-100.515,48.827
						c-16.477,52.166-19.291,87.086,8.122,112.044c27.414,24.958,38.711-3.341,38.711-3.341s-14.928-23.344-8.851-35.833
						c6.077-12.49,20.094,2.583,20.094,2.583L1880.824,2168.266z"/>
					
						<linearGradient id="SVGID_00000111174602093544417300000011008231425280704920_" gradientUnits="userSpaceOnUse" x1="169.9198" y1="2103.5042" x2="362.8091" y2="2234.5232" gradientTransform="matrix(-1 0 0 1 2142.803 0)">
						<stop  offset="0" style="stop-color:#FEBBBA"/>
						<stop  offset="1" style="stop-color:#FF928E"/>
					</linearGradient>
					<path style="fill:url(#SVGID_00000111174602093544417300000011008231425280704920_);" d="M1883.541,2177.998
						c0,0-12.719-36.915-30.541-22.48c-23.151,18.751,10.552,36.98,26.575,40.866L1883.541,2177.998z"/>
				</g>
				
					<linearGradient id="SVGID_00000177442205242279753580000014727560493706565301_" gradientUnits="userSpaceOnUse" x1="372.4681" y1="2562.8035" x2="726.6352" y2="2562.8035" gradientTransform="matrix(-1 0 0 1 2142.803 0)">
					<stop  offset="0" style="stop-color:#FEBBBA"/>
					<stop  offset="1" style="stop-color:#FF928E"/>
				</linearGradient>
				<path style="fill:url(#SVGID_00000177442205242279753580000014727560493706565301_);" d="M1991.079,2578.177l-47.703-45.979
					l-65.99,27.878c0,0-65.687,10.177-103.281,0c-37.595-10.177-37.595-10.177-37.595-10.177l-84.957-26.449l-13.343,37.709
					c-3.388,9.574,0.016,20.203,8.295,26.085c7.349,5.223,15.965,10.963,21.456,13.366c11.188,4.894,275.795-3.386,275.795-3.386
					L1991.079,2578.177z"/>
			</g>
			<g>
				
					<linearGradient id="SVGID_00000109737309899294816460000002422096242586656933_" gradientUnits="userSpaceOnUse" x1="1958.0302" y1="2315.5369" x2="1949.2052" y2="2597.9343">
					<stop  offset="0" style="stop-color:#4F52FF"/>
					<stop  offset="1" style="stop-color:#4042E2"/>
				</linearGradient>
				<path style="fill:url(#SVGID_00000109737309899294816460000002422096242586656933_);" d="M1810.556,2599.854
					c0.211,0.01,0.423,0.016,0.636,0.015l276.715-0.302c6.84-0.006,12.38-5.558,12.373-12.398
					c-0.007-6.843-5.578-12.496-12.4-12.373l-276.715,0.302c-6.841,0.006-12.38,5.557-12.373,12.398
					C1798.8,2594.122,1804.012,2599.53,1810.556,2599.854z"/>
				
					<linearGradient id="SVGID_00000114034542296684598170000013700358932253056171_" gradientUnits="userSpaceOnUse" x1="2162.5662" y1="2321.9277" x2="2153.7412" y2="2604.3262">
					<stop  offset="0" style="stop-color:#4F52FF"/>
					<stop  offset="1" style="stop-color:#4042E2"/>
				</linearGradient>
				<path style="fill:url(#SVGID_00000114034542296684598170000013700358932253056171_);" d="M2336.663,2348.613h-230.451
					c-17,0-32.474,9.811-39.726,25.187l-106.537,225.906h286.388c10.956,0,20.799-6.694,24.825-16.883l82.615-209.042
					C2358.552,2361.702,2349.65,2348.613,2336.663,2348.613z"/>
				<path style="fill:#7D97F4;" d="M2174.308,2464.442c-4.994,15.515-1.305,30.584,8.24,33.656
					c9.545,3.072,21.331-7.015,26.325-22.53s1.304-30.584-8.24-33.656C2191.088,2438.839,2179.302,2448.926,2174.308,2464.442z"/>
			</g>
			<g>
				<path style="fill:#91B3FA;" d="M2365.547,2591.017l272.335,0.001v-28.105l-272.335,0
					C2371.376,2562.913,2371.376,2591.017,2365.547,2591.017z"/>
				
					<linearGradient id="SVGID_00000047765920845529244950000007829316848458966678_" gradientUnits="userSpaceOnUse" x1="2547.9116" y1="2119.3623" x2="2530.3315" y2="2336.9163">
					<stop  offset="0" style="stop-color:#E1473D"/>
					<stop  offset="1" style="stop-color:#E9605A"/>
				</linearGradient>
				<path style="fill:url(#SVGID_00000047765920845529244950000007829316848458966678_);" d="M2634.573,2591.017
					c1.82,0,3.309-1.489,3.309-3.309v-21.486c0-1.82-1.489-3.309-3.309-3.309h-274.021c-1.82,0-3.309-1.43-3.309-3.177
					c0-1.748,1.489-3.178,3.309-3.178h292.924c6.496,0,11.762,5.266,11.762,11.762v17.963c0,6.125-4.965,11.09-11.089,11.09
					h-293.597c-1.82,0-3.309-1.43-3.309-3.177s1.489-3.177,3.309-3.177H2634.573z"/>
			</g>
			<path style="fill:#7D97F4;" d="M1423.813,2609.962c-0.699-3.137,0.253-6.382,2.594-8.846c2.342-2.465,5.828-3.893,9.507-3.893
				h1246.331c4.839,0,9.343,2.142,11.95,5.682c2.607,3.541,2.956,7.99,0.927,11.805l-13.506,25.387
				c-3.093,5.813-9.794,9.536-17.168,9.536H1444.467c-6.86,0-12.755-4.225-14.058-10.074L1423.813,2609.962z"/>
		</g>
		<g>
			<g>
				
					<linearGradient id="SVGID_00000156580522512230231000000004896473205065080763_" gradientUnits="userSpaceOnUse" x1="-42.4978" y1="1536.5873" x2="100.5025" y2="1861.9453" gradientTransform="matrix(-1 0 0 1 1002.0518 0)">
					<stop  offset="0" style="stop-color:#FEBBBA"/>
					<stop  offset="1" style="stop-color:#FF928E"/>
				</linearGradient>
				<path style="fill:url(#SVGID_00000156580522512230231000000004896473205065080763_);" d="M1110.528,1434.416
					c0,0-74.235,202.37-200.725,265.619c0,0,42.101,68.692,64.071,72.858c0,0,135.125-172.944,148.9-314.632L1110.528,1434.416z"/>
				<g>
					
						<linearGradient id="SVGID_00000005964878334772135590000017067449895508371846_" gradientUnits="userSpaceOnUse" x1="-80.9536" y1="1525.8046" x2="17.8135" y2="1750.5221" gradientTransform="matrix(-1 0 0 1 1002.0518 0)">
						<stop  offset="0" style="stop-color:#FEBBBA"/>
						<stop  offset="1" style="stop-color:#FF928E"/>
					</linearGradient>
					<path style="fill:url(#SVGID_00000005964878334772135590000017067449895508371846_);" d="M1117.653,1471.249
						c1.133,3.601-11.983,9.083-19.706-5.643c-0.27-7.058-4.562-37.293-0.344-43.044c22.461-30.622,46.18-32.605,46.18-32.605
						c4.419,7.985,9.808,14.725,12.334,24.383c1.913,7.314,0.743,15.13-2.951,21.787c-3.708,6.681-8.767,15.365-13.55,22.161
						C1130.562,1471.152,1117.653,1471.249,1117.653,1471.249z"/>
				</g>
			</g>
			<g>
				
					<linearGradient id="SVGID_00000183964486184308321170000012247420191189222579_" gradientUnits="userSpaceOnUse" x1="1112.8804" y1="1474.6531" x2="409.5768" y2="2315.5591" gradientTransform="matrix(0.9859 -0.1433 0.1671 0.8185 -46.2167 203.0881)">
					<stop  offset="0" style="stop-color:#4F52FF"/>
					<stop  offset="1" style="stop-color:#4042E2"/>
				</linearGradient>
				<path style="fill:url(#SVGID_00000183964486184308321170000012247420191189222579_);" d="M886.146,1764.67l513.49-7.369
					c13.616-0.195,24.495-11.392,24.3-25.008l-7.445-518.799c-0.195-13.616-11.392-24.495-25.007-24.3l-513.49,7.369
					c-13.616,0.195-24.495,11.392-24.3,25.008l7.445,518.799C861.334,1753.986,872.53,1764.865,886.146,1764.67z"/>
				<g>
					<path style="fill:#FFFFFF;" d="M909.177,1617.364l104.795-150.958c1.068-1.538,2.918-2.488,4.924-2.526
						c2.007-0.039,3.905,0.839,5.047,2.336l65.714,86.14l102.79-145.784c1.112-1.577,3.036-2.557,5.124-2.611
						c2.088-0.053,4.059,0.829,5.247,2.35l164.082,210.022c1.346,1.722,1.529,4.649,0.448,6.47c-1.079,1.821-3.213,3.674-5.58,3.677
						l-216.413,0.253l-107.217,0.126l-123.865,0.145c-2.145,0.003-4.158-1.755-5.214-3.484
						C908.001,1621.789,908.037,1619.007,909.177,1617.364z"/>
					<path style="fill:#FFFFFF;" d="M982.812,1372.67c0.602,25.39,22.156,45.458,48.278,44.821
						c26.274-0.641,47.192-21.963,46.584-47.621s-22.509-45.716-48.777-44.806C1002.781,1325.969,982.21,1347.28,982.812,1372.67z"
						/>
				</g>
			</g>
			
				<linearGradient id="SVGID_00000083772549684994130930000014621571871786107048_" gradientUnits="userSpaceOnUse" x1="117.1972" y1="1424.4099" x2="194.6008" y2="1618.5752" gradientTransform="matrix(-1 0 0 1 1002.0518 0)">
				<stop  offset="0" style="stop-color:#09005D"/>
				<stop  offset="1" style="stop-color:#1A0F91"/>
			</linearGradient>
			<path style="fill:url(#SVGID_00000083772549684994130930000014621571871786107048_);" d="M838.959,1528.855
				c0,0-26.095,12.693-30.893,27.273c-3.85,11.699-32.704,13.207-35.554,36.216c-1.472,11.88-10.263,21.393-22.095,23.207
				c-29.469,4.517-74.884,19.82-82.15,70.985c-5.546,39.054,14.363,53.863,35.256,58.989c15.346,3.765,25.545,18.691,22.44,34.184
				c-2.977,14.861,1.463,32.04,27.207,45.624c57.692,30.442,115.306-72.12,115.306-72.12l11.807-179.078L838.959,1528.855z"/>
			
				<linearGradient id="SVGID_00000088100558225457277650000005001691003006861214_" gradientUnits="userSpaceOnUse" x1="400.1517" y1="2667.4761" x2="465.7868" y2="2667.4761" gradientTransform="matrix(-1 0 0 1 1002.0518 0)">
				<stop  offset="0" style="stop-color:#09005D"/>
				<stop  offset="1" style="stop-color:#1A0F91"/>
			</linearGradient>
			<path style="fill:url(#SVGID_00000088100558225457277650000005001691003006861214_);" d="M601.822,2651.735l-3.733,30.69
				c-0.708,5.822-5.293,10.426-11.12,11.092c-9.839,1.124-25.627,2.276-41.074,0.643c-6.781-0.717-11.182-7.583-9.117-14.081
				c3.766-11.848,10.655-29.633,20.588-40.099h34.045C597.705,2639.98,602.582,2645.486,601.822,2651.735z"/>
			
				<linearGradient id="SVGID_00000168087450125698550230000002365960898423552953_" gradientUnits="userSpaceOnUse" x1="122.8086" y1="2926.3057" x2="217.2625" y2="1822.3749" gradientTransform="matrix(-1 0 0 1 1002.0518 0)">
				<stop  offset="0" style="stop-color:#FEBBBA"/>
				<stop  offset="1" style="stop-color:#FF928E"/>
			</linearGradient>
			<path style="fill:url(#SVGID_00000168087450125698550230000002365960898423552953_);" d="M868.477,2292.215l5.747,33.802
				c0,0-19.243,194.919-22.666,272.886c-0.537,12.223,2.625,24.303,9.042,34.722l33.461,54.338l-85.04-50.182l-1.693-10.378
				l13.922-19.14l-18.235-218.357c-1.071-12.828,1.576-25.692,7.624-37.055l17.59-33.045L868.477,2292.215z"/>
			
				<linearGradient id="SVGID_00000051342922492939185210000007691545032428145814_" gradientUnits="userSpaceOnUse" x1="95.2158" y1="2655.4929" x2="201.4186" y2="2655.4929" gradientTransform="matrix(-1 0 0 1 1002.0518 0)">
				<stop  offset="0" style="stop-color:#09005D"/>
				<stop  offset="1" style="stop-color:#1A0F91"/>
			</linearGradient>
			<path style="fill:url(#SVGID_00000051342922492939185210000007691545032428145814_);" d="M899.66,2695.835h-27.138
				c-5.079,0-9.87-2.332-12.968-6.358c-8.46-10.993-25.989-32.441-34.37-33.001c-11.283-0.753-9.839,39.358-9.839,39.358h-6.324
				l-8.011-49.844c-2.016-12.541,4.221-24.964,15.482-30.84l0,0c0,0,2.579,19.074,16.564,27.511
				c13.985,8.438,56.91,38.652,56.91,38.652s5.257-0.75,11.029,0.294C909.557,2683.154,908.362,2695.835,899.66,2695.835z"/>
			
				<linearGradient id="SVGID_00000052092005914035163510000001033786717113325204_" gradientUnits="userSpaceOnUse" x1="312.8086" y1="2942.7317" x2="407.2874" y2="1838.5099" gradientTransform="matrix(-1 0 0 1 1002.0518 0)">
				<stop  offset="0" style="stop-color:#FEBBBA"/>
				<stop  offset="1" style="stop-color:#FF928E"/>
			</linearGradient>
			<path style="fill:url(#SVGID_00000052092005914035163510000001033786717113325204_);" d="M752,2308.269
				c0,0-112.733,213.844-130.654,262.668c-17.92,48.823-24.198,89.554-24.438,93.411c-0.376,6.027-7.872,11.807-28.535,11.807
				c-10.663,0-15.886-4.275-18.443-8.412c-2.182-3.53-2.294-7.947-0.456-11.667c6.521-13.197,27.215-55.373,34.88-74.501
				c9.151-22.839,28.834-126.341,39.63-162.327c10.795-35.986,22.998-75.022,70.008-110.979
				C693.992,2308.269,726.263,2276.661,752,2308.269z"/>
			
				<linearGradient id="SVGID_00000006681189774796315760000007021598082193545879_" gradientUnits="userSpaceOnUse" x1="1416.8888" y1="1558.1362" x2="1244.802" y2="1650.7985">
				<stop  offset="0" style="stop-color:#FF928E"/>
				<stop  offset="1" style="stop-color:#FE7062"/>
			</linearGradient>
			<path style="fill:url(#SVGID_00000006681189774796315760000007021598082193545879_);" d="M823.216,1957.875
				c29.08-123.224-44.589-192.918-44.589-192.918c46.483-44.619,131.176-64.922,131.176-64.922s80.815,59.083,71.228,105.328
				c-5.619,27.105-56.805,162.351-56.805,162.351S876.894,1990.114,823.216,1957.875z"/>
			
				<linearGradient id="SVGID_00000129181565251135873850000002816140123386486426_" gradientUnits="userSpaceOnUse" x1="50.734" y1="1704.1915" x2="376.6789" y2="2835.9446" gradientTransform="matrix(-1 0 0 1 1002.0518 0)">
				<stop  offset="0" style="stop-color:#4F52FF"/>
				<stop  offset="1" style="stop-color:#4042E2"/>
			</linearGradient>
			<path style="fill:url(#SVGID_00000129181565251135873850000002816140123386486426_);" d="M758.741,2018.88
				c11.834-35.653,64.475-61.005,64.475-61.005c53.678,32.239,101.01,9.839,101.01,9.839s10.615,40.573,3.288,78.278
				c-7.326,37.705-53.29,280.025-53.29,280.025c-72.424,14.675-183.811-14.764-183.811-14.764
				C736.544,2229.35,746.906,2054.532,758.741,2018.88z"/>
			
				<linearGradient id="SVGID_00000170239434917756714530000016431161852307170219_" gradientUnits="userSpaceOnUse" x1="112.4502" y1="1838.1604" x2="130.1931" y2="1708.3579" gradientTransform="matrix(-1 0 0 1 1002.0518 0)">
				<stop  offset="0" style="stop-color:#FEBBBA"/>
				<stop  offset="1" style="stop-color:#FF928E"/>
			</linearGradient>
			<path style="fill:url(#SVGID_00000170239434917756714530000016431161852307170219_);" d="M856.971,1618.604l-23.643,106.199
				c-2.263,9.354,6.264,7.823,15.721,6.04c15.488-2.92,35.45-8.934,42.123-20.985c0.679-1.226,1.019-2.613,1.21-4.002l10.157-73.64
				c0.806-5.843-2.353-11.513-7.744-13.904l-19.6-8.691C867.647,1606.275,858.912,1610.58,856.971,1618.604z"/>
			<g>
				
					<linearGradient id="SVGID_00000106854187672131015520000000173653594535481761_" gradientUnits="userSpaceOnUse" x1="67.6665" y1="1670.8055" x2="222.4742" y2="1395.2999" gradientTransform="matrix(-1 0 0 1 1002.0518 0)">
					<stop  offset="0" style="stop-color:#FEBBBA"/>
					<stop  offset="1" style="stop-color:#FF928E"/>
				</linearGradient>
				<path style="fill:url(#SVGID_00000106854187672131015520000000173653594535481761_);" d="M884.71,1517.489
					c0,0,28.001,11.823,47.04,52.286c19.039,40.462,4.821,59.144-13.037,61.709c-17.859,2.565-44.568,2.174-72.818-23.964
					C817.645,1581.381,848.31,1503.473,884.71,1517.489z"/>
				
					<linearGradient id="SVGID_00000150815383236329969000000002137911549423480715_" gradientUnits="userSpaceOnUse" x1="100.9578" y1="1430.8832" x2="178.3614" y2="1625.0486" gradientTransform="matrix(-1 0 0 1 1002.0518 0)">
					<stop  offset="0" style="stop-color:#09005D"/>
					<stop  offset="1" style="stop-color:#1A0F91"/>
				</linearGradient>
				<path style="fill:url(#SVGID_00000150815383236329969000000002137911549423480715_);" d="M864.886,1585.918
					c0,0-21.126-59.198,31.358-59.898l12.35,8.632c0,0,19.257-32.821-12.35-48.489c-31.607-15.667-68.599-2.726-82.05,39.857
					c-13.45,42.583-15.747,71.088,6.63,91.461c22.378,20.373,31.6-2.728,31.6-2.728s-12.186-19.056-7.225-29.251
					c4.961-10.194,16.403,2.109,16.403,2.109L864.886,1585.918z"/>
				
					<linearGradient id="SVGID_00000140730811282864998260000006105536950448127156_" gradientUnits="userSpaceOnUse" x1="100.6188" y1="1689.3224" x2="255.4269" y2="1413.8159" gradientTransform="matrix(-1 0 0 1 1002.0518 0)">
					<stop  offset="0" style="stop-color:#FEBBBA"/>
					<stop  offset="1" style="stop-color:#FF928E"/>
				</linearGradient>
				<path style="fill:url(#SVGID_00000140730811282864998260000006105536950448127156_);" d="M858.999,1592.512
					c0,0-10.681-30.495-24.93-18.35c-14.249,12.144,11.581,28.169,21.692,33.359L858.999,1592.512z"/>
			</g>
			
				<linearGradient id="SVGID_00000041277988174203205760000005921241580152978563_" gradientUnits="userSpaceOnUse" x1="6605.0098" y1="4313.9053" x2="6829.8022" y2="4313.9053" gradientTransform="matrix(0.447 0.8946 0.8946 -0.447 -5885.6611 -2292.5178)">
				<stop  offset="0" style="stop-color:#FEBBBA"/>
				<stop  offset="1" style="stop-color:#FF928E"/>
			</linearGradient>
			<path style="fill:url(#SVGID_00000041277988174203205760000005921241580152978563_);" d="M765.557,1797.76
				c0,0,216.265,264.075,377.839-36.608c0,0,3.101-7.683,1.163-18.782c-0.979-5.604,2.727-25.477,4.762-35.631
				c0.655-3.265-1.665-6.35-4.979-6.669l0,0c-2.596-0.25-5.142,0.84-6.753,2.892l-29.513,37.583
				c-2.201,7.442,1.344,15.377,8.355,18.704l0,0c4.472,2.122,5.883,7.803,2.88,11.739
				c-122.877,161.073-328.401-15.677-332.162-13.601C773.805,1764.75,758.389,1772.893,765.557,1797.76z"/>
		</g>
		<g>
			<g>
				
					<linearGradient id="SVGID_00000133504417462731951880000015797280329330059688_" gradientUnits="userSpaceOnUse" x1="2174.7627" y1="1632.646" x2="1698.2159" y2="2307.7537">
					<stop  offset="0" style="stop-color:#4F52FF"/>
					<stop  offset="1" style="stop-color:#4042E2"/>
				</linearGradient>
				
					<circle style="fill:url(#SVGID_00000133504417462731951880000015797280329330059688_);" cx="2065.835" cy="1786.96" r="185.324"/>
				<g>
					<path style="fill:#FFFFFF;" d="M2005.671,1833.232l-78.171-39.782v-12.812l78.171-45.265v21.807l-54.08,28.886l54.08,25.45
						V1833.232z"/>
					<path style="fill:#FFFFFF;" d="M2088.827,1717.714l-44.459,134.358l-22.332-0.228l44.107-133.824L2088.827,1717.714z"/>
					<path style="fill:#FFFFFF;" d="M2105.352,1811.818l57.13-26.073l-57.13-29.229v-22.194l83.315,45.66v13.417l-83.315,40.521
						V1811.818z"/>
				</g>
			</g>
			<g>
				
					<linearGradient id="SVGID_00000035512176018277912490000008921417060319384242_" gradientUnits="userSpaceOnUse" x1="2481.2842" y1="1283.5801" x2="1951.7856" y2="2680.1304">
					<stop  offset="0" style="stop-color:#FF928E"/>
					<stop  offset="1" style="stop-color:#FE7062"/>
				</linearGradient>
				
					<circle style="fill:url(#SVGID_00000035512176018277912490000008921417060319384242_);" cx="2399.453" cy="1499.41" r="185.324"/>
				<path style="fill:#FFFFFF;" d="M2339.478,1426.718v156.119c0,10.022,8.486,16.278,15.817,11.677l130.739-82.069
					c8.154-5.119,8.154-19.617,0-24.24l-130.739-74.124C2347.964,1409.924,2339.478,1416.696,2339.478,1426.718z"/>
			</g>
			<g>
				
					<linearGradient id="SVGID_00000178203237846290503100000011859052478191750073_" gradientUnits="userSpaceOnUse" x1="2619.2859" y1="1694.3805" x2="2989.9341" y2="1694.3805">
					<stop  offset="0" style="stop-color:#4F52FF"/>
					<stop  offset="1" style="stop-color:#4042E2"/>
				</linearGradient>
				
					<circle style="fill:url(#SVGID_00000178203237846290503100000011859052478191750073_);" cx="2804.61" cy="1694.38" r="185.324"/>
				<g>
					<rect x="2695.788" y="1688.894" style="fill:#FFFFFF;" width="45.502" height="83.146"/>
					<rect x="2769.532" y="1640.88" style="fill:#FFFFFF;" width="45.502" height="131.159"/>
					<rect x="2844.846" y="1598.722" style="fill:#FFFFFF;" width="45.502" height="173.318"/>
				</g>
			</g>
		</g>
	</g>
</g>
</svg>
