<svg width="79" height="79" viewBox="0 0 79 79" fill="none" xmlns="http://www.w3.org/2000/svg">
<circle cx="39.5" cy="39.5" r="39.5" fill="white"/>
<path fill-rule="evenodd" clip-rule="evenodd" d="M33.1014 16.0383C35.3274 16.762 37.4715 17.7166 39.4988 18.8865C41.5261 17.7166 43.6702 16.762 45.8962 16.0383C51.4724 14.276 57.0269 14.5897 60.718 18.2808C64.4091 21.9719 64.7228 27.5291 62.9605 33.1026C62.2368 35.3286 61.2822 37.4727 60.1123 39.5C61.3564 41.6907 62.3085 43.8377 62.9605 45.8974C64.7228 51.4709 64.4091 57.0281 60.718 60.7192C57.0269 64.4103 51.4697 64.724 45.8962 62.9617C43.6702 62.238 41.5261 61.2834 39.4988 60.1135C37.4715 61.2834 35.3274 62.238 33.1014 62.9617C27.5279 64.7213 21.9707 64.4103 18.2796 60.7192C14.5885 57.0281 14.2775 51.4709 16.0371 45.8974C16.6891 43.835 17.6412 41.6907 18.8853 39.5C17.7154 37.4727 16.7608 35.3286 16.0371 33.1026C14.2775 27.5264 14.5912 21.9719 18.2796 18.2808C21.9707 14.5897 27.5279 14.276 33.1014 16.0383ZM56.6586 44.7079C55.049 46.8304 53.183 48.9638 51.0741 51.0753C49.0798 53.0772 46.9525 54.942 44.7067 56.657C45.687 57.1044 46.6319 57.4718 47.5412 57.7592C52.1736 59.2215 55.2236 58.4958 56.8604 56.8589C58.4973 55.2248 59.223 52.172 57.7607 47.5424C57.4524 46.5748 57.0843 45.6273 56.6586 44.7052V44.7079ZM22.339 44.7079C21.9144 45.6292 21.5472 46.5758 21.2396 47.5424C19.7774 52.1748 20.503 55.2248 22.1399 56.8616C23.774 58.4985 26.8268 59.2215 31.4564 57.7592C32.3657 57.4718 33.3115 57.1044 34.2936 56.657C32.0479 54.942 29.9206 53.0772 27.9262 51.0753C25.9234 49.0811 24.055 46.9538 22.339 44.7079ZM39.4988 25.3139C36.7331 27.2285 34.1505 29.3947 31.7837 31.7849C29.3935 34.1517 27.2273 36.7343 25.3127 39.5C27.2255 42.2654 29.3899 44.8481 31.7783 47.2151C34.4054 49.8422 37.0053 51.9893 39.4988 53.6861C42.2645 51.7715 44.8471 49.6053 47.2139 47.2151C49.6031 44.8482 51.7685 42.2655 53.6822 39.5C51.7731 36.7317 49.6084 34.1487 47.2166 31.7849C44.849 29.3946 42.2654 27.2283 39.4988 25.3139ZM39.4988 35.4078C40.5841 35.4078 41.625 35.839 42.3924 36.6064C43.1598 37.3738 43.591 38.4147 43.591 39.5C43.591 40.5853 43.1598 41.6262 42.3924 42.3936C41.625 43.161 40.5841 43.5922 39.4988 43.5922C38.4135 43.5922 37.3726 43.161 36.6052 42.3936C35.8378 41.6262 35.4066 40.5853 35.4066 39.5C35.4066 38.4147 35.8378 37.3738 36.6052 36.6064C37.3726 35.839 38.4135 35.4078 39.4988 35.4078ZM22.1372 22.1384C20.5003 23.7752 19.7774 26.8252 21.2396 31.4576C21.527 32.3669 21.8944 33.3127 22.3418 34.2948C23.9513 32.1669 25.8146 30.0362 27.9262 27.9247C29.9197 25.9229 32.0461 24.0581 34.2909 22.343C33.3697 21.9174 32.4231 21.5493 31.4564 21.2408C26.8268 19.7785 23.774 20.5042 22.1372 22.1384ZM47.5412 21.2408C46.6319 21.5282 45.687 21.8956 44.7067 22.343C46.8292 23.9525 48.9626 25.8158 51.0741 27.9247C53.0769 29.9189 54.9426 32.0462 56.6586 34.2921C57.106 33.3118 57.4725 32.3669 57.758 31.4576C59.223 26.8252 58.4973 23.7752 56.8604 22.1384C55.2236 20.5015 52.1736 19.7785 47.5412 21.2408Z" fill="#77A103"/>
</svg>
