<svg width="94" height="93" viewBox="0 0 94 93" fill="none" xmlns="http://www.w3.org/2000/svg">
<path d="M82.9213 90.3734H49.3785V85.213H82.9213H85.5015V82.6328V10.3868V7.80656H82.9213H49.3785V2.64613H82.9213C85.0692 2.64613 86.8452 3.38141 88.3885 4.92474C89.9318 6.46797 90.6646 8.24128 90.662 10.3836V10.3868V82.6328C90.662 84.782 89.9273 86.5585 88.387 88.1015C86.8491 89.642 85.0754 90.376 82.9245 90.3734H82.9213ZM42.541 49.09H2.93471V43.9295H42.541H48.7702L44.3655 39.5248L32.9831 28.1425L36.5266 24.4057L58.6306 46.5098L36.5266 68.6138L32.9831 64.8771L44.3655 53.4947L48.7702 49.09H42.541Z" fill="black" stroke="#FF702D" stroke-width="5.16043"/>
</svg>
