<svg width="50" height="52" viewBox="0 0 50 52" fill="none" xmlns="http://www.w3.org/2000/svg">
<path d="M21.5131 3.43011L6.78229 11.6081C5.63265 12.249 4.67556 13.186 4.01045 14.3218C3.34533 15.4575 2.99644 16.7507 3.00003 18.0669V33.9331C2.99689 35.2489 3.34598 36.5415 4.01108 37.6768C4.67617 38.8121 5.63302 39.7487 6.78229 40.3894L21.518 48.5699C22.6142 49.1799 23.8479 49.5 25.1024 49.5C26.3569 49.5 27.5906 49.1799 28.6868 48.5699L43.4225 40.3919C44.5721 39.751 45.5292 38.814 46.1943 37.6782C46.8594 36.5425 47.2083 35.2493 47.2047 33.9331V18.0669C47.2079 16.7511 46.8588 15.4585 46.1937 14.3232C45.5286 13.1879 44.5718 12.2513 43.4225 11.6106L28.6868 3.43011C27.5906 2.82014 26.3569 2.5 25.1024 2.5C23.8479 2.5 22.6142 2.82014 21.518 3.43011H21.5131Z" stroke="#8D001B" stroke-width="5"/>
<path d="M45.7069 13.6219L25.1011 26.0002M25.1011 26.0002L4.4953 13.6219M25.1011 26.0002V49.4754" stroke="#8D001B" stroke-width="5"/>
</svg>
