<svg width="49" height="49" viewBox="0 0 49 49" fill="none" xmlns="http://www.w3.org/2000/svg">
<path d="M45.3125 9.875C44.8649 9.875 44.4357 9.69721 44.1193 9.38074C43.8028 9.06428 43.625 8.63505 43.625 8.1875C43.625 7.73995 43.8028 7.31072 44.1193 6.99426C44.4357 6.67779 44.8649 6.5 45.3125 6.5C45.7601 6.5 46.1893 6.67779 46.5057 6.99426C46.8222 7.31072 47 7.73995 47 8.1875C47 8.63505 46.8222 9.06428 46.5057 9.38074C46.1893 9.69721 45.7601 9.875 45.3125 9.875ZM45.3125 9.875V18.3125C45.3125 19.883 45.3125 20.6682 45.119 21.305C44.9045 22.0134 44.5185 22.6579 43.9954 23.1814C43.4722 23.705 42.828 24.0914 42.1197 24.3065C41.4807 24.5 40.6955 24.5 39.125 24.5M3.6875 39.125C4.13505 39.125 4.56428 39.3028 4.88074 39.6193C5.19721 39.9357 5.375 40.3649 5.375 40.8125C5.375 41.2601 5.19721 41.6893 4.88074 42.0057C4.56428 42.3222 4.13505 42.5 3.6875 42.5C3.23995 42.5 2.81072 42.3222 2.49426 42.0057C2.17779 41.6893 2 41.2601 2 40.8125C2 40.3649 2.17779 39.9357 2.49426 39.6193C2.81072 39.3028 3.23995 39.125 3.6875 39.125ZM3.6875 39.125V30.6875C3.6875 29.117 3.6875 28.3318 3.881 27.695C4.09553 26.9866 4.48148 26.3421 5.00465 25.8186C5.52781 25.295 6.17204 24.9086 6.88025 24.6935C7.51925 24.5 8.3045 24.5 9.875 24.5M9.875 3.6875C9.875 4.13505 9.69721 4.56428 9.38074 4.88074C9.06428 5.19721 8.63505 5.375 8.1875 5.375C7.73995 5.375 7.31072 5.19721 6.99426 4.88074C6.67779 4.56428 6.5 4.13505 6.5 3.6875C6.5 3.23995 6.67779 2.81072 6.99426 2.49426C7.31072 2.17779 7.73995 2 8.1875 2C8.63505 2 9.06428 2.17779 9.38074 2.49426C9.69721 2.81072 9.875 3.23995 9.875 3.6875ZM9.875 3.6875H18.3125C19.883 3.6875 20.6682 3.6875 21.305 3.881C22.0134 4.09553 22.6579 4.48148 23.1814 5.00465C23.705 5.52781 24.0914 6.17204 24.3065 6.88025C24.5 7.51925 24.5 8.3045 24.5 9.875M39.125 45.3125C39.125 44.8649 39.3028 44.4357 39.6193 44.1193C39.9357 43.8028 40.3649 43.625 40.8125 43.625C41.2601 43.625 41.6893 43.8028 42.0057 44.1193C42.3222 44.4357 42.5 44.8649 42.5 45.3125C42.5 45.7601 42.3222 46.1893 42.0057 46.5057C41.6893 46.8222 41.2601 47 40.8125 47C40.3649 47 39.9357 46.8222 39.6193 46.5057C39.3028 46.1893 39.125 45.7601 39.125 45.3125ZM39.125 45.3125H30.6875C29.117 45.3125 28.3318 45.3125 27.695 45.119C26.9866 44.9045 26.3421 44.5185 25.8186 43.9954C25.295 43.4722 24.9086 42.828 24.6935 42.1197C24.5 41.4807 24.5 40.6955 24.5 39.125" stroke="#F04B54" stroke-width="3.375" stroke-linecap="round" stroke-linejoin="round"/>
<path d="M9.98486 24.3901C9.98486 17.4961 9.98486 14.0491 12.1269 11.9071C14.2689 9.76514 17.7159 9.76514 24.6099 9.76514C31.5039 9.76514 34.9509 9.76514 37.0929 11.9071C39.2349 14.0491 39.2349 17.4961 39.2349 24.3901C39.2349 31.2841 39.2349 34.7311 37.0929 36.8731C34.9509 39.0151 31.5039 39.0151 24.6099 39.0151C17.7159 39.0151 14.2689 39.0151 12.1269 36.8731C9.98486 34.7311 9.98486 31.2841 9.98486 24.3901Z" stroke="#F04B54" stroke-width="3.375" stroke-linecap="round" stroke-linejoin="round"/>
<path d="M25.6236 30.1254L22.3386 19.9531C22.2247 19.6321 22.0125 19.3552 21.7321 19.1617C21.4518 18.9683 21.1176 18.8681 20.7771 18.8754C20.437 18.8685 20.1033 18.969 19.8234 19.1624C19.5435 19.3559 19.3317 19.6325 19.2179 19.9531L15.9329 30.1254M31.2486 18.8754V30.1254M17.1411 26.7504H24.4131" stroke="#F04B54" stroke-width="3.375" stroke-linecap="round" stroke-linejoin="round"/>
</svg>
