<svg width="44" height="44" viewBox="0 0 44 44" fill="none" xmlns="http://www.w3.org/2000/svg">
<path d="M37 12C38.3261 12 39.5979 11.4732 40.5355 10.5355C41.4732 9.59785 42 8.32608 42 7C42 5.67392 41.4732 4.40215 40.5355 3.46447C39.5979 2.52678 38.3261 2 37 2C35.6739 2 34.4021 2.52678 33.4645 3.46447C32.5268 4.40215 32 5.67392 32 7M37 12C35.6739 12 34.4021 11.4732 33.4645 10.5355C32.5268 9.59785 32 8.32608 32 7M37 12V32M32 7H12M12 37C12 38.3261 11.4732 39.5979 10.5355 40.5355C9.59785 41.4732 8.32608 42 7 42C5.67392 42 4.40215 41.4732 3.46447 40.5355C2.52678 39.5979 2 38.3261 2 37C2 35.6739 2.52678 34.4021 3.46447 33.4645C4.40215 32.5268 5.67392 32 7 32M12 37C12 35.6739 11.4732 34.4021 10.5355 33.4645C9.59785 32.5268 8.32608 32 7 32M12 37H32M7 32V12M12 2H2V12H12V2ZM42 32H32V42H42V32Z" stroke="#0E61D3" stroke-width="4" stroke-linecap="round" stroke-linejoin="round"/>
</svg>
