<svg width="49" height="49" viewBox="0 0 49 49" fill="none" xmlns="http://www.w3.org/2000/svg">
<path fill-rule="evenodd" clip-rule="evenodd" d="M18.1014 1.03832C20.3274 1.76198 22.4715 2.71656 24.4988 3.88646C26.5261 2.71656 28.6702 1.76198 30.8962 1.03832C36.4724 -0.724033 42.0269 -0.410301 45.718 3.28082C49.4091 6.97194 49.7228 12.5291 47.9605 18.1026C47.2368 20.3286 46.2822 22.4727 45.1123 24.5C46.3564 26.6907 47.3085 28.8377 47.9605 30.8974C49.7228 36.4709 49.4091 42.0281 45.718 45.7192C42.0269 49.4103 36.4697 49.724 30.8962 47.9617C28.6702 47.238 26.5261 46.2834 24.4988 45.1135C22.4715 46.2834 20.3274 47.238 18.1014 47.9617C12.5279 49.7213 6.97075 49.4103 3.27963 45.7192C-0.411497 42.0281 -0.7225 36.4709 1.03713 30.8974C1.68914 28.835 2.64125 26.6907 3.88526 24.5C2.71536 22.4727 1.76078 20.3286 1.03713 18.1026C-0.7225 12.5264 -0.408769 6.97194 3.27963 3.28082C6.97075 -0.410301 12.5279 -0.724033 18.1014 1.03832ZM41.6586 29.7079C40.049 31.8304 38.183 33.9638 36.0741 36.0753C34.0798 38.0772 31.9525 39.942 29.7067 41.657C30.687 42.1044 31.6319 42.4718 32.5412 42.7592C37.1736 44.2215 40.2236 43.4958 41.8604 41.8589C43.4973 40.2248 44.223 37.172 42.7607 32.5424C42.4524 31.5748 42.0843 30.6273 41.6586 29.7052V29.7079ZM7.33904 29.7079C6.91436 30.6292 6.54719 31.5758 6.23962 32.5424C4.77735 37.1748 5.50303 40.2248 7.13989 41.8616C8.77402 43.4985 11.8268 44.2215 16.4564 42.7592C17.3657 42.4718 18.3115 42.1044 19.2936 41.657C17.0479 39.942 14.9206 38.0772 12.9262 36.0753C10.9234 34.0811 9.05499 31.9538 7.33904 29.7079ZM24.4988 10.3139C21.7331 12.2285 19.1505 14.3947 16.7837 16.7849C14.3935 19.1517 12.2273 21.7343 10.3127 24.5C12.2255 27.2654 14.3899 29.8481 16.7783 32.2151C19.4054 34.8422 22.0053 36.9893 24.4988 38.6861C27.2645 36.7715 29.8471 34.6053 32.2139 32.2151C34.6031 29.8482 36.7685 27.2655 38.6822 24.5C36.7731 21.7317 34.6084 19.1487 32.2166 16.7849C29.849 14.3946 27.2654 12.2283 24.4988 10.3139ZM24.4988 20.4078C25.5841 20.4078 26.625 20.839 27.3924 21.6064C28.1598 22.3738 28.591 23.4147 28.591 24.5C28.591 25.5853 28.1598 26.6262 27.3924 27.3936C26.625 28.161 25.5841 28.5922 24.4988 28.5922C23.4135 28.5922 22.3726 28.161 21.6052 27.3936C20.8378 26.6262 20.4066 25.5853 20.4066 24.5C20.4066 23.4147 20.8378 22.3738 21.6052 21.6064C22.3726 20.839 23.4135 20.4078 24.4988 20.4078ZM7.13716 7.13836C5.5003 8.77522 4.77735 11.8252 6.23962 16.4576C6.52698 17.3669 6.89436 18.3127 7.34177 19.2948C8.95135 17.1669 10.8146 15.0362 12.9262 12.9247C14.9197 10.9229 17.0461 9.05813 19.2909 7.34297C18.3697 6.91736 17.4231 6.54927 16.4564 6.24081C11.8268 4.77855 8.77402 5.50422 7.13716 7.13836ZM32.5412 6.24081C31.6319 6.52817 30.687 6.89556 29.7067 7.34297C31.8292 8.95255 33.9626 10.8158 36.0741 12.9247C38.0769 14.9189 39.9426 17.0462 41.6586 19.2921C42.106 18.3118 42.4725 17.3669 42.758 16.4576C44.223 11.8252 43.4973 8.77522 41.8604 7.13836C40.2236 5.5015 37.1736 4.77855 32.5412 6.24081Z" fill="#77A103"/>
</svg>
