<svg width="53" height="40" viewBox="0 0 53 40" fill="none" xmlns="http://www.w3.org/2000/svg">
<path fill-rule="evenodd" clip-rule="evenodd" d="M38.9025 0C40.7952 0 42.3604 1.085 43.5065 2.225C44.6996 3.4075 45.7936 4.9975 46.7659 6.75C48.7182 10.265 50.4174 14.8575 51.5411 19.395C52.6574 23.8975 53.275 28.6 52.8806 32.2975C52.4837 36.01 50.5861 40 46.3442 40C42.6829 40 39.7657 38.1 37.3794 36.1725L36.5087 35.45L35.2883 34.4125L34.1869 33.4925C31.6591 31.43 29.4142 30 26.4995 30C23.5848 30 21.3399 31.43 18.8122 33.4925L17.7108 34.4125L16.4903 35.45L15.6221 36.1725C13.2308 38.1 10.3137 40 6.65479 40C2.41049 40 0.51284 36.01 0.118426 32.2975C-0.273507 28.5975 0.341679 23.8975 1.45795 19.395C2.58165 14.8575 4.28086 10.265 6.23308 6.7475C7.20548 4.9975 8.29942 3.4075 9.49258 2.2225C10.6386 1.085 12.2039 0 14.0966 0C15.3741 0 16.6218 0.3075 17.8497 0.675L19.3182 1.1275C19.563 1.20417 19.8069 1.27667 20.05 1.345C22.1957 1.965 24.391 2.5 26.4995 2.5C28.608 2.5 30.8033 1.965 32.9491 1.345L35.1444 0.6775C36.3797 0.31 37.6374 0 38.9025 0ZM38.9025 5C37.9524 5 36.9602 5.29 35.9977 5.6075L34.8616 5.985L34.3134 6.155C32.1181 6.785 29.3522 7.5 26.4995 7.5C23.6468 7.5 20.881 6.785 18.6857 6.155L18.1399 5.985L17.0013 5.6075C16.0389 5.2875 15.0466 5 14.0966 5C13.0597 5.195 12.1294 6.4625 11.4274 7.6375L11.0355 8.325L10.5642 9.19C8.87243 12.235 7.31462 16.39 6.27277 20.6075C5.29294 24.5475 4.81667 28.3225 4.99775 31.1325L5.06225 31.865L5.11186 32.305L5.18628 32.825C5.35744 33.8275 5.72704 35 6.65479 35C8.66903 35 10.3509 33.99 12.442 32.315L13.4417 31.495L15.3269 29.905L16.1803 29.205C18.8196 27.0975 22.1213 25 26.4995 25C30.8778 25 34.1794 27.1 36.8188 29.205L37.6746 29.905L39.5598 31.495L40.557 32.315C42.6482 33.99 44.3275 35 46.3442 35C47.1877 35 47.5697 34.0325 47.7607 33.1025L47.8549 32.5575L47.9467 31.765C48.2518 28.9 47.7805 24.8525 46.7287 20.6075C45.7712 16.7425 44.3821 12.9275 42.8541 9.9725L41.9635 8.3225L41.5716 7.64C40.8696 6.4625 39.9394 5.195 38.9025 5ZM17.8174 10C19.4622 10 21.0396 10.6585 22.2026 11.8306C23.3656 13.0027 24.0189 14.5924 24.0189 16.25C24.0189 17.9076 23.3656 19.4973 22.2026 20.6694C21.0396 21.8415 19.4622 22.5 17.8174 22.5C16.1727 22.5 14.5953 21.8415 13.4323 20.6694C12.2693 19.4973 11.616 17.9076 11.616 16.25C11.616 14.5924 12.2693 13.0027 13.4323 11.8306C14.5953 10.6585 16.1727 10 17.8174 10ZM35.1816 10C35.7892 10.0001 36.3756 10.2249 36.8296 10.6318C37.2837 11.0387 37.5737 11.5994 37.6448 12.2075L37.6622 12.5V13.75H38.9025C39.5347 13.7507 40.1428 13.9947 40.6026 14.4321C41.0623 14.8695 41.339 15.4674 41.376 16.1035C41.4131 16.7396 41.2078 17.3659 40.802 17.8546C40.3962 18.3432 39.8205 18.6572 39.1927 18.7325L38.9025 18.75H37.6622V20C37.6615 20.6372 37.4194 21.2501 36.9854 21.7134C36.5513 22.1768 35.9581 22.4556 35.327 22.4929C34.6958 22.5303 34.0743 22.3233 33.5895 21.9143C33.1046 21.5054 32.793 20.9252 32.7184 20.2925L32.701 20V18.75H31.4607C30.8284 18.7493 30.2203 18.5053 29.7606 18.0679C29.3008 17.6305 29.0242 17.0326 28.9871 16.3965C28.9501 15.7604 29.1554 15.1341 29.5612 14.6454C29.967 14.1568 30.5426 13.8428 31.1705 13.7675L31.4607 13.75H32.701V12.5C32.701 11.837 32.9623 11.2011 33.4275 10.7322C33.8927 10.2634 34.5237 10 35.1816 10ZM17.8174 15C17.4885 15 17.173 15.1317 16.9404 15.3661C16.7078 15.6005 16.5772 15.9185 16.5772 16.25C16.5772 16.5815 16.7078 16.8995 16.9404 17.1339C17.173 17.3683 17.4885 17.5 17.8174 17.5C18.1464 17.5 18.4619 17.3683 18.6945 17.1339C18.9271 16.8995 19.0577 16.5815 19.0577 16.25C19.0577 15.9185 18.9271 15.6005 18.6945 15.3661C18.4619 15.1317 18.1464 15 17.8174 15Z" fill="#E77246"/>
</svg>
