<svg width="51" height="51" viewBox="0 0 51 51" fill="none" xmlns="http://www.w3.org/2000/svg">
<path d="M9.04957 34.9001L20.7996 27.8501M30.1996 23.1501L41.9496 16.1001M25.4996 9.05009V20.8001M25.4996 30.2001V41.9501M9.04957 16.1001L20.7996 23.1501M30.1996 27.8501L41.9496 34.9001M45.4746 18.4501V31.3751M29.0246 45.4751L41.9496 38.4251M7.87457 38.4251L21.9746 45.4751M5.52457 32.5501V18.4501M7.87457 12.5751L21.9746 5.52509M43.1246 12.5751L29.0246 5.52509" stroke="#C182EE" stroke-width="3.225" stroke-linecap="round" stroke-linejoin="round"/>
<path d="M25.5004 9.05C27.4472 9.05 29.0254 7.4718 29.0254 5.525C29.0254 3.5782 27.4472 2 25.5004 2C23.5536 2 21.9754 3.5782 21.9754 5.525C21.9754 7.4718 23.5536 9.05 25.5004 9.05Z" stroke="#C182EE" stroke-width="3.225" stroke-linecap="round" stroke-linejoin="round"/>
<path d="M25.5004 48.9998C27.4472 48.9998 29.0254 47.4216 29.0254 45.4748C29.0254 43.528 27.4472 41.9498 25.5004 41.9498C23.5536 41.9498 21.9754 43.528 21.9754 45.4748C21.9754 47.4216 23.5536 48.9998 25.5004 48.9998Z" stroke="#C182EE" stroke-width="3.225" stroke-linecap="round" stroke-linejoin="round"/>
<path d="M5.525 18.4501C7.4718 18.4501 9.05 16.8719 9.05 14.9251C9.05 12.9783 7.4718 11.4001 5.525 11.4001C3.5782 11.4001 2 12.9783 2 14.9251C2 16.8719 3.5782 18.4501 5.525 18.4501Z" stroke="#C182EE" stroke-width="3.225" stroke-linecap="round" stroke-linejoin="round"/>
<path d="M45.4748 18.4501C47.4216 18.4501 48.9998 16.8719 48.9998 14.9251C48.9998 12.9783 47.4216 11.4001 45.4748 11.4001C43.528 11.4001 41.9498 12.9783 41.9498 14.9251C41.9498 16.8719 43.528 18.4501 45.4748 18.4501Z" stroke="#C182EE" stroke-width="3.225" stroke-linecap="round" stroke-linejoin="round"/>
<path d="M45.4748 39.6002C47.4216 39.6002 48.9998 38.022 48.9998 36.0752C48.9998 34.1284 47.4216 32.5502 45.4748 32.5502C43.528 32.5502 41.9498 34.1284 41.9498 36.0752C41.9498 38.022 43.528 39.6002 45.4748 39.6002Z" stroke="#C182EE" stroke-width="3.225" stroke-linecap="round" stroke-linejoin="round"/>
<path d="M5.525 39.6002C7.4718 39.6002 9.05 38.022 9.05 36.0752C9.05 34.1284 7.4718 32.5502 5.525 32.5502C3.5782 32.5502 2 34.1284 2 36.0752C2 38.022 3.5782 39.6002 5.525 39.6002Z" stroke="#C182EE" stroke-width="3.225" stroke-linecap="round" stroke-linejoin="round"/>
<path d="M25.5002 20.2126L30.2002 22.8563V28.1438L25.5002 30.7876L20.8002 28.1438V22.8563L25.5002 20.2126Z" stroke="#C182EE" stroke-width="3.225" stroke-linecap="round" stroke-linejoin="round"/>
</svg>
