<svg width="42" height="42" viewBox="0 0 42 42" fill="none" xmlns="http://www.w3.org/2000/svg">
<path d="M0 2.50339e-07H18.9V18.9H0V2.50339e-07ZM4.2 4.2V14.7H14.7V4.2H4.2ZM32.55 4.2C31.1576 4.2 29.8223 4.75312 28.8377 5.73769C27.8531 6.72226 27.3 8.05761 27.3 9.45C27.3 10.8424 27.8531 12.1777 28.8377 13.1623C29.8223 14.1469 31.1576 14.7 32.55 14.7C33.9424 14.7 35.2777 14.1469 36.2623 13.1623C37.2469 12.1777 37.8 10.8424 37.8 9.45C37.8 8.05761 37.2469 6.72226 36.2623 5.73769C35.2777 4.75312 33.9424 4.2 32.55 4.2ZM23.1 9.45C23.1 8.20901 23.3444 6.98017 23.8193 5.83364C24.2942 4.68711 24.9903 3.64535 25.8678 2.76784C26.7454 1.89033 27.7871 1.19425 28.9336 0.719338C30.0802 0.244431 31.309 0 32.55 0C33.791 0 35.0198 0.244431 36.1664 0.719338C37.3129 1.19425 38.3546 1.89033 39.2322 2.76784C40.1097 3.64535 40.8058 4.68711 41.2807 5.83364C41.7556 6.98017 42 8.20901 42 9.45C42 11.9563 41.0044 14.3599 39.2322 16.1322C37.4599 17.9044 35.0563 18.9 32.55 18.9C30.0437 18.9 27.6401 17.9044 25.8678 16.1322C24.0956 14.3599 23.1 11.9563 23.1 9.45ZM0 23.1H18.9V42H0V23.1ZM4.2 27.3V37.8H14.7V27.3H4.2ZM23.1 23.1H42V42H23.1V23.1ZM27.3 27.3V37.8H37.8V27.3H27.3Z" fill="#F8B554"/>
</svg>
