<svg width="53" height="53" viewBox="0 0 53 53" fill="none" xmlns="http://www.w3.org/2000/svg">
<path d="M51 26.5C51 32.9978 48.4188 39.2295 43.8241 43.8241C39.2295 48.4188 32.9978 51 26.5 51C20.0022 51 13.7705 48.4188 9.17588 43.8241C4.58124 39.2295 2 32.9978 2 26.5M51 26.5C51 20.0022 48.4188 13.7705 43.8241 9.17588C39.2295 4.58124 32.9978 2 26.5 2C20.0022 2 13.7705 4.58124 9.17588 9.17588C4.58124 13.7705 2 20.0022 2 26.5M51 26.5H2" stroke="#4F0673" stroke-width="3.76923" stroke-linecap="round" stroke-linejoin="round"/>
<path d="M35.9228 26.5C35.46 35.4594 32.1599 44.0395 26.4997 51C20.8396 44.0395 17.5395 35.4594 17.0767 26.5C17.5395 17.5406 20.8396 8.96046 26.4997 2C32.1599 8.96046 35.46 17.5406 35.9228 26.5Z" stroke="#4F0673" stroke-width="3.76923" stroke-linecap="round" stroke-linejoin="round"/>
</svg>
