<svg width="72" height="72" viewBox="0 0 72 72" fill="none" xmlns="http://www.w3.org/2000/svg">
<circle cx="35.9997" cy="35.8991" r="35.8991" fill="#6CCD5C"/>
<path d="M54.7064 14.6506C53.9485 14.2281 53.1148 13.9594 52.2532 13.8599C51.3915 13.7604 50.5187 13.832 49.6847 14.0707C48.8507 14.3094 48.0718 14.7104 47.3927 15.2509C46.7135 15.7913 46.1473 16.4606 45.7265 17.2204L33.4683 39.3204L26.4528 32.2922C25.8437 31.6604 25.1151 31.1565 24.3095 30.8098C23.504 30.4631 22.6375 30.2806 21.7608 30.273C20.8841 30.2654 20.0146 30.4327 19.2032 30.7653C18.3917 31.0979 17.6545 31.5891 17.0345 32.2102C16.4146 32.8313 15.9243 33.5698 15.5923 34.3827C15.2603 35.1957 15.0932 36.0667 15.1008 36.945C15.1085 37.8233 15.2906 38.6913 15.6367 39.4983C15.9827 40.3054 16.4857 41.0353 17.1164 41.6454L30.3221 54.875C31.57 56.1285 33.2537 56.8164 34.9903 56.8164L35.9048 56.7503C36.9168 56.6084 37.8822 56.2332 38.7249 55.6541C39.5676 55.075 40.2647 54.3079 40.7612 53.4131L57.2683 23.6467C57.6897 22.8875 57.9578 22.0525 58.0571 21.1896C58.1565 20.3266 58.0851 19.4524 57.8472 18.6171C57.6093 17.7817 57.2095 17.0014 56.6706 16.3209C56.1317 15.6403 55.4643 15.0727 54.7064 14.6506Z" fill="white"/>
</svg>
