<svg width="6" height="10" viewBox="0 0 6 10" fill="none" xmlns="http://www.w3.org/2000/svg">
<path fill-rule="evenodd" clip-rule="evenodd" d="M5.36054 4.69085C5.44129 4.77288 5.48665 4.88407 5.48665 5.00001C5.48665 5.11595 5.44129 5.22715 5.36054 5.30918L1.04826 9.68418C0.966518 9.76146 0.858397 9.80353 0.74668 9.80153C0.634962 9.79953 0.528371 9.75362 0.449363 9.67346C0.370354 9.5933 0.325097 9.48516 0.323126 9.37182C0.321155 9.25848 0.362624 9.14878 0.438796 9.06585L4.44634 5.00001L0.438796 0.934179C0.362624 0.851244 0.321155 0.74155 0.323126 0.628207C0.325097 0.514865 0.370354 0.406724 0.449363 0.326566C0.528371 0.246409 0.634962 0.200493 0.74668 0.198493C0.858397 0.196494 0.966518 0.238566 1.04826 0.315846L5.36054 4.69085Z" fill="#030712"/>
</svg>
