<svg width="18" height="18" viewBox="0 0 18 18" fill="none" xmlns="http://www.w3.org/2000/svg">
<path d="M15.908 4.88587C15.8192 3.40791 14.585 2.25 13.0986 2.25H12.375V1.6875C12.375 1.377 12.123 1.125 11.8125 1.125C11.502 1.125 11.25 1.377 11.25 1.6875V2.25H6.74999V1.6875C6.74999 1.377 6.49799 1.125 6.18749 1.125C5.87699 1.125 5.62499 1.377 5.62499 1.6875V2.25H4.90133C3.41464 2.25 2.18052 3.40791 2.09192 4.88587C1.92514 7.66575 1.92824 10.4856 2.10121 13.2668C2.18896 14.6793 3.32042 15.8108 4.73286 15.8985C6.14839 15.9865 7.57405 16.0304 8.99971 16.0304C10.4251 16.0304 11.851 15.9865 13.2665 15.8985C14.679 15.8108 15.8105 14.6793 15.8982 13.2668C16.0715 10.487 16.0745 7.66744 15.908 4.88587ZM14.7757 13.1971C14.7229 14.0445 14.0442 14.7232 13.1971 14.7758C10.4121 14.9487 7.58783 14.9487 4.80289 14.7758C3.95549 14.7229 3.27683 14.0442 3.22424 13.1971C3.09121 11.0588 3.06392 8.89791 3.13508 6.75H14.8652C14.936 8.89875 14.9088 11.0596 14.7757 13.1971ZM6.18749 4.5C6.49799 4.5 6.74999 4.248 6.74999 3.9375V3.375H11.25V3.9375C11.25 4.248 11.502 4.5 11.8125 4.5C12.123 4.5 12.375 4.248 12.375 3.9375V3.375H13.0986C13.991 3.375 14.7319 4.06828 14.785 4.95309C14.7982 5.17641 14.8039 5.40112 14.8148 5.625H3.18514C3.19639 5.40112 3.20174 5.17641 3.21496 4.95309C3.26811 4.06828 4.00864 3.375 4.90133 3.375H5.62499V3.9375C5.62499 4.248 5.87699 4.5 6.18749 4.5Z" fill="black"/>
<path d="M6.1875 10.125C6.65349 10.125 7.03125 9.74724 7.03125 9.28125C7.03125 8.81526 6.65349 8.4375 6.1875 8.4375C5.72151 8.4375 5.34375 8.81526 5.34375 9.28125C5.34375 9.74724 5.72151 10.125 6.1875 10.125Z" fill="black"/>
<path d="M9 10.125C9.46599 10.125 9.84375 9.74724 9.84375 9.28125C9.84375 8.81526 9.46599 8.4375 9 8.4375C8.53401 8.4375 8.15625 8.81526 8.15625 9.28125C8.15625 9.74724 8.53401 10.125 9 10.125Z" fill="black"/>
<path d="M6.1875 12.9375C6.65349 12.9375 7.03125 12.5597 7.03125 12.0938C7.03125 11.6278 6.65349 11.25 6.1875 11.25C5.72151 11.25 5.34375 11.6278 5.34375 12.0938C5.34375 12.5597 5.72151 12.9375 6.1875 12.9375Z" fill="black"/>
<path d="M11.8125 10.125C12.2785 10.125 12.6562 9.74724 12.6562 9.28125C12.6562 8.81526 12.2785 8.4375 11.8125 8.4375C11.3465 8.4375 10.9688 8.81526 10.9688 9.28125C10.9688 9.74724 11.3465 10.125 11.8125 10.125Z" fill="black"/>
<path d="M11.8125 12.9375C12.2785 12.9375 12.6562 12.5597 12.6562 12.0938C12.6562 11.6278 12.2785 11.25 11.8125 11.25C11.3465 11.25 10.9688 11.6278 10.9688 12.0938C10.9688 12.5597 11.3465 12.9375 11.8125 12.9375Z" fill="black"/>
<path d="M9 12.9375C9.46599 12.9375 9.84375 12.5597 9.84375 12.0938C9.84375 11.6278 9.46599 11.25 9 11.25C8.53401 11.25 8.15625 11.6278 8.15625 12.0938C8.15625 12.5597 8.53401 12.9375 9 12.9375Z" fill="black"/>
</svg>
