<svg width="18" height="18" viewBox="0 0 18 18" fill="currentColor"
    xmlns="http://www.w3.org/2000/svg">
    <path
        d="M11.584 3.14807H3.21623C2.43106 3.14807 1.79333 3.78579 1.79333 4.57097V16.5771C1.79333 17.3623 2.43106 18 3.21623 18H11.584C12.3692 18 13.0069 17.3623 13.0069 16.5771V4.57097C13.0032 3.78579 12.3655 3.14807 11.584 3.14807ZM12.008 16.5734C12.008 16.8093 11.8163 17.001 11.5804 17.001H3.21254C2.97662 17.001 2.78494 16.8093 2.78494 16.5734V4.57097C2.78494 4.33505 2.97662 4.14336 3.21254 4.14336H11.5804C11.8163 4.14336 12.008 4.33505 12.008 4.57097V16.5734Z"
        fill="currentColor" />
    <path
        d="M14.7837 0H6.41594C5.63076 0 4.99304 0.637723 4.99304 1.4229C4.99304 1.69937 5.21422 1.92054 5.49069 1.92054C5.76716 1.92054 5.98833 1.69937 5.98833 1.4229C5.98833 1.18698 6.18002 0.99529 6.41594 0.99529H14.7837C15.0197 0.99529 15.2114 1.18698 15.2114 1.4229V13.429C15.2114 13.665 15.0197 13.8566 14.7837 13.8566C14.5073 13.8566 14.2861 14.0778 14.2861 14.3543C14.2861 14.6308 14.5073 14.8519 14.7837 14.8519C15.5689 14.8519 16.2066 14.2142 16.2066 13.429V1.4229C16.2066 0.637723 15.5689 0 14.7837 0Z"
        fill="currentColor" />
</svg>