<svg width="18" height="18" viewBox="0 0 18 18" fill="none" xmlns="http://www.w3.org/2000/svg">
<path d="M12.69 16.875C12.3034 16.8738 11.9209 16.7954 11.565 16.6444C6.97228 14.678 3.31384 11.0176 1.35003 6.42376C1.12799 5.90677 1.06612 5.33507 1.17241 4.78255C1.2787 4.23003 1.54827 3.72209 1.94628 3.32439L3.63378 1.63689C3.95018 1.32087 4.37909 1.14337 4.82628 1.14337C5.27346 1.14337 5.70237 1.32087 6.01878 1.63689L8.0044 3.62251C8.32041 3.93892 8.49792 4.36782 8.49792 4.81501C8.49792 5.2622 8.32041 5.6911 8.0044 6.00751L7.08753 6.93564C7.44222 7.83582 7.97831 8.65342 8.66246 9.33757C9.34662 10.0217 10.1642 10.5578 11.0644 10.9125L12.0094 9.97314C12.3258 9.65712 12.7547 9.47962 13.2019 9.47962C13.6491 9.47962 14.078 9.65712 14.3944 9.97314L16.38 11.9588C16.696 12.2752 16.8735 12.7041 16.8735 13.1513C16.8735 13.5984 16.696 14.0274 16.38 14.3438L14.6925 16.0313C14.4314 16.2977 14.1198 16.5095 13.7761 16.6543C13.4323 16.7992 13.0631 16.8742 12.69 16.875ZM4.84878 2.25001C4.77475 2.24958 4.70136 2.26377 4.63283 2.29177C4.56429 2.31976 4.50196 2.361 4.4494 2.41314L2.7619 4.10064C2.52226 4.33919 2.35982 4.64424 2.29563 4.97622C2.23144 5.30821 2.26846 5.65182 2.4019 5.96251C4.24288 10.3004 7.68924 13.7589 12.0207 15.615C12.3313 15.7484 12.675 15.7855 13.0069 15.7213C13.3389 15.6571 13.644 15.4946 13.8825 15.255L15.57 13.5675C15.6227 13.5152 15.6646 13.453 15.6932 13.3845C15.7217 13.3159 15.7364 13.2424 15.7364 13.1681C15.7364 13.0939 15.7217 13.0204 15.6932 12.9518C15.6646 12.8833 15.6227 12.8211 15.57 12.7688L13.5788 10.7831C13.4734 10.6784 13.3308 10.6196 13.1822 10.6196C13.0336 10.6196 12.891 10.6784 12.7857 10.7831L11.5932 11.9756C11.5204 12.047 11.4297 12.0972 11.3306 12.121C11.2315 12.1448 11.1278 12.1412 11.0307 12.1106C9.83604 11.7124 8.75055 11.0416 7.86014 10.1511C6.96973 9.26074 6.29886 8.17525 5.90065 6.98064C5.8701 6.88344 5.86653 6.77977 5.8903 6.6807C5.91408 6.58163 5.96432 6.49088 6.03565 6.41814L7.22815 5.22564C7.28028 5.17308 7.32153 5.11074 7.34952 5.04221C7.37751 4.97368 7.3917 4.90029 7.39128 4.82626C7.39066 4.6787 7.33207 4.53728 7.22815 4.43251L5.24815 2.41314C5.19559 2.361 5.13326 2.31976 5.06472 2.29177C4.99619 2.26377 4.9228 2.24958 4.84878 2.25001Z" fill="black"/>
</svg>
