<svg width="30" height="30" viewBox="0 0 30 30" fill="none" xmlns="http://www.w3.org/2000/svg">
<path d="M23.8859 25.1798C22.8378 23.7921 21.4817 22.6668 19.9246 21.8924C18.3675 21.118 16.6519 20.7158 14.9129 20.7173C13.1738 20.7158 11.4582 21.118 9.90109 21.8924C8.34399 22.6668 6.98797 23.7921 5.93986 25.1798M23.8859 25.1798C25.9311 23.3606 27.3735 20.9627 28.0246 18.304C28.6757 15.6453 28.5033 12.8515 27.5301 10.293C26.5569 7.73463 24.8289 5.5325 22.5755 3.97868C20.322 2.42486 17.6494 1.59277 14.9121 1.59277C12.1749 1.59277 9.50226 2.42486 7.24877 3.97868C4.99527 5.5325 3.26736 7.73463 2.29416 10.293C1.32097 12.8515 1.14849 15.6453 1.79959 18.304C2.45069 20.9627 3.89461 23.3606 5.93986 25.1798M23.8859 25.1798C21.4169 27.3821 18.2213 28.597 14.9129 28.5923C11.6039 28.5974 8.40922 27.3824 5.93986 25.1798M19.4129 11.7173C19.4129 12.9108 18.9388 14.0554 18.0948 14.8993C17.2509 15.7432 16.1063 16.2173 14.9129 16.2173C13.7194 16.2173 12.5748 15.7432 11.7309 14.8993C10.887 14.0554 10.4129 12.9108 10.4129 11.7173C10.4129 10.5239 10.887 9.37926 11.7309 8.53535C12.5748 7.69144 13.7194 7.21733 14.9129 7.21733C16.1063 7.21733 17.2509 7.69144 18.0948 8.53535C18.9388 9.37926 19.4129 10.5239 19.4129 11.7173Z" stroke="black" stroke-width="2.25" stroke-linecap="round" stroke-linejoin="round"/>
</svg>
