<svg width="32" height="29" viewBox="0 0 32 29" fill="none" xmlns="http://www.w3.org/2000/svg">
<path d="M23.6833 19.3743C24.385 18.8951 25.208 18.6244 26.0572 18.5934C26.9063 18.5625 27.7468 18.7726 28.4816 19.1994C29.2163 19.6262 29.8151 20.2524 30.2088 21.0053C30.6025 21.7583 30.775 22.6074 30.7063 23.4543C28.9066 24.0833 26.995 24.328 25.0948 24.1728C25.089 22.4727 24.5994 20.8079 23.6833 19.3758C22.8702 18.1005 21.7485 17.0508 20.4221 16.324C19.0956 15.5972 17.6073 15.2167 16.0948 15.2178C14.5826 15.217 13.0946 15.5976 11.7684 16.3244C10.4423 17.0512 9.32083 18.1007 8.50783 19.3758M25.0933 24.1713L25.0948 24.2178C25.0948 24.5553 25.0768 24.8883 25.0393 25.2168C22.3174 26.7785 19.233 27.5978 16.0948 27.5928C12.8398 27.5928 9.78433 26.7288 7.15033 25.2168C7.11176 24.8696 7.09323 24.5205 7.09483 24.1713M7.09483 24.1713C5.19527 24.3322 3.28469 24.0883 1.48633 23.4558C1.41785 22.6091 1.59042 21.7603 1.98407 21.0076C2.37772 20.2549 2.97638 19.629 3.71083 19.2022C4.44528 18.7754 5.28552 18.5653 6.1344 18.596C6.98329 18.6267 7.80614 18.897 8.50783 19.3758M7.09483 24.1713C7.10021 22.4714 7.59226 20.8081 8.50783 19.3758M20.5948 6.21777C20.5948 7.41125 20.1207 8.55584 19.2768 9.39975C18.4329 10.2437 17.2883 10.7178 16.0948 10.7178C14.9014 10.7178 13.7568 10.2437 12.9128 9.39975C12.0689 8.55584 11.5948 7.41125 11.5948 6.21777C11.5948 5.0243 12.0689 3.87971 12.9128 3.03579C13.7568 2.19188 14.9014 1.71777 16.0948 1.71777C17.2883 1.71777 18.4329 2.19188 19.2768 3.03579C20.1207 3.87971 20.5948 5.0243 20.5948 6.21777ZM29.5948 10.7178C29.5948 11.161 29.5075 11.5999 29.3379 12.0093C29.1683 12.4188 28.9197 12.7909 28.6063 13.1043C28.2929 13.4177 27.9209 13.6663 27.5114 13.8359C27.1019 14.0055 26.663 14.0928 26.2198 14.0928C25.7766 14.0928 25.3377 14.0055 24.9283 13.8359C24.5188 13.6663 24.1467 13.4177 23.8333 13.1043C23.5199 12.7909 23.2713 12.4188 23.1017 12.0093C22.9321 11.5999 22.8448 11.161 22.8448 10.7178C22.8448 9.82267 23.2004 8.96422 23.8333 8.33129C24.4663 7.69835 25.3247 7.34277 26.2198 7.34277C27.1149 7.34277 27.9734 7.69835 28.6063 8.33129C29.2392 8.96422 29.5948 9.82267 29.5948 10.7178ZM9.34483 10.7178C9.34483 11.161 9.25753 11.5999 9.08792 12.0093C8.91831 12.4188 8.66971 12.7909 8.35631 13.1043C8.04291 13.4177 7.67086 13.6663 7.26138 13.8359C6.85191 14.0055 6.41304 14.0928 5.96983 14.0928C5.52662 14.0928 5.08774 14.0055 4.67827 13.8359C4.2688 13.6663 3.89674 13.4177 3.58334 13.1043C3.26994 12.7909 3.02134 12.4188 2.85173 12.0093C2.68212 11.5999 2.59483 11.161 2.59483 10.7178C2.59483 9.82267 2.95041 8.96422 3.58334 8.33129C4.21628 7.69835 5.07472 7.34277 5.96983 7.34277C6.86493 7.34277 7.72338 7.69835 8.35631 8.33129C8.98925 8.96422 9.34483 9.82267 9.34483 10.7178Z" stroke="black" stroke-width="2.25" stroke-linecap="round" stroke-linejoin="round"/>
</svg>
