<svg width="60" height="82" viewBox="0 0 60 82" fill="none" xmlns="http://www.w3.org/2000/svg">
<path fill-rule="evenodd" clip-rule="evenodd" d="M13.9118 7.274C10.4632 11.1937 8.56423 16.2374 8.57143 21.4582V34.3153H6.85714C3.08571 34.3153 0 37.401 0 41.1725V71.1725C0 76.8296 4.62857 81.4582 10.2857 81.4582H49.7143C55.3714 81.4582 60 76.8296 60 71.1725V41.1725C60 37.401 56.9143 34.3153 53.1429 34.3153H17.1429V21.4582C17.1377 18.3252 18.2767 15.2981 20.346 12.9456C22.4152 10.5931 25.2722 9.07707 28.3803 8.68237C31.4883 8.28768 34.6336 9.04145 37.2251 10.8021C39.8167 12.5627 41.6762 15.209 42.4543 18.2439C42.7384 19.3447 43.4483 20.2876 44.4276 20.8651C45.407 21.4426 46.5756 21.6073 47.6764 21.3232C48.7773 21.039 49.7201 20.3292 50.2976 19.3499C50.8751 18.3705 51.0399 17.2019 50.7557 16.101C49.4577 11.0442 46.3583 6.6352 42.0395 3.70196C37.7206 0.768724 32.4795 -0.486936 27.3004 0.170784C22.1212 0.828504 17.3603 3.35436 13.9118 7.274ZM30 65C33.866 65 37 61.866 37 58C37 54.134 33.866 51 30 51C26.134 51 23 54.134 23 58C23 61.866 26.134 65 30 65Z" fill="black"/>
</svg>
