<svg width="30" height="28" viewBox="0 0 30 28" fill="none" xmlns="http://www.w3.org/2000/svg">
<g clip-path="url(#clip0_2052_1376)">
<path d="M0 10.5396V28.0001H7.72878V10.5396H0ZM6.23313 26.577H1.46433V12.0843H6.23313V26.577Z" fill="#0D0D0D"/>
<path d="M21.9863 10.5396V28.0001H29.7151V10.5396H21.9863ZM28.2195 26.577H23.4507V12.0843H28.2195V26.577Z" fill="#0D0D0D"/>
<path d="M18.6281 6.04748e-06H29.683V7.51082H19.0331V28H10.6812V7.51082H0V6.04748e-06H11.0862C11.7457 0.00544714 12.3836 0.229839 12.8939 0.635964L14.8258 2.45254L16.8204 0.635964C17.3272 0.223851 17.9673 -0.0013454 18.6281 6.04748e-06ZM1.46433 1.42304V6.08673H11.1477L13.828 3.48203L11.9274 1.72528C11.6901 1.53509 11.3937 1.42824 11.0862 1.42199L1.46433 1.42304ZM12.1142 26.577H17.5677V7.14771L14.8258 4.48215L12.1142 7.14771V26.577ZM28.2186 6.08673V1.42304H18.6281C18.3103 1.42525 18.0027 1.53217 17.7556 1.72633L15.8539 3.48308L18.5342 6.08673H28.2186Z" fill="#0D0D0D"/>
</g>
<defs>
<clipPath id="clip0_2052_1376">
<rect width="30" height="28" fill="white"/>
</clipPath>
</defs>
</svg>
