<svg width="158" height="42" viewBox="0 0 158 42" fill="none" xmlns="http://www.w3.org/2000/svg">
<g clip-path="url(#clip0_2056_3146)">
<path d="M0 16.7197V39.0191H9.53293V16.7197H0ZM7.68815 37.2017H1.80616V18.6926H7.68815V37.2017Z" fill="black"/>
<path d="M27.1172 16.7197V39.0191H36.6501V16.7197H27.1172ZM34.8053 37.2017H28.9233V18.6926H34.8053V37.2017Z" fill="black"/>
<path d="M22.9765 3.25977H36.612V12.8521H23.476V39.0195H13.1746V12.8521H0V3.25977H13.674C14.4876 3.26672 15.2743 3.5533 15.9038 4.07198L18.2867 6.39198L20.7468 4.07198C21.3719 3.54565 22.1615 3.25805 22.9765 3.25977ZM1.80616 5.07718V11.0347H13.75L17.0559 7.70813L14.7116 5.46452C14.4189 5.22162 14.0534 5.08516 13.674 5.07718H1.80616ZM14.9421 37.2021H21.6685V12.3883L18.2867 8.98004L14.9421 12.3843V37.2021ZM34.8058 11.0347V5.07718H22.9765C22.5846 5.07999 22.2051 5.21655 21.9003 5.46452L19.5547 7.70813L22.8607 11.0347H34.8058Z" fill="black"/>
<path d="M47.6562 0V42H48.1451V0" fill="black"/>
<path d="M61.8964 34.0508H60.9267V31.0151H61.8964C62.9207 31.0151 63.3509 31.7536 63.3709 32.4894C63.3908 33.2654 62.9673 34.0508 61.8964 34.0508ZM61.8964 30.1641H60.0449V34.9073H61.8964C63.5467 34.9073 64.2739 33.6943 64.254 32.4948C64.2326 31.3274 63.512 30.1681 61.8964 30.1681V30.1641Z" fill="black"/>
<path d="M78.0539 31.0351V30.168H74.5215V34.9112H78.0539V34.0306H75.4032V32.9584H77.9553V32.1261H75.4032V31.0351H78.0539Z" fill="black"/>
<path d="M90.4398 32.0121C89.8737 31.9438 89.3888 31.8285 89.3888 31.4157C89.3888 31.0632 89.7058 30.7844 90.3652 30.7844C90.8766 30.7844 91.3215 31.0431 91.4827 31.3138L92.19 30.948C91.833 30.2162 91.0724 30.0098 90.3385 30.0098C89.4701 30.0165 88.5137 30.4118 88.5137 31.3916C88.5137 32.4558 89.4021 32.7131 90.3652 32.8284C90.9912 32.8967 91.456 33.079 91.456 33.5266C91.456 34.0413 90.9312 34.2383 90.3718 34.2383C89.8124 34.2383 89.2543 34.0078 89.0398 33.4864L88.3086 33.8684C88.6589 34.7356 89.3995 35.0331 90.3625 35.0331C91.4134 35.0331 92.3418 34.5801 92.3418 33.5226C92.3365 32.3914 91.4214 32.1328 90.4398 32.0121Z" fill="black"/>
<path d="M102.729 30.168V34.9112H103.61V30.168H102.729Z" fill="black"/>
<path d="M117.583 32.1669V33.7283C117.266 34.0047 116.865 34.1645 116.446 34.1813C115.274 34.1813 114.822 33.3772 114.822 32.5958C114.822 31.6201 115.435 30.8534 116.446 30.8534C116.89 30.8573 117.317 31.0263 117.645 31.3279L118.197 30.7583C117.732 30.294 117.103 30.0335 116.447 30.0332C114.784 30.0332 113.955 31.2663 113.955 32.6012C113.955 33.8489 114.676 35.0203 116.447 35.0203C116.804 35.0313 117.159 34.9601 117.484 34.8121C117.81 34.6642 118.097 34.4434 118.325 34.1666V32.1669H117.583Z" fill="black"/>
<path d="M131.843 30.1562V33.1048L129.533 30.1683H128.812V34.9115H129.701V31.7136L132.18 34.9182H132.732V30.1562H131.843Z" fill="black"/>
<path d="M72.9658 16.2712C74.708 15.4885 75.4046 14.0865 75.4046 12.6297C75.4046 8.82598 72.6434 7.15332 68.9432 7.15332H60.043V26.0364H68.9432C72.8312 26.0364 75.968 24.6881 75.968 20.4796C75.968 19.2921 75.1635 16.9453 72.9658 16.2712ZM63.5354 10.3901H68.9432C71.1956 10.3901 71.8922 11.8469 71.8922 12.7101C71.8922 13.7823 71.1689 14.7339 68.9432 14.7339H63.5354V10.3901ZM68.9499 22.7205H63.5354V17.8621H68.9432C70.3911 17.8621 72.4556 18.7533 72.4556 20.4528C72.4596 22.2327 70.3911 22.7179 68.9432 22.7179L68.9499 22.7205Z" fill="black"/>
<path d="M88.1381 12.7324V19.5303C88.1381 21.5541 86.7715 23.2535 84.7602 23.2535C82.669 23.2535 81.5635 21.7162 81.5635 19.6924V12.7324H78.2988V19.7192C78.2988 23.8473 80.6045 26.2477 83.7679 26.2477C85.618 26.2477 86.8781 25.6003 88.246 24.252L88.4604 26.0587H91.3828V12.7324H88.1381Z" fill="black"/>
<path d="M93.9824 8.98788C93.9824 11.5505 97.8451 11.5505 97.8451 8.98788C97.8451 6.42528 93.9824 6.42394 93.9824 8.98788ZM94.2768 12.683V26.0361H97.5468V12.683H94.2768Z" fill="black"/>
<path d="M100.496 7.17969V26.0359H103.741V7.17969H100.496Z" fill="black"/>
<path d="M117.065 7.17969V14.5512C116.287 13.1747 114.116 12.4201 112.721 12.4201C108.859 12.4201 105.992 14.7938 105.992 19.3802C105.992 23.7494 108.915 26.3402 112.803 26.3402C114.41 26.3402 116.046 25.8041 117.065 24.2078L117.279 26.0426H120.335V7.17969H117.065ZM113.017 23.2844C110.926 23.2844 109.264 21.6935 109.264 19.3735C109.264 16.9717 110.926 15.4867 113.017 15.4867C115.08 15.4867 116.85 17.0521 116.85 19.3735C116.85 21.7739 115.083 23.2844 113.017 23.2844Z" fill="black"/>
<path d="M122.881 8.98788C122.881 11.5505 126.744 11.5505 126.744 8.98788C126.744 6.42528 122.881 6.42394 122.881 8.98788ZM123.175 12.683V26.0361H126.447V12.683H123.175Z" fill="black"/>
<path d="M136.793 12.5205C135.131 12.5205 133.791 13.1906 132.45 14.5175L132.235 12.7095H129.314V26.0358H132.559V19.2379C132.559 17.2141 133.926 15.5147 135.937 15.5147C138.028 15.5147 139.127 17.0533 139.127 19.0758V26.0358H142.398V19.049C142.398 14.8673 139.905 12.5205 136.793 12.5205Z" fill="black"/>
<path d="M157.919 19.0495C157.919 17.5927 157.543 16.2712 156.524 15.1118L157.999 13.2234L155.587 11.3926L154.272 13.0652C153.361 12.4447 152.289 12.3093 151.243 12.3093C147.543 12.3093 144.54 14.8987 144.54 19.0536C144.54 23.2084 147.114 25.7442 151.243 25.7442C152.879 25.7442 154.594 26.5805 154.594 28.414C154.594 30.2475 153.12 31.2741 151.243 31.2741C149.366 31.2741 147.78 30.1416 147.78 28.414H144.535C144.535 32.0019 147.404 34.3487 151.238 34.3487C155.071 34.3487 157.86 32.0836 157.86 28.414C157.86 26.7145 157.327 25.1236 155.126 24.0179C157.305 23.0154 157.919 20.6954 157.919 19.0495ZM151.243 22.746C149.34 22.746 147.78 21.3695 147.78 19.0495C147.78 16.7295 149.334 15.2968 151.243 15.2968C153.12 15.2968 154.674 16.7537 154.674 19.0495C154.674 21.3454 153.12 22.746 151.243 22.746Z" fill="black"/>
<path d="M117.335 32.0137V34.3605H116.596V32.4747L117.335 32.0137Z" fill="black"/>
<path d="M116.347 32.6299V34.3602H115.607V33.0909L116.347 32.6299Z" fill="black"/>
<path d="M118.323 31.3955V34.005H117.582V31.8579L118.323 31.3955Z" fill="black"/>
</g>
<defs>
<clipPath id="clip0_2056_3146">
<rect width="158" height="42" fill="white"/>
</clipPath>
</defs>
</svg>
