<svg width="79" height="79" viewBox="0 0 79 79" fill="none" xmlns="http://www.w3.org/2000/svg">
<circle cx="39.5" cy="39.5" r="39.5" fill="white"/>
<path d="M60.3125 24.875C59.8649 24.875 59.4357 24.6972 59.1193 24.3807C58.8028 24.0643 58.625 23.6351 58.625 23.1875C58.625 22.7399 58.8028 22.3107 59.1193 21.9943C59.4357 21.6778 59.8649 21.5 60.3125 21.5C60.7601 21.5 61.1893 21.6778 61.5057 21.9943C61.8222 22.3107 62 22.7399 62 23.1875C62 23.6351 61.8222 24.0643 61.5057 24.3807C61.1893 24.6972 60.7601 24.875 60.3125 24.875ZM60.3125 24.875V33.3125C60.3125 34.883 60.3125 35.6682 60.119 36.305C59.9045 37.0134 59.5185 37.6579 58.9954 38.1814C58.4722 38.705 57.828 39.0914 57.1197 39.3065C56.4807 39.5 55.6955 39.5 54.125 39.5M18.6875 54.125C19.1351 54.125 19.5643 54.3028 19.8807 54.6193C20.1972 54.9357 20.375 55.3649 20.375 55.8125C20.375 56.2601 20.1972 56.6893 19.8807 57.0057C19.5643 57.3222 19.1351 57.5 18.6875 57.5C18.2399 57.5 17.8107 57.3222 17.4943 57.0057C17.1778 56.6893 17 56.2601 17 55.8125C17 55.3649 17.1778 54.9357 17.4943 54.6193C17.8107 54.3028 18.2399 54.125 18.6875 54.125ZM18.6875 54.125V45.6875C18.6875 44.117 18.6875 43.3318 18.881 42.695C19.0955 41.9866 19.4815 41.3421 20.0046 40.8186C20.5278 40.295 21.172 39.9086 21.8803 39.6935C22.5193 39.5 23.3045 39.5 24.875 39.5M24.875 18.6875C24.875 19.1351 24.6972 19.5643 24.3807 19.8807C24.0643 20.1972 23.6351 20.375 23.1875 20.375C22.7399 20.375 22.3107 20.1972 21.9943 19.8807C21.6778 19.5643 21.5 19.1351 21.5 18.6875C21.5 18.2399 21.6778 17.8107 21.9943 17.4943C22.3107 17.1778 22.7399 17 23.1875 17C23.6351 17 24.0643 17.1778 24.3807 17.4943C24.6972 17.8107 24.875 18.2399 24.875 18.6875ZM24.875 18.6875H33.3125C34.883 18.6875 35.6682 18.6875 36.305 18.881C37.0134 19.0955 37.6579 19.4815 38.1814 20.0046C38.705 20.5278 39.0914 21.172 39.3065 21.8803C39.5 22.5193 39.5 23.3045 39.5 24.875M54.125 60.3125C54.125 59.8649 54.3028 59.4357 54.6193 59.1193C54.9357 58.8028 55.3649 58.625 55.8125 58.625C56.2601 58.625 56.6893 58.8028 57.0057 59.1193C57.3222 59.4357 57.5 59.8649 57.5 60.3125C57.5 60.7601 57.3222 61.1893 57.0057 61.5057C56.6893 61.8222 56.2601 62 55.8125 62C55.3649 62 54.9357 61.8222 54.6193 61.5057C54.3028 61.1893 54.125 60.7601 54.125 60.3125ZM54.125 60.3125H45.6875C44.117 60.3125 43.3318 60.3125 42.695 60.119C41.9866 59.9045 41.3421 59.5185 40.8186 58.9954C40.295 58.4722 39.9086 57.828 39.6935 57.1197C39.5 56.4807 39.5 55.6955 39.5 54.125" stroke="#F04B54" stroke-width="3.375" stroke-linecap="round" stroke-linejoin="round"/>
<path d="M24.9844 39.3901C24.9844 32.4961 24.9844 29.0491 27.1264 26.9071C29.2684 24.7651 32.7154 24.7651 39.6094 24.7651C46.5034 24.7651 49.9504 24.7651 52.0924 26.9071C54.2344 29.0491 54.2344 32.4961 54.2344 39.3901C54.2344 46.2841 54.2344 49.7311 52.0924 51.8731C49.9504 54.0151 46.5034 54.0151 39.6094 54.0151C32.7154 54.0151 29.2684 54.0151 27.1264 51.8731C24.9844 49.7311 24.9844 46.2841 24.9844 39.3901Z" stroke="#F04B54" stroke-width="3.375" stroke-linecap="round" stroke-linejoin="round"/>
<path d="M40.6234 45.1254L37.3384 34.9531C37.2244 34.6321 37.0122 34.3552 36.7319 34.1617C36.4516 33.9683 36.1174 33.8681 35.7769 33.8754C35.4367 33.8685 35.103 33.969 34.8232 34.1624C34.5433 34.3559 34.3314 34.6325 34.2176 34.9531L30.9326 45.1254M46.2484 33.8754V45.1254M32.1409 41.7504H39.4129" stroke="#F04B54" stroke-width="3.375" stroke-linecap="round" stroke-linejoin="round"/>
</svg>
