<svg width="79" height="79" viewBox="0 0 79 79" fill="none" xmlns="http://www.w3.org/2000/svg">
<circle cx="39.5" cy="39.5" r="39.5" fill="white"/>
<path d="M64 39.5C64 45.9978 61.4188 52.2295 56.8241 56.8241C52.2295 61.4188 45.9978 64 39.5 64C33.0022 64 26.7705 61.4188 22.1759 56.8241C17.5812 52.2295 15 45.9978 15 39.5M64 39.5C64 33.0022 61.4188 26.7705 56.8241 22.1759C52.2295 17.5812 45.9978 15 39.5 15C33.0022 15 26.7705 17.5812 22.1759 22.1759C17.5812 26.7705 15 33.0022 15 39.5M64 39.5H15" stroke="#4F0673" stroke-width="3.76923" stroke-linecap="round" stroke-linejoin="round"/>
<path d="M48.9223 39.5C48.4595 48.4594 45.1594 57.0395 39.4992 64C33.8391 57.0395 30.539 48.4594 30.0762 39.5C30.539 30.5406 33.8391 21.9605 39.4992 15C45.1594 21.9605 48.4595 30.5406 48.9223 39.5Z" stroke="#4F0673" stroke-width="3.76923" stroke-linecap="round" stroke-linejoin="round"/>
</svg>
