<svg width="16" height="19" viewBox="0 0 16 19" fill="none" xmlns="http://www.w3.org/2000/svg">
<path d="M5 2.19335C4.73478 2.19335 4.48043 2.29871 4.29289 2.48625C4.10536 2.67378 4 2.92814 4 3.19335C4 3.45857 4.10536 3.71292 4.29289 3.90046C4.48043 4.088 4.73478 4.19335 5 4.19335C5.26522 4.19335 5.51957 4.088 5.70711 3.90046C5.89464 3.71292 6 3.45857 6 3.19335C6 2.92814 5.89464 2.67378 5.70711 2.48625C5.51957 2.29871 5.26522 2.19335 5 2.19335ZM2.17 2.19335C2.3766 1.60782 2.75974 1.10079 3.2666 0.742143C3.77346 0.383498 4.37909 0.190903 5 0.190903C5.62091 0.190903 6.22654 0.383498 6.7334 0.742143C7.24026 1.10079 7.6234 1.60782 7.83 2.19335H15C15.2652 2.19335 15.5196 2.29871 15.7071 2.48625C15.8946 2.67378 16 2.92814 16 3.19335C16 3.45857 15.8946 3.71292 15.7071 3.90046C15.5196 4.088 15.2652 4.19335 15 4.19335H7.83C7.6234 4.77889 7.24026 5.28592 6.7334 5.64456C6.22654 6.00321 5.62091 6.1958 5 6.1958C4.37909 6.1958 3.77346 6.00321 3.2666 5.64456C2.75974 5.28592 2.3766 4.77889 2.17 4.19335H1C0.734784 4.19335 0.48043 4.088 0.292893 3.90046C0.105357 3.71292 0 3.45857 0 3.19335C0 2.92814 0.105357 2.67378 0.292893 2.48625C0.48043 2.29871 0.734784 2.19335 1 2.19335H2.17ZM11 8.19335C10.7348 8.19335 10.4804 8.29871 10.2929 8.48625C10.1054 8.67378 10 8.92814 10 9.19335C10 9.45857 10.1054 9.71292 10.2929 9.90046C10.4804 10.088 10.7348 10.1934 11 10.1934C11.2652 10.1934 11.5196 10.088 11.7071 9.90046C11.8946 9.71292 12 9.45857 12 9.19335C12 8.92814 11.8946 8.67378 11.7071 8.48625C11.5196 8.29871 11.2652 8.19335 11 8.19335ZM8.17 8.19335C8.3766 7.60782 8.75974 7.10079 9.2666 6.74214C9.77346 6.3835 10.3791 6.1909 11 6.1909C11.6209 6.1909 12.2265 6.3835 12.7334 6.74214C13.2403 7.10079 13.6234 7.60782 13.83 8.19335H15C15.2652 8.19335 15.5196 8.29871 15.7071 8.48625C15.8946 8.67378 16 8.92814 16 9.19335C16 9.45857 15.8946 9.71292 15.7071 9.90046C15.5196 10.088 15.2652 10.1934 15 10.1934H13.83C13.6234 10.7789 13.2403 11.2859 12.7334 11.6446C12.2265 12.0032 11.6209 12.1958 11 12.1958C10.3791 12.1958 9.77346 12.0032 9.2666 11.6446C8.75974 11.2859 8.3766 10.7789 8.17 10.1934H1C0.734784 10.1934 0.48043 10.088 0.292893 9.90046C0.105357 9.71292 0 9.45857 0 9.19335C0 8.92814 0.105357 8.67378 0.292893 8.48625C0.48043 8.29871 0.734784 8.19335 1 8.19335H8.17ZM5 14.1934C4.73478 14.1934 4.48043 14.2987 4.29289 14.4862C4.10536 14.6738 4 14.9281 4 15.1934C4 15.4586 4.10536 15.7129 4.29289 15.9005C4.48043 16.088 4.73478 16.1934 5 16.1934C5.26522 16.1934 5.51957 16.088 5.70711 15.9005C5.89464 15.7129 6 15.4586 6 15.1934C6 14.9281 5.89464 14.6738 5.70711 14.4862C5.51957 14.2987 5.26522 14.1934 5 14.1934ZM2.17 14.1934C2.3766 13.6078 2.75974 13.1008 3.2666 12.7421C3.77346 12.3835 4.37909 12.1909 5 12.1909C5.62091 12.1909 6.22654 12.3835 6.7334 12.7421C7.24026 13.1008 7.6234 13.6078 7.83 14.1934H15C15.2652 14.1934 15.5196 14.2987 15.7071 14.4862C15.8946 14.6738 16 14.9281 16 15.1934C16 15.4586 15.8946 15.7129 15.7071 15.9005C15.5196 16.088 15.2652 16.1934 15 16.1934H7.83C7.6234 16.7789 7.24026 17.2859 6.7334 17.6446C6.22654 18.0032 5.62091 18.1958 5 18.1958C4.37909 18.1958 3.77346 18.0032 3.2666 17.6446C2.75974 17.2859 2.3766 16.7789 2.17 16.1934H1C0.734784 16.1934 0.48043 16.088 0.292893 15.9005C0.105357 15.7129 0 15.4586 0 15.1934C0 14.9281 0.105357 14.6738 0.292893 14.4862C0.48043 14.2987 0.734784 14.1934 1 14.1934H2.17Z" fill="#7E7E7E"/>
</svg>
