<svg width="37" height="37" viewBox="0 0 37 37" fill="none" xmlns="http://www.w3.org/2000/svg">
<path d="M12.9185 11.3433V9.25526C12.9185 7.55276 14.186 6.10826 15.8825 5.96726C16.442 5.92226 17.0045 5.88176 17.567 5.84726M24.1685 27.0933H27.5435C28.4386 27.0933 29.297 26.7377 29.9299 26.1047C30.5629 25.4718 30.9185 24.6134 30.9185 23.7183V9.25526C30.9185 7.55276 29.651 6.10826 27.9545 5.96726C27.3934 5.92074 26.8319 5.88073 26.27 5.84726M26.27 5.84726C26.0569 5.15831 25.6274 4.55566 25.0471 4.12757C24.4667 3.69948 23.7646 3.46843 23.0435 3.46826H20.7935C20.0723 3.46843 19.3702 3.69948 18.7898 4.12757C18.2095 4.55566 17.7815 5.15831 17.5685 5.84726C17.471 6.16226 17.4185 6.49676 17.4185 6.84326V7.96826H26.4185V6.84326C26.4185 6.49676 26.3675 6.16226 26.27 5.84726ZM24.1685 28.2183V25.4058C24.1685 24.0631 23.6351 22.7754 22.6857 21.826C21.7363 20.8766 20.4486 20.3433 19.106 20.3433H16.856C16.4084 20.3433 15.9792 20.1655 15.6627 19.849C15.3462 19.5325 15.1685 19.1033 15.1685 18.6558V16.4058C15.1685 15.0631 14.6351 13.7754 13.6857 12.826C12.7363 11.8766 11.4486 11.3433 10.106 11.3433H8.41846M10.6685 11.3433H7.85596C6.92446 11.3433 6.16846 12.0993 6.16846 13.0308V31.0308C6.16846 31.9623 6.92446 32.7183 7.85596 32.7183H22.481C23.4125 32.7183 24.1685 31.9623 24.1685 31.0308V24.8433C24.1685 21.2628 22.7461 17.8291 20.2144 15.2973C17.6827 12.7656 14.2489 11.3433 10.6685 11.3433Z" stroke="black" stroke-width="2.25" stroke-linecap="round" stroke-linejoin="round"/>
</svg>
