<?xml version="1.0" encoding="UTF-8"?>
<svg xmlns="http://www.w3.org/2000/svg" xmlns:xlink="http://www.w3.org/1999/xlink" width="25px" height="25px" viewBox="0 0 25 25" version="1.1">
<g id="surface1">
<path style=" stroke:none;fill-rule:nonzero;fill:rgb(0%,0%,0%);fill-opacity:1;" d="M 12.5 3.09375 C 10.089844 3.09375 8.125 5.054688 8.125 7.46875 C 8.125 8.636719 8.589844 9.964844 9.359375 11.019531 C 10.234375 12.214844 11.351562 12.871094 12.5 12.871094 C 13.648438 12.871094 14.765625 12.214844 15.640625 11.019531 C 16.410156 9.964844 16.875 8.636719 16.875 7.46875 C 16.875 5.054688 14.910156 3.09375 12.5 3.09375 Z M 12.5 11.9375 C 11.667969 11.9375 10.796875 11.402344 10.113281 10.46875 C 9.460938 9.582031 9.058594 8.433594 9.058594 7.46875 C 9.058594 5.570312 10.601562 4.027344 12.5 4.027344 C 14.398438 4.027344 15.941406 5.570312 15.941406 7.46875 C 15.941406 9.4375 14.320312 11.9375 12.5 11.9375 Z M 12.5 11.9375 "/>
<path style=" stroke:none;fill-rule:nonzero;fill:rgb(0%,0%,0%);fill-opacity:1;" d="M 12.5 0 C 6.800781 0 2.164062 4.636719 2.164062 10.335938 C 2.164062 16.039062 6.800781 20.675781 12.5 20.675781 C 18.199219 20.675781 22.835938 16.039062 22.835938 10.335938 C 22.835938 4.636719 18.199219 0 12.5 0 Z M 12.5 19.742188 C 10.628906 19.742188 8.882812 19.191406 7.417969 18.246094 C 7.46875 16.820312 8.113281 15.480469 9.210938 14.550781 C 9.644531 14.183594 10.277344 14.140625 10.789062 14.449219 C 11.339844 14.785156 11.917969 14.953125 12.5 14.953125 C 13.082031 14.953125 13.660156 14.785156 14.210938 14.449219 C 14.71875 14.140625 15.355469 14.179688 15.785156 14.546875 C 16.882812 15.476562 17.53125 16.820312 17.582031 18.246094 C 16.117188 19.191406 14.371094 19.742188 12.5 19.742188 Z M 18.460938 17.605469 C 18.261719 16.144531 17.527344 14.800781 16.390625 13.835938 C 15.648438 13.210938 14.582031 13.136719 13.726562 13.652344 C 12.921875 14.140625 12.078125 14.140625 11.273438 13.652344 C 10.417969 13.136719 9.347656 13.210938 8.605469 13.839844 C 7.46875 14.808594 6.738281 16.148438 6.539062 17.605469 C 4.4375 15.878906 3.09375 13.261719 3.09375 10.335938 C 3.09375 5.152344 7.3125 0.933594 12.5 0.933594 C 17.6875 0.933594 21.90625 5.152344 21.90625 10.335938 C 21.90625 13.261719 20.5625 15.878906 18.460938 17.605469 Z M 18.460938 17.605469 "/>
<path style=" stroke:none;fill-rule:nonzero;fill:rgb(0%,0%,0%);fill-opacity:1;" d="M 18.824219 21.90625 L 6.175781 21.90625 C 5.917969 21.90625 5.710938 22.113281 5.710938 22.371094 C 5.710938 22.628906 5.917969 22.835938 6.175781 22.835938 L 18.824219 22.835938 C 19.082031 22.835938 19.289062 22.628906 19.289062 22.371094 C 19.289062 22.113281 19.082031 21.90625 18.824219 21.90625 Z M 18.824219 21.90625 "/>
<path style=" stroke:none;fill-rule:nonzero;fill:rgb(0%,0%,0%);fill-opacity:1;" d="M 18.824219 24.066406 L 6.175781 24.066406 C 5.917969 24.066406 5.710938 24.277344 5.710938 24.535156 C 5.710938 24.792969 5.917969 25 6.175781 25 L 18.824219 25 C 19.082031 25 19.289062 24.792969 19.289062 24.535156 C 19.289062 24.277344 19.082031 24.066406 18.824219 24.066406 Z M 18.824219 24.066406 "/>
</g>
</svg>
