<svg width="36" height="36" viewBox="0 0 36 36" fill="none" xmlns="http://www.w3.org/2000/svg">
<g clip-path="url(#clip0_4649_1284)">
<path fill-rule="evenodd" clip-rule="evenodd" d="M4.67188 8.21403C4.67188 7.0964 5.11585 6.02454 5.90614 5.23426C6.69642 4.44398 7.76827 4 8.8859 4H19.6317C19.9078 4.0006 20.1726 4.10955 20.3691 4.30341L29.64 13.4331C29.7398 13.5309 29.8191 13.6476 29.8734 13.7764C29.9276 13.9052 29.9557 14.0435 29.956 14.1832V29.2842C29.956 30.4018 29.5121 31.4737 28.7218 32.2639C27.9315 33.0542 26.8596 33.4982 25.742 33.4982H6.77889C6.49948 33.4982 6.23152 33.3872 6.03395 33.1896C5.83638 32.9921 5.72538 32.7241 5.72538 32.4447C5.72538 32.1653 5.83638 31.8973 6.03395 31.6998C6.23152 31.5022 6.49948 31.3912 6.77889 31.3912H25.742C26.3008 31.3912 26.8368 31.1692 27.2319 30.7741C27.627 30.3789 27.849 29.843 27.849 29.2842V15.2367H21.7387C20.9005 15.2367 20.0966 14.9037 19.5039 14.311C18.9112 13.7183 18.5782 12.9144 18.5782 12.0762V6.10701H8.8859C8.32709 6.10701 7.79116 6.329 7.39602 6.72414C7.00088 7.11929 6.77889 7.65521 6.77889 8.21403V13.4816C6.77889 13.761 6.6679 14.0289 6.47032 14.2265C6.27275 14.4241 6.00479 14.5351 5.72538 14.5351C5.44597 14.5351 5.17801 14.4241 4.98044 14.2265C4.78287 14.0289 4.67188 13.761 4.67188 13.4816V8.21403ZM20.6852 7.56928L26.332 13.1318H21.7387C21.4593 13.1318 21.1913 13.0208 20.9937 12.8232C20.7962 12.6257 20.6852 12.3577 20.6852 12.0783V7.56928Z" fill="black"/>
<path fill-rule="evenodd" clip-rule="evenodd" d="M9.92962 17.9639C8.79885 17.3631 7.47577 17.2362 6.25142 17.611C5.02707 17.9858 4.00176 18.8316 3.40103 19.9624C2.80031 21.0931 2.67338 22.4162 3.04817 23.6406C3.42296 24.8649 4.26877 25.8902 5.39953 26.491C6.5303 27.0917 7.85338 27.2186 9.07773 26.8438C10.3021 26.469 11.3274 25.6232 11.9281 24.4924C12.5288 23.3617 12.6558 22.0386 12.281 20.8143C11.9062 19.5899 11.0604 18.5646 9.92962 17.9639ZM1.54159 18.9752C2.1644 17.8041 3.11003 16.8362 4.26633 16.1863C5.42263 15.5364 6.74108 15.2317 8.06529 15.3085C9.38949 15.3853 10.6639 15.8403 11.7373 16.6195C12.8108 17.3987 13.6382 18.4694 14.1215 19.7047C14.6047 20.9399 14.7236 22.2879 14.4639 23.5886C14.2042 24.8894 13.5769 26.0884 12.6563 27.0434C11.7358 27.9984 10.5606 28.6693 9.27029 28.9766C7.97994 29.2839 6.62853 29.2146 5.37636 28.7771L1.98406 35.1613C1.91904 35.2835 1.83059 35.3916 1.72377 35.4796C1.61695 35.5676 1.49384 35.6337 1.36148 35.6741C1.22912 35.7145 1.0901 35.7284 0.95235 35.7151C0.814604 35.7018 0.680831 35.6614 0.558669 35.5964C0.436507 35.5314 0.328349 35.4429 0.24037 35.3361C0.152391 35.2293 0.0863135 35.1062 0.0459108 34.9738C0.00550822 34.8415 -0.00842853 34.7024 0.00489636 34.5647C0.0182213 34.427 0.058547 34.2932 0.123571 34.171L3.51586 27.7868C2.18778 26.7961 1.25848 25.3624 0.896304 23.7456C0.534133 22.1288 0.763053 20.4378 1.54159 18.9752Z" fill="black"/>
</g>
<defs>
<clipPath id="clip0_4649_1284">
<rect width="35.8398" height="35.8398" fill="white" transform="translate(0.160156)"/>
</clipPath>
</defs>
</svg>
