<svg width="37" height="37" viewBox="0 0 37 37" fill="none" xmlns="http://www.w3.org/2000/svg">
<path d="M25.6838 23.3748C26.3855 22.8956 27.2085 22.6249 28.0577 22.5939C28.9068 22.563 29.7473 22.7731 30.482 23.1999C31.2167 23.6267 31.8156 24.2528 32.2093 25.0058C32.603 25.7588 32.7755 26.6078 32.7068 27.4548C30.9071 28.0838 28.9955 28.3285 27.0953 28.1733C27.0895 26.4732 26.5999 24.8084 25.6838 23.3763C24.8707 22.1009 23.749 21.0513 22.4226 20.3245C21.0961 19.5977 19.6078 19.2172 18.0953 19.2183C16.5831 19.2175 15.0951 19.5981 13.7689 20.3249C12.4428 21.0517 11.3213 22.1012 10.5083 23.3763M27.0938 28.1718L27.0953 28.2183C27.0953 28.5558 27.0773 28.8888 27.0398 29.2173C24.3179 30.7789 21.2334 31.5983 18.0953 31.5933C14.8403 31.5933 11.7848 30.7293 9.15082 29.2173C9.11225 28.8701 9.09372 28.521 9.09531 28.1718M9.09531 28.1718C7.19576 28.3327 5.28518 28.0888 3.48681 27.4563C3.41834 26.6096 3.59091 25.7608 3.98456 25.0081C4.37821 24.2554 4.97687 23.6295 5.71132 23.2027C6.44577 22.7759 7.28601 22.5657 8.13489 22.5965C8.98378 22.6272 9.80663 22.8975 10.5083 23.3763M9.09531 28.1718C9.1007 26.4718 9.59275 24.8086 10.5083 23.3763M22.5953 10.2183C22.5953 11.4117 22.1212 12.5563 21.2773 13.4002C20.4334 14.2442 19.2888 14.7183 18.0953 14.7183C16.9018 14.7183 15.7572 14.2442 14.9133 13.4002C14.0694 12.5563 13.5953 11.4117 13.5953 10.2183C13.5953 9.02479 14.0694 7.8802 14.9133 7.03628C15.7572 6.19237 16.9018 5.71826 18.0953 5.71826C19.2888 5.71826 20.4334 6.19237 21.2773 7.03628C22.1212 7.8802 22.5953 9.02479 22.5953 10.2183ZM31.5953 14.7183C31.5953 15.1615 31.508 15.6003 31.3384 16.0098C31.1688 16.4193 30.9202 16.7913 30.6068 17.1047C30.2934 17.4181 29.9213 17.6667 29.5119 17.8364C29.1024 18.006 28.6635 18.0933 28.2203 18.0933C27.7771 18.0933 27.3382 18.006 26.9288 17.8364C26.5193 17.6667 26.1472 17.4181 25.8338 17.1047C25.5204 16.7913 25.2718 16.4193 25.1022 16.0098C24.9326 15.6003 24.8453 15.1615 24.8453 14.7183C24.8453 13.8232 25.2009 12.9647 25.8338 12.3318C26.4668 11.6988 27.3252 11.3433 28.2203 11.3433C29.1154 11.3433 29.9739 11.6988 30.6068 12.3318C31.2397 12.9647 31.5953 13.8232 31.5953 14.7183ZM11.3453 14.7183C11.3453 15.1615 11.258 15.6003 11.0884 16.0098C10.9188 16.4193 10.6702 16.7913 10.3568 17.1047C10.0434 17.4181 9.67135 17.6667 9.26187 17.8364C8.8524 18.006 8.41353 18.0933 7.97031 18.0933C7.5271 18.0933 7.08823 18.006 6.67876 17.8364C6.26928 17.6667 5.89723 17.4181 5.58383 17.1047C5.27043 16.7913 5.02183 16.4193 4.85222 16.0098C4.68261 15.6003 4.59531 15.1615 4.59531 14.7183C4.59531 13.8232 4.95089 12.9647 5.58383 12.3318C6.21676 11.6988 7.07521 11.3433 7.97031 11.3433C8.86542 11.3433 9.72386 11.6988 10.3568 12.3318C10.9897 12.9647 11.3453 13.8232 11.3453 14.7183Z" stroke="black" stroke-width="2.25" stroke-linecap="round" stroke-linejoin="round"/>
</svg>
