<svg width="33" height="30" viewBox="0 0 33 30" fill="none" xmlns="http://www.w3.org/2000/svg">
<path d="M21.1851 25.7848C22.4646 26.1563 23.7903 26.3441 25.1226 26.3428C27.2652 26.3459 29.38 25.8573 31.3041 24.9148C31.361 23.5703 30.978 22.244 30.2133 21.1368C29.4485 20.0295 28.3437 19.2018 27.0661 18.779C25.7886 18.3562 24.4081 18.3615 23.1338 18.7939C21.8596 19.2263 20.761 20.0623 20.0046 21.1753M21.1851 25.7848V25.7803C21.1851 24.1108 20.7561 22.5403 20.0046 21.1753M21.1851 25.7848V25.9438C18.2983 27.6824 14.991 28.5985 11.6211 28.5928C8.12459 28.5928 4.8531 27.6253 2.0601 25.9438L2.0586 25.7803C2.05744 23.657 2.76301 21.5937 4.06407 19.9157C5.36512 18.2377 7.18765 17.0404 9.24433 16.5127C11.301 15.9849 13.4748 16.1567 15.4231 17.0009C17.3714 17.8451 18.9832 19.3138 20.0046 21.1753M16.6851 6.65527C16.6851 7.99793 16.1517 9.2856 15.2023 10.235C14.2529 11.1844 12.9653 11.7178 11.6226 11.7178C10.2799 11.7178 8.99227 11.1844 8.04287 10.235C7.09346 9.2856 6.5601 7.99793 6.5601 6.65527C6.5601 5.31261 7.09346 4.02495 8.04287 3.07555C8.99227 2.12614 10.2799 1.59277 11.6226 1.59277C12.9653 1.59277 14.2529 2.12614 15.2023 3.07555C16.1517 4.02495 16.6851 5.31261 16.6851 6.65527ZM29.0601 10.0303C29.0601 11.0746 28.6453 12.0761 27.9068 12.8145C27.1684 13.5529 26.1669 13.9678 25.1226 13.9678C24.0783 13.9678 23.0768 13.5529 22.3384 12.8145C21.5999 12.0761 21.1851 11.0746 21.1851 10.0303C21.1851 8.98598 21.5999 7.98446 22.3384 7.24604C23.0768 6.50762 24.0783 6.09277 25.1226 6.09277C26.1669 6.09277 27.1684 6.50762 27.9068 7.24604C28.6453 7.98446 29.0601 8.98598 29.0601 10.0303Z" stroke="black" stroke-width="2.25" stroke-linecap="round" stroke-linejoin="round"/>
</svg>
