<svg width="20" height="22" viewBox="0 0 20 22" fill="none" xmlns="http://www.w3.org/2000/svg">
<path d="M17.898 15H5.898C4.968 15 4.503 15 4.121 15.102C3.61231 15.2384 3.14849 15.5063 2.77618 15.8788C2.40386 16.2513 2.13616 16.7152 2 17.224" stroke="black" stroke-width="1.5"/>
<path d="M6 6H14M6 9.5H11M17.5 18H6M8 21C5.172 21 3.757 21 2.879 20.121C2 19.243 2 17.828 2 15V7C2 4.172 2 2.757 2.879 1.879C3.757 1 5.172 1 8 1H12C14.828 1 16.243 1 17.121 1.879C18 2.757 18 4.172 18 7M12 21C14.828 21 16.243 21 17.121 20.121C18 19.243 18 17.828 18 15V11" stroke="black" stroke-width="1.5" stroke-linecap="round"/>
</svg>
