<svg width="15" height="17" viewBox="0 0 15 17" fill="none" xmlns="http://www.w3.org/2000/svg">
<path d="M11.9756 9.00877C11.957 6.98741 13.6732 6.00401 13.7516 5.95823C12.7797 4.57658 11.2732 4.38781 10.7438 4.37275C9.47854 4.24293 8.25122 5.11093 7.60669 5.11093C6.94929 5.11093 5.95675 4.3853 4.88703 4.40662C3.51048 4.42732 2.2227 5.20438 1.51641 6.41105C0.0588153 8.87142 1.1459 12.487 2.5424 14.4758C3.24096 15.4498 4.05724 16.5373 5.12568 16.499C6.17096 16.457 6.56141 15.8493 7.82282 15.8493C9.07265 15.8493 9.4393 16.499 10.529 16.4746C11.6508 16.457 12.3571 15.4962 13.0312 14.5134C13.8385 13.3971 14.1627 12.2976 14.1755 12.2412C14.1492 12.2324 11.9969 11.4315 11.9756 9.00877Z" fill="white"/>
<path d="M9.91723 3.06448C10.4794 2.37899 10.8641 1.44639 10.7573 0.5C9.9436 0.535121 8.92599 1.04877 8.33999 1.71921C7.82153 2.31 7.35839 3.27835 7.47804 4.18899C8.39209 4.25547 9.33059 3.73932 9.91723 3.06448Z" fill="white"/>
</svg>
