<svg width="50" height="50" viewBox="0 0 50 50" fill="none" xmlns="http://www.w3.org/2000/svg">
<circle cx="25" cy="25" r="25" fill="#2A85FE"/>
<path d="M37.07 14.1103H31.94V12.4069C31.94 11.5033 31.5796 10.6368 30.9383 9.99786C30.2969 9.35894 29.427 9 28.52 9H21.68C20.7729 9 19.9031 9.35894 19.2617 9.99786C18.6203 10.6368 18.26 11.5033 18.26 12.4069V14.1103H13.13C11.7694 14.1103 10.4646 14.6487 9.50254 15.6071C8.54048 16.5655 8 17.8653 8 19.2207V34.5517C8 35.907 8.54048 37.2069 9.50254 38.1652C10.4646 39.1236 11.7694 39.662 13.13 39.662H37.07C38.4305 39.662 39.7354 39.1236 40.6974 38.1652C41.6595 37.2069 42.1999 35.907 42.1999 34.5517V19.2207C42.1999 17.8653 41.6595 16.5655 40.6974 15.6071C39.7354 14.6487 38.4305 14.1103 37.07 14.1103ZM21.68 12.4069H28.52V14.1103H21.68V12.4069ZM38.78 34.5517C38.78 35.0035 38.5998 35.4367 38.2791 35.7562C37.9584 36.0757 37.5235 36.2551 37.07 36.2551H13.13C12.6765 36.2551 12.2415 36.0757 11.9208 35.7562C11.6002 35.4367 11.42 35.0035 11.42 34.5517V26.0345H18.26V27.7379C18.26 28.1897 18.4401 28.623 18.7608 28.9424C19.0815 29.2619 19.5165 29.4413 19.97 29.4413C20.4235 29.4413 20.8584 29.2619 21.1791 28.9424C21.4998 28.623 21.68 28.1897 21.68 27.7379V26.0345H28.52V27.7379C28.52 28.1897 28.7001 28.623 29.0208 28.9424C29.3415 29.2619 29.7764 29.4413 30.23 29.4413C30.6835 29.4413 31.1184 29.2619 31.4391 28.9424C31.7598 28.623 31.94 28.1897 31.94 27.7379V26.0345H38.78V34.5517ZM38.78 22.6276H11.42V19.2207C11.42 18.7689 11.6002 18.3356 11.9208 18.0162C12.2415 17.6967 12.6765 17.5172 13.13 17.5172H37.07C37.5235 17.5172 37.9584 17.6967 38.2791 18.0162C38.5998 18.3356 38.78 18.7689 38.78 19.2207V22.6276Z" fill="white"/>
</svg>
