<svg width="120" height="104" viewBox="0 0 120 104" fill="none" xmlns="http://www.w3.org/2000/svg">
<path d="M60.1541 28.1516C64.1431 12.4051 79.209 4.36477 112.011 4.21768C112.535 4.2157 113.055 4.31753 113.54 4.5173C114.025 4.71706 114.465 5.01081 114.836 5.38162C115.207 5.75243 115.501 6.19296 115.7 6.67782C115.9 7.16268 116.002 7.68228 116 8.20667V80.0086C116 81.0665 115.58 82.0811 114.832 82.8292C114.084 83.5773 113.069 83.9976 112.011 83.9976C80.099 83.9976 67.7705 90.4323 60.1541 99.9536M60.1541 28.1516C56.1651 12.4051 41.0991 4.36477 8.29713 4.21768C7.77273 4.2157 7.25313 4.31753 6.76827 4.5173C6.28341 4.71706 5.84288 5.01081 5.47207 5.38162C5.10127 5.75243 4.80752 6.19296 4.60775 6.67782C4.40798 7.16268 4.30616 7.68228 4.30813 8.20667V79.5274C4.30813 81.9906 5.83392 83.9976 8.29713 83.9976C40.2091 83.9976 52.5824 90.4797 60.1541 99.9536M60.1541 28.1516V99.9536" stroke="#FF702D" stroke-width="7.97799" stroke-linecap="round" stroke-linejoin="round"/>
</svg>
