<svg width="94" height="93" viewBox="0 0 94 93" fill="none" xmlns="http://www.w3.org/2000/svg">
<path d="M82.9218 90.3733H49.3791V85.2129H82.9218H85.5021V82.6327V10.3867V7.8065H82.9218H49.3791V2.64607H82.9218C85.0697 2.64607 86.8457 3.38135 88.389 4.92467C89.9323 6.46791 90.6651 8.24122 90.6625 10.3836V10.3867V82.6327C90.6625 84.7819 89.9279 86.5585 88.3875 88.1014C86.8496 89.6419 85.076 90.3759 82.925 90.3733H82.9218ZM42.5415 49.0899H2.93522V43.9295H42.5415H48.7707L44.366 39.5248L32.9836 28.1424L36.5271 24.4056L58.6312 46.5097L36.5271 68.6138L32.9836 64.877L44.366 53.4946L48.7707 49.0899H42.5415Z" fill="black" stroke="#FF702D" stroke-width="5.16043"/>
</svg>
