<svg width="115" height="113" viewBox="0 0 115 113" fill="none" xmlns="http://www.w3.org/2000/svg">
<path d="M45.5663 106.954C40.5897 105.82 35.8094 103.952 31.3824 101.411M68.4437 6.55615C79.8147 9.15314 89.967 15.5338 97.2386 24.6533C104.51 33.7729 108.47 45.0911 108.47 56.7548C108.47 68.4186 104.51 79.7368 97.2386 88.8564C89.967 97.9759 79.8147 104.357 68.4437 106.954M14.5618 85.8835C11.4452 81.3488 9.07596 76.3438 7.54412 71.0589M6.24011 48.1758C7.15521 42.7424 8.91677 37.595 11.3875 32.8766L12.3541 31.1322M27.8764 14.3116C33.2308 10.6334 39.2331 8.00189 45.5663 6.55615" stroke="#FF702D" stroke-width="11.4387" stroke-linecap="round" stroke-linejoin="round"/>
<path d="M39.8468 56.7554L51.2855 68.1941L74.1629 45.3167" stroke="#FF702D" stroke-width="11.4387" stroke-linecap="round" stroke-linejoin="round"/>
</svg>
