<svg width="13" height="22" viewBox="0 0 13 22" fill="none" xmlns="http://www.w3.org/2000/svg">
<path d="M10.383 20.681L0.599157 11.7446C0.483028 11.6382 0.400577 11.523 0.351803 11.3989C0.303029 11.2748 0.279029 11.1418 0.279803 10.9999C0.279803 10.8581 0.303803 10.7251 0.351803 10.601C0.399803 10.4769 0.482254 10.3616 0.599157 10.2552L10.383 1.29227C10.654 1.04404 10.9927 0.919922 11.3991 0.919922C11.8056 0.919922 12.154 1.0529 12.4443 1.31887C12.7346 1.58483 12.8798 1.89512 12.8798 2.24974C12.8798 2.60435 12.7346 2.91464 12.4443 3.18061L3.90883 10.9999L12.4443 18.8192C12.7153 19.0675 12.8508 19.3735 12.8508 19.7373C12.8508 20.1012 12.7056 20.4157 12.4153 20.681C12.1249 20.9469 11.7862 21.0799 11.3991 21.0799C11.012 21.0799 10.6733 20.9469 10.383 20.681Z" fill="#7E7E7E"/>
</svg>
