<svg width="14" height="15" viewBox="0 0 14 15" fill="none" xmlns="http://www.w3.org/2000/svg">
<path d="M3.92 5.64931C3.92 5.42653 4.0085 5.21287 4.16603 5.05534C4.32356 4.89781 4.53722 4.80931 4.76 4.80931H9.24C9.46278 4.80931 9.67643 4.89781 9.83397 5.05534C9.9915 5.21287 10.08 5.42653 10.08 5.64931C10.08 5.8721 9.9915 6.08575 9.83397 6.24328C9.67643 6.40081 9.46278 6.48931 9.24 6.48931H4.76C4.53722 6.48931 4.32356 6.40081 4.16603 6.24328C4.0085 6.08575 3.92 5.8721 3.92 5.64931ZM6.16 7.60931H4.76C4.53722 7.60931 4.32356 7.69781 4.16603 7.85534C4.0085 8.01287 3.92 8.22653 3.92 8.44931C3.92 8.67209 4.0085 8.88575 4.16603 9.04328C4.32356 9.20081 4.53722 9.28931 4.76 9.28931H6.16C6.38278 9.28931 6.59644 9.20081 6.75397 9.04328C6.9115 8.88575 7 8.67209 7 8.44931C7 8.22653 6.9115 8.01287 6.75397 7.85534C6.59644 7.69781 6.38278 7.60931 6.16 7.60931ZM14 1.44932V9.05761C14.0005 9.24153 13.9645 9.42371 13.8941 9.59362C13.8237 9.76352 13.7202 9.91776 13.5898 10.0474L9.9981 13.6391C9.86845 13.7696 9.7142 13.873 9.5443 13.9434C9.3744 14.0138 9.19221 14.0498 9.0083 14.0493H1.4C1.0287 14.0493 0.672601 13.9018 0.41005 13.6393C0.1475 13.3767 0 13.0206 0 12.6493V1.44932C0 1.07801 0.1475 0.721918 0.41005 0.459367C0.672601 0.196816 1.0287 0.0493164 1.4 0.0493164H12.6C12.9713 0.0493164 13.3274 0.196816 13.5899 0.459367C13.8525 0.721918 14 1.07801 14 1.44932ZM1.68 12.3693H8.12V9.00931C8.12 8.78653 8.2085 8.57287 8.36603 8.41534C8.52356 8.25781 8.73721 8.16931 8.96 8.16931H12.32V1.72932H1.68V12.3693ZM11.41 9.84931H9.8V11.4593L11.41 9.84931Z" fill="#4B4B4B"/>
</svg>
