<svg width="20" height="21" viewBox="0 0 20 21" fill="none" xmlns="http://www.w3.org/2000/svg">
<path d="M10 0.466797C4.486 0.466797 0 4.9528 0 10.4668V14.6098C0 15.6338 0.897 16.4668 2 16.4668H3C3.26522 16.4668 3.51957 16.3614 3.70711 16.1739C3.89464 15.9864 4 15.732 4 15.4668V10.3238C4 10.0586 3.89464 9.80423 3.70711 9.61669C3.51957 9.42915 3.26522 9.3238 3 9.3238H2.092C2.648 5.4538 5.978 2.4668 10 2.4668C14.022 2.4668 17.352 5.4538 17.908 9.3238H17C16.7348 9.3238 16.4804 9.42915 16.2929 9.61669C16.1054 9.80423 16 10.0586 16 10.3238V16.4668C16 17.5698 15.103 18.4668 14 18.4668H12V17.4668H8V20.4668H14C16.206 20.4668 18 18.6728 18 16.4668C19.103 16.4668 20 15.6338 20 14.6098V10.4668C20 4.9528 15.514 0.466797 10 0.466797Z" fill="black"/>
</svg>
