<svg width="120" height="104" viewBox="0 0 120 104" fill="none" xmlns="http://www.w3.org/2000/svg">
<path d="M60.1545 28.1518C64.1435 12.4052 79.2095 4.3649 112.011 4.2178C112.536 4.21582 113.055 4.31765 113.54 4.51742C114.025 4.71718 114.466 5.01093 114.837 5.38174C115.207 5.75255 115.501 6.19308 115.701 6.67794C115.901 7.1628 116.002 7.6824 116 8.2068V80.0087C116 81.0666 115.58 82.0813 114.832 82.8293C114.084 83.5774 113.069 83.9977 112.011 83.9977C80.0995 83.9977 67.771 90.4324 60.1545 99.9537M60.1545 28.1518C56.1656 12.4052 41.0996 4.3649 8.29762 4.2178C7.77322 4.21582 7.25362 4.31765 6.76876 4.51742C6.2839 4.71718 5.84337 5.01093 5.47256 5.38174C5.10176 5.75255 4.808 6.19308 4.60824 6.67794C4.40847 7.1628 4.30664 7.6824 4.30862 8.2068V79.5275C4.30862 81.9907 5.83441 83.9977 8.29762 83.9977C40.2096 83.9977 52.5829 90.4798 60.1545 99.9537M60.1545 28.1518V99.9537" stroke="#FF702D" stroke-width="7.97799" stroke-linecap="round" stroke-linejoin="round"/>
</svg>
