<svg width="79" height="79" viewBox="0 0 79 79" fill="none" xmlns="http://www.w3.org/2000/svg">
<circle cx="39.5" cy="39.5" r="39.5" fill="white"/>
<path d="M54 29C55.3261 29 56.5979 28.4732 57.5355 27.5355C58.4732 26.5979 59 25.3261 59 24C59 22.6739 58.4732 21.4021 57.5355 20.4645C56.5979 19.5268 55.3261 19 54 19C52.6739 19 51.4021 19.5268 50.4645 20.4645C49.5268 21.4021 49 22.6739 49 24M54 29C52.6739 29 51.4021 28.4732 50.4645 27.5355C49.5268 26.5979 49 25.3261 49 24M54 29V49M49 24H29M29 54C29 55.3261 28.4732 56.5979 27.5355 57.5355C26.5979 58.4732 25.3261 59 24 59C22.6739 59 21.4021 58.4732 20.4645 57.5355C19.5268 56.5979 19 55.3261 19 54C19 52.6739 19.5268 51.4021 20.4645 50.4645C21.4021 49.5268 22.6739 49 24 49M29 54C29 52.6739 28.4732 51.4021 27.5355 50.4645C26.5979 49.5268 25.3261 49 24 49M29 54H49M24 49V29M29 19H19V29H29V19ZM59 49H49V59H59V49Z" stroke="#0E61D3" stroke-width="4" stroke-linecap="round" stroke-linejoin="round"/>
</svg>
