<svg width="79" height="80" viewBox="0 0 79 80" fill="none" xmlns="http://www.w3.org/2000/svg">
<circle cx="39.5" cy="40" r="39.5" fill="white"/>
<path d="M35.5131 17.4301L20.7823 25.6081C19.6326 26.249 18.6756 27.186 18.0104 28.3218C17.3453 29.4575 16.9964 30.7507 17 32.0669V47.9331C16.9969 49.2489 17.346 50.5415 18.0111 51.6768C18.6762 52.8121 19.633 53.7487 20.7823 54.3894L35.518 62.5699C36.6142 63.1799 37.8479 63.5 39.1024 63.5C40.3569 63.5 41.5906 63.1799 42.6868 62.5699L57.4225 54.3919C58.5721 53.751 59.5292 52.814 60.1943 51.6782C60.8594 50.5425 61.2083 49.2493 61.2047 47.9331V32.0669C61.2079 30.7511 60.8588 29.4585 60.1937 28.3232C59.5286 27.1879 58.5718 26.2513 57.4225 25.6106L42.6868 17.4301C41.5906 16.8201 40.3569 16.5 39.1024 16.5C37.8479 16.5 36.6142 16.8201 35.518 17.4301H35.5131Z" stroke="#8D001B" stroke-width="5"/>
<path d="M59.7067 27.6221L39.1009 40.0004M39.1009 40.0004L18.4951 27.6221M39.1009 40.0004V63.4756" stroke="#8D001B" stroke-width="5"/>
</svg>
