<svg width="115" height="113" viewBox="0 0 115 113" fill="none" xmlns="http://www.w3.org/2000/svg">
<path d="M45.5665 106.954C40.5898 105.82 35.8095 103.952 31.3825 101.411M68.4438 6.55615C79.8148 9.15314 89.9671 15.5338 97.2387 24.6533C104.51 33.7729 108.47 45.0911 108.47 56.7548C108.47 68.4186 104.51 79.7368 97.2387 88.8564C89.9671 97.9759 79.8148 104.357 68.4438 106.954M14.5619 85.8835C11.4454 81.3488 9.07608 76.3438 7.54424 71.0589M6.24023 48.1758C7.15533 42.7424 8.91689 37.595 11.3876 32.8766L12.3542 31.1322M27.8765 14.3116C33.231 10.6334 39.2333 8.00189 45.5665 6.55615" stroke="#FF702D" stroke-width="11.4387" stroke-linecap="round" stroke-linejoin="round"/>
<path d="M39.8467 56.7553L51.2854 68.194L74.1628 45.3167" stroke="#FF702D" stroke-width="11.4387" stroke-linecap="round" stroke-linejoin="round"/>
</svg>
