<svg width="25" height="27" viewBox="0 0 25 27" fill="none" xmlns="http://www.w3.org/2000/svg">
<path d="M21.1427 12.5871C20.4999 12.7543 19.857 12.8571 19.2141 12.8571C17.3397 12.8537 15.5431 12.1076 14.2176 10.7822C12.8922 9.4568 12.1461 7.66013 12.1427 5.78572C12.1427 3.89572 12.8884 2.18572 14.0713 0.912863C13.838 0.626844 13.5438 0.396482 13.2101 0.238563C12.8765 0.080644 12.5118 -0.000854363 12.1427 6.75345e-06C10.7284 6.75345e-06 9.57129 1.15715 9.57129 2.57143V2.94429C5.75272 4.07572 3.14272 7.58572 3.14272 11.5714V19.2857L0.571289 21.8571V23.1429H23.7141V21.8571L21.1427 19.2857V12.5871ZM12.1427 27C13.5699 27 14.7141 25.8557 14.7141 24.4286H9.57129C9.57129 25.1106 9.8422 25.7646 10.3244 26.2468C10.8067 26.7291 11.4607 27 12.1427 27Z" fill="#4B4B4B"/>
<circle cx="19.857" cy="5.14285" r="5.14285" fill="#FF702D"/>
</svg>
