<svg width="27" height="27" viewBox="0 0 27 27" fill="none" xmlns="http://www.w3.org/2000/svg">
<path d="M8.02972 20.7635C7.83169 20.7537 7.67212 20.7382 7.46837 20.6899C7.26461 20.6416 7.10504 20.6261 6.93975 20.572C6.57069 20.4698 6.23437 20.3233 5.89232 20.1384C5.21395 19.8069 4.62805 19.3045 4.14034 18.6695C3.65836 18.073 3.31303 17.3381 3.16573 16.6131C3.06999 16.2343 3.0569 15.8824 3.03807 15.4921C3.04789 15.294 3.06344 15.1345 3.07326 14.9364C3.08308 14.7384 3.13708 14.5731 3.1469 14.3751L3.26556 14.9078C3.2942 15.1001 3.35557 15.2482 3.42267 15.4348C3.51269 15.7752 3.64116 16.1099 3.76391 16.4061C4.01513 17.037 4.33754 17.618 4.76961 18.1433C5.20167 18.6687 5.66647 19.1499 6.24091 19.5754C6.50604 19.7718 6.80963 19.9624 7.11322 20.1531C7.24579 20.2513 7.41681 20.3437 7.58784 20.4362L8.02972 20.7635ZM8.12056 22.1653C8.01663 22.2594 7.86852 22.3208 7.72041 22.3821C7.5723 22.4435 7.46265 22.4991 7.30881 22.5221C7.04532 22.6006 6.74336 22.6849 6.42995 22.6923C5.84733 22.7397 5.20905 22.6775 4.66897 22.4828C4.09043 22.2938 3.5659 21.9394 3.18376 21.4853C2.99555 21.2774 2.80161 21.0311 2.64613 20.7791C2.59049 20.6694 2.52911 20.5213 2.46774 20.3732C2.45055 20.2578 2.39491 20.1482 2.372 19.9944C2.50456 20.0925 2.59867 20.1965 2.68704 20.2619C2.81961 20.3601 2.91371 20.4641 3.00209 20.5295C3.22303 20.6932 3.40551 20.8626 3.62073 20.9878C4.05688 21.2766 4.48731 21.527 4.9832 21.689C5.44063 21.8568 5.96925 21.9746 6.45368 22.0597C6.6959 22.1023 6.97085 22.1006 7.25152 22.1375C7.37263 22.1587 7.52647 22.1358 7.64758 22.1571C7.84561 22.1669 7.96099 22.1497 8.12056 22.1653ZM14.0286 2.17911C14.2266 2.18892 14.3919 2.24293 14.5957 2.29121C14.7994 2.33949 14.9647 2.3935 15.13 2.4475C15.5048 2.58825 15.8411 2.73472 16.1832 2.91966C16.8673 3.28953 17.4589 3.83042 17.9082 4.47115C18.3574 5.11187 18.6643 5.85243 18.7731 6.58317C18.8304 6.96777 18.8435 7.31964 18.8238 7.7157C18.814 7.91373 18.7985 8.07329 18.7502 8.27705C18.7019 8.48081 18.6864 8.64038 18.6324 8.80567L18.5137 8.27296C18.4851 8.08066 18.4622 7.92682 18.3951 7.74025L18.125 6.71901C17.9123 6.08238 17.5841 5.46293 17.1848 4.89339C16.7855 4.32386 16.3207 3.8427 15.7847 3.41146C15.5138 3.17661 15.2102 2.98594 14.9394 2.75109C14.8068 2.6529 14.6358 2.56043 14.4647 2.46796L14.0286 2.17911ZM17.3517 1.52691C17.5113 1.54245 17.6324 1.56373 17.7592 1.62346C17.8803 1.64474 18.0456 1.69875 18.1725 1.75848C18.4261 1.87795 18.6798 1.99742 18.9392 2.15535C19.4195 2.47694 19.8344 2.88691 20.1069 3.39671C20.4179 3.90078 20.5807 4.46622 20.5897 5.05458C20.5914 5.32953 20.5545 5.61021 20.5177 5.89088C20.4964 6.01199 20.4424 6.17729 20.4212 6.2984C20.3614 6.42523 20.3402 6.54634 20.242 6.67891L20.1847 6.29431L20.1274 5.90971C20.0873 5.64049 20.0145 5.41545 19.9801 5.18469C19.8287 4.69617 19.683 4.24611 19.4277 3.85169C19.1667 3.41881 18.8787 3.06858 18.5464 2.68561C18.3639 2.51623 18.1757 2.30838 17.9933 2.13899C17.8991 2.03507 17.8108 1.9696 17.6782 1.87141C17.5726 1.69057 17.4401 1.59237 17.3517 1.52691Z" fill="#FF702D"/>
<path d="M3.93644 9.38259C3.21879 9.8433 3.08705 10.8064 3.54776 11.5241L9.90025 20.9173L12.4034 19.2472L6.0452 9.81546C5.58449 9.09782 4.64836 8.88343 3.93644 9.38259ZM17.8639 15.5247L20.5095 13.7547L13.2527 3.04155C12.7536 2.32963 11.779 2.12097 11.0286 2.62586C10.3167 3.12503 10.108 4.09962 10.6129 4.85L17.8639 15.5247Z" fill="#FFDD67"/>
<path d="M11.0615 2.58173C10.9903 2.63165 10.9192 2.68157 10.8537 2.76994C11.5558 2.46881 12.3765 2.70038 12.8258 3.34111L20.0825 14.0542L20.5481 13.749L13.2914 3.03588C12.7865 2.2855 11.8119 2.07684 11.0615 2.58173Z" fill="#EBA352"/>
<path d="M12.3978 19.2087L15.1473 17.3446L7.74081 6.41789C7.23592 5.66752 6.17867 5.43185 5.4283 5.93674C4.67792 6.44164 4.48071 7.49315 4.98561 8.24353L12.3978 19.2087Z" fill="#FFDD67"/>
<path d="M5.43397 5.97521C5.36278 6.02513 5.29159 6.07504 5.22613 6.16342C5.92822 5.86228 6.8259 6.0824 7.28088 6.76159L11.8748 13.5862L12.7954 13.9601L7.74649 6.45636C7.23587 5.66752 6.22281 5.46459 5.43397 5.97521Z" fill="#EBA352"/>
<path d="M14.5483 16.4903L17.2978 14.6262L9.89132 3.69952C9.38643 2.94915 8.32919 2.71348 7.58454 3.25683C6.83416 3.76173 6.63695 4.81324 7.14185 5.56362L14.5483 16.4903Z" fill="#FFDD67"/>
<path d="M7.57869 3.21832C7.50749 3.26824 7.44203 3.35662 7.37084 3.40653C8.07294 3.1054 8.97061 3.32552 9.42559 4.0047L14.6243 11.7221L15.5449 12.096L9.8912 3.69947C9.38058 2.91064 8.32907 2.71343 7.57869 3.21832ZM3.93646 9.38259C3.86527 9.4325 3.79408 9.48242 3.72862 9.5708C4.39226 9.27539 5.17455 9.51269 5.58534 10.1591L9.36918 15.7678L10.2898 16.1417L6.05095 9.85392C5.58452 9.09781 4.64838 8.88342 3.93646 9.38259Z" fill="#EBA352"/>
<path d="M23.3023 5.31895C22.1436 4.66595 20.5831 5.80258 20.1494 8.69772C19.859 10.7066 19.868 11.295 18.7232 12.0552L17.8189 10.7353C17.8189 10.7353 7.68106 17.6311 8.23014 18.4143C8.23014 18.4143 10.145 22.2963 12.6563 23.8486C16.3878 26.202 23.6657 22.0123 22.9178 14.6148C22.4742 10.3171 24.5494 6.03741 23.3023 5.31895Z" fill="#FFDD67"/>
<path d="M23.3025 5.31881C23.0872 5.19361 22.845 5.15106 22.6085 5.14697C22.6527 5.17971 22.7297 5.16825 22.7738 5.20098C24.0594 5.91371 23.1707 8.12967 22.7919 10.0731C22.4711 11.6148 22.233 13.1835 22.5276 14.6335C23.7861 20.9721 17.8159 24.967 13.798 24.386C17.8019 25.4015 24.3549 21.3591 23.0562 14.7514C22.7616 13.3013 22.9727 11.8153 23.3205 10.191C23.6609 8.25323 24.5496 6.03727 23.3025 5.31881Z" fill="#EBA352"/>
<path d="M19.0464 11.8497C16.7019 12.4741 13.7119 16.4183 16.729 19.7823C14.36 16.2824 16.9433 13.303 18.6961 12.1377C18.8655 11.9553 19.0464 11.8497 19.0464 11.8497Z" fill="#EBA352"/>
</svg>
