<svg width="15" height="17" viewBox="0 0 15 17" fill="none" xmlns="http://www.w3.org/2000/svg">
<path d="M0.376774 1.18456C0.199935 1.36505 0.0975952 1.64605 0.0975952 2.00996V14.9904C0.0975952 15.3544 0.199935 15.6354 0.376774 15.8158L0.420419 15.8555L7.88075 8.58458V8.41289L0.420419 1.142L0.376774 1.18456Z" fill="white"/>
<path d="M11.2679 11.0093L8.78387 8.58442V8.41274L11.2709 5.98789L11.3266 6.01944L14.2719 7.65337C15.1124 8.11706 15.1124 8.8801 14.2719 9.34673L11.3266 10.9777L11.2679 11.0093Z" fill="white"/>
<path d="M10.8749 11.4294L8.33216 8.95027L0.828186 16.2674C1.10737 16.5535 1.56263 16.588 2.08035 16.3019L10.8749 11.4294Z" fill="white"/>
<path d="M10.8749 5.56822L2.08035 0.695771C1.56263 0.412566 1.10737 0.447048 0.828186 0.733188L8.33216 8.04736L10.8749 5.56822Z" fill="white"/>
</svg>
