<svg width="12" height="7" viewBox="0 0 12 7" fill="none" xmlns="http://www.w3.org/2000/svg">
<path fill-rule="evenodd" clip-rule="evenodd" d="M6.35356 6.85311C6.25981 6.94674 6.13272 6.99934 6.00022 6.99934C5.86772 6.99934 5.74064 6.94674 5.64689 6.85311L0.64689 1.85311C0.55857 1.75833 0.510488 1.63296 0.512773 1.50343C0.515059 1.37389 0.567533 1.2503 0.659142 1.1587C0.750751 1.06709 0.874341 1.01461 1.00387 1.01233C1.13341 1.01004 1.25877 1.05812 1.35356 1.14644L6.00022 5.79311L10.6469 1.14644C10.6927 1.09732 10.7479 1.05792 10.8092 1.03059C10.8705 1.00326 10.9367 0.988567 11.0039 0.987383C11.071 0.986198 11.1377 0.998548 11.2 1.02369C11.2622 1.04884 11.3188 1.08627 11.3662 1.13375C11.4137 1.18123 11.4512 1.23779 11.4763 1.30004C11.5015 1.3623 11.5138 1.42899 11.5126 1.49612C11.5114 1.56326 11.4967 1.62947 11.4694 1.6908C11.4421 1.75214 11.4027 1.80734 11.3536 1.85311L6.35356 6.85311Z" fill="black"/>
</svg>
